<svg width="24" height="24" viewBox="0 0 24 24" fill="none" xmlns="http://www.w3.org/2000/svg">
<path d="M8.60617 18.7902C8.63516 18.8192 8.69315 18.8772 8.72215 18.8772C8.86713 18.9352 8.98311 18.9642 9.09909 18.9932C9.21507 19.0222 9.18607 18.9642 8.98311 18.7322C9.07009 18.7322 9.0411 18.6162 9.27306 18.7902C9.36005 18.8482 9.38904 18.8192 9.38904 18.7902C9.44703 18.6742 9.62101 18.7032 9.62101 18.5292C9.62101 18.4712 9.70799 18.4423 9.76598 18.4423C9.85297 18.4423 9.91096 18.4133 9.91096 18.2973C9.88196 18.0363 10.1429 18.0653 10.2299 17.9203C10.2589 17.8913 10.3169 17.8913 10.2299 17.7754C10.2299 17.7464 10.1429 17.6594 10.2009 17.7174C10.4619 17.9203 10.4039 17.7754 10.4329 17.6884C10.4329 17.6594 10.4619 17.6594 10.4909 17.6884C10.7228 17.8623 10.6938 17.6884 10.6358 17.6014C10.6068 17.5144 10.5779 17.4564 10.6648 17.4854C10.8968 17.5144 11.0128 17.4274 11.0418 17.2244C11.0418 17.0795 11.2158 17.0505 11.3027 16.9345C11.4767 16.7315 11.7087 16.5865 11.7957 16.2966C11.8247 16.2676 11.9116 16.2676 11.9696 16.2096C11.9986 16.1806 12.0276 16.1516 11.9116 16.0356C11.7957 15.9197 11.8247 16.0356 11.7957 16.0356C11.7957 16.0356 11.7667 16.0356 11.7377 16.0356C11.6217 15.8907 11.5347 15.7457 11.7087 15.8327H11.7377C11.8536 15.8327 12.0276 15.9487 12.1436 15.9487C12.2596 15.9487 12.2306 15.8037 12.3466 15.8617C12.3176 15.8327 12.3176 15.8037 12.3176 15.7747C11.9986 15.4267 11.9696 15.2528 12.3176 15.4267C12.6655 15.6297 12.7815 15.5137 12.8395 15.3977C12.8975 15.2818 12.9845 15.1948 13.1004 15.1658H13.1294C13.1584 15.1078 13.2454 15.0788 13.2744 15.0208C13.3034 14.9338 13.1004 14.7888 13.0425 14.6729C12.9845 14.5859 13.0135 14.5859 13.0425 14.5569V14.5279L13.0715 14.5569C13.3324 14.9048 13.3324 14.8758 13.4774 14.8178C13.7963 14.7019 13.9123 14.3829 14.1443 14.1799C14.2603 14.035 14.4342 13.861 14.5792 13.658C14.6662 13.571 14.7242 13.455 14.8112 13.3391L14.9562 13.1941C15.0431 13.1361 15.1011 13.0781 15.1881 12.9911C15.3041 12.9041 15.3911 12.7882 15.4781 12.7012C15.5651 12.5852 15.623 12.4982 15.797 12.4112C15.826 12.3822 15.797 12.3822 15.797 12.3532C15.5361 12.3532 15.4201 12.3822 15.4201 12.4112C15.4491 12.5852 15.1591 12.7012 15.0141 12.7882C14.9272 12.8461 14.8692 12.9331 14.7822 13.0201C14.6952 12.8172 14.7242 12.7592 14.8112 12.7302C14.8982 12.7012 15.0431 12.6722 15.1011 12.6142C15.2171 12.4692 15.3621 12.3242 15.5071 12.2082C15.3911 12.0923 15.2751 11.9473 15.1301 11.8023C15.1011 11.7733 15.0141 11.7443 14.9562 11.7153C14.8982 11.6863 14.8402 11.6863 14.8112 11.6573C14.8112 11.5124 14.6952 11.3674 14.6082 11.2804C14.5212 11.1934 14.4052 11.1064 14.3183 11.0194C14.2893 11.0194 14.2893 10.9325 14.2893 10.8455C14.4922 10.6135 14.4342 10.5555 14.4052 10.4975C14.3183 10.4105 14.2603 10.2946 14.1443 10.2366C13.8253 10.0626 13.6224 9.74364 13.3904 9.48268C13.2454 9.30871 13.0135 9.25072 12.9265 8.98976C12.8975 8.93177 12.8395 8.96077 12.7525 9.04775C12.6655 9.16374 12.7235 9.13474 12.7235 9.19273C12.7235 9.19273 12.7235 9.22173 12.7235 9.27972C12.5205 9.19273 12.4336 8.98976 12.3466 8.84479C12.2306 8.67081 12.0566 8.58383 12.0566 8.35186C12.2306 8.46785 12.2886 8.69981 12.5495 8.7578C12.6075 8.55483 12.4915 8.38086 12.3176 8.23588C12.1726 8.1199 12.1146 7.91693 11.9986 7.80095C11.8826 7.68497 11.8826 7.42401 11.5927 7.45301C11.7377 7.71397 11.9116 7.94593 12.0276 8.23588C11.8536 8.35186 11.9406 8.20689 11.9116 8.20689C11.4187 7.62698 10.9258 7.01808 10.3749 6.46716C10.0559 6.14822 9.82397 5.74228 9.47603 5.45233C9.30206 5.30735 9.09909 5.16237 8.89612 5.0174C8.86713 4.9884 8.83813 4.9884 8.72215 5.07539C8.63516 5.16237 8.60617 5.22036 8.63516 5.24936C8.78014 5.36534 8.78014 5.56831 8.92512 5.68429C9.18607 5.94525 9.47603 6.17721 9.679 6.49616C9.91096 6.84411 10.2589 7.07607 10.4909 7.42401C10.7518 7.82995 11.1288 8.17789 11.3897 8.61282C11.6797 9.10574 12.0566 9.51168 12.4046 9.94661C12.7815 10.4105 13.1874 10.8455 13.6224 11.2804L14.2603 11.8893C14.3762 12.0053 14.5212 12.1213 14.6082 12.2372C14.5212 12.3242 14.4342 12.3822 14.3762 12.4402C14.3473 12.4402 14.3183 12.4692 14.2893 12.4982L14.2313 12.5272C14.2313 12.5272 14.2023 12.5562 14.1733 12.5852C14.0573 12.6722 13.9413 12.7592 13.8543 12.8751C13.3904 13.3391 12.9265 13.861 12.4046 14.2959C12.0856 14.5569 11.7377 14.7888 11.5057 15.1078C11.2737 15.3977 11.0418 15.7167 10.7518 15.9776C10.4039 16.2966 10.0559 16.6445 9.65 16.9055C9.41804 17.0505 9.27306 17.2824 9.0121 17.3984C8.69315 17.5144 8.57717 17.8623 8.25822 17.9203C8.20023 17.9493 8.14224 17.9783 8.14224 18.0653C8.20023 18.3263 8.14224 18.4712 8.02626 18.5872C7.99726 18.6162 8.02626 18.6452 8.11325 18.7322C8.46119 18.7612 8.46119 18.4423 8.80913 18.4712C8.69315 18.5002 8.78014 18.7612 8.63516 18.7612C8.57717 18.7612 8.57717 18.7902 8.60617 18.7902ZM13.6804 10.2656C13.5644 10.2656 13.5064 10.1786 13.5354 10.0336C13.3034 10.0046 12.9265 9.54068 12.9265 9.30871C13.1294 9.51168 13.3034 9.68565 13.4774 9.85962C13.5064 9.88862 13.5354 9.94661 13.5354 10.0336C13.5934 10.0916 13.6804 10.1496 13.6804 10.2656ZM14.1443 10.7005C13.9703 10.6715 13.8833 10.5555 13.8543 10.3815C14.0283 10.4395 14.1153 10.4975 14.1443 10.7005ZM14.2893 10.8455C14.2023 10.9035 14.1733 10.8455 14.2023 10.7585C14.3183 10.7295 14.2603 10.8165 14.2893 10.8455ZM14.5502 13.2521C14.6082 13.2231 14.5502 13.0491 14.6662 13.0781C14.6952 13.1941 14.6082 13.2231 14.5502 13.2521ZM14.2893 13.542L14.3762 13.4261L14.4052 13.4551L14.2893 13.542ZM13.7094 14.0929C13.6804 14.035 13.7094 14.006 13.7673 14.006C13.7963 14.064 13.8543 14.1509 13.7673 14.1219C13.7673 14.1509 13.7094 14.0929 13.7094 14.0929ZM12.8395 14.7598C12.8395 14.7308 12.8105 14.7018 12.8105 14.7018C12.8395 14.7018 12.8685 14.7308 12.8975 14.7308C12.9265 14.7598 12.9555 14.8178 12.9265 14.8178C12.8975 14.8178 12.8685 14.8178 12.8395 14.7598ZM12.6655 14.8758C12.6365 14.8468 12.6365 14.8468 12.6655 14.8758C12.6655 14.8468 12.6655 14.8468 12.6655 14.8468C12.6655 14.8468 12.6945 14.8468 12.6655 14.8758ZM12.3176 15.0788C12.3756 15.0498 12.4046 15.0498 12.4336 15.0498C12.4626 15.0498 12.4626 14.9918 12.5205 15.0788C12.5495 15.1078 12.5495 15.1368 12.5785 15.1658C12.6075 15.2238 12.5785 15.2238 12.5205 15.1948C12.4626 15.1658 12.4336 15.1368 12.3176 15.0788ZM11.8826 15.5427V15.5137C11.9116 15.5137 11.9116 15.5137 11.9696 15.5427V15.5717C11.9406 15.6007 11.9406 15.6297 11.8826 15.5427ZM11.4767 16.1226C11.4477 16.0936 11.4477 16.0646 11.4477 16.0936C11.4767 16.0936 11.4767 16.1226 11.5057 16.1516C11.5347 16.1806 11.5347 16.2096 11.5347 16.1806C11.5347 16.1516 11.5057 16.1226 11.4767 16.1226ZM11.3317 16.2676C11.3027 16.2386 11.3027 16.2096 11.3027 16.2096C11.3027 16.1806 11.3027 16.1806 11.3317 16.2096C11.3317 16.2386 11.3607 16.2676 11.3607 16.2676C11.3897 16.2966 11.3607 16.2966 11.3317 16.2676ZM10.8098 16.7025C10.8678 16.7025 10.9838 16.7315 11.0708 16.7895C10.9548 16.7895 10.9548 16.7895 10.8098 16.7025ZM10.4329 17.1665C10.4329 17.1375 10.4329 17.1375 10.4329 17.1665H10.4619C10.4909 17.1955 10.4909 17.1955 10.4619 17.1955C10.4619 17.1665 10.4329 17.1665 10.4329 17.1665ZM10.2879 17.2534C10.2879 17.2244 10.2589 17.1955 10.2879 17.1955C10.3169 17.1955 10.3459 17.1955 10.3749 17.2244C10.4329 17.2824 10.4039 17.2824 10.4039 17.2824C10.3749 17.2824 10.3459 17.2824 10.2879 17.2534ZM9.36005 17.9783H9.44703L9.47603 18.0073H9.44703C9.38904 17.9783 9.41804 18.0653 9.36005 17.9783ZM9.09909 18.2393V18.1523L9.12808 18.1813C9.09909 18.2103 9.12808 18.2683 9.09909 18.2393Z" fill="black"/>
<path d="M14.4632 10.7585C14.7532 10.7585 14.7822 10.9905 14.8691 11.1934C14.5502 11.2224 14.5792 10.9325 14.4632 10.7585Z" fill="black"/>
<path d="M15.652 12.1793C15.652 12.0633 15.3911 12.0053 15.536 11.8313C15.623 11.8893 15.739 11.9473 15.826 12.0053C15.913 12.0633 15.971 12.1213 16 12.1793C16 12.1793 16 12.2083 15.971 12.2083C15.942 12.2083 15.884 12.2083 15.826 12.2083C15.768 12.2083 15.739 12.2083 15.71 12.2083C15.681 12.2083 15.652 12.1793 15.652 12.1793Z" fill="black"/>
<path d="M11.3317 7.10505C11.4767 7.10505 11.5927 7.10505 11.4767 7.33701C11.3607 7.30802 11.2447 7.27902 11.3317 7.10505Z" fill="black"/>
<path d="M12.6075 8.9028C12.5785 8.8738 12.4625 8.93179 12.6075 8.78682C12.6945 8.67084 12.7815 8.67084 12.7815 8.72883C12.7815 8.78682 12.8975 8.75782 12.7525 8.9028C12.5785 9.04778 12.6365 8.93179 12.6075 8.9028Z" fill="black"/>
<path d="M12.2306 15.5427C12.2596 15.5137 12.3176 15.5427 12.3756 15.6297C12.4625 15.7167 12.4915 15.7747 12.4625 15.8037C12.4336 15.8327 12.3756 15.8037 12.3176 15.7457C12.2306 15.6297 12.2306 15.5717 12.2306 15.5427Z" fill="black"/>
<path d="M14.8981 11.3964C14.8691 11.3674 14.8981 11.3094 14.9561 11.2514C14.9851 11.2224 15.0431 11.1934 15.0721 11.2224C15.1301 11.2514 15.1301 11.3094 15.0431 11.3964C14.9851 11.4254 14.9271 11.4254 14.8981 11.3964Z" fill="black"/>
<path d="M15.2171 11.5414C15.3331 11.5414 15.4201 11.5993 15.3621 11.7153C15.2461 11.6283 15.1011 11.6573 15.2171 11.5414Z" fill="black"/>
<path d="M8.60619 5.20986C8.63519 5.18086 8.69318 5.12287 8.72217 5.12287C8.86715 5.06488 8.98313 5.03588 9.09911 5.00689C9.2151 4.97789 9.1861 5.03589 8.98313 5.26785C9.07012 5.26785 9.04112 5.38383 9.27309 5.20986C9.36007 5.15187 9.38907 5.18086 9.38907 5.20986C9.44706 5.32584 9.62103 5.29684 9.62103 5.47082C9.62103 5.52881 9.70802 5.5578 9.76601 5.5578C9.85299 5.5578 9.91098 5.5868 9.91098 5.70278C9.88199 5.96374 10.1429 5.93474 10.2299 6.07972C10.2589 6.10871 10.3169 6.10871 10.2299 6.2247C10.2299 6.25369 10.1429 6.34068 10.2009 6.28269C10.4619 6.07972 10.4039 6.2247 10.4329 6.31168C10.4329 6.34068 10.4619 6.34068 10.4909 6.31168C10.7229 6.13771 10.6939 6.31168 10.6359 6.39867C10.6069 6.48565 10.5779 6.54364 10.6649 6.51465C10.8968 6.48565 11.0128 6.57264 11.0418 6.77561C11.0418 6.92058 11.2158 6.94958 11.3028 7.06556C11.4767 7.26853 11.7087 7.41351 11.7957 7.70346C11.8247 7.73246 11.9117 7.73246 11.9697 7.79045C11.9987 7.81944 12.0276 7.84844 11.9117 7.96442C11.7957 8.0804 11.8247 7.96442 11.7957 7.96442C11.7957 7.96442 11.7667 7.96442 11.7377 7.96442C11.6217 8.10939 11.5347 8.25437 11.7087 8.16739H11.7377C11.8537 8.16739 12.0276 8.0514 12.1436 8.0514C12.2596 8.0514 12.2306 8.19638 12.3466 8.13839C12.3176 8.16739 12.3176 8.19638 12.3176 8.22538C11.9987 8.57332 11.9697 8.74729 12.3176 8.57332C12.6655 8.37035 12.7815 8.48633 12.8395 8.60232C12.8975 8.7183 12.9845 8.80528 13.1005 8.83428H13.1295C13.1585 8.89227 13.2455 8.92127 13.2744 8.97926C13.3034 9.06624 13.1005 9.21122 13.0425 9.3272C12.9845 9.41419 13.0135 9.41419 13.0425 9.44318V9.47218L13.0715 9.44318C13.3324 9.09524 13.3324 9.12423 13.4774 9.18222C13.7964 9.29821 13.9123 9.61715 14.1443 9.82012C14.2603 9.9651 14.4343 10.1391 14.5792 10.342C14.6662 10.429 14.7242 10.545 14.8112 10.661L14.9562 10.806C15.0432 10.864 15.1012 10.9219 15.1881 11.0089C15.3041 11.0959 15.3911 11.2119 15.4781 11.2989C15.5651 11.4149 15.6231 11.5019 15.797 11.5888C15.826 11.6178 15.797 11.6178 15.797 11.6468C15.5361 11.6468 15.4201 11.6178 15.4201 11.5888C15.4491 11.4149 15.1591 11.2989 15.0142 11.2119C14.9272 11.1539 14.8692 11.0669 14.7822 10.9799C14.6952 11.1829 14.7242 11.2409 14.8112 11.2699C14.8982 11.2989 15.0432 11.3279 15.1012 11.3859C15.2171 11.5308 15.3621 11.6758 15.5071 11.7918C15.3911 11.9078 15.2751 12.0528 15.1302 12.1977C15.1012 12.2267 15.0142 12.2557 14.9562 12.2847C14.8982 12.3137 14.8402 12.3137 14.8112 12.3427C14.8112 12.4877 14.6952 12.6327 14.6082 12.7197C14.5212 12.8066 14.4053 12.8936 14.3183 12.9806C14.2893 12.9806 14.2893 13.0676 14.2893 13.1546C14.4923 13.3866 14.4343 13.4445 14.4053 13.5025C14.3183 13.5895 14.2603 13.7055 14.1443 13.7635C13.8254 13.9375 13.6224 14.2564 13.3904 14.5174C13.2455 14.6913 13.0135 14.7493 12.9265 15.0103C12.8975 15.0683 12.8395 15.0393 12.7525 14.9523C12.6655 14.8363 12.7235 14.8653 12.7235 14.8073C12.7235 14.8073 12.7235 14.7783 12.7235 14.7203C12.5206 14.8073 12.4336 15.0103 12.3466 15.1553C12.2306 15.3292 12.0566 15.4162 12.0566 15.6482C12.2306 15.5322 12.2886 15.3002 12.5496 15.2423C12.6076 15.4452 12.4916 15.6192 12.3176 15.7642C12.1726 15.8802 12.1146 16.0831 11.9987 16.1991C11.8827 16.3151 11.8827 16.576 11.5927 16.547C11.7377 16.2861 11.9117 16.0541 12.0276 15.7642C11.8537 15.6482 11.9407 15.7932 11.9117 15.7932C11.4187 16.3731 10.9258 16.982 10.3749 17.5329C10.056 17.8518 9.824 18.2578 9.47605 18.5477C9.30208 18.6927 9.09911 18.8377 8.89615 18.9827C8.86715 19.0117 8.83815 19.0117 8.72217 18.9247C8.63519 18.8377 8.60619 18.7797 8.63519 18.7507C8.78016 18.6347 8.78016 18.4317 8.92514 18.3158C9.1861 18.0548 9.47605 17.8228 9.67902 17.5039C9.91098 17.156 10.2589 16.924 10.4909 16.576C10.7518 16.1701 11.1288 15.8222 11.3897 15.3872C11.6797 14.8943 12.0566 14.4884 12.4046 14.0534C12.7815 13.5895 13.1875 13.1546 13.6224 12.7197L14.2603 12.1108C14.3763 11.9948 14.5212 11.8788 14.6082 11.7628C14.5212 11.6758 14.4343 11.6178 14.3763 11.5598C14.3473 11.5598 14.3183 11.5308 14.2893 11.5019L14.2313 11.4729C14.2313 11.4729 14.2023 11.4439 14.1733 11.4149C14.0573 11.3279 13.9413 11.2409 13.8544 11.1249C13.3904 10.661 12.9265 10.1391 12.4046 9.70414C12.0856 9.44318 11.7377 9.21122 11.5057 8.89227C11.2738 8.60232 11.0418 8.28337 10.7518 8.02241C10.4039 7.70346 10.056 7.35552 9.65003 7.09456C9.41806 6.94958 9.27309 6.71762 9.01213 6.60163C8.69318 6.48565 8.5772 6.13771 8.25825 6.07972C8.20026 6.05072 8.14227 6.02173 8.14227 5.93474C8.20026 5.67378 8.14227 5.52881 8.02628 5.41283C7.99729 5.38383 8.02628 5.35483 8.11327 5.26785C8.46122 5.23885 8.46122 5.5578 8.80916 5.52881C8.69318 5.49981 8.78016 5.23885 8.63519 5.23885C8.5772 5.23885 8.5772 5.20986 8.60619 5.20986ZM13.6804 13.7345C13.5644 13.7345 13.5064 13.8215 13.5354 13.9665C13.3034 13.9955 12.9265 14.4594 12.9265 14.6913C13.1295 14.4884 13.3034 14.3144 13.4774 14.1404C13.5064 14.1114 13.5354 14.0534 13.5354 13.9665C13.5934 13.9085 13.6804 13.8505 13.6804 13.7345ZM14.1443 13.2996C13.9703 13.3286 13.8833 13.4445 13.8544 13.6185C14.0283 13.5605 14.1153 13.5025 14.1443 13.2996ZM14.2893 13.1546C14.2023 13.0966 14.1733 13.1546 14.2023 13.2416C14.3183 13.2706 14.2603 13.1836 14.2893 13.1546ZM14.5502 10.748C14.6082 10.777 14.5502 10.9509 14.6662 10.9219C14.6952 10.806 14.6082 10.777 14.5502 10.748ZM14.2893 10.458L14.3763 10.574L14.4053 10.545L14.2893 10.458ZM13.7094 9.90711C13.6804 9.9651 13.7094 9.99409 13.7674 9.99409C13.7964 9.9361 13.8544 9.84912 13.7674 9.87811C13.7674 9.84912 13.7094 9.90711 13.7094 9.90711ZM12.8395 9.24021C12.8395 9.26921 12.8105 9.29821 12.8105 9.29821C12.8395 9.29821 12.8685 9.26921 12.8975 9.26921C12.9265 9.24021 12.9555 9.18222 12.9265 9.18222C12.8975 9.18222 12.8685 9.18222 12.8395 9.24021ZM12.6655 9.12423C12.6365 9.15323 12.6365 9.15323 12.6655 9.12423C12.6655 9.15323 12.6655 9.15323 12.6655 9.15323C12.6655 9.15323 12.6945 9.15323 12.6655 9.12423ZM12.3176 8.92126C12.3756 8.95026 12.4046 8.95026 12.4336 8.95026C12.4626 8.95026 12.4626 9.00825 12.5206 8.92126C12.5496 8.89227 12.5496 8.86327 12.5786 8.83428C12.6076 8.77629 12.5786 8.77629 12.5206 8.80528C12.4626 8.83428 12.4336 8.86327 12.3176 8.92126ZM11.8827 8.45734V8.48633C11.9117 8.48633 11.9117 8.48633 11.9697 8.45734V8.42834C11.9407 8.39935 11.9407 8.37035 11.8827 8.45734ZM11.4767 7.87743C11.4477 7.90643 11.4477 7.93542 11.4477 7.90643C11.4767 7.90643 11.4767 7.87743 11.5057 7.84844C11.5347 7.81944 11.5347 7.79045 11.5347 7.81944C11.5347 7.84844 11.5057 7.87743 11.4767 7.87743ZM11.3318 7.73246C11.3028 7.76145 11.3028 7.79045 11.3028 7.79045C11.3028 7.81944 11.3028 7.81944 11.3318 7.79045C11.3318 7.76145 11.3608 7.73246 11.3608 7.73246C11.3897 7.70346 11.3608 7.70346 11.3318 7.73246ZM10.8098 7.29752C10.8678 7.29752 10.9838 7.26853 11.0708 7.21054C10.9548 7.21054 10.9548 7.21054 10.8098 7.29752ZM10.4329 6.8336C10.4329 6.86259 10.4329 6.86259 10.4329 6.8336H10.4619C10.4909 6.8046 10.4909 6.8046 10.4619 6.8046C10.4619 6.8336 10.4329 6.8336 10.4329 6.8336ZM10.2879 6.74661C10.2879 6.77561 10.2589 6.8046 10.2879 6.8046C10.3169 6.8046 10.3459 6.8046 10.3749 6.77561C10.4329 6.71762 10.4039 6.71762 10.4039 6.71762C10.3749 6.71762 10.3459 6.71762 10.2879 6.74661ZM9.36007 6.02173H9.44706L9.47605 5.99273H9.44706C9.38907 6.02173 9.41806 5.93474 9.36007 6.02173ZM9.09911 5.76077V5.84776L9.12811 5.81876C9.09911 5.78977 9.12811 5.73177 9.09911 5.76077Z" fill="black"/>
<path d="M14.4632 13.2416C14.7532 13.2416 14.7822 13.0096 14.8692 12.8066C14.5502 12.7776 14.5792 13.0676 14.4632 13.2416Z" fill="black"/>
<path d="M15.6521 11.8208C15.6521 11.9368 15.3911 11.9948 15.5361 12.1687C15.6231 12.1108 15.739 12.0528 15.826 11.9948C15.913 11.9368 15.971 11.8788 16 11.8208C16 11.8208 16 11.7918 15.971 11.7918C15.942 11.7918 15.884 11.7918 15.826 11.7918C15.768 11.7918 15.739 11.7918 15.71 11.7918C15.6811 11.7918 15.6521 11.8208 15.6521 11.8208Z" fill="black"/>
<path d="M11.3317 16.895C11.4767 16.895 11.5927 16.895 11.4767 16.663C11.3607 16.692 11.2447 16.721 11.3317 16.895Z" fill="black"/>
<path d="M12.6076 15.0973C12.5786 15.1263 12.4626 15.0683 12.6076 15.2132C12.6945 15.3292 12.7815 15.3292 12.7815 15.2712C12.7815 15.2132 12.8975 15.2422 12.7525 15.0973C12.5786 14.9523 12.6365 15.0683 12.6076 15.0973Z" fill="black"/>
<path d="M12.2306 8.45735C12.2596 8.48635 12.3176 8.45735 12.3756 8.37037C12.4626 8.28338 12.4916 8.22539 12.4626 8.19639C12.4336 8.1674 12.3756 8.19639 12.3176 8.25438C12.2306 8.37036 12.2306 8.42836 12.2306 8.45735Z" fill="black"/>
<path d="M14.8982 12.6037C14.8692 12.6327 14.8982 12.6906 14.9562 12.7486C14.9851 12.7776 15.0431 12.8066 15.0721 12.7776C15.1301 12.7486 15.1301 12.6906 15.0431 12.6037C14.9851 12.5747 14.9272 12.5747 14.8982 12.6037Z" fill="black"/>
<path d="M15.2171 12.4587C15.3331 12.4587 15.4201 12.4007 15.3621 12.2847C15.2461 12.3717 15.1011 12.3427 15.2171 12.4587Z" fill="black"/>
</svg>
