<svg width="32" height="32" viewBox="0 0 32 32" fill="none" xmlns="http://www.w3.org/2000/svg">
<path d="M20.5251 25.0536C20.4864 25.0923 20.4091 25.1696 20.3704 25.1696C20.1771 25.2469 20.0225 25.2856 19.8678 25.3242C19.7132 25.3629 19.7519 25.2856 20.0225 24.9763C19.9065 24.9763 19.9452 24.8217 19.6359 25.0536C19.5199 25.1309 19.4812 25.0923 19.4812 25.0536C19.4039 24.899 19.172 24.9376 19.172 24.7057C19.172 24.6283 19.056 24.5897 18.9787 24.5897C18.8627 24.5897 18.7853 24.551 18.7853 24.3964C18.824 24.0484 18.4761 24.0871 18.3601 23.8938C18.3214 23.8551 18.2441 23.8551 18.3601 23.7005C18.3601 23.6618 18.4761 23.5459 18.3987 23.6232C18.0508 23.8938 18.1281 23.7005 18.0895 23.5845C18.0895 23.5459 18.0508 23.5459 18.0121 23.5845C17.7029 23.8165 17.7415 23.5845 17.8188 23.4685C17.8575 23.3526 17.8962 23.2752 17.7802 23.3139C17.4709 23.3526 17.3162 23.2366 17.2776 22.9659C17.2776 22.7726 17.0456 22.734 16.9296 22.5793C16.6977 22.3087 16.3884 22.1154 16.2724 21.7288C16.2338 21.6902 16.1178 21.6902 16.0405 21.6128C16.0018 21.5742 15.9631 21.5355 16.1178 21.3809C16.2724 21.2262 16.2338 21.3809 16.2724 21.3809C16.2724 21.3809 16.3111 21.3809 16.3497 21.3809C16.5044 21.1876 16.6204 20.9943 16.3884 21.1102H16.3497C16.1951 21.1102 15.9631 21.2649 15.8085 21.2649C15.6538 21.2649 15.6925 21.0716 15.5379 21.1489C15.5765 21.1102 15.5765 21.0716 15.5765 21.0329C16.0018 20.569 16.0405 20.337 15.5765 20.569C15.1126 20.8396 14.958 20.685 14.8806 20.5303C14.8033 20.3757 14.6873 20.2597 14.5327 20.2211H14.494C14.4554 20.1437 14.3394 20.1051 14.3007 20.0278C14.2621 19.9118 14.5327 19.7185 14.61 19.5638C14.6873 19.4478 14.6487 19.4478 14.61 19.4092V19.3705L14.5714 19.4092C14.2234 19.8731 14.2234 19.8344 14.0301 19.7571C13.6048 19.6025 13.4502 19.1772 13.1409 18.9066C12.9863 18.7133 12.7543 18.4813 12.561 18.2107C12.445 18.0947 12.3677 17.9401 12.2517 17.7854L12.0584 17.5921C11.9424 17.5148 11.8651 17.4375 11.7491 17.3215C11.5945 17.2055 11.4785 17.0509 11.3625 16.9349C11.2466 16.7803 11.1692 16.6643 10.9373 16.5483C10.8986 16.5096 10.9373 16.5096 10.9373 16.471C11.2852 16.471 11.4399 16.5096 11.4399 16.5483C11.4012 16.7803 11.7878 16.9349 11.9811 17.0509C12.0971 17.1282 12.1744 17.2442 12.2904 17.3602C12.4064 17.0896 12.3677 17.0122 12.2517 16.9736C12.1357 16.9349 11.9424 16.8963 11.8651 16.8189C11.7105 16.6256 11.5172 16.4323 11.3239 16.2777C11.4785 16.123 11.6332 15.9297 11.8265 15.7364C11.8651 15.6978 11.9811 15.6591 12.0584 15.6205C12.1357 15.5818 12.2131 15.5818 12.2517 15.5431C12.2517 15.3498 12.4064 15.1565 12.5223 15.0405C12.6383 14.9246 12.793 14.8086 12.909 14.6926C12.9476 14.6926 12.9476 14.5766 12.9476 14.4606C12.677 14.1514 12.7543 14.074 12.793 13.9967C12.909 13.8807 12.9863 13.7261 13.1409 13.6488C13.5662 13.4168 13.8368 12.9915 14.1461 12.6436C14.3394 12.4116 14.6487 12.3343 14.7647 11.9864C14.8033 11.909 14.8806 11.9477 14.9966 12.0637C15.1126 12.2183 15.0353 12.1797 15.0353 12.257C15.0353 12.257 15.0353 12.2957 15.0353 12.373C15.3059 12.257 15.4219 11.9864 15.5379 11.7931C15.6925 11.5611 15.9245 11.4451 15.9245 11.1358C15.6925 11.2905 15.6152 11.5998 15.2672 11.6771C15.1899 11.4065 15.3446 11.1745 15.5765 10.9812C15.7698 10.8266 15.8472 10.5559 16.0018 10.4013C16.1564 10.2466 16.1564 9.8987 16.543 9.93736C16.3497 10.2853 16.1178 10.5946 15.9631 10.9812C16.1951 11.1358 16.0791 10.9425 16.1178 10.9425C16.775 10.1693 17.4322 9.35746 18.1668 8.62291C18.592 8.19764 18.9013 7.65639 19.3653 7.26979C19.5972 7.07649 19.8678 6.88318 20.1385 6.68988C20.1771 6.65122 20.2158 6.65122 20.3704 6.7672C20.4864 6.88318 20.5251 6.96051 20.4864 6.99917C20.2931 7.15381 20.2931 7.42443 20.0998 7.57907C19.7519 7.92702 19.3653 8.2363 19.0946 8.66157C18.7853 9.12549 18.3214 9.43478 18.0121 9.8987C17.6642 10.4399 17.1616 10.9039 16.8137 11.4838C16.4271 12.141 15.9245 12.6823 15.4605 13.2622C14.958 13.8807 14.4167 14.4606 13.8368 15.0405L12.9863 15.8524C12.8316 16.0071 12.6383 16.1617 12.5223 16.3163C12.6383 16.4323 12.7543 16.5096 12.8316 16.587C12.8703 16.587 12.909 16.6256 12.9476 16.6643L13.0249 16.703C13.0249 16.703 13.0636 16.7416 13.1023 16.7803C13.2569 16.8963 13.4115 17.0122 13.5275 17.1669C14.1461 17.7854 14.7647 18.4813 15.4605 19.0612C15.8858 19.4092 16.3497 19.7185 16.659 20.1437C16.9683 20.5303 17.2776 20.9556 17.6642 21.3035C18.1281 21.7288 18.592 22.1927 19.1333 22.5407C19.4426 22.734 19.6359 23.0433 19.9838 23.1979C20.4091 23.3526 20.5637 23.8165 20.989 23.8938C21.0663 23.9325 21.1436 23.9711 21.1436 24.0871C21.0663 24.435 21.1436 24.6284 21.2983 24.783C21.3369 24.8217 21.2983 24.8603 21.1823 24.9763C20.7184 25.015 20.7184 24.5897 20.2544 24.6283C20.4091 24.667 20.2931 25.015 20.4864 25.015C20.5637 25.015 20.5637 25.0536 20.5251 25.0536ZM13.7595 13.6874C13.9141 13.6874 13.9914 13.5714 13.9528 13.3781C14.2621 13.3395 14.7647 12.7209 14.7647 12.4116C14.494 12.6823 14.2621 12.9142 14.0301 13.1462C13.9914 13.1848 13.9528 13.2622 13.9528 13.3781C13.8755 13.4555 13.7595 13.5328 13.7595 13.6874ZM13.1409 14.2673C13.3729 14.2287 13.4889 14.074 13.5275 13.8421C13.2956 13.9194 13.1796 13.9967 13.1409 14.2673ZM12.9476 14.4606C13.0636 14.538 13.1023 14.4606 13.0636 14.3447C12.909 14.306 12.9863 14.422 12.9476 14.4606ZM12.5997 17.6695C12.5223 17.6308 12.5997 17.3988 12.445 17.4375C12.4064 17.5921 12.5223 17.6308 12.5997 17.6695ZM12.9476 18.0561L12.8316 17.9014L12.793 17.9401L12.9476 18.0561ZM13.7208 18.7906C13.7595 18.7133 13.7208 18.6746 13.6435 18.6746C13.6048 18.752 13.5275 18.8679 13.6435 18.8293C13.6435 18.8679 13.7208 18.7906 13.7208 18.7906ZM14.8806 19.6798C14.8806 19.6411 14.9193 19.6025 14.9193 19.6025C14.8806 19.6025 14.842 19.6411 14.8033 19.6411C14.7647 19.6798 14.726 19.7571 14.7647 19.7571C14.8033 19.7571 14.842 19.7571 14.8806 19.6798ZM15.1126 19.8344C15.1513 19.7958 15.1513 19.7958 15.1126 19.8344C15.1126 19.7958 15.1126 19.7958 15.1126 19.7958C15.1126 19.7958 15.0739 19.7958 15.1126 19.8344ZM15.5765 20.1051C15.4992 20.0664 15.4605 20.0664 15.4219 20.0664C15.3832 20.0664 15.3832 19.9891 15.3059 20.1051C15.2672 20.1437 15.2672 20.1824 15.2286 20.2211C15.1899 20.2984 15.2286 20.2984 15.3059 20.2597C15.3832 20.2211 15.4219 20.1824 15.5765 20.1051ZM16.1564 20.7236V20.685C16.1178 20.685 16.1178 20.685 16.0405 20.7236V20.7623C16.0791 20.801 16.0791 20.8396 16.1564 20.7236ZM16.6977 21.4968C16.7363 21.4582 16.7363 21.4195 16.7363 21.4582C16.6977 21.4582 16.6977 21.4969 16.659 21.5355C16.6204 21.5742 16.6204 21.6128 16.6204 21.5742C16.6204 21.5355 16.659 21.4968 16.6977 21.4968ZM16.891 21.6902C16.9296 21.6515 16.9296 21.6128 16.9296 21.6128C16.9296 21.5742 16.9296 21.5742 16.891 21.6128C16.891 21.6515 16.8523 21.6902 16.8523 21.6902C16.8137 21.7288 16.8523 21.7288 16.891 21.6902ZM17.5869 22.2701C17.5096 22.2701 17.3549 22.3087 17.2389 22.386C17.3936 22.386 17.3936 22.386 17.5869 22.2701ZM18.0895 22.8886C18.0895 22.85 18.0895 22.85 18.0895 22.8886H18.0508C18.0121 22.9273 18.0121 22.9273 18.0508 22.9273C18.0508 22.8886 18.0895 22.8886 18.0895 22.8886ZM18.2828 23.0046C18.2828 22.966 18.3214 22.9273 18.2828 22.9273C18.2441 22.9273 18.2054 22.9273 18.1668 22.9659C18.0895 23.0433 18.1281 23.0433 18.1281 23.0433C18.1668 23.0433 18.2054 23.0433 18.2828 23.0046ZM19.5199 23.9711H19.4039L19.3653 24.0098H19.4039C19.4812 23.9711 19.4426 24.0871 19.5199 23.9711ZM19.8678 24.3191V24.2031L19.8292 24.2417C19.8678 24.2804 19.8292 24.3577 19.8678 24.3191Z" fill="black"/>
<path d="M12.7157 14.3447C12.3291 14.3447 12.2904 14.654 12.1744 14.9246C12.5997 14.9632 12.561 14.5766 12.7157 14.3447Z" fill="black"/>
<path d="M11.1306 16.239C11.1306 16.0844 11.4785 16.0071 11.2852 15.7751C11.1692 15.8524 11.0146 15.9297 10.8986 16.0071C10.7826 16.0844 10.7053 16.1617 10.6667 16.239C10.6667 16.239 10.6667 16.2777 10.7053 16.2777C10.744 16.2777 10.8213 16.2777 10.8986 16.2777C10.9759 16.2777 11.0146 16.2777 11.0533 16.2777C11.0919 16.2777 11.1306 16.239 11.1306 16.239Z" fill="black"/>
<path d="M16.891 9.47342C16.6977 9.47342 16.5431 9.47342 16.6977 9.78271C16.8524 9.74404 17.007 9.70538 16.891 9.47342Z" fill="black"/>
<path d="M15.1899 11.8704C15.2286 11.8318 15.3832 11.9091 15.1899 11.7158C15.0739 11.5611 14.958 11.5611 14.958 11.6385C14.958 11.7158 14.8033 11.6771 14.9966 11.8704C15.2286 12.0637 15.1513 11.9091 15.1899 11.8704Z" fill="black"/>
<path d="M15.6925 20.7236C15.6539 20.685 15.5765 20.7236 15.4992 20.8396C15.3832 20.9556 15.3446 21.0329 15.3832 21.0716C15.4219 21.1102 15.4992 21.0716 15.5765 20.9942C15.6925 20.8396 15.6925 20.7623 15.6925 20.7236Z" fill="black"/>
<path d="M12.1358 15.1952C12.1744 15.1566 12.1358 15.0792 12.0585 15.0019C12.0198 14.9633 11.9425 14.9246 11.9038 14.9633C11.8265 15.0019 11.8265 15.0792 11.9425 15.1952C12.0198 15.2339 12.0971 15.2339 12.1358 15.1952Z" fill="black"/>
<path d="M11.7105 15.3885C11.5559 15.3885 11.4399 15.4658 11.5172 15.6205C11.6718 15.5045 11.8651 15.5431 11.7105 15.3885Z" fill="black"/>
<path d="M20.525 6.9465C20.4864 6.90784 20.4091 6.83052 20.3704 6.83052C20.1771 6.75319 20.0225 6.71453 19.8678 6.67587C19.7132 6.63721 19.7518 6.71453 20.0225 7.02382C19.9065 7.02382 19.9451 7.17846 19.6358 6.9465C19.5199 6.86918 19.4812 6.90784 19.4812 6.9465C19.4039 7.10114 19.1719 7.06248 19.1719 7.29444C19.1719 7.37176 19.0559 7.41042 18.9786 7.41042C18.8626 7.41042 18.7853 7.44908 18.7853 7.60373C18.824 7.95167 18.476 7.91301 18.36 8.10631C18.3214 8.14497 18.2441 8.14497 18.36 8.29961C18.36 8.33827 18.476 8.45426 18.3987 8.37694C18.0508 8.10631 18.1281 8.29961 18.0894 8.41559C18.0894 8.45426 18.0508 8.45426 18.0121 8.41559C17.7028 8.18363 17.7415 8.4156 17.8188 8.53158C17.8575 8.64756 17.8961 8.72488 17.7801 8.68622C17.4709 8.64756 17.3162 8.76354 17.2776 9.03416C17.2776 9.22747 17.0456 9.26613 16.9296 9.42077C16.6976 9.69139 16.3884 9.88469 16.2724 10.2713C16.2337 10.31 16.1177 10.31 16.0404 10.3873C16.0018 10.4259 15.9631 10.4646 16.1177 10.6192C16.2724 10.7739 16.2337 10.6192 16.2724 10.6192C16.2724 10.6192 16.311 10.6192 16.3497 10.6192C16.5043 10.8125 16.6203 11.0058 16.3884 10.8899H16.3497C16.1951 10.8899 15.9631 10.7352 15.8085 10.7352C15.6538 10.7352 15.6925 10.9285 15.5378 10.8512C15.5765 10.8899 15.5765 10.9285 15.5765 10.9672C16.0018 11.4311 16.0404 11.6631 15.5765 11.4311C15.1126 11.1605 14.9579 11.3151 14.8806 11.4698C14.8033 11.6244 14.6873 11.7404 14.5327 11.7791H14.494C14.4553 11.8564 14.3394 11.895 14.3007 11.9724C14.262 12.0883 14.5327 12.2816 14.61 12.4363C14.6873 12.5523 14.6486 12.5523 14.61 12.5909V12.6296L14.5713 12.5909C14.2234 12.127 14.2234 12.1657 14.0301 12.243C13.6048 12.3976 13.4502 12.8229 13.1409 13.0935C12.9862 13.2868 12.7543 13.5188 12.561 13.7894C12.445 13.9054 12.3677 14.06 12.2517 14.2147L12.0584 14.408C11.9424 14.4853 11.8651 14.5626 11.7491 14.6786C11.5945 14.7946 11.4785 14.9492 11.3625 15.0652C11.2465 15.2198 11.1692 15.3358 10.9372 15.4518C10.8986 15.4905 10.9372 15.4905 10.9372 15.5291C11.2852 15.5291 11.4398 15.4905 11.4398 15.4518C11.4012 15.2198 11.7878 15.0652 11.9811 14.9492C12.097 14.8719 12.1744 14.7559 12.2904 14.6399C12.4063 14.9106 12.3677 14.9879 12.2517 15.0265C12.1357 15.0652 11.9424 15.1039 11.8651 15.1812C11.7104 15.3745 11.5171 15.5678 11.3238 15.7224C11.4785 15.8771 11.6331 16.0704 11.8264 16.2637C11.8651 16.3023 11.9811 16.341 12.0584 16.3797C12.1357 16.4183 12.213 16.4183 12.2517 16.457C12.2517 16.6503 12.4063 16.8436 12.5223 16.9596C12.6383 17.0755 12.7929 17.1915 12.9089 17.3075C12.9476 17.3075 12.9476 17.4235 12.9476 17.5395C12.677 17.8488 12.7543 17.9261 12.7929 18.0034C12.9089 18.1194 12.9862 18.274 13.1409 18.3513C13.5661 18.5833 13.8368 19.0086 14.1461 19.3565C14.3394 19.5885 14.6486 19.6658 14.7646 20.0137C14.8033 20.0911 14.8806 20.0524 14.9966 19.9364C15.1126 19.7818 15.0352 19.8204 15.0352 19.7431C15.0352 19.7431 15.0352 19.7045 15.0352 19.6271C15.3059 19.7431 15.4219 20.0137 15.5378 20.207C15.6925 20.439 15.9244 20.555 15.9244 20.8643C15.6925 20.7096 15.6152 20.4003 15.2672 20.323C15.1899 20.5936 15.3445 20.8256 15.5765 21.0189C15.7698 21.1736 15.8471 21.4442 16.0018 21.5988C16.1564 21.7535 16.1564 22.1014 16.543 22.0627C16.3497 21.7148 16.1177 21.4055 15.9631 21.0189C16.1951 20.8643 16.0791 21.0576 16.1177 21.0576C16.775 21.8308 17.4322 22.6427 18.1667 23.3772C18.592 23.8025 18.9013 24.3437 19.3652 24.7303C19.5972 24.9236 19.8678 25.1169 20.1384 25.3102C20.1771 25.3489 20.2158 25.3489 20.3704 25.2329C20.4864 25.1169 20.525 25.0396 20.4864 25.0009C20.2931 24.8463 20.2931 24.5757 20.0998 24.421C19.7518 24.0731 19.3652 23.7638 19.0946 23.3385C18.7853 22.8746 18.3214 22.5653 18.0121 22.1014C17.6642 21.5602 17.1616 21.0962 16.8136 20.5163C16.427 19.8591 15.9244 19.3179 15.4605 18.7379C14.9579 18.1194 14.4167 17.5395 13.8368 16.9596L12.9862 16.1477C12.8316 15.9931 12.6383 15.8384 12.5223 15.6838C12.6383 15.5678 12.7543 15.4905 12.8316 15.4131C12.8703 15.4131 12.9089 15.3745 12.9476 15.3358L13.0249 15.2972C13.0249 15.2972 13.0636 15.2585 13.1022 15.2198C13.2569 15.1039 13.4115 14.9879 13.5275 14.8332C14.1461 14.2147 14.7646 13.5188 15.4605 12.9389C15.8858 12.5909 16.3497 12.2816 16.659 11.8564C16.9683 11.4698 17.2776 11.0445 17.6642 10.6966C18.1281 10.2713 18.592 9.80737 19.1333 9.45943C19.4425 9.26613 19.6358 8.95684 19.9838 8.8022C20.4091 8.64756 20.5637 8.18363 20.989 8.10631C21.0663 8.06765 21.1436 8.02899 21.1436 7.91301C21.0663 7.56506 21.1436 7.37176 21.2982 7.21712C21.3369 7.17846 21.2982 7.1398 21.1823 7.02382C20.7183 6.98516 20.7183 7.41042 20.2544 7.37176C20.4091 7.3331 20.2931 6.98516 20.4864 6.98516C20.5637 6.98516 20.5637 6.9465 20.525 6.9465ZM13.7595 18.3127C13.9141 18.3127 13.9914 18.4287 13.9528 18.622C14.262 18.6606 14.7646 19.2792 14.7646 19.5885C14.494 19.3179 14.262 19.0859 14.0301 18.8539C13.9914 18.8153 13.9528 18.7379 13.9528 18.622C13.8754 18.5446 13.7595 18.4673 13.7595 18.3127ZM13.1409 17.7328C13.3728 17.7714 13.4888 17.9261 13.5275 18.158C13.2955 18.0807 13.1795 18.0034 13.1409 17.7328ZM12.9476 17.5395C13.0636 17.4622 13.1022 17.5395 13.0636 17.6555C12.9089 17.6941 12.9862 17.5781 12.9476 17.5395ZM12.5996 14.3306C12.5223 14.3693 12.5996 14.6013 12.445 14.5626C12.4063 14.408 12.5223 14.3693 12.5996 14.3306ZM12.9476 13.944L12.8316 14.0987L12.7929 14.06L12.9476 13.944ZM13.7208 13.2095C13.7595 13.2868 13.7208 13.3255 13.6435 13.3255C13.6048 13.2482 13.5275 13.1322 13.6435 13.1708C13.6435 13.1322 13.7208 13.2095 13.7208 13.2095ZM14.8806 12.3203C14.8806 12.359 14.9193 12.3976 14.9193 12.3976C14.8806 12.3976 14.8419 12.359 14.8033 12.359C14.7646 12.3203 14.726 12.243 14.7646 12.243C14.8033 12.243 14.8419 12.243 14.8806 12.3203ZM15.1126 12.1657C15.1512 12.2043 15.1512 12.2043 15.1126 12.1657C15.1126 12.2043 15.1126 12.2043 15.1126 12.2043C15.1126 12.2043 15.0739 12.2043 15.1126 12.1657ZM15.5765 11.895C15.4992 11.9337 15.4605 11.9337 15.4219 11.9337C15.3832 11.9337 15.3832 12.011 15.3059 11.895C15.2672 11.8564 15.2672 11.8177 15.2285 11.7791C15.1899 11.7017 15.2285 11.7017 15.3059 11.7404C15.3832 11.7791 15.4219 11.8177 15.5765 11.895ZM16.1564 11.2765V11.3151C16.1177 11.3151 16.1177 11.3151 16.0404 11.2765V11.2378C16.0791 11.1992 16.0791 11.1605 16.1564 11.2765ZM16.6976 10.5033C16.7363 10.5419 16.7363 10.5806 16.7363 10.5419C16.6976 10.5419 16.6976 10.5033 16.659 10.4646C16.6203 10.4259 16.6203 10.3873 16.6203 10.4259C16.6203 10.4646 16.659 10.5033 16.6976 10.5033ZM16.891 10.31C16.9296 10.3486 16.9296 10.3873 16.9296 10.3873C16.9296 10.4259 16.9296 10.4259 16.891 10.3873C16.891 10.3486 16.8523 10.31 16.8523 10.31C16.8136 10.2713 16.8523 10.2713 16.891 10.31ZM17.5868 9.73005C17.5095 9.73005 17.3549 9.69139 17.2389 9.61407C17.3935 9.61407 17.3935 9.61407 17.5868 9.73005ZM18.0894 9.11149C18.0894 9.15015 18.0894 9.15015 18.0894 9.11149H18.0508C18.0121 9.07282 18.0121 9.07282 18.0508 9.07282C18.0508 9.11148 18.0894 9.11149 18.0894 9.11149ZM18.2827 8.9955C18.2827 9.03416 18.3214 9.07282 18.2827 9.07282C18.2441 9.07282 18.2054 9.07282 18.1667 9.03416C18.0894 8.95684 18.1281 8.95684 18.1281 8.95684C18.1667 8.95684 18.2054 8.95684 18.2827 8.9955ZM19.5199 8.02899H19.4039L19.3652 7.99033H19.4039C19.4812 8.02899 19.4425 7.91301 19.5199 8.02899ZM19.8678 7.68105V7.79703L19.8291 7.75837C19.8678 7.71971 19.8291 7.64239 19.8678 7.68105Z" fill="black"/>
<path d="M12.7156 17.6554C12.329 17.6554 12.2904 17.3461 12.1744 17.0755C12.5997 17.0369 12.561 17.4235 12.7156 17.6554Z" fill="black"/>
<path d="M11.1306 15.7611C11.1306 15.9157 11.4785 15.993 11.2852 16.225C11.1692 16.1477 11.0146 16.0704 10.8986 15.993C10.7826 15.9157 10.7053 15.8384 10.6666 15.7611C10.6666 15.7611 10.6666 15.7224 10.7053 15.7224C10.7439 15.7224 10.8213 15.7224 10.8986 15.7224C10.9759 15.7224 11.0146 15.7224 11.0532 15.7224C11.0919 15.7224 11.1306 15.7611 11.1306 15.7611Z" fill="black"/>
<path d="M16.891 22.5267C16.6977 22.5267 16.543 22.5267 16.6977 22.2174C16.8523 22.2561 17.007 22.2947 16.891 22.5267Z" fill="black"/>
<path d="M15.1899 20.1297C15.2286 20.1684 15.3832 20.091 15.1899 20.2843C15.0739 20.439 14.9579 20.439 14.9579 20.3617C14.9579 20.2843 14.8033 20.323 14.9966 20.1297C15.2286 19.9364 15.1512 20.091 15.1899 20.1297Z" fill="black"/>
<path d="M15.6925 11.2765C15.6538 11.3151 15.5765 11.2765 15.4992 11.1605C15.3832 11.0445 15.3445 10.9672 15.3832 10.9285C15.4219 10.8899 15.4992 10.9285 15.5765 11.0059C15.6925 11.1605 15.6925 11.2378 15.6925 11.2765Z" fill="black"/>
<path d="M12.1357 16.8049C12.1744 16.8436 12.1357 16.9209 12.0584 16.9982C12.0198 17.0369 11.9424 17.0755 11.9038 17.0369C11.8265 16.9982 11.8265 16.9209 11.9424 16.8049C12.0198 16.7662 12.0971 16.7662 12.1357 16.8049Z" fill="black"/>
<path d="M11.7105 16.6116C11.5558 16.6116 11.4398 16.5343 11.5172 16.3797C11.6718 16.4956 11.8651 16.457 11.7105 16.6116Z" fill="black"/>
</svg>
