<svg width="25" height="25" viewBox="0 0 25 25" fill="none" xmlns="http://www.w3.org/2000/svg">
<path d="M9.81456 8.22139C9.76305 8.16891 9.72279 8.10718 9.69606 8.03972C9.66934 7.97226 9.65667 7.90039 9.65879 7.82821C9.66091 7.75604 9.67778 7.68497 9.70842 7.61908C9.73907 7.55318 9.78289 7.49374 9.8374 7.44414C9.8919 7.39455 9.95602 7.35578 10.0261 7.33005C10.0961 7.30432 10.1708 7.29212 10.2457 7.29417C10.3207 7.29621 10.3945 7.31244 10.463 7.34195C10.5314 7.37146 10.5931 7.41365 10.6446 7.46613L15.4973 12.4132C15.5975 12.5153 15.6533 12.6504 15.6533 12.7909C15.6533 12.9313 15.5975 13.0664 15.4973 13.1685L10.6446 18.1161C10.5935 18.1698 10.5318 18.2131 10.4631 18.2435C10.3944 18.274 10.3201 18.291 10.2445 18.2936C10.1689 18.2962 10.0935 18.2843 10.0228 18.2586C9.95201 18.2329 9.88725 18.1939 9.83226 18.1439C9.77727 18.0939 9.73315 18.0339 9.70245 17.9674C9.67176 17.9008 9.6551 17.829 9.65346 17.7562C9.65181 17.6834 9.6652 17.611 9.69286 17.5433C9.72052 17.4755 9.76188 17.4137 9.81456 17.3614L14.2972 12.7909L9.81456 8.22139Z" fill="#626576"/>
</svg>
