<svg width="28" height="28" viewBox="0 0 28 28" fill="none" xmlns="http://www.w3.org/2000/svg">
<path d="M25.6722 2.79863C25.7262 2.85264 25.8343 2.90665 25.8883 2.96067C25.9963 3.17672 26.1583 3.44679 26.2124 3.66284C26.3204 3.87889 26.2124 3.87889 25.6722 3.55481L25.6182 3.5008V3.55481C25.6722 3.71685 25.4022 3.71685 25.7802 4.04093C25.9423 4.14896 25.8883 4.20297 25.8343 4.25699C25.6722 4.41903 25.7262 4.74311 25.4022 4.79712C25.2941 4.85114 25.2941 4.95916 25.2941 5.1212C25.2941 5.28324 25.2401 5.44528 25.0781 5.44528C24.592 5.4993 24.7 5.98542 24.4839 6.25548C24.4299 6.3095 24.4839 6.41752 24.2139 6.3095C24.1598 6.3095 23.9978 6.20147 24.1058 6.3095C24.592 6.68759 24.2679 6.68759 24.1058 6.7416C24.0518 6.7416 24.0518 6.79562 24.1058 6.84963C24.4839 7.22772 24.1598 7.22772 23.9438 7.17371C23.7277 7.17371 23.6737 7.1197 23.7277 7.28174C23.8898 7.71384 23.7277 7.98391 23.3496 8.09194C23.0796 8.19996 23.0796 8.52404 22.8635 8.68608C22.5394 9.11819 22.3234 9.60431 21.8373 9.92839C21.6752 10.0364 21.7292 10.1985 21.6212 10.3605C21.5672 10.4145 21.5132 10.5225 21.2431 10.3065C21.0271 10.1444 21.1891 10.1444 21.1891 10.0904C21.1891 10.0904 21.1891 10.0364 21.1891 9.98241C20.865 9.87438 20.595 9.71234 20.811 10.0364V10.0904C20.865 10.3065 21.1351 10.5766 21.1891 10.7926C21.2431 11.0087 20.9731 11.0087 21.0811 11.2247C21.0271 11.2247 20.9731 11.2247 20.919 11.1707C20.1629 10.7386 19.8388 10.7926 20.2709 11.3327C20.757 11.9269 20.595 12.197 20.3789 12.359C20.1629 12.521 20.0548 12.7371 20.0008 13.0072V13.0612C19.8928 13.1152 19.8928 13.2772 19.7848 13.3852C19.6767 13.4933 19.2986 13.1692 19.0286 13.0612C19.0826 13.0072 19.0826 13.0612 19.0826 13.1152C19.7848 13.4393 19.7848 13.4393 19.7308 13.7633C19.6227 14.4115 19.0826 14.7896 18.7585 15.3297C18.4884 15.7618 18.2184 16.1939 17.8943 16.572C17.5702 16.9501 17.1921 17.3282 17.0301 17.8143C16.9221 18.1924 16.4899 18.3005 16.4359 18.6786C16.4359 18.7326 16.3819 18.6786 16.3279 18.7326C16.0578 18.5165 16.0038 18.3545 16.1119 18.3545C16.4899 18.2465 16.4359 17.8684 16.544 17.6523C16.598 17.4903 16.706 17.3822 16.814 17.2742C16.0038 17.0582 16.4359 17.6523 16.2199 17.8684C15.7878 18.3545 15.5177 18.8946 15.1936 19.4347C15.1396 19.4888 15.0316 19.5428 14.9236 19.5428C14.8695 19.5968 14.7075 19.5968 14.7075 19.6508C14.7075 20.2449 14.3834 20.623 14.0053 21.0551C13.9513 21.1632 13.9513 21.2712 14.0053 21.4873C14.4374 21.8113 14.3834 21.9734 14.3294 22.1354C14.2754 22.2434 14.2214 22.3515 14.1674 22.4595C14.0593 22.6215 13.9513 22.7836 13.7893 22.9456C13.1411 23.6478 12.709 24.458 12.1689 25.3762L11.7368 24.9981C11.4667 24.7281 11.1966 24.404 10.9266 24.1339C10.6565 23.8638 10.4405 23.5938 10.0624 23.4317C9.90032 23.3777 9.90032 23.1617 10.0624 22.9456C10.2244 22.7296 10.2784 22.9456 10.3324 22.9456C10.3864 22.9456 10.3864 22.9456 10.4945 22.9456C10.3324 22.6755 10.1164 22.4595 9.95433 22.3515C9.79229 22.2434 9.63025 22.1354 9.46821 22.0274C9.14413 21.8113 8.92808 21.4873 8.49597 21.4332C8.71202 21.8113 9.19814 21.8653 9.30617 22.4055C8.92808 22.5135 8.604 22.2434 8.27992 21.9194C8.06386 21.6493 7.63175 21.4873 7.4157 21.2712C7.19965 20.8931 6.65951 20.8931 6.71353 20.353C7.25366 20.623 7.68577 21.0011 8.2259 21.2712C8.44196 20.9471 8.17189 21.0551 8.11788 21.0551C6.92958 20.0289 5.74129 19.0567 4.66102 17.9764C4.01286 17.3282 3.25667 16.8421 2.66252 16.1939C2.33844 15.8699 2.06838 15.4378 1.79831 15.0597C1.7443 15.0056 1.69028 14.9516 1.90634 14.7356C2.06838 14.5735 2.1764 14.5735 2.23042 14.6276C2.44647 14.8976 2.87858 14.9516 3.09463 15.1677C3.63477 15.7078 4.06687 16.302 4.71503 16.6801C5.41721 17.1122 5.84931 17.8143 6.55149 18.3005C7.36169 18.8406 8.00985 19.5968 8.87406 20.1369C9.36018 20.407 9.79229 20.7851 10.2244 21.1092L10.8185 21.5953C10.9806 21.7033 11.0886 21.8113 11.2507 21.9194C11.4667 22.0274 11.6287 22.1894 11.7908 22.2975C11.9528 21.9734 12.1689 21.6493 12.3309 21.3792L13.2491 20.0289C13.9513 19.0567 14.5995 18.0844 15.1936 17.0041C15.4637 16.518 15.6797 15.9779 16.0038 15.4918C16.76 14.3575 17.5702 13.2772 18.2184 12.0889C18.5965 11.3868 18.9746 10.6306 19.4607 9.98241C19.9468 9.38826 20.4329 8.84812 20.865 8.19996C21.3512 7.38976 21.8913 6.57956 22.2694 5.66134C22.4854 5.17522 22.8635 4.79712 22.9716 4.20297C23.1336 3.55481 23.6737 3.17672 23.7277 2.47455C23.7277 2.36652 23.7818 2.20448 23.9438 2.20448C24.4299 2.20448 24.7 2.04244 24.916 1.77237C24.916 1.71836 25.0241 1.77237 25.2401 1.82639C25.4022 2.47455 24.808 2.63659 24.97 3.23073C25.0241 2.96067 25.5102 3.06869 25.4562 2.74461C25.5642 2.79863 25.6182 2.79863 25.6722 2.79863ZM12.8711 22.9996C12.655 23.0536 12.601 23.2697 12.493 23.6478C12.3849 23.6478 12.2229 23.8638 12.0068 24.0799C11.5747 23.6478 11.0886 23.2697 10.8185 23.2697L12.0609 24.512L12.2769 24.1339C12.3849 24.0259 12.4389 23.8098 12.493 23.5938C12.655 23.5398 12.817 23.4317 12.8711 22.9996ZM13.7353 21.7573C13.5732 21.8113 13.4652 21.9194 13.3572 22.0814C13.2491 22.2434 13.1951 22.4055 13.1411 22.6755C13.3032 22.5675 13.4652 22.4595 13.5732 22.2975C13.6272 22.2434 13.6813 22.1354 13.6813 22.0274C13.7353 21.9194 13.7893 21.8653 13.7353 21.7573ZM14.0053 21.4332C13.7893 21.3792 13.7893 21.4873 13.8973 21.6493C14.0593 21.6493 13.9513 21.4332 14.0053 21.4332ZM17.0841 16.6261C17.0301 16.7881 16.706 16.6801 16.76 16.8961C17.0301 16.9501 17.0841 16.7881 17.0841 16.6261ZM17.5162 16.0319L17.3001 16.248L17.3542 16.302L17.5162 16.0319ZM18.4344 14.6816C18.3264 14.6816 18.2724 14.7356 18.2724 14.8436C18.4344 14.8976 18.5425 14.9516 18.5425 14.7896C18.5425 14.7356 18.4344 14.6816 18.4344 14.6816ZM19.4067 12.6831C19.3527 12.6831 19.2986 12.6831 19.2986 12.6831C19.2986 12.7371 19.3527 12.7911 19.4067 12.8451C19.4607 12.8991 19.5687 12.8991 19.5687 12.8451C19.5147 12.7911 19.4607 12.7371 19.4067 12.6831ZM19.5147 12.305C19.4607 12.305 19.4607 12.305 19.4607 12.305C19.4607 12.359 19.5147 12.359 19.5147 12.305ZM19.8388 11.5488C19.8388 11.6568 19.8388 11.7108 19.8388 11.7648C19.8388 11.8189 19.7307 11.8189 19.9468 11.9269C20.0008 11.9809 20.0548 11.9809 20.1088 11.9809C20.2709 12.0349 20.2169 11.9269 20.1629 11.8729C20.0008 11.8189 19.9468 11.7648 19.8388 11.5488ZM20.595 10.5225C20.541 10.5225 20.541 10.5225 20.541 10.5225C20.541 10.5766 20.541 10.5766 20.649 10.6306C20.649 10.6306 20.703 10.6306 20.703 10.5766C20.649 10.6306 20.703 10.6306 20.595 10.5225ZM21.5132 9.49628C21.4592 9.44227 21.4052 9.44227 21.4592 9.49628C21.4592 9.49628 21.5132 9.5503 21.5672 9.60431C21.6212 9.65833 21.6752 9.65833 21.6752 9.60431C21.5672 9.60431 21.5672 9.5503 21.5132 9.49628ZM21.7833 9.1722C21.7292 9.1722 21.6752 9.11819 21.6752 9.11819C21.6212 9.11819 21.6212 9.11819 21.6752 9.1722C21.7292 9.1722 21.7833 9.22622 21.7833 9.22622C21.8373 9.22622 21.8373 9.22622 21.7833 9.1722ZM22.3774 7.98391C22.3774 8.14595 22.4854 8.25398 22.5935 8.47003C22.5935 8.19996 22.5935 8.19996 22.3774 7.98391ZM23.1336 7.06568V7.1197C23.1876 7.17371 23.2416 7.17371 23.1876 7.1197C23.1876 7.06568 23.1336 7.06568 23.1336 7.06568ZM23.2416 6.7416C23.1876 6.7416 23.1336 6.7416 23.1336 6.7416C23.1336 6.79562 23.1336 6.84963 23.1876 6.90364C23.2956 7.01167 23.2956 6.95766 23.2956 6.90364C23.4037 6.84963 23.3496 6.79562 23.2416 6.7416ZM24.3759 4.63508L24.4299 4.79712L24.4839 4.85114V4.79712C24.3759 4.6891 24.5379 4.74311 24.3759 4.63508ZM24.754 3.98692H24.646C24.7 4.04093 24.862 4.09495 24.754 3.98692Z" fill="white"/>
<path d="M14.3296 21.4871C14.8697 21.3791 14.8697 20.893 14.9777 20.5149C14.3296 20.5689 14.4916 21.1631 14.3296 21.4871Z" fill="white"/>
<path d="M15.7878 18.7865C15.7878 19.0565 15.4637 19.1105 15.6797 19.4886C15.7878 19.4346 15.8958 19.3806 16.0038 19.3266C16.1118 19.2726 16.1659 19.1645 16.1659 19.0565C16.1659 19.0025 16.1118 18.8945 16.0038 18.8405C15.8958 18.7324 15.7878 18.7324 15.7878 18.7865Z" fill="white"/>
<path d="M6.11963 19.8129C6.11963 20.083 6.11963 20.299 6.55174 20.137C6.55174 19.9209 6.49772 19.7049 6.11963 19.8129Z" fill="white"/>
<path d="M9.6844 22.4055C9.63039 22.3515 9.73841 22.1354 9.46835 22.3515C9.25229 22.5135 9.25229 22.6755 9.41433 22.6755C9.52236 22.6755 9.46835 22.9456 9.79243 22.6215C9.95447 22.4055 9.73841 22.4595 9.6844 22.4055Z" fill="white"/>
<path d="M20.6489 11.1707C20.6489 11.2247 20.7029 11.3328 20.865 11.4408C21.081 11.6028 21.1891 11.6028 21.2431 11.4948C21.2431 11.4408 21.1891 11.3328 21.081 11.2247C20.811 11.1167 20.757 11.1707 20.6489 11.1707Z" fill="white"/>
<path d="M14.9235 20.137C14.8695 20.1911 14.9776 20.2991 15.0856 20.4071C15.1396 20.4611 15.2476 20.5151 15.2476 20.4611C15.3016 20.4071 15.3016 20.3531 15.1396 20.1911C15.0316 20.083 14.9235 20.083 14.9235 20.137Z" fill="white"/>
<path d="M15.3556 19.9209C15.5177 19.9209 15.6257 19.8669 15.4637 19.6509C15.3556 19.7589 15.1396 19.7049 15.3556 19.9209Z" fill="white"/>
</svg>
