<svg width="24" height="24" viewBox="0 0 24 24" fill="none" xmlns="http://www.w3.org/2000/svg">
<path d="M12.8123 11.0077C12.8953 11.0077 13.0613 11.0492 12.9368 10.8418C12.8538 10.8003 12.7708 10.8418 12.8123 10.9247C12.8123 10.8832 12.7708 10.8418 12.7294 10.8003C12.6879 10.7588 12.6464 10.7173 12.6049 10.7173C12.5634 10.7588 12.5634 10.8003 12.6464 10.9247C12.7294 11.0077 12.7708 11.0077 12.8123 11.0077Z" fill="#626576"/>
<path d="M22.4791 21.5873C22.3132 21.4628 22.1887 21.2554 22.2302 20.965C22.2302 20.8405 22.1472 20.799 22.0642 20.799C21.6079 20.6331 21.4004 20.2182 20.9855 20.0107C20.7366 19.8863 20.5292 19.6788 20.2802 19.4714L20.3217 19.4299C20.3217 19.4299 20.3632 19.4299 20.3632 19.3884L20.2802 19.3469L20.2387 19.3884C20.1972 19.3469 20.1143 19.3054 20.0728 19.2639L20.2802 19.3469C20.4047 19.1395 20.2387 19.181 20.1558 19.1395C20.1143 19.1395 20.1143 19.098 20.1558 19.0565C20.3217 18.7661 20.1143 18.8076 19.9898 18.849C19.8653 18.8905 19.8238 18.8905 19.8238 18.7661C19.8238 18.4756 19.6994 18.3097 19.409 18.2682C19.243 18.2267 19.1185 18.0193 18.9941 17.8948C18.7036 17.6459 18.4547 17.314 18.0813 17.148C17.9568 17.1065 17.9568 16.982 17.8739 16.8991C17.8324 16.8576 17.7909 16.8161 17.6664 16.9406C17.6249 16.8991 17.5834 16.8161 17.5005 16.7746C17.5005 16.7331 17.5005 16.6916 17.5005 16.6501C17.5005 16.5257 17.293 16.5257 17.3345 16.3597C17.293 16.3597 17.2515 16.3597 17.2515 16.4012C17.2515 16.4012 17.2515 16.4012 17.21 16.4427L17.1686 16.4012C17.21 16.3182 17.2515 16.2767 17.21 16.2352C17.1686 16.1938 17.1271 16.1938 17.0441 16.2767C16.9611 16.1938 16.9196 16.1523 16.8366 16.1108C16.8366 15.9033 16.7122 15.8204 16.5877 15.7374C16.4218 15.6544 16.2973 15.5299 16.2143 15.364V15.3225C16.1313 15.281 16.0898 15.198 16.0069 15.1565C15.9654 15.115 15.8824 15.1565 15.8409 15.2395C15.7994 15.198 15.7994 15.198 15.7579 15.1565C15.7994 15.0736 15.7994 15.0321 15.7164 14.9076C15.4675 14.4927 15.0526 14.2853 14.7207 13.9948C14.4718 13.7459 14.1814 13.497 13.9324 13.2895C13.6835 12.9991 13.3516 12.7917 13.0612 12.5012C14.2643 11.1736 15.6335 10.0119 16.7122 8.55981C17.1686 7.93747 17.7079 7.35663 18.1228 6.65132C18.4547 6.02898 18.9941 5.57261 19.3675 4.95027C19.6994 4.45241 20.1558 4.1205 20.4877 3.62263C20.7781 3.16625 21.193 2.83434 21.5249 2.46094C21.6908 2.29499 21.6908 1.96308 21.8983 1.83861C21.9398 1.79712 21.8983 1.71414 21.7738 1.58968C21.6494 1.46521 21.5664 1.5067 21.5249 1.5067C21.4419 1.58968 21.3174 1.67265 21.2345 1.75563C21.1515 1.71414 21.11 1.71414 21.0685 1.75563C20.8196 1.96308 20.5292 2.17052 20.2802 2.37797C19.8238 2.79285 19.4919 3.3737 19.0356 3.83008C18.7451 4.1205 18.4962 4.45241 18.2058 4.78432C18.2058 4.74283 18.2058 4.70134 18.1643 4.61836C17.9568 4.61836 17.8324 4.65985 17.9568 4.95027C17.9983 4.95027 17.9983 4.95027 18.0398 4.90879C17.8739 5.11623 17.6664 5.32367 17.5005 5.57261C17.5834 5.40665 17.7079 5.2407 17.7909 5.07474C17.7494 5.07474 17.7079 5.07474 17.6664 5.07474C17.7079 5.03325 17.7079 4.95027 17.6664 4.82581C17.459 4.82581 17.3345 4.8673 17.459 5.15772C17.376 5.28219 17.3345 5.44814 17.21 5.57261C17.0441 5.73856 16.9611 5.94601 16.8366 6.11196C17.0026 5.82154 17.1686 5.57261 17.293 5.28219C16.8781 5.2407 16.9196 5.6141 16.7537 5.78005C16.5877 5.94601 16.5047 6.23643 16.2973 6.40238C16.0484 6.60983 15.8824 6.85876 15.9654 7.14918C16.0069 7.14918 16.0484 7.14918 16.0484 7.1077C16.0484 7.14918 16.0898 7.19067 16.1728 7.23216C16.2143 7.27365 16.2143 7.27365 16.2143 7.27365C16.1728 7.31514 16.1728 7.35663 16.1313 7.39812L16.0898 7.35663C16.0898 7.31514 16.0069 7.27365 15.9654 7.31514C15.8409 7.19067 15.7164 7.14918 15.7164 7.27365C15.7164 7.35663 15.5505 7.31514 15.7579 7.52258C15.7994 7.52258 15.7994 7.56407 15.7994 7.56407C15.7579 7.60556 15.7164 7.64705 15.7164 7.68854C15.592 7.56407 15.4675 7.52258 15.4675 7.60556C15.3845 7.93747 15.0111 8.06194 14.8452 8.31087C14.5133 8.68427 14.2643 9.14065 13.808 9.43107C13.642 9.51405 13.559 9.63852 13.4346 9.80447C13.3931 9.88745 13.3516 9.97043 13.476 10.1364C13.3931 10.2608 13.3516 10.4268 13.2686 10.5513C13.4346 10.5513 13.5175 10.5098 13.6005 10.4683C13.6005 10.5098 13.559 10.5513 13.559 10.5928C13.476 10.6757 13.3931 10.7587 13.3101 10.8002C13.3101 10.7587 13.2686 10.7172 13.2271 10.6342C13.3101 10.5098 13.3516 10.3023 13.4346 10.1779C13.0197 10.1779 12.9782 10.5098 12.8537 10.8002C12.9782 10.8002 13.0612 10.8002 13.1441 10.7587C13.1441 10.7587 13.1441 10.8002 13.1856 10.8002C13.2271 10.8417 13.2686 10.8832 13.3101 10.8832C13.1441 11.0491 13.0197 11.2151 12.9782 11.5055C12.9782 11.547 12.8952 11.547 12.8122 11.547C12.7292 11.547 12.6463 11.547 12.6048 11.5885L12.5633 11.63C12.6048 11.5055 12.7707 11.464 12.6878 11.2151C12.6463 11.2151 12.6048 11.2566 12.5633 11.2566C12.5633 11.2151 12.5633 11.2151 12.5218 11.1736C12.3973 11.1321 12.3558 11.1736 12.3973 11.3396C12.3558 11.381 12.3144 11.4225 12.2729 11.464C12.2729 11.5055 12.3144 11.5885 12.3973 11.63C12.4388 11.6715 12.4803 11.6715 12.4803 11.713C12.4388 11.7544 12.3973 11.8374 12.3144 11.8789L12.2729 11.8374C12.2314 11.7959 12.2314 11.7544 12.1899 11.713C12.2314 11.6715 12.2729 11.5885 12.2314 11.4225C12.1484 11.464 12.0654 11.464 11.9824 11.5055C10.9037 10.3853 9.86651 9.22363 8.66334 8.18641C8.041 7.64705 7.50165 7.06621 6.79634 6.60983C6.67187 6.52685 6.58889 6.44387 6.50592 6.3609C6.33996 6.19494 6.25698 5.94601 6.00805 5.90452C5.92507 5.82154 5.84209 5.78005 5.8006 5.69707C5.84209 5.53112 5.71763 5.48963 5.55167 5.48963C5.34423 5.28219 5.21976 5.19921 5.09529 5.07474C4.59743 4.70134 4.26552 4.20347 3.76765 3.83008C3.35276 3.49816 3.02085 3.08328 2.64745 2.66839C2.4815 2.50243 2.19107 2.41945 2.02512 2.21201C1.98363 2.17052 1.90065 2.21201 1.81767 2.29499C1.7347 2.33648 1.7347 2.37797 1.7347 2.41945C1.69321 2.37797 1.65172 2.37797 1.56874 2.46094C1.48576 2.58541 1.48576 2.66839 1.52725 2.66839C1.7347 2.83434 1.81767 3.08328 2.02512 3.24923C2.44001 3.62263 2.89638 3.91305 3.2283 4.32794C3.56021 4.8673 4.09956 5.15772 4.47296 5.65559C4.59743 5.82154 4.72189 5.94601 4.84636 6.07047C4.84636 6.23643 4.88785 6.31941 5.09529 6.31941C5.17827 6.40238 5.21976 6.44387 5.30274 6.52685C5.34423 6.77578 5.55167 6.85876 5.71763 6.98323C5.8006 7.06621 5.88358 7.14918 5.96656 7.27365C6.46443 7.93747 7.04527 8.47683 7.62612 9.05767C8.70483 10.2194 9.94949 11.2151 11.1527 12.2938C11.1112 12.2938 11.0697 12.2938 11.0282 12.3353C10.8622 12.6672 10.5303 12.8746 10.2399 13.0821C9.94949 13.2895 9.74205 13.5385 9.49311 13.8289C9.20269 14.1608 8.7878 14.3268 8.62185 14.7831C8.58036 14.9076 8.53887 14.9491 8.62185 15.0321C8.62185 15.0736 8.58036 15.115 8.58036 15.115C8.49738 15.0321 8.4144 14.9906 8.37291 14.9906C8.28994 15.0321 8.28994 15.1565 8.16547 15.1565V15.198C8.08249 15.364 7.99952 15.4884 7.83356 15.5714C7.70909 15.6544 7.58463 15.7374 7.6676 16.0278C7.6676 16.0278 7.6676 16.0278 7.62612 16.0278C7.6676 16.1523 7.58463 16.1938 7.54314 16.2352C7.54314 16.2352 7.54314 16.2352 7.54314 16.1938C7.41867 16.0693 7.33569 16.0278 7.2942 16.0693C7.25272 16.1108 7.2942 16.1938 7.37718 16.2767C7.41867 16.3597 7.50165 16.3597 7.54314 16.4012C7.54314 16.4427 7.54314 16.4427 7.58463 16.4842C7.50165 16.4427 7.41867 16.3597 7.2942 16.2767C7.25272 16.2352 7.25272 16.2352 7.16974 16.2352C7.21123 16.4012 7.00378 16.4012 7.04527 16.5257C7.04527 16.5672 7.08676 16.6501 7.08676 16.6916C7.04527 16.7331 7.04527 16.8161 6.96229 16.8161H6.9208C6.79634 16.6916 6.71336 16.6916 6.67187 16.7331C6.58889 16.8161 6.58889 16.982 6.46443 16.982C6.04954 17.1065 5.88358 17.4384 5.55167 17.6874C5.46869 17.7288 5.42721 17.8533 5.34423 17.8948C5.30274 17.8948 5.30274 17.9363 5.26125 17.9363C5.30274 18.1022 5.26125 18.1437 5.21976 18.1437C4.92934 18.1852 4.80487 18.3097 4.84636 18.6416C4.84636 18.7661 4.80487 18.7661 4.68041 18.6831C4.55594 18.6416 4.30701 18.5586 4.51445 18.8905C4.55594 18.932 4.55594 18.9735 4.51445 18.9735C4.43147 19.015 4.18254 18.932 4.47296 19.2639C4.43147 19.2639 4.43147 19.2224 4.38998 19.2224C4.22403 19.098 4.26552 19.181 4.22403 19.2224C4.14105 19.2639 4.09956 19.3884 4.05807 19.4714C3.97509 19.5544 3.9751 19.5958 3.93361 19.6788C3.89212 19.7203 3.80914 19.7618 3.68467 19.7618C3.56021 19.7618 3.47723 19.8448 3.47723 19.9692C3.47723 20.0522 3.43574 20.1767 3.35276 20.1767C3.14532 20.1767 3.14532 20.4256 2.97936 20.5086C2.93787 20.5086 2.89638 20.5501 2.97936 20.6746C3.2283 20.965 3.02085 20.9235 3.02085 21.048C2.68894 20.7575 2.64745 20.716 2.68894 20.882C2.73043 21.048 2.77192 21.2554 2.81341 21.4214C2.81341 21.4628 2.89638 21.5458 2.93787 21.5873L3.02085 21.6288C3.06234 21.4214 3.39425 21.5458 3.43574 21.4214C3.43574 21.8777 2.93787 21.8777 2.93787 22.3756C3.02085 22.5001 3.10383 22.5001 3.14532 22.5001C3.31127 22.2511 3.56021 22.1681 3.89212 22.2511C4.01658 22.2926 4.09956 22.2096 4.09956 22.0852C4.09956 22.0437 4.14105 22.0022 4.14105 22.0022C4.22403 22.0022 4.26552 22.0022 4.34849 22.0437C4.47296 22.0852 4.55594 22.0022 4.55594 21.8777C4.72189 21.3799 5.17827 21.2139 5.38572 20.799C5.55167 20.4256 5.88358 20.2182 6.09103 19.8863C6.50592 19.3054 6.96229 18.849 7.46016 18.3097C7.83356 17.8948 8.24845 17.6044 8.66334 17.231C9.11971 16.8576 9.45162 16.4012 9.82502 15.9448C10.4059 15.198 11.1527 14.5342 11.8165 13.8704C11.9824 13.7044 12.1069 13.5385 12.2314 13.331C12.4803 13.58 12.6878 13.8289 12.9367 14.0778C12.9782 14.0778 12.9782 14.1193 13.0197 14.1193C13.2686 14.4097 13.5175 14.6587 13.7665 14.9076C14.0984 15.2395 14.3058 15.6544 14.7207 15.8618C14.8452 15.9033 14.8867 15.9448 14.9696 15.9033C15.0111 15.9448 15.0111 15.9448 15.0526 15.9863C15.0111 16.0693 14.9696 16.1108 14.9696 16.1523C15.0111 16.2352 15.1356 16.2767 15.1771 16.3597H15.2186C15.3845 16.4427 15.509 16.5672 15.592 16.7331C15.675 16.8576 15.7579 16.982 15.9654 16.9406C16.0484 16.982 16.0898 17.065 16.1728 17.1065C16.0898 17.1895 16.0898 17.231 16.1313 17.2725C16.1728 17.314 16.2143 17.2725 16.2973 17.231L16.3388 17.2725C16.3388 17.2725 16.3388 17.314 16.2973 17.314C16.2973 17.314 16.2973 17.3554 16.2558 17.3969C16.4218 17.3969 16.4218 17.5629 16.5462 17.5629C16.5877 17.5629 16.6292 17.5629 16.6707 17.5629C16.7122 17.6044 16.7952 17.6459 16.8366 17.6874C16.7122 17.8118 16.7537 17.8533 16.7952 17.8948C16.8781 17.9778 17.0026 18.0193 17.0441 18.1022C17.21 18.4756 17.542 18.7246 17.7909 19.015C17.9154 19.1395 18.1228 19.2639 18.1643 19.4299C18.2473 19.7203 18.3717 19.8448 18.6622 19.8448C18.7866 19.8448 18.7451 19.8863 18.7451 20.0107C18.7036 20.1352 18.7036 20.3426 18.9526 20.1767C18.9941 20.1352 19.0356 20.1767 19.0356 20.1767C19.077 20.2597 19.0356 20.4671 19.326 20.2597C19.409 20.2182 19.326 20.3012 19.326 20.3012C19.243 20.4256 19.326 20.4256 19.3675 20.4671C19.5334 20.6746 19.8653 20.6746 19.8653 21.0065C19.8653 21.1309 19.9898 21.1724 20.0728 21.2139C20.1558 21.2139 20.2387 21.2554 20.2802 21.3384C20.3217 21.5458 20.5292 21.5458 20.6536 21.7118C20.6951 21.7533 20.7366 21.7948 20.8196 21.7118C21.027 21.5043 21.0685 21.6703 21.1515 21.6703C20.944 21.9607 20.944 22.0022 21.0685 22.0022C21.2345 22.0022 21.4004 21.9192 21.5249 21.8777C21.5664 21.8777 21.6079 21.7948 21.6079 21.7533C21.6079 21.7533 21.6079 21.7118 21.6079 21.6703C21.4004 21.6288 21.4419 21.3384 21.276 21.2969C21.6908 21.2969 21.8153 21.7118 22.2302 21.6703C22.4791 21.6703 22.4791 21.6288 22.4791 21.5873ZM16.4632 6.81727C16.4632 6.85876 16.4632 6.90025 16.5047 6.94174C16.5462 6.94174 16.5877 6.94174 16.5877 6.90025C16.5462 6.98323 16.5047 7.02472 16.4632 7.06621C16.4632 7.06621 16.4632 7.02472 16.4218 7.02472C16.3803 6.98323 16.3803 6.98323 16.3388 6.94174C16.3803 6.94174 16.4218 6.90025 16.4632 6.81727ZM15.2186 8.64278C15.2601 8.60129 15.3016 8.51832 15.3845 8.47683C15.343 8.55981 15.2601 8.68427 15.1771 8.76725C15.1356 8.72576 15.1771 8.68427 15.2186 8.64278ZM13.8909 9.76298C13.9324 9.80447 13.9324 9.84596 14.0154 9.92894C13.9739 9.97043 13.8909 10.0119 13.8494 10.0119C13.808 9.92894 13.8494 9.84596 13.8909 9.76298ZM13.725 10.1779C13.725 10.2194 13.725 10.2194 13.6835 10.2608C13.6835 10.2194 13.725 10.1779 13.725 10.1779ZM7.41867 7.89598C7.54314 7.97896 7.62611 8.06194 7.70909 8.18641C7.62611 8.10343 7.54314 8.02045 7.41867 7.89598ZM8.33143 8.76725C8.49738 8.89172 8.70483 9.05767 8.82929 9.22363C8.66334 9.14065 8.45589 8.93321 8.33143 8.76725ZM7.21123 17.1895C7.21123 17.231 7.21123 17.231 7.21123 17.1895V17.1895ZM7.6676 16.9406C7.6676 16.9406 7.62612 16.982 7.62612 16.9406C7.54314 16.8576 7.58463 16.8576 7.58463 16.8576C7.58463 16.8576 7.62612 16.8161 7.62612 16.8576C7.6676 16.8576 7.6676 16.8991 7.6676 16.9406ZM8.28994 16.3182C8.20696 16.1523 8.16547 16.1108 8.16547 16.0278C8.12398 15.9448 8.12398 15.9033 8.20696 15.9448C8.20696 15.9863 8.24845 16.0278 8.28994 16.1108C8.33143 16.1523 8.33143 16.1938 8.37291 16.2352C8.28994 16.2767 8.28994 16.3182 8.28994 16.3182ZM11.2771 11.547C11.3186 11.547 11.3186 11.5885 11.3186 11.63C11.2771 11.63 11.1942 11.63 11.1942 11.5885C11.1942 11.547 11.1527 11.547 11.1527 11.5055C11.1527 11.5055 11.1942 11.5055 11.2771 11.547ZM11.3186 12.8746C11.3601 12.7917 11.4016 12.7502 11.4846 12.7917C11.4846 12.8332 11.4431 12.8746 11.3186 12.8746ZM18.1643 18.8905C18.2888 18.849 18.4132 18.8076 18.4962 18.849C18.3302 18.8905 18.3302 18.8905 18.1643 18.8905ZM18.7451 18.1852C18.7866 18.1852 18.7866 18.1852 18.7451 18.1852V18.1852ZM19.0356 19.5129C18.9941 19.5129 18.9941 19.5129 19.0356 19.5129C19.0356 19.4714 19.0356 19.4714 19.077 19.4714C19.0356 19.4714 19.077 19.4714 19.0356 19.5129ZM19.243 19.5958C19.2015 19.6373 19.16 19.6373 19.1185 19.6373C19.077 19.6373 19.077 19.5958 19.1185 19.5544C19.16 19.5129 19.2015 19.5544 19.2015 19.5544C19.243 19.5544 19.243 19.5958 19.243 19.5958ZM20.4877 20.716H20.6121C20.5292 20.799 20.5706 20.716 20.4877 20.716ZM20.9855 21.048L21.027 21.0894C20.944 21.1309 21.027 21.048 20.9855 21.048Z" fill="#626576"/>
<path d="M20.3218 19.3884L20.4462 19.4299C20.4048 19.4299 20.4048 19.3884 20.3218 19.3884Z" fill="#626576"/>
</svg>
