<svg width="17" height="16" viewBox="0 0 17 16" fill="none" xmlns="http://www.w3.org/2000/svg">
<g clip-path="url(#clip0_2797_3475)">
<path fill-rule="evenodd" clip-rule="evenodd" d="M6.40481 0.279533C7.97808 -0.147644 9.64431 -0.0839778 11.1804 0.462006C12.7165 1.00799 14.0491 2.01023 14.9998 3.33453V1.74953C14.9998 1.55062 15.0788 1.35986 15.2195 1.2192C15.3601 1.07855 15.5509 0.999533 15.7498 0.999533C15.9487 0.999533 16.1395 1.07855 16.2801 1.2192C16.4208 1.35986 16.4998 1.55062 16.4998 1.74953V5.99953H12.2498C12.0509 5.99953 11.8601 5.92052 11.7195 5.77986C11.5788 5.63921 11.4998 5.44844 11.4998 5.24953C11.4998 5.05062 11.5788 4.85985 11.7195 4.7192C11.8601 4.57855 12.0509 4.49953 12.2498 4.49953H13.9768C13.1935 3.27402 12.0218 2.34665 10.6491 1.86576C9.2764 1.38488 7.7821 1.37829 6.40523 1.84703C5.02836 2.31577 3.84849 3.23276 3.05437 4.45131C2.26025 5.66986 1.89777 7.11954 2.02491 8.56844C2.15206 10.0173 2.76149 11.3817 3.75571 12.4434C4.74992 13.505 6.07147 14.2024 7.50894 14.4242C8.9464 14.646 10.4167 14.3792 11.6847 13.6666C12.9526 12.954 13.9449 11.8367 14.5028 10.4935C14.539 10.4004 14.5935 10.3155 14.663 10.2437C14.7325 10.1719 14.8156 10.1147 14.9075 10.0755C14.9995 10.0363 15.0983 10.0159 15.1982 10.0154C15.2981 10.0149 15.3971 10.0344 15.4894 10.0727C15.5817 10.111 15.6654 10.1674 15.7356 10.2385C15.8058 10.3096 15.861 10.394 15.8982 10.4868C15.9353 10.5795 15.9535 10.6788 15.9517 10.7787C15.9499 10.8786 15.9282 10.9771 15.8878 11.0685C15.3666 12.3231 14.5345 13.4242 13.47 14.2682C12.4055 15.1121 11.1436 15.6711 9.80323 15.8924C8.46289 16.1137 7.08827 15.9901 5.80894 15.5331C4.52962 15.0761 3.38773 14.3009 2.49092 13.2805C1.59412 12.2601 0.971931 11.0281 0.683015 9.70069C0.394099 8.37328 0.44797 6.99415 0.839551 5.69332C1.23113 4.39249 1.94752 3.2128 2.92119 2.26546C3.89486 1.31811 5.09374 0.635319 6.40481 0.279533Z" fill="black"/>
</g>
<defs>
<clipPath id="clip0_2797_3475">
<rect width="16" height="16" fill="white" transform="translate(0.5)"/>
</clipPath>
</defs>
</svg>
