<svg width="15" height="5" viewBox="0 0 15 5" fill="none" xmlns="http://www.w3.org/2000/svg">
<g opacity="0.5" clip-path="url(#clip0_2308_7080)">
<path d="M12.8378 4.30279H2.7114C1.99335 3.56867 1.58829 3.15456 0.870239 2.42044C1.58829 1.68632 1.99335 1.2722 2.7114 0.538086H12.8378C13.5558 1.2722 13.9609 1.68632 14.6789 2.42044C13.9609 3.15456 13.5558 3.56867 12.8378 4.30279Z" fill="white"/>
<path d="M12.893 4.35933C12.9298 4.28403 12.8285 4.30285 12.9666 4.15227C13.0587 4.05815 13.1323 3.95462 13.2336 3.85109C13.3165 3.76638 13.4545 3.64403 13.3533 3.64403C13.3349 3.65344 13.3257 3.67227 13.3072 3.68168H13.298C13.3165 3.65344 13.3349 3.64403 13.3533 3.63462L13.4361 3.5405C13.4545 3.51227 13.4637 3.50286 13.4545 3.53109C13.5098 3.49344 13.4822 3.58756 13.5926 3.4558C13.6479 3.38991 13.6295 3.37109 13.6847 3.2958C13.7399 3.26756 13.7031 3.33344 13.7675 3.31462C13.8136 3.24874 13.8596 3.18286 13.9148 3.10756C13.9793 3.03227 13.9609 3.03227 13.9148 3.05109C13.8872 3.0605 13.9424 2.99462 13.9793 2.94756C14.1082 2.83462 14.2462 2.69344 14.2923 2.75933C14.2923 2.75933 14.3199 2.7405 14.3659 2.71227C14.3291 2.66521 14.3475 2.5805 14.5132 2.4205C14.6237 2.31697 14.5684 2.40168 14.5592 2.43933V2.44874L14.5684 2.42991C14.5869 2.40168 14.6145 2.37344 14.6329 2.34521V2.3358C14.6605 2.27933 14.6605 2.48638 14.6329 2.42991L14.6237 2.4205L14.6053 2.40168L14.5684 2.36403C14.5224 2.31697 14.4764 2.2605 14.4396 2.20403C14.3935 2.11933 14.3107 2.04403 14.237 1.97815C14.1634 1.91227 14.0897 1.86521 14.0253 1.78991C14.0161 1.7805 13.9977 1.7805 13.9885 1.77109C13.9517 1.75227 13.9056 1.72403 13.8872 1.68638C13.8688 1.64874 13.924 1.68638 13.9609 1.72403C13.9793 1.74286 13.9885 1.75227 14.0069 1.77109C13.8688 1.59227 13.7123 1.4605 13.5558 1.32874C13.4822 1.26286 13.3993 1.22521 13.3441 1.12168C13.4085 1.16874 13.473 1.2158 13.4361 1.13109L13.3441 1.12168C13.2704 1.07462 13.1968 1.02756 13.16 0.933443C13.1784 0.942855 13.206 0.961679 13.2244 0.97109C13.2428 0.980502 13.2244 0.952267 13.206 0.942855C13.1876 0.933443 13.1784 0.933443 13.16 0.933443L12.8193 0.59462H12.6536H12.4511C12.3222 0.59462 12.1841 0.585208 12.0553 0.575796C12 0.566384 11.954 0.566384 11.954 0.547561C12.0368 0.528737 12.1289 0.509914 12.2302 0.49109C12.0461 0.500502 12.0461 0.500502 11.9448 0.547561C11.8803 0.566384 11.8159 0.575796 11.7423 0.547561C11.7331 0.547561 11.7238 0.547561 11.7238 0.538149C11.7238 0.528737 11.7423 0.528737 11.7515 0.538149C11.687 0.500502 11.5673 0.49109 11.4661 0.528737C11.3648 0.566384 11.3372 0.566384 11.2359 0.528737C11.1439 0.49109 11.0702 0.604031 11.0426 0.528737C11.0242 0.462855 10.9137 0.500502 10.8401 0.500502H10.6744H10.656L10.6744 0.509914C10.6744 0.519326 10.6836 0.519326 10.6836 0.528737C10.7388 0.528737 10.7941 0.538149 10.7757 0.556973C10.7757 0.556973 10.7388 0.566384 10.7204 0.566384C10.6744 0.566384 10.6652 0.547561 10.656 0.538149C10.5823 0.538149 10.5087 0.547561 10.435 0.528737C10.3522 0.509914 10.2601 0.49109 10.2325 0.547561C10.2233 0.566384 10.1589 0.585208 10.0852 0.575796C10.0024 0.566384 9.91951 0.585208 9.83666 0.575796C9.87348 0.528737 10.03 0.556973 10.0944 0.519326C9.89189 0.500502 9.70778 0.509914 9.53287 0.538149C9.46843 0.547561 9.40399 0.566384 9.32113 0.566384C8.98052 0.556973 8.64911 0.59462 8.29929 0.566384C8.1612 0.556973 8.0047 0.556973 7.86662 0.566384C7.71012 0.575796 7.63647 0.566384 7.62727 0.519326C7.61806 0.49109 7.47997 0.481679 7.57203 0.453443C7.66409 0.425208 7.75615 0.396973 7.90344 0.396973C7.98629 0.396973 8.06914 0.406384 8.17961 0.415796C8.05994 0.453443 7.91264 0.425208 7.75615 0.453443C8.13358 0.462855 8.46499 0.453443 8.7964 0.43462C8.91608 0.415796 9.03575 0.396973 9.13702 0.453443C9.19225 0.481679 9.31193 0.472267 9.41319 0.462855C9.62492 0.444031 9.84586 0.453443 10.0668 0.453443C10.2417 0.453443 10.4258 0.481679 10.6007 0.444031C10.656 0.43462 10.8033 0.43462 10.8493 0.444031C11.1531 0.509914 11.4845 0.453443 11.8067 0.472267C11.9172 0.481679 11.9816 0.453443 12.0737 0.444031C12.267 0.425208 12.4235 0.462855 12.5892 0.472267C12.6352 0.472267 12.6905 0.500502 12.7365 0.481679C12.7641 0.472267 12.8193 0.462855 12.8746 0.462855C12.9666 0.547561 13.0127 0.585208 13.0679 0.65109C13.1231 0.707561 13.1784 0.764031 13.2428 0.820502C13.3165 0.886384 13.2612 0.867561 13.252 0.867561C13.2428 0.858149 13.206 0.820502 13.206 0.839326L13.252 0.867561C13.3165 0.924031 13.3809 0.989914 13.4453 1.04638C13.5466 1.1405 13.6295 1.20638 13.7123 1.33815C13.8228 1.49815 14.0161 1.67697 14.1818 1.82756C14.2739 1.91227 14.3475 1.97815 14.4119 2.07227C14.4672 2.15697 14.5408 2.23227 14.6145 2.29815L14.6697 2.34521L14.6973 2.37344L14.7157 2.38286L14.7249 2.39227C14.7249 2.52403 14.7249 2.42991 14.7249 2.45815C14.6973 2.4958 14.6605 2.53344 14.6329 2.57109C14.6053 2.60874 14.5869 2.64638 14.55 2.69344C14.5224 2.72168 14.4856 2.76874 14.4856 2.7405C14.4856 2.73109 14.504 2.70286 14.5132 2.67462L14.5224 2.66521L14.5132 2.68403C14.4304 2.78756 14.2831 2.9005 14.2554 3.00403C14.2554 3.01344 14.2002 3.06991 14.191 3.06991C14.0713 3.10756 14.0253 3.23933 13.9424 3.31462C13.8504 3.39933 13.7491 3.55933 13.6479 3.56874C13.5282 3.71933 13.3625 3.84168 13.2336 3.99227C13.1231 4.12403 12.9942 4.23697 12.893 4.35933ZM7.86662 0.509914C7.8482 0.500502 7.82979 0.509914 7.82059 0.519326C7.82059 0.519326 7.82979 0.528737 7.839 0.528737C7.8482 0.519326 7.85741 0.519326 7.86662 0.509914ZM8.40055 0.519326C8.39135 0.519326 8.38214 0.509914 8.38214 0.509914C8.35452 0.509914 8.34532 0.509914 8.37294 0.519326C8.37294 0.519326 8.39135 0.528737 8.40055 0.519326ZM8.92528 0.519326C8.91608 0.519326 8.90687 0.519326 8.89767 0.519326C8.86084 0.519326 8.86084 0.519326 8.87925 0.528737C8.88846 0.528737 8.89767 0.528737 8.90687 0.528737C8.91608 0.528737 8.91608 0.519326 8.92528 0.519326ZM9.20146 0.528737C9.18305 0.519326 9.17384 0.519326 9.16463 0.519326C9.14622 0.528737 9.14622 0.528737 9.17384 0.528737C9.19225 0.538149 9.20146 0.528737 9.20146 0.528737Z" fill="white"/>
<path d="M7.58127 0.547568C7.44318 0.55698 7.35112 0.594627 7.24986 0.547568C7.21303 0.528744 7.18542 0.538156 7.14859 0.547568C7.08415 0.55698 7.02892 0.566391 6.96448 0.566391C6.89083 0.575803 6.78957 0.585215 6.76195 0.55698C6.73433 0.519332 6.87242 0.538156 6.92765 0.519332C6.86321 0.481685 6.75274 0.500509 6.66069 0.500509C6.63307 0.500509 6.58704 0.509921 6.57783 0.509921C6.55022 0.528744 6.71592 0.55698 6.55942 0.575803C6.41213 0.585215 6.22801 0.594627 6.11754 0.566391C6.07151 0.547568 6.30166 0.55698 6.32928 0.519332C6.17278 0.491097 6.03469 0.509921 5.91501 0.538156C5.72169 0.585215 5.72169 0.594627 5.62043 0.528744C5.56519 0.491097 5.44552 0.500509 5.4087 0.519332C5.27061 0.594627 5.00364 0.585215 4.7827 0.622862C4.73667 0.575803 4.81952 0.547568 4.91158 0.528744C4.80111 0.519332 4.74588 0.528744 4.71826 0.55698C4.69985 0.575803 4.67223 0.594627 4.59858 0.594627C4.49732 0.594627 4.48812 0.566391 4.4697 0.547568C4.4605 0.528744 4.41447 0.528744 4.35923 0.519332C4.33162 0.547568 4.3132 0.575803 4.23956 0.585215C4.19353 0.594627 4.13829 0.604038 4.09227 0.594627C4.01862 0.575803 4.08306 0.55698 4.11988 0.547568L4.13829 0.538156H4.11988C4.06465 0.538156 3.991 0.509921 3.96338 0.547568C3.93577 0.585215 3.86212 0.585215 3.76086 0.585215C3.61356 0.594627 3.57674 0.566391 3.5123 0.538156C3.49389 0.528744 3.47548 0.528744 3.45706 0.538156L3.39262 0.547568L3.46627 0.538156H3.48468H3.50309C3.53071 0.566391 3.48468 0.585215 3.40183 0.594627C3.30977 0.604038 3.1993 0.604038 3.10724 0.594627C2.99677 0.575803 3.15327 0.55698 3.12566 0.538156C2.98757 0.538156 2.84028 0.538156 2.71139 0.547568C2.60092 0.679332 2.50887 0.811097 2.43522 0.942862C2.35237 0.971097 2.3984 0.924038 2.42601 0.886391C2.45363 0.848744 2.47204 0.820509 2.45363 0.820509C2.43522 0.820509 2.4076 0.848744 2.3984 0.867568C2.33396 0.980509 2.26031 1.03698 2.16825 1.08404C2.09461 1.19698 1.93811 1.33816 1.90128 1.4511C1.93811 1.41345 1.97493 1.36639 2.01175 1.32874C2.03937 1.30051 2.06699 1.26286 2.10381 1.24404C2.05778 1.33816 1.97493 1.40404 1.88287 1.46992C1.75399 1.6111 1.63432 1.76169 1.48702 1.88404C1.45941 1.7711 1.45941 1.7711 1.64352 1.55463C1.7632 1.42286 1.89208 1.2911 2.00255 1.14992C2.06699 1.06521 2.15905 0.980509 2.18666 1.02757C2.26031 0.924038 2.36157 0.811097 2.41681 0.698156C2.44443 0.651097 2.48125 0.61345 2.52728 0.585215C2.57331 0.55698 2.61934 0.547568 2.65616 0.528744C2.66537 0.509921 2.68378 0.481685 2.69298 0.462862C2.7206 0.45345 2.73901 0.45345 2.75742 0.444038C2.76663 0.45345 2.78504 0.45345 2.79425 0.45345L2.82186 0.444038C2.84028 0.434627 2.8771 0.434627 2.91392 0.434627C3.02439 0.509921 3.14407 0.415803 3.25454 0.434627C3.30057 0.444038 3.44786 0.425215 3.33739 0.462862C3.41104 0.472274 3.48468 0.472274 3.55833 0.45345C3.64118 0.434627 4.04624 0.406391 4.12909 0.415803C4.17512 0.415803 4.21194 0.425215 4.24876 0.434627C4.37765 0.39698 4.54335 0.406391 4.69064 0.39698C4.76429 0.387568 4.83794 0.406391 4.76429 0.434627C4.73667 0.444038 4.77349 0.462862 4.81952 0.45345C4.97602 0.45345 5.14173 0.444038 5.30743 0.434627C5.31664 0.434627 5.32584 0.434627 5.33505 0.425215H5.35346C5.35346 0.425215 5.34425 0.434627 5.33505 0.434627C5.5744 0.444038 5.81375 0.45345 6.0531 0.434627C6.0439 0.434627 6.03469 0.434627 6.03469 0.425215C6.03469 0.415803 6.0531 0.415803 6.07151 0.425215C6.37531 0.444038 6.6883 0.45345 6.99209 0.425215L6.97368 0.415803H7.01051C7.22224 0.406391 7.36033 0.434627 7.41556 0.481685C7.41556 0.519332 7.48921 0.528744 7.58127 0.547568ZM3.80689 0.538156C3.79768 0.538156 3.78847 0.528744 3.77927 0.528744C3.77006 0.528744 3.75165 0.538156 3.74244 0.538156C3.76086 0.538156 3.77006 0.547568 3.78847 0.547568L3.80689 0.538156ZM4.3132 0.444038L4.24876 0.434627C4.25797 0.434627 4.27638 0.444038 4.28559 0.444038C4.29479 0.444038 4.304 0.444038 4.3132 0.444038Z" fill="white"/>
<path d="M2.22341 3.84168C2.33388 3.87932 2.44435 4.03932 2.55481 4.12403C2.62846 4.1805 2.60084 4.20874 2.6929 4.30285L2.70211 4.31226C2.90464 4.30285 3.09796 4.31226 3.30048 4.29344C3.56745 4.27462 3.57666 4.28403 3.62269 4.19932C3.36493 4.22756 3.10716 4.28403 2.90464 4.17109C2.85861 4.19932 2.82178 4.21815 2.79417 4.22756H2.77575L2.79417 4.21815C2.78496 4.20874 2.77575 4.19932 2.77575 4.18991C2.76655 4.18991 2.75734 4.19932 2.74814 4.19932C2.73893 4.19932 2.73893 4.18991 2.72972 4.18991C2.72052 4.1805 2.72052 4.1805 2.70211 4.17109C2.6837 4.15226 2.65608 4.12403 2.62846 4.10521C2.58243 4.05815 2.5364 4.01109 2.49037 3.97344L2.47196 3.96403L2.48117 3.97344C2.32467 3.78521 2.32467 3.78521 2.13135 3.74756C2.16817 3.78521 2.20499 3.83226 2.22341 3.84168Z" fill="white"/>
<path d="M1.34895 2.89099C1.34895 2.87216 1.34895 2.84393 1.40419 2.89099C1.47784 2.95687 1.51466 2.94746 1.5791 3.00393C1.63433 3.07922 1.55148 3.02275 1.56989 3.06981C1.7448 3.24863 1.94733 3.36158 2.13145 3.56863C2.14065 3.56863 2.14065 3.57805 2.14986 3.57805L2.15907 3.58746C2.15907 3.58746 2.14986 3.58746 2.14065 3.57805C2.13145 3.60628 2.09462 3.60628 2.03939 3.58746C2.0486 3.61569 2.0578 3.64393 2.03018 3.62511C2.02098 3.61569 2.00257 3.59687 1.99336 3.58746L2.01177 3.56863C1.94733 3.52158 1.8921 3.41805 1.81845 3.41805C1.76322 3.42746 1.71719 3.28628 1.64354 3.2204L1.5791 3.18275L1.54228 3.15452H1.56069C1.56989 3.15452 1.56989 3.15452 1.56989 3.14511C1.53307 3.08863 1.47784 3.04158 1.4226 2.99452C1.37657 2.95687 1.33975 2.90981 1.34895 2.89099ZM1.60672 3.17334L1.62513 3.18275V3.17334H1.60672Z" fill="white"/>
<path d="M3.98181 4.29327C4.03705 4.26504 4.08308 4.2368 4.1291 4.21798C4.1199 4.21798 4.11069 4.20857 4.11069 4.20857C4.11069 4.19916 4.1291 4.19916 4.14752 4.20857C4.23957 4.20857 4.29481 4.17092 4.41448 4.19915C4.53416 4.22739 4.67225 4.18033 4.81033 4.18974C4.87477 4.18974 4.94842 4.18974 4.96683 4.21798C4.97604 4.2368 4.9116 4.24621 4.87477 4.25563C4.74589 4.28386 4.54337 4.29327 4.35925 4.26504C4.29481 4.25563 4.2856 4.26504 4.24878 4.27445C4.18434 4.27445 4.11069 4.29327 3.98181 4.29327ZM4.66304 4.21798H4.68145V4.20857L4.66304 4.21798Z" fill="white"/>
<path d="M6.87233 4.21816C6.85392 4.20875 6.81709 4.19934 6.84471 4.19934C6.87233 4.18993 6.88153 4.20875 6.89074 4.21816C6.90915 4.20875 6.93677 4.19934 6.95518 4.19934C7.19453 4.21816 7.44309 4.18993 7.67323 4.21816C7.83894 4.1711 8.11511 4.1711 8.28082 4.20875L8.29923 4.21816C8.33605 4.22757 8.34526 4.23698 8.42811 4.22757C8.68587 4.19934 8.93443 4.14287 9.22901 4.19934C9.31187 4.21816 9.38551 4.18051 9.47757 4.18051C9.94707 4.18993 10.3982 4.18051 10.8676 4.15228C11.1346 4.13346 11.4384 4.13346 11.7238 4.16169C11.9815 4.18051 12.2485 4.14287 12.5063 4.15228C12.5615 4.15228 12.6167 4.15228 12.672 4.15228C12.7732 4.15228 12.8469 4.1711 12.8377 4.19934C12.8285 4.22757 12.7456 4.22757 12.6628 4.23698C11.9908 4.2464 11.3187 4.25581 10.6375 4.25581C10.5362 4.25581 10.4258 4.25581 10.435 4.20875L10.4442 4.19934H10.4258C10.2509 4.23698 10.0759 4.26522 9.8366 4.23698C9.76295 4.21816 9.63407 4.21816 9.5328 4.23698C9.44075 4.25581 9.3671 4.2464 9.29345 4.22757H9.27504L9.28425 4.23698C9.27504 4.25581 9.22901 4.26522 9.17378 4.26522C8.86999 4.25581 8.55699 4.26522 8.24399 4.25581C8.17955 4.25581 8.10591 4.25581 8.05067 4.2464C7.96782 4.23698 8.12432 4.22757 8.06908 4.21816C8.02305 4.20875 7.95861 4.19934 7.92179 4.21816C7.83894 4.25581 7.7745 4.20875 7.70085 4.21816C7.618 4.26522 7.4707 4.26522 7.31421 4.26522C7.1485 4.26522 6.97359 4.26522 6.79868 4.26522C6.78027 4.2464 6.86312 4.23698 6.87233 4.21816Z" fill="white"/>
<path d="M1.43175 1.7334C1.30287 1.90281 1.15558 2.04399 1.0267 2.20399C0.971461 2.24163 0.916226 2.28869 0.870197 2.35457C0.860991 2.36399 0.860991 2.3734 0.851786 2.38281H0.833374C0.833374 2.42046 0.833374 2.30752 0.833374 2.4581L0.84258 2.46752C0.860991 2.47693 0.870197 2.49575 0.888609 2.50516C0.916226 2.5334 0.943844 2.55222 0.971461 2.58046C1.0267 2.63693 1.09114 2.6934 1.16478 2.7781C1.21081 2.82516 1.24764 2.8534 1.25684 2.83457C1.26605 2.80634 1.26605 2.76869 1.28446 2.74987C1.29366 2.73105 1.3489 2.74046 1.26605 2.65575C1.1924 2.58046 1.10034 2.48634 1.07272 2.5334L1.14637 2.62752C1.10034 2.59928 1.08193 2.57105 1.06352 2.5334C1.04511 2.50516 1.0267 2.48634 1.00828 2.4581C0.989873 2.43928 0.971461 2.42046 0.962255 2.40163L0.934638 2.3734L0.925432 2.36399C0.925432 2.33575 0.925432 2.57105 0.925432 2.47693L0.934638 2.46752C0.971461 2.43928 1.00828 2.40163 1.0267 2.36399C1.05431 2.2981 1.0267 2.27928 0.962255 2.2981C0.953049 2.2981 0.925432 2.31693 0.934638 2.30752C0.943844 2.27928 0.980667 2.25105 1.00828 2.22281C1.0359 2.22281 1.05431 2.2134 1.08193 2.2134C1.16478 2.2134 1.15558 2.2134 1.23843 2.06281C1.30287 2.03457 1.28446 2.09105 1.33969 2.07222C1.42255 1.92163 1.42255 1.92163 1.24764 2.06281L1.31208 1.94987C1.33049 1.94046 1.3489 1.93105 1.37652 1.90281C1.37652 1.88399 1.38572 1.88399 1.38572 1.87457L1.32128 1.92163C1.3489 1.86516 1.45016 1.78046 1.43175 1.7334Z" fill="white"/>
<path d="M5.77692 4.23692C5.75851 4.26515 5.60201 4.23692 5.60201 4.28398C5.76772 4.3028 5.90581 4.26515 6.0623 4.26515C6.20039 4.28398 6.31086 4.25574 6.41212 4.23692H6.43054L6.41212 4.24633C6.42133 4.27456 6.46736 4.28398 6.56862 4.27456C6.64227 4.26515 6.6975 4.24633 6.66989 4.21809C6.64227 4.18986 6.58704 4.19927 6.51339 4.19927C6.3753 4.20868 6.25563 4.21809 6.15436 4.24633C6.08072 4.21809 5.97945 4.2275 5.88739 4.2275C5.84136 4.20868 5.79534 4.18045 5.68487 4.18986C5.51916 4.20868 5.32584 4.19927 5.14172 4.2275C5.35346 4.24633 5.5744 4.2275 5.77692 4.23692Z" fill="white"/>
<path d="M2.24182 1.09345C2.24182 1.10286 2.26023 1.09345 2.26944 1.07462C2.26944 1.06521 2.27864 1.0558 2.27864 1.04639L2.26023 1.0558C2.25103 1.07462 2.24182 1.08403 2.24182 1.09345Z" fill="white"/>
<path d="M14.1081 1.73331C14.1173 1.74273 14.1265 1.74273 14.1449 1.75214C14.1449 1.74273 14.1357 1.7239 14.1173 1.71449C14.1081 1.70508 14.0989 1.70508 14.0989 1.70508C14.0805 1.70508 14.0897 1.71449 14.1081 1.73331Z" fill="white"/>
<path d="M13.1047 3.92627C13.0955 3.93568 13.0771 3.94509 13.0679 3.94509L13.0587 3.96392L13.0955 3.94509C13.1047 3.93568 13.114 3.92627 13.1047 3.92627Z" fill="white"/>
<path d="M7.3879 0.40625C7.37869 0.40625 7.36028 0.40625 7.36028 0.40625C7.35107 0.40625 7.35107 0.415662 7.35107 0.425074H7.3971C7.41551 0.40625 7.40631 0.40625 7.3879 0.40625Z" fill="white"/>
<path d="M5.07728 4.27468C5.08648 4.27468 5.09569 4.27468 5.1049 4.26527C5.12331 4.25586 5.1141 4.25586 5.07728 4.25586C5.05887 4.25586 5.04966 4.26527 5.03125 4.26527C5.04046 4.27468 5.04966 4.28409 5.07728 4.27468Z" fill="white"/>
<path d="M5.40864 0.547363C5.39944 0.556775 5.41785 0.556775 5.44547 0.556775C5.45467 0.556775 5.46388 0.547363 5.47309 0.547363H5.45467C5.43626 0.547363 5.40864 0.547363 5.40864 0.547363Z" fill="white"/>
<path d="M1.42259 3.03201C1.41338 3.0226 1.40417 3.0226 1.40417 3.01318C1.40417 3.0226 1.41338 3.0226 1.41338 3.03201C1.42259 3.04142 1.43179 3.04142 1.43179 3.05083C1.43179 3.04142 1.43179 3.04142 1.42259 3.03201Z" fill="white"/>
<path d="M6.32005 0.415527L6.30164 0.424939H6.32005V0.415527Z" fill="white"/>
<path d="M11.7607 0.443848C11.7515 0.443848 11.7515 0.443848 11.7423 0.443848C11.7331 0.443848 11.7239 0.443848 11.7239 0.443848L11.7423 0.453259L11.7607 0.443848Z" fill="white"/>
<path d="M13.7859 1.36621H13.7767L13.7951 1.38503L13.7859 1.36621Z" fill="white"/>
<path d="M4.86551 0.368875C4.86551 0.359463 4.8563 0.359463 4.83789 0.368875C4.83789 0.368875 4.83789 0.368875 4.8471 0.378287L4.86551 0.368875Z" fill="white"/>
<path d="M2.70218 0.387695L2.67456 0.397107H2.72059L2.70218 0.387695Z" fill="white"/>
<path d="M8.31766 4.18994H8.30845C8.29924 4.18994 8.29924 4.18994 8.29004 4.18994L8.30845 4.19935C8.30845 4.18994 8.30845 4.18994 8.31766 4.18994Z" fill="white"/>
</g>
<defs>
<clipPath id="clip0_2308_7080">
<rect width="13.8824" height="4" fill="white" transform="translate(0.833374 0.359375)"/>
</clipPath>
</defs>
</svg>
