<svg width="14" height="4" viewBox="0 0 14 4" fill="none" xmlns="http://www.w3.org/2000/svg">
<g opacity="0.5" clip-path="url(#clip0_2230_3743)">
<path d="M12.0044 3.94342H1.87803C1.15997 3.2093 0.754918 2.79518 0.0368652 2.06106C0.754918 1.32695 1.15997 0.912829 1.87803 0.178711H12.0044C12.7225 0.912829 13.1275 1.32695 13.8456 2.06106C13.1275 2.79518 12.7225 3.2093 12.0044 3.94342Z" fill="white"/>
<path d="M12.0596 3.99995C12.0964 3.92466 11.9952 3.94348 12.1333 3.79289C12.2253 3.69877 12.299 3.59524 12.4002 3.49172C12.4831 3.40701 12.6212 3.28466 12.5199 3.28466C12.5015 3.29407 12.4923 3.31289 12.4739 3.3223H12.4647C12.4831 3.29407 12.5015 3.28466 12.5199 3.27524L12.6028 3.18113C12.6212 3.15289 12.6304 3.14348 12.6212 3.17172C12.6764 3.13407 12.6488 3.22819 12.7593 3.09642C12.8145 3.03054 12.7961 3.01172 12.8513 2.93642C12.9065 2.90819 12.8697 2.97407 12.9342 2.95524C12.9802 2.88936 13.0262 2.82348 13.0815 2.74819C13.1459 2.67289 13.1275 2.67289 13.0815 2.69172C13.0538 2.70113 13.1091 2.63524 13.1459 2.58819C13.2748 2.47524 13.4129 2.33407 13.4589 2.39995C13.4589 2.39995 13.4865 2.38113 13.5325 2.35289C13.4957 2.30583 13.5141 2.22113 13.6798 2.06113C13.7903 1.9576 13.7351 2.0423 13.7259 2.07995V2.08936L13.7351 2.07054C13.7535 2.0423 13.7811 2.01407 13.7995 1.98583V1.97642C13.8271 1.91995 13.8271 2.12701 13.7995 2.07054L13.7903 2.06113L13.7719 2.0423L13.7351 2.00466C13.689 1.9576 13.643 1.90113 13.6062 1.84466C13.5602 1.75995 13.4773 1.68466 13.4037 1.61877C13.33 1.55289 13.2564 1.50583 13.1919 1.43054C13.1827 1.42113 13.1643 1.42113 13.1551 1.41172C13.1183 1.39289 13.0723 1.36466 13.0538 1.32701C13.0354 1.28936 13.0907 1.32701 13.1275 1.36466C13.1459 1.38348 13.1551 1.39289 13.1735 1.41172C13.0354 1.23289 12.8789 1.10113 12.7224 0.969362C12.6488 0.90348 12.5659 0.865833 12.5107 0.762304C12.5751 0.809362 12.6396 0.856421 12.6028 0.771715L12.5107 0.762304C12.437 0.715245 12.3634 0.668186 12.3266 0.574068C12.345 0.58348 12.3726 0.602304 12.391 0.611715C12.4094 0.621127 12.391 0.592892 12.3726 0.58348C12.3542 0.574068 12.345 0.574068 12.3266 0.574068L11.986 0.235245H11.8203H11.6177C11.4889 0.235245 11.3508 0.225833 11.2219 0.216421C11.1666 0.207009 11.1206 0.207009 11.1206 0.188186C11.2035 0.169362 11.2955 0.150539 11.3968 0.131715C11.2127 0.141127 11.2127 0.141127 11.1114 0.188186C11.047 0.207009 10.9825 0.216421 10.9089 0.188186C10.8997 0.188186 10.8905 0.188186 10.8905 0.178774C10.8905 0.169362 10.9089 0.169362 10.9181 0.178774C10.8537 0.141127 10.734 0.131715 10.6327 0.169362C10.5314 0.207009 10.5038 0.207009 10.4026 0.169362C10.3105 0.131715 10.2369 0.244656 10.2092 0.169362C10.1908 0.10348 10.0804 0.141127 10.0067 0.141127H9.84101H9.8226L9.84101 0.150539C9.84101 0.159951 9.85022 0.159951 9.85022 0.169362C9.90545 0.169362 9.96069 0.178774 9.94228 0.197598C9.94228 0.197598 9.90545 0.207009 9.88704 0.207009C9.84101 0.207009 9.83181 0.188186 9.8226 0.178774C9.74895 0.178774 9.67531 0.188186 9.60166 0.169362C9.51881 0.150539 9.42675 0.131715 9.39913 0.188186C9.38993 0.207009 9.32549 0.225833 9.25184 0.216421C9.16899 0.207009 9.08614 0.225833 9.00328 0.216421C9.04011 0.169362 9.19661 0.197598 9.26105 0.159951C9.05852 0.141127 8.8744 0.150539 8.69949 0.178774C8.63505 0.188186 8.57061 0.207009 8.48776 0.207009C8.14714 0.197598 7.81574 0.235245 7.46591 0.207009C7.32783 0.197598 7.17133 0.197598 7.03324 0.207009C6.87674 0.216421 6.8031 0.207009 6.79389 0.159951C6.78469 0.131715 6.6466 0.122304 6.73866 0.0940682C6.83071 0.065833 6.92277 0.0375977 7.07007 0.0375977C7.15292 0.0375977 7.23577 0.0470094 7.34624 0.0564212C7.22656 0.0940682 7.07927 0.065833 6.92277 0.0940682C7.30021 0.10348 7.63162 0.0940682 7.96303 0.0752447C8.0827 0.0564212 8.20238 0.0375977 8.30364 0.0940682C8.35888 0.122304 8.47855 0.112892 8.57982 0.10348C8.79155 0.0846565 9.01249 0.0940682 9.23343 0.0940682C9.40834 0.0940682 9.59246 0.122304 9.76737 0.0846565C9.8226 0.0752447 9.96989 0.0752447 10.0159 0.0846565C10.3197 0.150539 10.6511 0.0940683 10.9733 0.112892C11.0838 0.122304 11.1482 0.0940682 11.2403 0.0846565C11.4336 0.0658329 11.5901 0.10348 11.7558 0.112892C11.8018 0.112892 11.8571 0.141127 11.9031 0.122304C11.9307 0.112892 11.986 0.10348 12.0412 0.10348C12.1333 0.188186 12.1793 0.225833 12.2345 0.291715C12.2898 0.348186 12.345 0.404656 12.4094 0.461127C12.4831 0.527009 12.4278 0.508186 12.4186 0.508186C12.4094 0.498774 12.3726 0.461127 12.3726 0.479951L12.4186 0.508186C12.4831 0.564656 12.5475 0.630539 12.612 0.687009C12.7132 0.781127 12.7961 0.847009 12.8789 0.978774C12.9894 1.13877 13.1827 1.3176 13.3484 1.46819C13.4405 1.55289 13.5141 1.61877 13.5786 1.71289C13.6338 1.7976 13.7075 1.87289 13.7811 1.93877L13.8363 1.98583L13.864 2.01407L13.8824 2.02348L13.8916 2.03289C13.8916 2.16466 13.8916 2.07054 13.8916 2.09877C13.8639 2.13642 13.8271 2.17407 13.7995 2.21172C13.7719 2.24936 13.7535 2.28701 13.7167 2.33407C13.689 2.3623 13.6522 2.40936 13.6522 2.38113C13.6522 2.37172 13.6706 2.34348 13.6798 2.31524L13.689 2.30583L13.6798 2.32466C13.597 2.42819 13.4497 2.54113 13.4221 2.64466C13.4221 2.65407 13.3668 2.71054 13.3576 2.71054C13.238 2.74819 13.1919 2.87995 13.1091 2.95524C13.017 3.03995 12.9158 3.19995 12.8145 3.20936C12.6948 3.35995 12.5291 3.4823 12.4002 3.63289C12.2898 3.76466 12.1609 3.8776 12.0596 3.99995ZM7.03324 0.150539C7.01483 0.141127 6.99642 0.150539 6.98721 0.159951C6.98721 0.159951 6.99642 0.169362 7.00562 0.169362C7.01483 0.159951 7.02404 0.159951 7.03324 0.150539ZM7.56718 0.159951C7.55797 0.159951 7.54877 0.150539 7.54877 0.150539C7.52115 0.150539 7.51194 0.150539 7.53956 0.159951C7.53956 0.159951 7.55797 0.169362 7.56718 0.159951ZM8.09191 0.159951C8.0827 0.159951 8.0735 0.159951 8.06429 0.159951C8.02747 0.159951 8.02747 0.159951 8.04588 0.169362C8.05509 0.169362 8.06429 0.169362 8.0735 0.169362C8.0827 0.169362 8.0827 0.159951 8.09191 0.159951ZM8.36808 0.169362C8.34967 0.159951 8.34047 0.159951 8.33126 0.159951C8.31285 0.169362 8.31285 0.169362 8.34047 0.169362C8.35888 0.178774 8.36808 0.169362 8.36808 0.169362Z" fill="white"/>
<path d="M6.74789 0.188193C6.6098 0.197605 6.51775 0.235252 6.41648 0.188193C6.37966 0.169369 6.35204 0.178781 6.31522 0.188193C6.25078 0.197605 6.19554 0.207016 6.1311 0.207016C6.05746 0.216428 5.95619 0.22584 5.92858 0.197605C5.90096 0.159957 6.03904 0.178781 6.09428 0.159957C6.02984 0.12231 5.91937 0.141134 5.82731 0.141134C5.79969 0.141134 5.75366 0.150546 5.74446 0.150546C5.71684 0.169369 5.88255 0.197605 5.72605 0.216428C5.57875 0.22584 5.39464 0.235252 5.28417 0.207016C5.23814 0.188193 5.46828 0.197605 5.4959 0.159957C5.3394 0.131722 5.20132 0.150546 5.08164 0.178781C4.88832 0.22584 4.88832 0.235252 4.78706 0.169369C4.73182 0.131722 4.61214 0.141134 4.57532 0.159957C4.43723 0.235252 4.17027 0.22584 3.94933 0.263487C3.9033 0.216428 3.98615 0.188193 4.07821 0.169369C3.96774 0.159957 3.9125 0.169369 3.88489 0.197605C3.86647 0.216428 3.83886 0.235252 3.76521 0.235252C3.66395 0.235252 3.65474 0.207016 3.63633 0.188193C3.62712 0.169369 3.58109 0.169369 3.52586 0.159957C3.49824 0.188193 3.47983 0.216428 3.40618 0.22584C3.36016 0.235252 3.30492 0.244663 3.25889 0.235252C3.18525 0.216428 3.24969 0.197605 3.28651 0.188193L3.30492 0.178781H3.28651C3.23127 0.178781 3.15763 0.150546 3.13001 0.188193C3.10239 0.22584 3.02875 0.22584 2.92748 0.22584C2.78019 0.235252 2.74337 0.207016 2.67893 0.178781C2.66051 0.169369 2.6421 0.169369 2.62369 0.178781L2.55925 0.188193L2.6329 0.178781H2.65131H2.66972C2.69734 0.207016 2.65131 0.22584 2.56846 0.235252C2.4764 0.244663 2.36593 0.244663 2.27387 0.235252C2.1634 0.216428 2.3199 0.197605 2.29228 0.178781C2.15419 0.178781 2.0069 0.178781 1.87802 0.188193C1.76755 0.319957 1.67549 0.451722 1.60185 0.583487C1.51899 0.611722 1.56502 0.564663 1.59264 0.527016C1.62026 0.489369 1.63867 0.461134 1.62026 0.461134C1.60185 0.461134 1.57423 0.489369 1.56502 0.508193C1.50058 0.621134 1.42694 0.677604 1.33488 0.724663C1.26123 0.837605 1.10473 0.978781 1.06791 1.09172C1.10473 1.05408 1.14156 1.00702 1.17838 0.969369C1.206 0.941134 1.23361 0.903487 1.27044 0.884663C1.22441 0.978781 1.14156 1.04466 1.0495 1.11055C0.920617 1.25172 0.800941 1.40231 0.653649 1.52466C0.626031 1.41172 0.626031 1.41172 0.810147 1.19525C0.929823 1.06349 1.0587 0.931722 1.16917 0.790546C1.23361 0.70584 1.32567 0.621134 1.35329 0.668193C1.42694 0.564663 1.5282 0.451722 1.58343 0.338781C1.61105 0.291722 1.64788 0.254075 1.6939 0.22584C1.73993 0.197605 1.78596 0.188193 1.82279 0.169369C1.83199 0.150546 1.8504 0.12231 1.85961 0.103487C1.88723 0.0940751 1.90564 0.0940751 1.92405 0.0846634C1.93326 0.0940751 1.95167 0.0940751 1.96087 0.0940751L1.98849 0.0846634C2.0069 0.0752516 2.04373 0.0752516 2.08055 0.0752516C2.19102 0.150546 2.31069 0.0564281 2.42116 0.0752516C2.46719 0.0846634 2.61449 0.0658398 2.50402 0.103487C2.57766 0.112899 2.65131 0.112899 2.72495 0.0940751C2.80781 0.0752516 3.21286 0.0470163 3.29571 0.0564281C3.34174 0.0564281 3.37857 0.0658398 3.41539 0.0752516C3.54427 0.0376045 3.70998 0.0470163 3.85727 0.0376045C3.93092 0.0281928 4.00456 0.0470163 3.93092 0.0752516C3.9033 0.0846634 3.94012 0.103487 3.98615 0.0940751C4.14265 0.0940751 4.30835 0.0846634 4.47406 0.0752516C4.48326 0.0752516 4.49247 0.0752516 4.50168 0.0658398H4.52009C4.52009 0.0658398 4.51088 0.0752516 4.50168 0.0752516C4.74103 0.0846634 4.98038 0.0940751 5.21973 0.0752516C5.21052 0.0752516 5.20132 0.0752516 5.20132 0.0658398C5.20132 0.0564281 5.21973 0.0564281 5.23814 0.0658398C5.54193 0.0846634 5.85493 0.0940751 6.15872 0.0658398L6.14031 0.0564281H6.17713C6.38886 0.0470163 6.52695 0.0752516 6.58219 0.12231C6.58219 0.159957 6.65583 0.169369 6.74789 0.188193ZM2.97351 0.178781C2.96431 0.178781 2.9551 0.169369 2.94589 0.169369C2.93669 0.169369 2.91828 0.178781 2.90907 0.178781C2.92748 0.178781 2.93669 0.188193 2.9551 0.188193L2.97351 0.178781ZM3.47983 0.0846634L3.41539 0.0752516C3.4246 0.0752516 3.44301 0.0846634 3.45221 0.0846634C3.46142 0.0846634 3.47062 0.0846634 3.47983 0.0846634Z" fill="white"/>
<path d="M1.39003 3.4823C1.5005 3.51995 1.61097 3.67995 1.72144 3.76465C1.79509 3.82112 1.76747 3.84936 1.85953 3.94348L1.86873 3.95289C2.07126 3.94348 2.26458 3.95289 2.46711 3.93407C2.73408 3.91524 2.74328 3.92465 2.78931 3.83995C2.53155 3.86818 2.27379 3.92465 2.07126 3.81171C2.02523 3.83995 1.98841 3.85877 1.96079 3.86818H1.94238L1.96079 3.85877C1.95159 3.84936 1.94238 3.83995 1.94238 3.83054C1.93317 3.83054 1.92397 3.83995 1.91476 3.83995C1.90556 3.83995 1.90556 3.83054 1.89635 3.83054C1.88715 3.82112 1.88714 3.82112 1.86873 3.81171C1.85032 3.79289 1.8227 3.76465 1.79509 3.74583C1.74906 3.69877 1.70303 3.65171 1.657 3.61407L1.63859 3.60465L1.64779 3.61407C1.4913 3.42583 1.4913 3.42583 1.29797 3.38818C1.3348 3.42583 1.37162 3.47289 1.39003 3.4823Z" fill="white"/>
<path d="M0.51558 2.53161C0.51558 2.51279 0.51558 2.48455 0.570815 2.53161C0.644461 2.59749 0.681285 2.58808 0.745725 2.64455C0.80096 2.71985 0.718108 2.66338 0.73652 2.71044C0.91143 2.88926 1.11396 3.0022 1.29807 3.20926C1.30728 3.20926 1.30728 3.21867 1.31649 3.21867L1.32569 3.22808C1.32569 3.22808 1.31649 3.22808 1.30728 3.21867C1.29807 3.24691 1.26125 3.24691 1.20602 3.22808C1.21522 3.25632 1.22443 3.28455 1.19681 3.26573C1.1876 3.25632 1.16919 3.23749 1.15999 3.22808L1.1784 3.20926C1.11396 3.1622 1.05872 3.05867 0.985076 3.05867C0.929841 3.06808 0.883812 2.92691 0.810166 2.86102L0.745725 2.82338L0.708902 2.79514H0.727314C0.73652 2.79514 0.73652 2.79514 0.73652 2.78573C0.699696 2.72926 0.644462 2.6822 0.589227 2.63514C0.543198 2.59749 0.506374 2.55044 0.51558 2.53161ZM0.773343 2.81397L0.791754 2.82338V2.81397H0.773343Z" fill="white"/>
<path d="M3.14844 3.9339C3.20367 3.90566 3.2497 3.87743 3.29573 3.8586C3.28652 3.8586 3.27732 3.84919 3.27732 3.84919C3.27732 3.83978 3.29573 3.83978 3.31414 3.84919C3.4062 3.84919 3.46143 3.81154 3.58111 3.83978C3.70079 3.86802 3.83887 3.82096 3.97696 3.83037C4.0414 3.83037 4.11505 3.83037 4.13346 3.8586C4.14266 3.87743 4.07822 3.88684 4.0414 3.89625C3.91252 3.92449 3.70999 3.9339 3.52588 3.90566C3.46143 3.89625 3.45223 3.90566 3.41541 3.91507C3.35097 3.91507 3.27732 3.9339 3.14844 3.9339ZM3.82967 3.8586H3.84808V3.84919L3.82967 3.8586Z" fill="white"/>
<path d="M6.03895 3.85879C6.02054 3.84937 5.98372 3.83996 6.01134 3.83996C6.03895 3.83055 6.04816 3.84937 6.05737 3.85879C6.07578 3.84937 6.10339 3.83996 6.12181 3.83996C6.36116 3.85879 6.60971 3.83055 6.83986 3.85879C7.00556 3.81173 7.28174 3.81173 7.44744 3.84937L7.46585 3.85879C7.50268 3.8682 7.51188 3.87761 7.59473 3.8682C7.8525 3.83996 8.10105 3.78349 8.39564 3.83996C8.47849 3.85879 8.55214 3.82114 8.6442 3.82114C9.11369 3.83055 9.56478 3.82114 10.0343 3.7929C10.3012 3.77408 10.605 3.77408 10.8904 3.80232C11.1482 3.82114 11.4151 3.78349 11.6729 3.7929C11.7281 3.7929 11.7834 3.7929 11.8386 3.7929C11.9399 3.7929 12.0135 3.81173 12.0043 3.83996C11.9951 3.8682 11.9123 3.8682 11.8294 3.87761C11.1574 3.88702 10.4854 3.89643 9.80413 3.89643C9.70286 3.89643 9.59239 3.89643 9.6016 3.84937L9.61081 3.83996H9.59239C9.41748 3.87761 9.24257 3.90585 9.00322 3.87761C8.92958 3.85879 8.80069 3.85879 8.69943 3.87761C8.60737 3.89643 8.53373 3.88702 8.46008 3.8682H8.44167L8.45087 3.87761C8.44167 3.89643 8.39564 3.90585 8.3404 3.90585C8.03661 3.89643 7.72362 3.90585 7.41062 3.89643C7.34618 3.89643 7.27253 3.89643 7.2173 3.88702C7.13444 3.87761 7.29094 3.8682 7.23571 3.85879C7.18968 3.84937 7.12524 3.83996 7.08841 3.85879C7.00556 3.89643 6.94112 3.84937 6.86748 3.85879C6.78462 3.90585 6.63733 3.90585 6.48083 3.90585C6.31513 3.90585 6.14022 3.90585 5.96531 3.90585C5.9469 3.88702 6.02975 3.87761 6.03895 3.85879Z" fill="white"/>
<path d="M0.598377 1.37402C0.469496 1.54344 0.322203 1.68461 0.193322 1.84461C0.138087 1.88226 0.0828522 1.92932 0.0368232 1.9952C0.0276174 2.00461 0.0276174 2.01402 0.0184116 2.02344H0C0 2.06108 0 1.94814 0 2.09873L0.00920581 2.10814C0.0276174 2.11755 0.0368232 2.13638 0.0552348 2.14579C0.0828522 2.17402 0.11047 2.19285 0.138087 2.22108C0.193322 2.27755 0.257763 2.33402 0.331409 2.41873C0.377438 2.46579 0.414261 2.49402 0.423467 2.4752C0.432673 2.44696 0.432673 2.40932 0.451084 2.39049C0.46029 2.37167 0.515525 2.38108 0.432673 2.29638C0.359026 2.22108 0.266968 2.12696 0.239351 2.17402L0.312997 2.26814C0.266968 2.23991 0.248557 2.21167 0.230145 2.17402C0.211734 2.14579 0.193322 2.12696 0.17491 2.09873C0.156499 2.07991 0.138087 2.06108 0.128881 2.04226L0.101264 2.01402L0.092058 2.00461C0.092058 1.97638 0.092058 2.21167 0.092058 2.11755L0.101264 2.10814C0.138087 2.07991 0.17491 2.04226 0.193322 2.00461C0.220939 1.93873 0.193322 1.91991 0.128881 1.93873C0.119675 1.93873 0.092058 1.95755 0.101264 1.94814C0.11047 1.91991 0.147293 1.89167 0.17491 1.86344C0.202528 1.86344 0.220939 1.85402 0.248557 1.85402C0.331409 1.85402 0.322203 1.85402 0.405055 1.70344C0.469496 1.6752 0.451084 1.73167 0.506319 1.71285C0.589172 1.56226 0.589172 1.56226 0.414261 1.70344L0.478702 1.59049C0.497113 1.58108 0.515525 1.57167 0.543142 1.54344C0.543142 1.52461 0.552348 1.52461 0.552348 1.5152L0.487908 1.56226C0.515525 1.50579 0.616789 1.42108 0.598377 1.37402Z" fill="white"/>
<path d="M4.94355 3.87754C4.92514 3.90578 4.76864 3.87754 4.76864 3.9246C4.93434 3.94342 5.07243 3.90578 5.22893 3.90578C5.36702 3.9246 5.47749 3.89637 5.57875 3.87754H5.59716L5.57875 3.88695C5.58796 3.91519 5.63399 3.9246 5.73525 3.91519C5.8089 3.90578 5.86413 3.88695 5.83651 3.85872C5.8089 3.83048 5.75366 3.83989 5.68001 3.83989C5.54193 3.84931 5.42225 3.85872 5.32099 3.88695C5.24734 3.85872 5.14608 3.86813 5.05402 3.86813C5.00799 3.84931 4.96196 3.82107 4.85149 3.83048C4.68579 3.84931 4.49247 3.83989 4.30835 3.86813C4.52008 3.88695 4.74102 3.86813 4.94355 3.87754Z" fill="white"/>
<path d="M1.40845 0.734071C1.40845 0.743482 1.42686 0.734071 1.43606 0.715247C1.43606 0.705835 1.44527 0.696423 1.44527 0.687012L1.42686 0.696423C1.41765 0.715247 1.40845 0.724659 1.40845 0.734071Z" fill="white"/>
<path d="M13.2747 1.37394C13.2839 1.38335 13.2931 1.38335 13.3116 1.39276C13.3116 1.38335 13.3024 1.36453 13.2839 1.35511C13.2747 1.3457 13.2655 1.3457 13.2655 1.3457C13.2471 1.3457 13.2563 1.35511 13.2747 1.37394Z" fill="white"/>
<path d="M12.2714 3.56689C12.2622 3.57631 12.2438 3.58572 12.2345 3.58572L12.2253 3.60454L12.2622 3.58572C12.2714 3.57631 12.2806 3.56689 12.2714 3.56689Z" fill="white"/>
<path d="M6.55452 0.046875C6.54532 0.046875 6.52691 0.046875 6.52691 0.046875C6.5177 0.046875 6.5177 0.0562868 6.5177 0.0656985H6.56373C6.58214 0.046875 6.57293 0.046875 6.55452 0.046875Z" fill="white"/>
<path d="M4.2439 3.91531C4.25311 3.91531 4.26232 3.91531 4.27152 3.9059C4.28993 3.89648 4.28073 3.89648 4.2439 3.89648C4.22549 3.89648 4.21629 3.9059 4.19788 3.9059C4.20708 3.91531 4.21629 3.92472 4.2439 3.91531Z" fill="white"/>
<path d="M4.57527 0.187988C4.56606 0.1974 4.58448 0.1974 4.61209 0.1974C4.6213 0.1974 4.63051 0.187988 4.63971 0.187988H4.6213C4.60289 0.187988 4.57527 0.187988 4.57527 0.187988Z" fill="white"/>
<path d="M0.589212 2.67263C0.580007 2.66322 0.570801 2.66322 0.570801 2.65381C0.570801 2.66322 0.580007 2.66322 0.580007 2.67263C0.589212 2.68204 0.598418 2.68204 0.598418 2.69146C0.598418 2.68204 0.598418 2.68204 0.589212 2.67263Z" fill="white"/>
<path d="M5.48667 0.0561523L5.46826 0.0655641H5.48667V0.0561523Z" fill="white"/>
<path d="M10.9273 0.0844727C10.9181 0.0844727 10.9181 0.0844727 10.9089 0.0844727C10.8997 0.0844727 10.8905 0.0844727 10.8905 0.0844727L10.9089 0.0938844L10.9273 0.0844727Z" fill="white"/>
<path d="M12.9526 1.00684H12.9434L12.9618 1.02566L12.9526 1.00684Z" fill="white"/>
<path d="M4.03213 0.00950023C4.03213 8.84647e-05 4.02293 8.84647e-05 4.00452 0.00950023C4.00452 0.00950023 4.00452 0.00950023 4.01372 0.018912L4.03213 0.00950023Z" fill="white"/>
<path d="M1.8688 0.0283203L1.84119 0.0377321H1.88722L1.8688 0.0283203Z" fill="white"/>
<path d="M7.48428 3.83057H7.47508C7.46587 3.83057 7.46587 3.83057 7.45667 3.83057L7.47508 3.83998C7.47508 3.83057 7.47508 3.83057 7.48428 3.83057Z" fill="white"/>
</g>
<defs>
<clipPath id="clip0_2230_3743">
<rect width="13.8824" height="4" fill="white"/>
</clipPath>
</defs>
</svg>
