<svg width="30" height="6" viewBox="0 0 30 6" fill="none" xmlns="http://www.w3.org/2000/svg">
<g clip-path="url(#clip0_2230_3717)">
<path d="M25.9417 5.91513H4.05837C2.50665 4.81395 1.63131 4.19277 0.0795898 3.0916C1.63131 1.99042 2.50665 1.36924 4.05837 0.268066H25.9417C27.4934 1.36924 28.3687 1.99042 29.9204 3.0916C28.3687 4.19277 27.4934 4.81395 25.9417 5.91513Z" fill="white"/>
<path d="M26.061 6.00017C26.1406 5.88723 25.9218 5.91546 26.2202 5.68958C26.4191 5.5484 26.5783 5.39311 26.7971 5.23782C26.9761 5.11076 27.2745 4.92723 27.0557 4.92723C27.0159 4.94135 26.996 4.96958 26.9562 4.9837H26.9363C26.9761 4.94135 27.0159 4.92723 27.0557 4.91311L27.2348 4.77193C27.2745 4.72958 27.2944 4.71546 27.2745 4.75782C27.3939 4.70135 27.3342 4.84252 27.573 4.64488C27.6923 4.54605 27.6525 4.51782 27.7719 4.40488C27.8913 4.36252 27.8117 4.46135 27.9509 4.43311C28.0504 4.33429 28.1499 4.23546 28.2692 4.12252C28.4085 4.00958 28.3687 4.00958 28.2692 4.03782C28.2096 4.05193 28.3289 3.95311 28.4085 3.88252C28.687 3.71311 28.9854 3.50135 29.0849 3.60017C29.0849 3.60017 29.1446 3.57193 29.244 3.52958C29.1645 3.45899 29.2043 3.33193 29.5623 3.09193C29.8011 2.93664 29.6817 3.0637 29.6618 3.12017V3.13429L29.6817 3.10605C29.7215 3.0637 29.7812 3.02135 29.821 2.97899V2.96488C29.8806 2.88017 29.8806 3.19076 29.821 3.10605L29.8011 3.09193L29.7613 3.0637L29.6817 3.00723C29.5822 2.93664 29.4828 2.85193 29.4032 2.76723C29.3037 2.64017 29.1247 2.52723 28.9655 2.42841C28.8064 2.32958 28.6472 2.25899 28.508 2.14605C28.4881 2.13193 28.4483 2.13193 28.4284 2.11782C28.3488 2.08958 28.2493 2.04723 28.2096 1.99076C28.1698 1.93429 28.2891 1.99076 28.3687 2.04723C28.4085 2.07546 28.4284 2.08958 28.4682 2.11782C28.1698 1.84958 27.8316 1.65193 27.4934 1.45429C27.3342 1.35546 27.1552 1.29899 27.0358 1.1437C27.1751 1.21429 27.3143 1.28488 27.2348 1.15782L27.0358 1.1437C26.8767 1.07311 26.7175 1.00252 26.6379 0.861346C26.6777 0.875464 26.7374 0.903699 26.7772 0.917817C26.817 0.931935 26.7772 0.889582 26.7374 0.875464C26.6976 0.861346 26.6777 0.861346 26.6379 0.861346L25.9019 0.353111H25.5438H25.1061C24.8276 0.353111 24.5292 0.338994 24.2507 0.324876C24.1313 0.310758 24.0318 0.310758 24.0318 0.282523C24.2109 0.254288 24.4098 0.226052 24.6287 0.197817C24.2308 0.211935 24.2308 0.211935 24.0119 0.282523C23.8727 0.310758 23.7334 0.324876 23.5743 0.282523C23.5544 0.282523 23.5345 0.282523 23.5345 0.268405C23.5345 0.254288 23.5743 0.254288 23.5942 0.268405C23.4549 0.211935 23.1963 0.197817 22.9775 0.254288C22.7586 0.310758 22.6989 0.310758 22.4801 0.254288C22.2812 0.197817 22.122 0.367229 22.0623 0.254288C22.0226 0.155464 21.7838 0.211935 21.6247 0.211935H21.2666H21.2268L21.2666 0.226052C21.2666 0.24017 21.2865 0.24017 21.2865 0.254288C21.4058 0.254288 21.5252 0.268405 21.4854 0.296641C21.4854 0.296641 21.4058 0.310758 21.3661 0.310758C21.2666 0.310758 21.2467 0.282523 21.2268 0.268405C21.0676 0.268405 20.9085 0.282523 20.7493 0.254288C20.5703 0.226052 20.3714 0.197817 20.3117 0.282523C20.2918 0.310758 20.1525 0.338994 19.9934 0.324876C19.8143 0.310758 19.6353 0.338994 19.4562 0.324876C19.5358 0.254288 19.874 0.296641 20.0133 0.24017C19.5756 0.211935 19.1777 0.226052 18.7997 0.268405C18.6605 0.282523 18.5212 0.310758 18.3422 0.310758C17.6061 0.296641 16.8899 0.353111 16.134 0.310758C15.8356 0.296641 15.4974 0.296641 15.1989 0.310758C14.8608 0.324876 14.7016 0.310758 14.6817 0.24017C14.6618 0.197817 14.3634 0.183699 14.5623 0.141347C14.7613 0.0989936 14.9602 0.0566406 15.2785 0.0566406C15.4576 0.0566406 15.6366 0.0707583 15.8753 0.0848759C15.6167 0.141347 15.2984 0.0989936 14.9602 0.141347C15.7759 0.155464 16.492 0.141347 17.2082 0.113111C17.4669 0.0848759 17.7255 0.0566406 17.9443 0.141347C18.0637 0.183699 18.3223 0.169582 18.5411 0.155464C18.9987 0.127229 19.4761 0.141347 19.9536 0.141347C20.3316 0.141347 20.7294 0.183699 21.1074 0.127229C21.2268 0.113111 21.5451 0.113111 21.6446 0.127229C22.3011 0.226052 23.0172 0.141347 23.7135 0.169582C23.9523 0.183699 24.0915 0.141346 24.2905 0.127229C24.7082 0.0989936 25.0464 0.155464 25.4045 0.169582C25.504 0.169582 25.6234 0.211935 25.7228 0.183699C25.7825 0.169582 25.9019 0.155464 26.0212 0.155464C26.2202 0.282523 26.3196 0.338994 26.439 0.437817C26.5584 0.522523 26.6777 0.607229 26.817 0.691935C26.9761 0.790758 26.8568 0.762523 26.8369 0.762523C26.817 0.748405 26.7374 0.691935 26.7374 0.72017L26.8369 0.762523C26.9761 0.847229 27.1154 0.946052 27.2547 1.03076C27.4735 1.17193 27.6525 1.27076 27.8316 1.46841C28.0703 1.70841 28.4881 1.97664 28.8462 2.20252C29.0451 2.32958 29.2043 2.42841 29.3435 2.56958C29.4629 2.69664 29.622 2.80958 29.7812 2.90841L29.9005 2.97899L29.9602 3.02135L30 3.03546L30.0199 3.04958C30.0199 3.24723 30.0199 3.10605 30.0199 3.14841C29.9602 3.20488 29.8806 3.26135 29.821 3.31782C29.7613 3.37429 29.7215 3.43076 29.6419 3.50135C29.5822 3.5437 29.5027 3.61429 29.5027 3.57193C29.5027 3.55782 29.5424 3.51546 29.5623 3.47311L29.5822 3.45899L29.5623 3.48723C29.3833 3.64252 29.065 3.81193 29.0053 3.96723C29.0053 3.98135 28.886 4.06605 28.8661 4.06605C28.6074 4.12252 28.508 4.32017 28.3289 4.43311C28.13 4.56017 27.9111 4.80017 27.6923 4.81429C27.4337 5.04017 27.0756 5.2237 26.7971 5.44958C26.5584 5.64723 26.2798 5.81664 26.061 6.00017ZM15.1989 0.226052C15.1592 0.211935 15.1194 0.226052 15.0995 0.24017C15.0995 0.24017 15.1194 0.254288 15.1393 0.254288C15.1592 0.24017 15.1791 0.24017 15.1989 0.226052ZM16.3528 0.24017C16.3329 0.24017 16.313 0.226052 16.313 0.226052C16.2533 0.226052 16.2334 0.226052 16.2931 0.24017C16.2931 0.24017 16.3329 0.254288 16.3528 0.24017ZM17.4867 0.24017C17.4669 0.24017 17.447 0.24017 17.4271 0.24017C17.3475 0.24017 17.3475 0.24017 17.3873 0.254288C17.4072 0.254288 17.4271 0.254288 17.447 0.254288C17.4669 0.254288 17.4669 0.24017 17.4867 0.24017ZM18.0836 0.254288C18.0438 0.24017 18.0239 0.24017 18.004 0.24017C17.9642 0.254288 17.9642 0.254288 18.0239 0.254288C18.0637 0.268405 18.0836 0.254288 18.0836 0.254288Z" fill="white"/>
<path d="M14.5822 0.282289C14.2838 0.296407 14.0849 0.352877 13.866 0.282289C13.7865 0.254054 13.7268 0.268171 13.6472 0.282289C13.508 0.296407 13.3886 0.310524 13.2493 0.310524C13.0902 0.324642 12.8713 0.33876 12.8117 0.296407C12.752 0.239936 13.0504 0.268171 13.1698 0.239936C13.0305 0.183466 12.7918 0.211701 12.5928 0.211701C12.5332 0.211701 12.4337 0.225819 12.4138 0.225819C12.3541 0.254054 12.7122 0.296407 12.374 0.324642C12.0557 0.33876 11.6578 0.352877 11.4191 0.310524C11.3196 0.282289 11.817 0.296407 11.8767 0.239936C11.5385 0.197583 11.24 0.225819 10.9814 0.268171C10.5637 0.33876 10.5637 0.352877 10.3448 0.254054C10.2255 0.197583 9.96684 0.211701 9.88726 0.239936C9.58885 0.352877 9.01193 0.33876 8.53448 0.39523C8.43501 0.324642 8.61405 0.282289 8.81299 0.254054C8.57426 0.239936 8.4549 0.254054 8.39522 0.296407C8.35543 0.324642 8.29575 0.352877 8.1366 0.352877C7.91777 0.352877 7.89787 0.310524 7.85808 0.282289C7.83819 0.254054 7.73872 0.254054 7.61936 0.239936C7.55968 0.282289 7.51989 0.324642 7.36074 0.33876C7.26127 0.352877 7.1419 0.366995 7.04243 0.352877C6.88328 0.324642 7.02254 0.296407 7.10212 0.282289L7.1419 0.268171H7.10212C6.98275 0.268171 6.8236 0.225819 6.76392 0.282289C6.70424 0.33876 6.54509 0.33876 6.32625 0.33876C6.00795 0.352877 5.92838 0.310524 5.78912 0.268171C5.74933 0.254054 5.70954 0.254054 5.66975 0.268171L5.5305 0.282289L5.68965 0.268171H5.72944H5.76922C5.82891 0.310524 5.72944 0.33876 5.55039 0.352877C5.35145 0.366995 5.11273 0.366995 4.91379 0.352877C4.67506 0.324642 5.01326 0.296407 4.95357 0.268171C4.65517 0.268171 4.33686 0.268171 4.05835 0.282289C3.81962 0.479936 3.62068 0.677583 3.46153 0.87523C3.28249 0.917583 3.38196 0.846995 3.44164 0.790524C3.50132 0.734054 3.54111 0.691701 3.50132 0.691701C3.46153 0.691701 3.40185 0.734054 3.38196 0.762289C3.2427 0.931701 3.08355 1.01641 2.88461 1.08699C2.72546 1.25641 2.38726 1.46817 2.30769 1.63758C2.38726 1.58111 2.46684 1.51052 2.54641 1.45405C2.60609 1.4117 2.66578 1.35523 2.74535 1.32699C2.64588 1.46817 2.46684 1.56699 2.2679 1.66582C1.98938 1.87758 1.73076 2.10347 1.41246 2.28699C1.35278 2.11758 1.35278 2.11758 1.75066 1.79288C2.00928 1.59523 2.28779 1.39758 2.52652 1.18582C2.66578 1.05876 2.86472 0.931701 2.9244 1.00229C3.08355 0.846995 3.30238 0.677583 3.42174 0.508171C3.48143 0.437583 3.561 0.381113 3.66047 0.33876C3.75994 0.296407 3.85941 0.282289 3.93899 0.254054C3.95888 0.225819 3.99867 0.183466 4.01856 0.15523C4.07824 0.141113 4.11803 0.141113 4.15782 0.126995C4.17771 0.141113 4.2175 0.141113 4.23739 0.141113L4.29708 0.126995C4.33686 0.112877 4.41644 0.112877 4.49602 0.112877C4.73474 0.225819 4.99336 0.0846421 5.23209 0.112877C5.33156 0.126995 5.64986 0.0987597 5.41113 0.15523C5.57029 0.169348 5.72944 0.169348 5.88859 0.141113C6.06763 0.112877 6.94296 0.0705244 7.12201 0.0846421C7.22148 0.0846421 7.30105 0.0987597 7.38063 0.112877C7.65914 0.0564068 8.01724 0.0705244 8.33554 0.0564068C8.49469 0.0422891 8.65384 0.0705244 8.49469 0.112877C8.43501 0.126995 8.51458 0.15523 8.61405 0.141113C8.95225 0.141113 9.31034 0.126995 9.66843 0.112877C9.68832 0.112877 9.70822 0.112877 9.72811 0.0987597H9.7679C9.7679 0.0987597 9.748 0.112877 9.72811 0.112877C10.2454 0.126995 10.7626 0.141113 11.2798 0.112877C11.2599 0.112877 11.24 0.112877 11.24 0.0987597C11.24 0.0846421 11.2798 0.0846421 11.3196 0.0987597C11.9761 0.126995 12.6525 0.141113 13.309 0.0987597L13.2692 0.0846421H13.3488C13.8064 0.0705244 14.1048 0.112877 14.2241 0.183466C14.2241 0.239936 14.3833 0.254054 14.5822 0.282289ZM6.42572 0.268171C6.40583 0.268171 6.38594 0.254054 6.36604 0.254054C6.34615 0.254054 6.30636 0.268171 6.28647 0.268171C6.32625 0.268171 6.34615 0.282289 6.38594 0.282289L6.42572 0.268171ZM7.51989 0.126995L7.38063 0.112877C7.40052 0.112877 7.44031 0.126995 7.46021 0.126995C7.4801 0.126995 7.49999 0.126995 7.51989 0.126995Z" fill="white"/>
<path d="M3.00399 5.2237C3.24272 5.28017 3.48145 5.52017 3.72017 5.64723C3.87932 5.73193 3.81964 5.77428 4.01858 5.91546L4.03848 5.92958C4.47614 5.91546 4.89391 5.92958 5.33158 5.90134C5.9085 5.87311 5.9284 5.88723 6.02787 5.76017C5.47084 5.80252 4.91381 5.88723 4.47614 5.71781C4.37667 5.76017 4.2971 5.7884 4.23741 5.80252H4.19763L4.23741 5.7884C4.21752 5.77428 4.19763 5.76017 4.19763 5.74605C4.17773 5.74605 4.15784 5.76017 4.13794 5.76017C4.11805 5.76017 4.11805 5.74605 4.09816 5.74605C4.07826 5.73193 4.07826 5.73193 4.03848 5.71781C3.99869 5.68958 3.93901 5.64723 3.87932 5.61899C3.77985 5.5484 3.68039 5.47781 3.58092 5.42134L3.54113 5.40723L3.56102 5.42134C3.22283 5.13899 3.22283 5.13899 2.80505 5.08252C2.88463 5.13899 2.9642 5.20958 3.00399 5.2237Z" fill="white"/>
<path d="M1.11403 3.79742C1.11403 3.76918 1.11403 3.72683 1.23339 3.79742C1.39255 3.89624 1.47212 3.88212 1.61138 3.96683C1.73074 4.07977 1.5517 3.99507 1.59148 4.06565C1.96947 4.33389 2.40713 4.5033 2.80501 4.81389C2.82491 4.81389 2.82491 4.82801 2.8448 4.82801L2.86469 4.84212C2.86469 4.84212 2.8448 4.84212 2.82491 4.82801C2.80501 4.87036 2.72544 4.87036 2.60607 4.84212C2.62597 4.88448 2.64586 4.92683 2.58618 4.8986C2.56629 4.88448 2.5265 4.85624 2.5066 4.84212L2.54639 4.81389C2.40713 4.7433 2.28777 4.58801 2.12862 4.58801C2.00926 4.60212 1.90979 4.39036 1.75064 4.29154L1.61138 4.23507L1.5318 4.19271H1.57159C1.59148 4.19271 1.59148 4.19271 1.59148 4.1786C1.51191 4.09389 1.39255 4.0233 1.27318 3.95271C1.17371 3.89624 1.09414 3.82565 1.11403 3.79742ZM1.67106 4.22095L1.71085 4.23507V4.22095H1.67106Z" fill="white"/>
<path d="M6.80371 5.90133C6.92307 5.85898 7.02254 5.81663 7.12201 5.78839C7.10212 5.78839 7.08223 5.77428 7.08223 5.77428C7.08223 5.76016 7.12201 5.76016 7.1618 5.77428C7.36074 5.77428 7.4801 5.71781 7.73872 5.76016C7.99735 5.80251 8.29575 5.73192 8.59416 5.74604C8.73342 5.74604 8.89257 5.74604 8.93236 5.78839C8.95225 5.81663 8.813 5.83075 8.73342 5.84486C8.45491 5.88722 8.01724 5.90133 7.61936 5.85898C7.4801 5.84486 7.46021 5.85898 7.38063 5.8731C7.24138 5.8731 7.08223 5.90133 6.80371 5.90133ZM8.27586 5.78839H8.31565V5.77428L8.27586 5.78839Z" fill="white"/>
<path d="M13.0504 5.78842C13.0106 5.77431 12.931 5.76019 12.9907 5.76019C13.0504 5.74607 13.0703 5.77431 13.0902 5.78842C13.13 5.77431 13.1897 5.76019 13.2294 5.76019C13.7467 5.78842 14.2838 5.74607 14.7812 5.78842C15.1393 5.71784 15.7361 5.71784 16.0942 5.77431L16.134 5.78842C16.2135 5.80254 16.2334 5.81666 16.4125 5.80254C16.9695 5.76019 17.5066 5.67548 18.1432 5.76019C18.3223 5.78842 18.4814 5.73195 18.6804 5.73195C19.695 5.74607 20.6698 5.73195 21.6844 5.6896C22.2613 5.66136 22.9178 5.66137 23.5345 5.70372C24.0915 5.73195 24.6684 5.67548 25.2255 5.6896C25.3448 5.6896 25.4642 5.6896 25.5836 5.6896C25.8024 5.6896 25.9615 5.71784 25.9416 5.76019C25.9218 5.80254 25.7427 5.80254 25.5637 5.81666C24.1114 5.83078 22.6592 5.84489 21.187 5.84489C20.9682 5.84489 20.7294 5.84489 20.7493 5.77431L20.7692 5.76019H20.7294C20.3515 5.81666 19.9735 5.85901 19.4562 5.81666C19.2971 5.78842 19.0186 5.78842 18.7997 5.81666C18.6008 5.84489 18.4416 5.83078 18.2825 5.80254H18.2427L18.2626 5.81666C18.2427 5.84489 18.1432 5.85901 18.0239 5.85901C17.3674 5.84489 16.691 5.85901 16.0146 5.84489C15.8753 5.84489 15.7162 5.84489 15.5968 5.83078C15.4178 5.81666 15.756 5.80254 15.6366 5.78842C15.5371 5.77431 15.3979 5.76019 15.3183 5.78842C15.1393 5.84489 15 5.77431 14.8408 5.78842C14.6618 5.85901 14.3435 5.85901 14.0053 5.85901C13.6472 5.85901 13.2692 5.85901 12.8912 5.85901C12.8515 5.83078 13.0305 5.81666 13.0504 5.78842Z" fill="white"/>
<path d="M1.2931 2.06104C1.01459 2.31515 0.696286 2.52692 0.417772 2.76692C0.298408 2.82339 0.179045 2.89398 0.0795756 2.9928C0.0596817 3.00692 0.0596817 3.02104 0.0397878 3.03515H0C0 3.09162 0 2.92221 0 3.14809L0.0198939 3.16221C0.0596817 3.17633 0.0795756 3.20456 0.119363 3.21868C0.179045 3.26103 0.238727 3.28927 0.298408 3.33162C0.417772 3.41633 0.557029 3.50104 0.71618 3.62809C0.81565 3.69868 0.895225 3.74103 0.915119 3.7128C0.935013 3.67045 0.935013 3.61398 0.974801 3.58574C0.994695 3.55751 1.11406 3.57162 0.935013 3.44456C0.775862 3.33162 0.576923 3.19045 0.517241 3.26104L0.676393 3.40221C0.576923 3.35986 0.537135 3.31751 0.497347 3.26104C0.45756 3.21868 0.417772 3.19045 0.377984 3.14809C0.338196 3.11986 0.298408 3.09162 0.278515 3.06339L0.218833 3.02104L0.198939 3.00692C0.198939 2.96456 0.198939 3.31751 0.198939 3.17633L0.218833 3.16221C0.298408 3.11986 0.377984 3.06339 0.417772 3.00692C0.477454 2.90809 0.417772 2.87986 0.278515 2.90809C0.258621 2.90809 0.198939 2.93633 0.218833 2.92221C0.238727 2.87986 0.318302 2.83751 0.377984 2.79515C0.437666 2.79515 0.477454 2.78104 0.537135 2.78104C0.71618 2.78104 0.696286 2.78104 0.875332 2.55515C1.01459 2.5128 0.974801 2.59751 1.09416 2.56927C1.27321 2.34339 1.27321 2.34339 0.895225 2.55515L1.03448 2.38574C1.07427 2.37162 1.11406 2.35751 1.17374 2.31515C1.17374 2.28692 1.19363 2.28692 1.19363 2.2728L1.05438 2.34339C1.11406 2.25868 1.33289 2.13162 1.2931 2.06104Z" fill="white"/>
<path d="M10.683 5.81656C10.6432 5.85891 10.305 5.81656 10.305 5.88714C10.6631 5.91538 10.9615 5.85891 11.2997 5.85891C11.5981 5.88714 11.8368 5.84479 12.0557 5.81656H12.0954L12.0557 5.83067C12.0756 5.87303 12.175 5.88714 12.3939 5.87303C12.553 5.85891 12.6724 5.83067 12.6127 5.78832C12.553 5.74597 12.4336 5.76009 12.2745 5.76009C11.9761 5.7742 11.7175 5.78832 11.4986 5.83067C11.3395 5.78832 11.1206 5.80244 10.9217 5.80244C10.8222 5.7742 10.7228 5.73185 10.484 5.74597C10.126 5.7742 9.70818 5.76009 9.3103 5.80244C9.76786 5.83067 10.2453 5.80244 10.683 5.81656Z" fill="white"/>
<path d="M3.04382 1.10135C3.04382 1.11547 3.08361 1.10135 3.1035 1.07311C3.1035 1.059 3.1234 1.04488 3.1234 1.03076L3.08361 1.04488C3.06372 1.07311 3.04382 1.08723 3.04382 1.10135Z" fill="white"/>
<path d="M28.687 2.06091C28.7069 2.07503 28.7268 2.07503 28.7665 2.08914C28.7665 2.07503 28.7466 2.04679 28.7069 2.03267C28.687 2.01855 28.6671 2.01855 28.6671 2.01855C28.6273 2.01855 28.6472 2.03267 28.687 2.06091Z" fill="white"/>
<path d="M26.5185 5.35059C26.4986 5.3647 26.4589 5.37882 26.439 5.37882L26.4191 5.40706L26.4986 5.37882C26.5185 5.3647 26.5384 5.35059 26.5185 5.35059Z" fill="white"/>
<path d="M14.1644 0.0703125C14.1445 0.0703125 14.1047 0.0703125 14.1047 0.0703125C14.0848 0.0703125 14.0848 0.0844301 14.0848 0.0985478H14.1843C14.2241 0.0703125 14.2042 0.0703125 14.1644 0.0703125Z" fill="white"/>
<path d="M9.17112 5.87296C9.19102 5.87296 9.21091 5.87296 9.23081 5.85884C9.27059 5.84473 9.2507 5.84473 9.17112 5.84473C9.13134 5.84473 9.11144 5.85884 9.07166 5.85884C9.09155 5.87296 9.11144 5.88708 9.17112 5.87296Z" fill="white"/>
<path d="M9.88726 0.282227C9.86736 0.296344 9.90715 0.296344 9.96683 0.296344C9.98672 0.296344 10.0066 0.282227 10.0265 0.282227H9.98672C9.94694 0.282227 9.88726 0.282227 9.88726 0.282227Z" fill="white"/>
<path d="M1.27319 4.00919C1.25329 3.99507 1.2334 3.99507 1.2334 3.98096C1.2334 3.99507 1.25329 3.99507 1.25329 4.00919C1.27319 4.02331 1.29308 4.02331 1.29308 4.03743C1.29308 4.02331 1.29308 4.02331 1.27319 4.00919Z" fill="white"/>
<path d="M11.8568 0.0844727L11.817 0.0985903H11.8568V0.0844727Z" fill="white"/>
<path d="M23.614 0.126953C23.5941 0.126953 23.5941 0.126953 23.5742 0.126953C23.5543 0.126953 23.5344 0.126953 23.5344 0.126953L23.5742 0.141071L23.614 0.126953Z" fill="white"/>
<path d="M27.9907 1.51074H27.9708L28.0106 1.53898L27.9907 1.51074Z" fill="white"/>
<path d="M8.71349 0.0140062C8.71349 -0.000111443 8.6936 -0.000111443 8.65381 0.0140062C8.65381 0.0140062 8.65381 0.0140062 8.6737 0.0281239L8.71349 0.0140062Z" fill="white"/>
<path d="M4.03844 0.0424805L3.97876 0.0565981H4.07823L4.03844 0.0424805Z" fill="white"/>
<path d="M16.1737 5.74609H16.1538C16.1339 5.74609 16.1339 5.74609 16.114 5.74609L16.1538 5.76021C16.1538 5.74609 16.1538 5.74609 16.1737 5.74609Z" fill="white"/>
</g>
<defs>
<clipPath id="clip0_2230_3717">
<rect width="30" height="6" fill="white"/>
</clipPath>
</defs>
</svg>
