<svg width="15" height="4" viewBox="0 0 15 4" fill="none" xmlns="http://www.w3.org/2000/svg">
<g opacity="0.3" clip-path="url(#clip0_104_4585)">
<path d="M12.7691 3.94354H2.64267C1.92462 3.20942 1.51957 2.7953 0.801514 2.06119C1.51957 1.32707 1.92462 0.912951 2.64267 0.178833H12.7691C13.4871 0.912951 13.8922 1.32707 14.6102 2.06119C13.8922 2.7953 13.4871 3.20942 12.7691 3.94354Z" fill="black"/>
<path d="M12.8243 4.00001C12.8611 3.92472 12.7598 3.94354 12.8979 3.79295C12.99 3.69884 13.0636 3.59531 13.1649 3.49178C13.2477 3.40707 13.3858 3.28472 13.2846 3.28472C13.2661 3.29413 13.2569 3.31295 13.2385 3.32236H13.2293C13.2477 3.29413 13.2661 3.28472 13.2846 3.27531L13.3674 3.18119C13.3858 3.15295 13.395 3.14354 13.3858 3.17178C13.441 3.13413 13.4134 3.22825 13.5239 3.09648C13.5791 3.0306 13.5607 3.01178 13.616 2.93648C13.6712 2.90825 13.6344 2.97413 13.6988 2.95531C13.7448 2.88942 13.7909 2.82354 13.8461 2.74825C13.9105 2.67295 13.8921 2.67295 13.8461 2.69178C13.8185 2.70119 13.8737 2.63531 13.9105 2.58825C14.0394 2.47531 14.1775 2.33413 14.2235 2.40001C14.2235 2.40001 14.2512 2.38119 14.2972 2.35295C14.2604 2.30589 14.2788 2.22119 14.4445 2.06119C14.555 1.95766 14.4997 2.04236 14.4905 2.08001V2.08942L14.4997 2.0706C14.5181 2.04236 14.5457 2.01413 14.5642 1.98589V1.97648C14.5918 1.92001 14.5918 2.12707 14.5642 2.0706L14.555 2.06119L14.5365 2.04236L14.4997 2.00472C14.4537 1.95766 14.4077 1.90119 14.3708 1.84472C14.3248 1.76001 14.242 1.68472 14.1683 1.61884C14.0947 1.55295 14.021 1.50589 13.9566 1.4306C13.9474 1.42119 13.929 1.42119 13.9198 1.41178C13.8829 1.39295 13.8369 1.36472 13.8185 1.32707C13.8001 1.28942 13.8553 1.32707 13.8921 1.36472C13.9105 1.38354 13.9198 1.39295 13.9382 1.41178C13.8001 1.23295 13.6436 1.10119 13.4871 0.969423C13.4134 0.903541 13.3306 0.865894 13.2753 0.762365C13.3398 0.809423 13.4042 0.856482 13.3674 0.771776L13.2753 0.762365C13.2017 0.715306 13.1281 0.668247 13.0912 0.574129C13.1096 0.583541 13.1373 0.602365 13.1557 0.611776C13.1741 0.621188 13.1557 0.592953 13.1373 0.583541C13.1188 0.574129 13.1096 0.574129 13.0912 0.574129L12.7506 0.235306H12.5849H12.3824C12.2535 0.235306 12.1154 0.225894 11.9865 0.216482C11.9313 0.20707 11.8853 0.20707 11.8853 0.188247C11.9681 0.169423 12.0602 0.1506 12.1614 0.131776C11.9773 0.141188 11.9773 0.141188 11.8761 0.188247C11.8116 0.20707 11.7472 0.216482 11.6735 0.188247C11.6643 0.188247 11.6551 0.188247 11.6551 0.178835C11.6551 0.169423 11.6735 0.169423 11.6827 0.178835C11.6183 0.141188 11.4986 0.131776 11.3974 0.169423C11.2961 0.20707 11.2685 0.20707 11.1672 0.169423C11.0752 0.131776 11.0015 0.244718 10.9739 0.169423C10.9555 0.103541 10.845 0.141188 10.7714 0.141188H10.6057H10.5872L10.6057 0.1506C10.6057 0.160012 10.6149 0.160012 10.6149 0.169423C10.6701 0.169423 10.7253 0.178835 10.7069 0.197659C10.7069 0.197659 10.6701 0.20707 10.6517 0.20707C10.6057 0.20707 10.5965 0.188247 10.5872 0.178835C10.5136 0.178835 10.44 0.188247 10.3663 0.169423C10.2835 0.1506 10.1914 0.131776 10.1638 0.188247C10.1546 0.20707 10.0901 0.225894 10.0165 0.216482C9.93364 0.20707 9.85079 0.225894 9.76793 0.216482C9.80476 0.169423 9.96125 0.197659 10.0257 0.160012C9.82317 0.141188 9.63905 0.1506 9.46414 0.178835C9.3997 0.188247 9.33526 0.20707 9.25241 0.20707C8.91179 0.197659 8.58038 0.235306 8.23056 0.20707C8.09248 0.197659 7.93598 0.197659 7.79789 0.20707C7.64139 0.216482 7.56775 0.20707 7.55854 0.160012C7.54933 0.131776 7.41125 0.122365 7.5033 0.0941293C7.59536 0.065894 7.68742 0.0376587 7.83471 0.0376587C7.91757 0.0376587 8.00042 0.0470705 8.11089 0.0564822C7.99121 0.0941293 7.84392 0.065894 7.68742 0.0941293C8.06486 0.103541 8.39627 0.0941293 8.72768 0.0753058C8.84735 0.0564822 8.96703 0.0376587 9.06829 0.0941293C9.12353 0.122365 9.2432 0.112953 9.34447 0.103541C9.5562 0.0847175 9.77714 0.0941293 9.99808 0.0941293C10.173 0.0941293 10.3571 0.122365 10.532 0.0847175C10.5872 0.0753057 10.7345 0.0753057 10.7806 0.0847175C11.0844 0.1506 11.4158 0.0941293 11.738 0.112953C11.8484 0.122365 11.9129 0.0941293 12.0049 0.0847175C12.1983 0.065894 12.3548 0.103541 12.5205 0.112953C12.5665 0.112953 12.6217 0.141188 12.6678 0.122365C12.6954 0.112953 12.7506 0.103541 12.8058 0.103541C12.8979 0.188247 12.9439 0.225894 12.9992 0.291776C13.0544 0.348247 13.1096 0.404718 13.1741 0.461188C13.2477 0.52707 13.1925 0.508247 13.1833 0.508247C13.1741 0.498835 13.1373 0.461188 13.1373 0.480012L13.1833 0.508247C13.2477 0.564718 13.3122 0.6306 13.3766 0.68707C13.4779 0.781188 13.5607 0.84707 13.6436 0.978835C13.754 1.13884 13.9474 1.31766 14.1131 1.46825C14.2051 1.55295 14.2788 1.61884 14.3432 1.71295C14.3985 1.79766 14.4721 1.87295 14.5457 1.93884L14.601 1.98589L14.6286 2.01413L14.647 2.02354L14.6562 2.03295C14.6562 2.16472 14.6562 2.0706 14.6562 2.09884C14.6286 2.13648 14.5918 2.17413 14.5642 2.21178C14.5365 2.24942 14.5181 2.28707 14.4813 2.33413C14.4537 2.36236 14.4169 2.40942 14.4169 2.38119C14.4169 2.37178 14.4353 2.34354 14.4445 2.31531L14.4537 2.30589L14.4445 2.32472C14.3616 2.42825 14.2143 2.54119 14.1867 2.64472C14.1867 2.65413 14.1315 2.7106 14.1223 2.7106C14.0026 2.74825 13.9566 2.88001 13.8737 2.95531C13.7817 3.04001 13.6804 3.20001 13.5791 3.20942C13.4595 3.36001 13.2938 3.48236 13.1649 3.63295C13.0544 3.76472 12.9255 3.87766 12.8243 4.00001ZM7.79789 0.1506C7.77948 0.141188 7.76107 0.1506 7.75186 0.160012C7.75186 0.160012 7.76107 0.169423 7.77027 0.169423C7.77948 0.160012 7.78868 0.160012 7.79789 0.1506ZM8.33183 0.160012C8.32262 0.160012 8.31342 0.1506 8.31342 0.1506C8.2858 0.1506 8.27659 0.1506 8.30421 0.160012C8.30421 0.160012 8.32262 0.169423 8.33183 0.160012ZM8.85656 0.160012C8.84735 0.160012 8.83815 0.160012 8.82894 0.160012C8.79212 0.160012 8.79212 0.160012 8.81053 0.169423C8.81974 0.169423 8.82894 0.169423 8.83815 0.169423C8.84735 0.169423 8.84735 0.160012 8.85656 0.160012ZM9.13273 0.169423C9.11432 0.160012 9.10511 0.160012 9.09591 0.160012C9.0775 0.169423 9.0775 0.169423 9.10511 0.169423C9.12353 0.178835 9.13273 0.169423 9.13273 0.169423Z" fill="black"/>
<path d="M7.51254 0.188254C7.37445 0.197666 7.28239 0.235313 7.18113 0.188254C7.14431 0.16943 7.11669 0.178842 7.07987 0.188254C7.01543 0.197666 6.96019 0.207077 6.89575 0.207077C6.8221 0.216489 6.72084 0.225901 6.69322 0.197666C6.66561 0.160018 6.80369 0.178842 6.85893 0.160018C6.79449 0.122371 6.68402 0.141195 6.59196 0.141195C6.56434 0.141195 6.51831 0.150607 6.50911 0.150607C6.48149 0.16943 6.64719 0.197666 6.49069 0.216489C6.3434 0.225901 6.15929 0.235313 6.04882 0.207077C6.00279 0.188254 6.23293 0.197666 6.26055 0.160018C6.10405 0.131783 5.96596 0.150607 5.84629 0.178842C5.65297 0.225901 5.65297 0.235313 5.5517 0.16943C5.49647 0.131783 5.37679 0.141195 5.33997 0.160018C5.20188 0.235313 4.93491 0.225901 4.71398 0.263548C4.66795 0.216489 4.7508 0.188254 4.84286 0.16943C4.73239 0.160018 4.67715 0.16943 4.64953 0.197666C4.63112 0.216489 4.60351 0.235313 4.52986 0.235313C4.4286 0.235313 4.41939 0.207077 4.40098 0.188254C4.39177 0.16943 4.34574 0.16943 4.29051 0.160018C4.26289 0.188254 4.24448 0.216489 4.17083 0.225901C4.1248 0.235313 4.06957 0.244724 4.02354 0.235313C3.94989 0.216489 4.01433 0.197666 4.05116 0.188254L4.06957 0.178842H4.05116C3.99592 0.178842 3.92228 0.150607 3.89466 0.188254C3.86704 0.225901 3.79339 0.225901 3.69213 0.225901C3.54484 0.235313 3.50801 0.207077 3.44357 0.178842C3.42516 0.16943 3.40675 0.16943 3.38834 0.178842L3.3239 0.188254L3.39754 0.178842H3.41596H3.43437C3.46199 0.207077 3.41596 0.225901 3.3331 0.235313C3.24105 0.244724 3.13058 0.244724 3.03852 0.235313C2.92805 0.216489 3.08455 0.197666 3.05693 0.178842C2.91884 0.178842 2.77155 0.178842 2.64267 0.188254C2.5322 0.320018 2.44014 0.451783 2.36649 0.583548C2.28364 0.611783 2.32967 0.564724 2.35729 0.527077C2.38491 0.48943 2.40332 0.461195 2.38491 0.461195C2.36649 0.461195 2.33888 0.48943 2.32967 0.508254C2.26523 0.621195 2.19158 0.677665 2.09953 0.724724C2.02588 0.837665 1.86938 0.978842 1.83256 1.09178C1.86938 1.05414 1.9062 1.00708 1.94303 0.96943C1.97065 0.941195 1.99826 0.903548 2.03509 0.884724C1.98906 0.978842 1.9062 1.04472 1.81415 1.11061C1.68527 1.25178 1.56559 1.40237 1.4183 1.52472C1.39068 1.41178 1.39068 1.41178 1.5748 1.19531C1.69447 1.06355 1.82335 0.931783 1.93382 0.790607C1.99826 0.705901 2.09032 0.621195 2.11794 0.668254C2.19158 0.564724 2.29285 0.451783 2.34808 0.338842C2.3757 0.291783 2.41252 0.254136 2.45855 0.225901C2.50458 0.197666 2.55061 0.188254 2.58743 0.16943C2.59664 0.150607 2.61505 0.122371 2.62426 0.103548C2.65187 0.0941362 2.67029 0.0941361 2.6887 0.0847244C2.6979 0.0941361 2.71632 0.0941361 2.72552 0.0941361L2.75314 0.0847244C2.77155 0.0753126 2.80837 0.0753126 2.8452 0.0753126C2.95567 0.150607 3.07534 0.0564891 3.18581 0.0753126C3.23184 0.0847244 3.37913 0.0659009 3.26866 0.103548C3.34231 0.11296 3.41596 0.11296 3.4896 0.0941361C3.57246 0.0753126 3.97751 0.0470773 4.06036 0.0564891C4.10639 0.0564891 4.14321 0.0659009 4.18004 0.0753126C4.30892 0.0376656 4.47462 0.0470773 4.62192 0.0376656C4.69556 0.0282538 4.76921 0.0470773 4.69556 0.0753126C4.66795 0.0847244 4.70477 0.103548 4.7508 0.0941361C4.9073 0.0941361 5.073 0.0847244 5.23871 0.0753126C5.24791 0.0753126 5.25712 0.0753126 5.26632 0.0659009H5.28473C5.28473 0.0659009 5.27553 0.0753126 5.26632 0.0753126C5.50567 0.0847244 5.74503 0.0941361 5.98438 0.0753126C5.97517 0.0753126 5.96596 0.0753126 5.96596 0.0659009C5.96596 0.0564891 5.98438 0.0564891 6.00279 0.0659009C6.30658 0.0847244 6.61958 0.0941361 6.92337 0.0659009L6.90496 0.0564891H6.94178C7.15351 0.0470773 7.2916 0.0753126 7.34683 0.122371C7.34683 0.160018 7.42048 0.16943 7.51254 0.188254ZM3.73816 0.178842C3.72895 0.178842 3.71975 0.16943 3.71054 0.16943C3.70134 0.16943 3.68292 0.178842 3.67372 0.178842C3.69213 0.178842 3.70134 0.188254 3.71975 0.188254L3.73816 0.178842ZM4.24448 0.0847244L4.18004 0.0753126C4.18924 0.0753126 4.20766 0.0847244 4.21686 0.0847244C4.22607 0.0847244 4.23527 0.0847244 4.24448 0.0847244Z" fill="black"/>
<path d="M2.15468 3.48236C2.26515 3.52001 2.37562 3.68001 2.48609 3.76472C2.55974 3.82119 2.53212 3.84942 2.62418 3.94354L2.63338 3.95295C2.83591 3.94354 3.02923 3.95295 3.23176 3.93413C3.49873 3.9153 3.50793 3.92472 3.55396 3.84001C3.2962 3.86824 3.03844 3.92472 2.83591 3.81177C2.78988 3.84001 2.75306 3.85883 2.72544 3.86824H2.70703L2.72544 3.85883C2.71623 3.84942 2.70703 3.84001 2.70703 3.8306C2.69782 3.8306 2.68862 3.84001 2.67941 3.84001C2.67021 3.84001 2.67021 3.8306 2.661 3.8306C2.65179 3.82119 2.65179 3.82119 2.63338 3.81177C2.61497 3.79295 2.58735 3.76472 2.55974 3.74589C2.51371 3.69883 2.46768 3.65177 2.42165 3.61413L2.40324 3.60472L2.41244 3.61413C2.25594 3.42589 2.25594 3.42589 2.06262 3.38824C2.09945 3.42589 2.13627 3.47295 2.15468 3.48236Z" fill="black"/>
<path d="M1.28023 2.5318C1.28023 2.51297 1.28023 2.48474 1.33546 2.5318C1.40911 2.59768 1.44593 2.58827 1.51037 2.64474C1.56561 2.72003 1.48276 2.66356 1.50117 2.71062C1.67608 2.88944 1.87861 3.00238 2.06272 3.20944C2.07193 3.20944 2.07193 3.21885 2.08113 3.21885L2.09034 3.22827C2.09034 3.22827 2.08113 3.22827 2.07193 3.21885C2.06272 3.24709 2.0259 3.24709 1.97066 3.22827C1.97987 3.2565 1.98908 3.28474 1.96146 3.26591C1.95225 3.2565 1.93384 3.23768 1.92463 3.22827L1.94305 3.20944C1.87861 3.16238 1.82337 3.05885 1.74972 3.05885C1.69449 3.06827 1.64846 2.92709 1.57481 2.86121L1.51037 2.82356L1.47355 2.79533H1.49196C1.50117 2.79533 1.50117 2.79533 1.50117 2.78591C1.46434 2.72944 1.40911 2.68238 1.35388 2.63533C1.30785 2.59768 1.27102 2.55062 1.28023 2.5318ZM1.53799 2.81415L1.5564 2.82356V2.81415H1.53799Z" fill="black"/>
<path d="M3.91309 3.93414C3.96832 3.90591 4.01435 3.87767 4.06038 3.85885C4.05117 3.85885 4.04197 3.84944 4.04197 3.84944C4.04197 3.84002 4.06038 3.84002 4.07879 3.84944C4.17085 3.84944 4.22608 3.81179 4.34576 3.84002C4.46543 3.86826 4.60352 3.8212 4.74161 3.83061C4.80605 3.83061 4.8797 3.83061 4.89811 3.85885C4.90731 3.87767 4.84287 3.88708 4.80605 3.89649C4.67717 3.92473 4.47464 3.93414 4.29052 3.90591C4.22608 3.89649 4.21688 3.90591 4.18005 3.91532C4.11561 3.91532 4.04197 3.93414 3.91309 3.93414ZM4.59432 3.85885H4.61273V3.84944L4.59432 3.85885Z" fill="black"/>
<path d="M6.8036 3.85885C6.78519 3.84944 6.74837 3.84002 6.77598 3.84002C6.8036 3.83061 6.81281 3.84944 6.82201 3.85885C6.84043 3.84944 6.86804 3.84002 6.88645 3.84002C7.1258 3.85885 7.37436 3.83061 7.60451 3.85885C7.77021 3.81179 8.04639 3.81179 8.21209 3.84944L8.2305 3.85885C8.26732 3.86826 8.27653 3.87767 8.35938 3.86826C8.61715 3.84002 8.8657 3.78355 9.16029 3.84002C9.24314 3.85885 9.31679 3.8212 9.40884 3.8212C9.87834 3.83061 10.3294 3.8212 10.7989 3.79296C11.0659 3.77414 11.3697 3.77414 11.6551 3.80238C11.9128 3.8212 12.1798 3.78355 12.4376 3.79296C12.4928 3.79296 12.548 3.79296 12.6033 3.79296C12.7045 3.79296 12.7782 3.81179 12.769 3.84002C12.7598 3.86826 12.6769 3.86826 12.5941 3.87767C11.922 3.88708 11.25 3.89649 10.5688 3.89649C10.4675 3.89649 10.357 3.89649 10.3662 3.84944L10.3755 3.84002H10.357C10.1821 3.87767 10.0072 3.90591 9.76787 3.87767C9.69422 3.85885 9.56534 3.85885 9.46408 3.87767C9.37202 3.89649 9.29837 3.88708 9.22473 3.86826H9.20632L9.21552 3.87767C9.20632 3.89649 9.16029 3.90591 9.10505 3.90591C8.80126 3.89649 8.48826 3.90591 8.17527 3.89649C8.11083 3.89649 8.03718 3.89649 7.98194 3.88708C7.89909 3.87767 8.05559 3.86826 8.00036 3.85885C7.95433 3.84944 7.88989 3.84002 7.85306 3.85885C7.77021 3.89649 7.70577 3.84944 7.63212 3.85885C7.54927 3.90591 7.40198 3.90591 7.24548 3.90591C7.07978 3.90591 6.90487 3.90591 6.72996 3.90591C6.71154 3.88708 6.7944 3.87767 6.8036 3.85885Z" fill="black"/>
<path d="M1.36303 1.37415C1.23414 1.54356 1.08685 1.68473 0.95797 1.84473C0.902735 1.88238 0.847501 1.92944 0.801472 1.99532C0.792266 2.00473 0.792266 2.01415 0.78306 2.02356H0.764648C0.764648 2.0612 0.764648 1.94826 0.764648 2.09885L0.773854 2.10826C0.792266 2.11767 0.801472 2.1365 0.819883 2.14591C0.847501 2.17415 0.875118 2.19297 0.902736 2.2212C0.95797 2.27767 1.02241 2.33415 1.09606 2.41885C1.14209 2.46591 1.17891 2.49415 1.18812 2.47532C1.19732 2.44709 1.19732 2.40944 1.21573 2.39062C1.22494 2.37179 1.28017 2.3812 1.19732 2.2965C1.12367 2.2212 1.03162 2.12709 1.004 2.17415L1.07765 2.26826C1.03162 2.24003 1.01321 2.21179 0.994794 2.17415C0.976382 2.14591 0.95797 2.12709 0.939559 2.09885C0.921147 2.08003 0.902736 2.0612 0.89353 2.04238L0.865912 2.01415L0.856706 2.00473C0.856706 1.9765 0.856706 2.21179 0.856706 2.11767L0.865912 2.10826C0.902736 2.08003 0.939559 2.04238 0.95797 2.00473C0.985588 1.93885 0.95797 1.92003 0.89353 1.93885C0.884324 1.93885 0.856706 1.95767 0.865912 1.94826C0.875118 1.92003 0.911941 1.89179 0.939559 1.86356C0.967176 1.86356 0.985588 1.85415 1.01321 1.85415C1.09606 1.85415 1.08685 1.85415 1.1697 1.70356C1.23414 1.67532 1.21573 1.73179 1.27097 1.71297C1.35382 1.56238 1.35382 1.56238 1.17891 1.70356L1.24335 1.59062C1.26176 1.5812 1.28017 1.57179 1.30779 1.54356C1.30779 1.52473 1.317 1.52473 1.317 1.51532L1.25256 1.56238C1.28017 1.50591 1.38144 1.4212 1.36303 1.37415Z" fill="black"/>
<path d="M5.7082 3.87766C5.68979 3.9059 5.53329 3.87766 5.53329 3.92472C5.69899 3.94355 5.83708 3.9059 5.99358 3.9059C6.13167 3.92472 6.24214 3.89649 6.3434 3.87766H6.36181L6.3434 3.88708C6.3526 3.91531 6.39863 3.92472 6.4999 3.91531C6.57354 3.9059 6.62878 3.88708 6.60116 3.85884C6.57354 3.8306 6.51831 3.84002 6.44466 3.84002C6.30658 3.84943 6.1869 3.85884 6.08564 3.88708C6.01199 3.85884 5.91073 3.86825 5.81867 3.86825C5.77264 3.84943 5.72661 3.82119 5.61614 3.8306C5.45044 3.84943 5.25711 3.84002 5.073 3.86825C5.28473 3.88708 5.50567 3.86825 5.7082 3.87766Z" fill="black"/>
<path d="M2.1731 0.734132C2.1731 0.743543 2.19151 0.734132 2.20071 0.715308C2.20071 0.705896 2.20992 0.696485 2.20992 0.687073L2.19151 0.696485C2.1823 0.715308 2.1731 0.72472 2.1731 0.734132Z" fill="black"/>
<path d="M14.0394 1.37412C14.0486 1.38353 14.0578 1.38353 14.0762 1.39295C14.0762 1.38353 14.067 1.36471 14.0486 1.3553C14.0394 1.34589 14.0302 1.34589 14.0302 1.34589C14.0118 1.34589 14.021 1.3553 14.0394 1.37412Z" fill="black"/>
<path d="M13.036 3.56708C13.0268 3.57649 13.0084 3.5859 12.9992 3.5859L12.99 3.60472L13.0268 3.5859C13.036 3.57649 13.0452 3.56708 13.036 3.56708Z" fill="black"/>
<path d="M7.31917 0.0470581C7.30997 0.0470581 7.29155 0.0470581 7.29155 0.0470581C7.28235 0.0470581 7.28235 0.0564699 7.28235 0.0658816H7.32838C7.34679 0.0470581 7.33758 0.0470581 7.31917 0.0470581Z" fill="black"/>
<path d="M5.00855 3.91531C5.01776 3.91531 5.02697 3.91531 5.03617 3.9059C5.05458 3.89648 5.04538 3.89648 5.00855 3.89648C4.99014 3.89648 4.98094 3.9059 4.96252 3.9059C4.97173 3.91531 4.98094 3.92472 5.00855 3.91531Z" fill="black"/>
<path d="M5.33992 0.188232C5.33071 0.197644 5.34912 0.197644 5.37674 0.197644C5.38595 0.197644 5.39515 0.188232 5.40436 0.188232H5.38595C5.36754 0.188232 5.33992 0.188232 5.33992 0.188232Z" fill="black"/>
<path d="M1.35386 2.673C1.34466 2.66359 1.33545 2.66359 1.33545 2.65417C1.33545 2.66359 1.34466 2.66359 1.34466 2.673C1.35386 2.68241 1.36307 2.68241 1.36307 2.69182C1.36307 2.68241 1.36307 2.68241 1.35386 2.673Z" fill="black"/>
<path d="M6.25132 0.0565186L6.23291 0.0659303H6.25132V0.0565186Z" fill="black"/>
<path d="M11.692 0.0847168C11.6828 0.0847168 11.6828 0.0847168 11.6736 0.0847168C11.6644 0.0847168 11.6552 0.0847168 11.6552 0.0847168L11.6736 0.0941286L11.692 0.0847168Z" fill="black"/>
<path d="M13.7172 1.00708H13.708L13.7264 1.0259L13.7172 1.00708Z" fill="black"/>
<path d="M4.79678 0.0094392C4.79678 2.743e-05 4.78758 2.743e-05 4.76917 0.0094392C4.76917 0.0094392 4.76916 0.00943919 4.77837 0.018851L4.79678 0.0094392Z" fill="black"/>
<path d="M2.63345 0.0282593L2.60583 0.037671H2.65186L2.63345 0.0282593Z" fill="black"/>
<path d="M8.24893 3.83063H8.23972C8.23052 3.83063 8.23052 3.83063 8.22131 3.83063L8.23972 3.84004C8.23972 3.83063 8.23973 3.83063 8.24893 3.83063Z" fill="black"/>
</g>
<defs>
<clipPath id="clip0_104_4585">
<rect width="13.8824" height="4" fill="white" transform="translate(0.764648)"/>
</clipPath>
</defs>
</svg>
