<svg width="14" height="4" viewBox="0 0 14 4" fill="none" xmlns="http://www.w3.org/2000/svg">
<g clip-path="url(#clip0_104_4532)">
<path d="M12.0044 3.94354H1.87803C1.15997 3.20942 0.754918 2.7953 0.0368652 2.06119C0.754918 1.32707 1.15997 0.912951 1.87803 0.178833H12.0044C12.7225 0.912951 13.1275 1.32707 13.8456 2.06119C13.1275 2.7953 12.7225 3.20942 12.0044 3.94354Z" fill="black"/>
<path d="M12.0596 4.00001C12.0964 3.92472 11.9952 3.94354 12.1333 3.79295C12.2253 3.69884 12.299 3.59531 12.4002 3.49178C12.4831 3.40707 12.6212 3.28472 12.5199 3.28472C12.5015 3.29413 12.4923 3.31295 12.4739 3.32236H12.4647C12.4831 3.29413 12.5015 3.28472 12.5199 3.27531L12.6028 3.18119C12.6212 3.15295 12.6304 3.14354 12.6212 3.17178C12.6764 3.13413 12.6488 3.22825 12.7593 3.09648C12.8145 3.0306 12.7961 3.01178 12.8513 2.93648C12.9065 2.90825 12.8697 2.97413 12.9342 2.95531C12.9802 2.88942 13.0262 2.82354 13.0815 2.74825C13.1459 2.67295 13.1275 2.67295 13.0815 2.69178C13.0538 2.70119 13.1091 2.63531 13.1459 2.58825C13.2748 2.47531 13.4129 2.33413 13.4589 2.40001C13.4589 2.40001 13.4865 2.38119 13.5325 2.35295C13.4957 2.30589 13.5141 2.22119 13.6798 2.06119C13.7903 1.95766 13.7351 2.04236 13.7259 2.08001V2.08942L13.7351 2.0706C13.7535 2.04236 13.7811 2.01413 13.7995 1.98589V1.97648C13.8271 1.92001 13.8271 2.12707 13.7995 2.0706L13.7903 2.06119L13.7719 2.04236L13.7351 2.00472C13.689 1.95766 13.643 1.90119 13.6062 1.84472C13.5602 1.76001 13.4773 1.68472 13.4037 1.61884C13.33 1.55295 13.2564 1.50589 13.1919 1.4306C13.1827 1.42119 13.1643 1.42119 13.1551 1.41178C13.1183 1.39295 13.0723 1.36472 13.0538 1.32707C13.0354 1.28942 13.0907 1.32707 13.1275 1.36472C13.1459 1.38354 13.1551 1.39295 13.1735 1.41178C13.0354 1.23295 12.8789 1.10119 12.7224 0.969423C12.6488 0.903541 12.5659 0.865894 12.5107 0.762365C12.5751 0.809423 12.6396 0.856482 12.6028 0.771776L12.5107 0.762365C12.437 0.715306 12.3634 0.668247 12.3266 0.574129C12.345 0.583541 12.3726 0.602365 12.391 0.611776C12.4094 0.621188 12.391 0.592953 12.3726 0.583541C12.3542 0.574129 12.345 0.574129 12.3266 0.574129L11.986 0.235306H11.8203H11.6177C11.4889 0.235306 11.3508 0.225894 11.2219 0.216482C11.1666 0.20707 11.1206 0.20707 11.1206 0.188247C11.2035 0.169423 11.2955 0.1506 11.3968 0.131776C11.2127 0.141188 11.2127 0.141188 11.1114 0.188247C11.047 0.20707 10.9825 0.216482 10.9089 0.188247C10.8997 0.188247 10.8905 0.188247 10.8905 0.178835C10.8905 0.169423 10.9089 0.169423 10.9181 0.178835C10.8537 0.141188 10.734 0.131776 10.6327 0.169423C10.5314 0.20707 10.5038 0.20707 10.4026 0.169423C10.3105 0.131776 10.2369 0.244718 10.2092 0.169423C10.1908 0.103541 10.0804 0.141188 10.0067 0.141188H9.84101H9.8226L9.84101 0.1506C9.84101 0.160012 9.85022 0.160012 9.85022 0.169423C9.90545 0.169423 9.96069 0.178835 9.94228 0.197659C9.94228 0.197659 9.90545 0.20707 9.88704 0.20707C9.84101 0.20707 9.83181 0.188247 9.8226 0.178835C9.74895 0.178835 9.67531 0.188247 9.60166 0.169423C9.51881 0.1506 9.42675 0.131776 9.39913 0.188247C9.38993 0.20707 9.32549 0.225894 9.25184 0.216482C9.16899 0.20707 9.08614 0.225894 9.00328 0.216482C9.04011 0.169423 9.19661 0.197659 9.26105 0.160012C9.05852 0.141188 8.8744 0.1506 8.69949 0.178835C8.63505 0.188247 8.57061 0.20707 8.48776 0.20707C8.14714 0.197659 7.81574 0.235306 7.46591 0.20707C7.32783 0.197659 7.17133 0.197659 7.03324 0.20707C6.87674 0.216482 6.8031 0.20707 6.79389 0.160012C6.78469 0.131776 6.6466 0.122365 6.73866 0.0941293C6.83071 0.065894 6.92277 0.0376587 7.07007 0.0376587C7.15292 0.0376587 7.23577 0.0470705 7.34624 0.0564822C7.22656 0.0941293 7.07927 0.065894 6.92277 0.0941293C7.30021 0.103541 7.63162 0.0941293 7.96303 0.0753058C8.0827 0.0564822 8.20238 0.0376587 8.30364 0.0941293C8.35888 0.122365 8.47855 0.112953 8.57982 0.103541C8.79155 0.0847175 9.01249 0.0941293 9.23343 0.0941293C9.40834 0.0941293 9.59246 0.122365 9.76737 0.0847175C9.8226 0.0753057 9.96989 0.0753057 10.0159 0.0847175C10.3197 0.1506 10.6511 0.0941293 10.9733 0.112953C11.0838 0.122365 11.1482 0.0941293 11.2403 0.0847175C11.4336 0.065894 11.5901 0.103541 11.7558 0.112953C11.8018 0.112953 11.8571 0.141188 11.9031 0.122365C11.9307 0.112953 11.986 0.103541 12.0412 0.103541C12.1333 0.188247 12.1793 0.225894 12.2345 0.291776C12.2898 0.348247 12.345 0.404718 12.4094 0.461188C12.4831 0.52707 12.4278 0.508247 12.4186 0.508247C12.4094 0.498835 12.3726 0.461188 12.3726 0.480012L12.4186 0.508247C12.4831 0.564718 12.5475 0.6306 12.612 0.68707C12.7132 0.781188 12.7961 0.84707 12.8789 0.978835C12.9894 1.13884 13.1827 1.31766 13.3484 1.46825C13.4405 1.55295 13.5141 1.61884 13.5786 1.71295C13.6338 1.79766 13.7075 1.87295 13.7811 1.93884L13.8363 1.98589L13.864 2.01413L13.8824 2.02354L13.8916 2.03295C13.8916 2.16472 13.8916 2.0706 13.8916 2.09884C13.8639 2.13648 13.8271 2.17413 13.7995 2.21178C13.7719 2.24942 13.7535 2.28707 13.7167 2.33413C13.689 2.36236 13.6522 2.40942 13.6522 2.38119C13.6522 2.37178 13.6706 2.34354 13.6798 2.31531L13.689 2.30589L13.6798 2.32472C13.597 2.42825 13.4497 2.54119 13.4221 2.64472C13.4221 2.65413 13.3668 2.7106 13.3576 2.7106C13.238 2.74825 13.1919 2.88001 13.1091 2.95531C13.017 3.04001 12.9158 3.20001 12.8145 3.20942C12.6948 3.36001 12.5291 3.48236 12.4002 3.63295C12.2898 3.76472 12.1609 3.87766 12.0596 4.00001ZM7.03324 0.1506C7.01483 0.141188 6.99642 0.1506 6.98721 0.160012C6.98721 0.160012 6.99642 0.169423 7.00562 0.169423C7.01483 0.160012 7.02404 0.160012 7.03324 0.1506ZM7.56718 0.160012C7.55797 0.160012 7.54877 0.1506 7.54877 0.1506C7.52115 0.1506 7.51194 0.1506 7.53956 0.160012C7.53956 0.160012 7.55797 0.169423 7.56718 0.160012ZM8.09191 0.160012C8.0827 0.160012 8.0735 0.160012 8.06429 0.160012C8.02747 0.160012 8.02747 0.160012 8.04588 0.169423C8.05509 0.169423 8.06429 0.169423 8.0735 0.169423C8.0827 0.169423 8.0827 0.160012 8.09191 0.160012ZM8.36808 0.169423C8.34967 0.160012 8.34047 0.160012 8.33126 0.160012C8.31285 0.169423 8.31285 0.169423 8.34047 0.169423C8.35888 0.178835 8.36808 0.169423 8.36808 0.169423Z" fill="black"/>
<path d="M6.74789 0.188254C6.6098 0.197666 6.51775 0.235313 6.41648 0.188254C6.37966 0.16943 6.35204 0.178842 6.31522 0.188254C6.25078 0.197666 6.19554 0.207077 6.1311 0.207077C6.05746 0.216489 5.95619 0.225901 5.92857 0.197666C5.90096 0.160018 6.03904 0.178842 6.09428 0.160018C6.02984 0.122371 5.91937 0.141195 5.82731 0.141195C5.79969 0.141195 5.75366 0.150607 5.74446 0.150607C5.71684 0.16943 5.88255 0.197666 5.72605 0.216489C5.57875 0.225901 5.39464 0.235313 5.28417 0.207077C5.23814 0.188254 5.46828 0.197666 5.4959 0.160018C5.3394 0.131783 5.20132 0.150607 5.08164 0.178842C4.88832 0.225901 4.88832 0.235313 4.78705 0.16943C4.73182 0.131783 4.61214 0.141195 4.57532 0.160018C4.43723 0.235313 4.17027 0.225901 3.94933 0.263548C3.9033 0.216489 3.98615 0.188254 4.07821 0.16943C3.96774 0.160018 3.9125 0.16943 3.88489 0.197666C3.86647 0.216489 3.83886 0.235313 3.76521 0.235313C3.66395 0.235313 3.65474 0.207077 3.63633 0.188254C3.62712 0.16943 3.58109 0.16943 3.52586 0.160018C3.49824 0.188254 3.47983 0.216489 3.40618 0.225901C3.36015 0.235313 3.30492 0.244724 3.25889 0.235313C3.18524 0.216489 3.24969 0.197666 3.28651 0.188254L3.30492 0.178842H3.28651C3.23127 0.178842 3.15763 0.150607 3.13001 0.188254C3.10239 0.225901 3.02875 0.225901 2.92748 0.225901C2.78019 0.235313 2.74337 0.207077 2.67893 0.178842C2.66051 0.16943 2.6421 0.16943 2.62369 0.178842L2.55925 0.188254L2.6329 0.178842H2.65131H2.66972C2.69734 0.207077 2.65131 0.225901 2.56846 0.235313C2.4764 0.244724 2.36593 0.244724 2.27387 0.235313C2.1634 0.216489 2.3199 0.197666 2.29228 0.178842C2.15419 0.178842 2.0069 0.178842 1.87802 0.188254C1.76755 0.320018 1.67549 0.451783 1.60185 0.583548C1.51899 0.611783 1.56502 0.564724 1.59264 0.527077C1.62026 0.48943 1.63867 0.461195 1.62026 0.461195C1.60185 0.461195 1.57423 0.48943 1.56502 0.508254C1.50058 0.621195 1.42694 0.677665 1.33488 0.724724C1.26123 0.837665 1.10473 0.978842 1.06791 1.09178C1.10473 1.05414 1.14156 1.00708 1.17838 0.96943C1.206 0.941195 1.23361 0.903548 1.27044 0.884724C1.22441 0.978842 1.14156 1.04472 1.0495 1.11061C0.920617 1.25178 0.800941 1.40237 0.653649 1.52472C0.626031 1.41178 0.626031 1.41178 0.810147 1.19531C0.929823 1.06355 1.0587 0.931783 1.16917 0.790607C1.23361 0.705901 1.32567 0.621195 1.35329 0.668254C1.42694 0.564724 1.5282 0.451783 1.58343 0.338842C1.61105 0.291783 1.64788 0.254136 1.6939 0.225901C1.73993 0.197666 1.78596 0.188254 1.82279 0.16943C1.83199 0.150607 1.8504 0.122371 1.85961 0.103548C1.88723 0.0941362 1.90564 0.0941361 1.92405 0.0847244C1.93326 0.0941361 1.95167 0.0941361 1.96087 0.0941361L1.98849 0.0847244C2.0069 0.0753126 2.04373 0.0753126 2.08055 0.0753126C2.19102 0.150607 2.31069 0.0564891 2.42116 0.0753126C2.46719 0.0847244 2.61448 0.0659009 2.50402 0.103548C2.57766 0.11296 2.65131 0.11296 2.72495 0.0941361C2.80781 0.0753126 3.21286 0.0470773 3.29571 0.0564891C3.34174 0.0564891 3.37857 0.0659009 3.41539 0.0753126C3.54427 0.0376656 3.70998 0.0470773 3.85727 0.0376656C3.93092 0.0282538 4.00456 0.0470773 3.93091 0.0753126C3.9033 0.0847244 3.94012 0.103548 3.98615 0.0941361C4.14265 0.0941361 4.30835 0.0847244 4.47406 0.0753126C4.48326 0.0753126 4.49247 0.0753126 4.50167 0.0659009H4.52009C4.52009 0.0659009 4.51088 0.0753126 4.50167 0.0753126C4.74103 0.0847244 4.98038 0.0941361 5.21973 0.0753126C5.21052 0.0753126 5.20132 0.0753126 5.20132 0.0659009C5.20132 0.0564891 5.21973 0.0564891 5.23814 0.0659009C5.54193 0.0847244 5.85493 0.0941361 6.15872 0.0659009L6.14031 0.0564891H6.17713C6.38886 0.0470773 6.52695 0.0753126 6.58219 0.122371C6.58219 0.160018 6.65583 0.16943 6.74789 0.188254ZM2.97351 0.178842C2.96431 0.178842 2.9551 0.16943 2.94589 0.16943C2.93669 0.16943 2.91828 0.178842 2.90907 0.178842C2.92748 0.178842 2.93669 0.188254 2.9551 0.188254L2.97351 0.178842ZM3.47983 0.0847244L3.41539 0.0753126C3.4246 0.0753126 3.44301 0.0847244 3.45221 0.0847244C3.46142 0.0847244 3.47062 0.0847244 3.47983 0.0847244Z" fill="black"/>
<path d="M1.39003 3.48236C1.5005 3.52001 1.61097 3.68001 1.72144 3.76472C1.79509 3.82119 1.76747 3.84942 1.85953 3.94354L1.86873 3.95295C2.07126 3.94354 2.26458 3.95295 2.46711 3.93413C2.73408 3.9153 2.74328 3.92472 2.78931 3.84001C2.53155 3.86824 2.27379 3.92472 2.07126 3.81177C2.02523 3.84001 1.98841 3.85883 1.96079 3.86824H1.94238L1.96079 3.85883C1.95159 3.84942 1.94238 3.84001 1.94238 3.8306C1.93317 3.8306 1.92397 3.84001 1.91476 3.84001C1.90556 3.84001 1.90556 3.8306 1.89635 3.8306C1.88715 3.82119 1.88714 3.82119 1.86873 3.81177C1.85032 3.79295 1.8227 3.76472 1.79509 3.74589C1.74906 3.69883 1.70303 3.65177 1.657 3.61413L1.63859 3.60472L1.64779 3.61413C1.4913 3.42589 1.4913 3.42589 1.29797 3.38824C1.3348 3.42589 1.37162 3.47295 1.39003 3.48236Z" fill="black"/>
<path d="M0.51558 2.5318C0.51558 2.51297 0.51558 2.48474 0.570815 2.5318C0.644461 2.59768 0.681285 2.58827 0.745725 2.64474C0.80096 2.72003 0.718108 2.66356 0.73652 2.71062C0.91143 2.88944 1.11396 3.00238 1.29807 3.20944C1.30728 3.20944 1.30728 3.21885 1.31649 3.21885L1.32569 3.22827C1.32569 3.22827 1.31649 3.22827 1.30728 3.21885C1.29807 3.24709 1.26125 3.24709 1.20602 3.22827C1.21522 3.2565 1.22443 3.28474 1.19681 3.26591C1.1876 3.2565 1.16919 3.23768 1.15999 3.22827L1.1784 3.20944C1.11396 3.16238 1.05872 3.05885 0.985076 3.05885C0.929841 3.06827 0.883812 2.92709 0.810166 2.86121L0.745725 2.82356L0.708902 2.79533H0.727314C0.73652 2.79533 0.73652 2.79533 0.73652 2.78591C0.699696 2.72944 0.644462 2.68238 0.589227 2.63533C0.543198 2.59768 0.506374 2.55062 0.51558 2.5318ZM0.773343 2.81415L0.791754 2.82356V2.81415H0.773343Z" fill="black"/>
<path d="M3.14844 3.93414C3.20367 3.90591 3.2497 3.87767 3.29573 3.85885C3.28652 3.85885 3.27732 3.84944 3.27732 3.84944C3.27732 3.84002 3.29573 3.84002 3.31414 3.84944C3.4062 3.84944 3.46143 3.81179 3.58111 3.84002C3.70079 3.86826 3.83887 3.8212 3.97696 3.83061C4.0414 3.83061 4.11505 3.83061 4.13346 3.85885C4.14266 3.87767 4.07822 3.88708 4.0414 3.89649C3.91252 3.92473 3.70999 3.93414 3.52588 3.90591C3.46143 3.89649 3.45223 3.90591 3.41541 3.91532C3.35096 3.91532 3.27732 3.93414 3.14844 3.93414ZM3.82967 3.85885H3.84808V3.84944L3.82967 3.85885Z" fill="black"/>
<path d="M6.03895 3.85885C6.02054 3.84944 5.98372 3.84002 6.01134 3.84002C6.03895 3.83061 6.04816 3.84944 6.05737 3.85885C6.07578 3.84944 6.10339 3.84002 6.12181 3.84002C6.36116 3.85885 6.60971 3.83061 6.83986 3.85885C7.00556 3.81179 7.28174 3.81179 7.44744 3.84944L7.46585 3.85885C7.50268 3.86826 7.51188 3.87767 7.59473 3.86826C7.8525 3.84002 8.10105 3.78355 8.39564 3.84002C8.47849 3.85885 8.55214 3.8212 8.6442 3.8212C9.11369 3.83061 9.56478 3.8212 10.0343 3.79296C10.3012 3.77414 10.605 3.77414 10.8904 3.80238C11.1482 3.8212 11.4151 3.78355 11.6729 3.79296C11.7281 3.79296 11.7834 3.79296 11.8386 3.79296C11.9399 3.79296 12.0135 3.81179 12.0043 3.84002C11.9951 3.86826 11.9123 3.86826 11.8294 3.87767C11.1574 3.88708 10.4854 3.89649 9.80413 3.89649C9.70286 3.89649 9.59239 3.89649 9.6016 3.84944L9.61081 3.84002H9.59239C9.41748 3.87767 9.24257 3.90591 9.00322 3.87767C8.92958 3.85885 8.80069 3.85885 8.69943 3.87767C8.60737 3.89649 8.53373 3.88708 8.46008 3.86826H8.44167L8.45087 3.87767C8.44167 3.89649 8.39564 3.90591 8.3404 3.90591C8.03661 3.89649 7.72362 3.90591 7.41062 3.89649C7.34618 3.89649 7.27253 3.89649 7.2173 3.88708C7.13444 3.87767 7.29094 3.86826 7.23571 3.85885C7.18968 3.84944 7.12524 3.84002 7.08841 3.85885C7.00556 3.89649 6.94112 3.84944 6.86748 3.85885C6.78462 3.90591 6.63733 3.90591 6.48083 3.90591C6.31513 3.90591 6.14022 3.90591 5.96531 3.90591C5.9469 3.88708 6.02975 3.87767 6.03895 3.85885Z" fill="black"/>
<path d="M0.598377 1.37415C0.469496 1.54356 0.322203 1.68473 0.193322 1.84473C0.138087 1.88238 0.0828522 1.92944 0.0368232 1.99532C0.0276174 2.00473 0.0276174 2.01415 0.0184116 2.02356H0C0 2.0612 0 1.94826 0 2.09885L0.0092058 2.10826C0.0276174 2.11767 0.0368232 2.1365 0.0552348 2.14591C0.0828522 2.17415 0.11047 2.19297 0.138087 2.2212C0.193322 2.27767 0.257762 2.33415 0.331409 2.41885C0.377438 2.46591 0.414261 2.49415 0.423467 2.47532C0.432673 2.44709 0.432673 2.40944 0.451084 2.39062C0.46029 2.37179 0.515525 2.3812 0.432673 2.2965C0.359026 2.2212 0.266968 2.12709 0.239351 2.17415L0.312997 2.26826C0.266968 2.24003 0.248557 2.21179 0.230145 2.17415C0.211733 2.14591 0.193322 2.12709 0.17491 2.09885C0.156499 2.08003 0.138087 2.0612 0.128881 2.04238L0.101264 2.01415L0.092058 2.00473C0.092058 1.9765 0.092058 2.21179 0.092058 2.11767L0.101264 2.10826C0.138087 2.08003 0.17491 2.04238 0.193322 2.00473C0.220939 1.93885 0.193322 1.92003 0.128881 1.93885C0.119675 1.93885 0.092058 1.95767 0.101264 1.94826C0.11047 1.92003 0.147293 1.89179 0.17491 1.86356C0.202528 1.86356 0.220939 1.85415 0.248557 1.85415C0.331409 1.85415 0.322203 1.85415 0.405055 1.70356C0.469496 1.67532 0.451084 1.73179 0.506319 1.71297C0.589171 1.56238 0.589171 1.56238 0.414261 1.70356L0.478702 1.59062C0.497113 1.5812 0.515525 1.57179 0.543142 1.54356C0.543142 1.52473 0.552348 1.52473 0.552348 1.51532L0.487908 1.56238C0.515525 1.50591 0.616789 1.4212 0.598377 1.37415Z" fill="black"/>
<path d="M4.94355 3.87766C4.92514 3.9059 4.76864 3.87766 4.76864 3.92472C4.93434 3.94355 5.07243 3.9059 5.22893 3.9059C5.36702 3.92472 5.47749 3.89649 5.57875 3.87766H5.59716L5.57875 3.88708C5.58796 3.91531 5.63399 3.92472 5.73525 3.91531C5.8089 3.9059 5.86413 3.88708 5.83651 3.85884C5.8089 3.8306 5.75366 3.84002 5.68001 3.84002C5.54193 3.84943 5.42225 3.85884 5.32099 3.88708C5.24734 3.85884 5.14608 3.86825 5.05402 3.86825C5.00799 3.84943 4.96196 3.82119 4.85149 3.8306C4.68579 3.84943 4.49247 3.84002 4.30835 3.86825C4.52008 3.88708 4.74102 3.86825 4.94355 3.87766Z" fill="black"/>
<path d="M1.40845 0.734132C1.40845 0.743543 1.42686 0.734132 1.43606 0.715308C1.43606 0.705896 1.44527 0.696485 1.44527 0.687073L1.42686 0.696485C1.41765 0.715308 1.40845 0.72472 1.40845 0.734132Z" fill="black"/>
<path d="M13.2747 1.37412C13.2839 1.38353 13.2931 1.38353 13.3116 1.39295C13.3116 1.38353 13.3024 1.36471 13.2839 1.3553C13.2747 1.34589 13.2655 1.34589 13.2655 1.34589C13.2471 1.34589 13.2563 1.3553 13.2747 1.37412Z" fill="black"/>
<path d="M12.2714 3.56708C12.2622 3.57649 12.2438 3.5859 12.2345 3.5859L12.2253 3.60472L12.2622 3.5859C12.2714 3.57649 12.2806 3.56708 12.2714 3.56708Z" fill="black"/>
<path d="M6.55452 0.0470581C6.54532 0.0470581 6.52691 0.0470581 6.52691 0.0470581C6.5177 0.0470581 6.5177 0.0564699 6.5177 0.0658816H6.56373C6.58214 0.0470581 6.57293 0.0470581 6.55452 0.0470581Z" fill="black"/>
<path d="M4.2439 3.91531C4.25311 3.91531 4.26232 3.91531 4.27152 3.9059C4.28993 3.89648 4.28073 3.89648 4.2439 3.89648C4.22549 3.89648 4.21629 3.9059 4.19788 3.9059C4.20708 3.91531 4.21629 3.92472 4.2439 3.91531Z" fill="black"/>
<path d="M4.57527 0.188232C4.56606 0.197644 4.58448 0.197644 4.61209 0.197644C4.6213 0.197644 4.63051 0.188232 4.63971 0.188232H4.6213C4.60289 0.188232 4.57527 0.188232 4.57527 0.188232Z" fill="black"/>
<path d="M0.589212 2.673C0.580007 2.66359 0.570801 2.66359 0.570801 2.65417C0.570801 2.66359 0.580007 2.66359 0.580007 2.673C0.589212 2.68241 0.598418 2.68241 0.598418 2.69182C0.598418 2.68241 0.598418 2.68241 0.589212 2.673Z" fill="black"/>
<path d="M5.48667 0.0565186L5.46826 0.0659303H5.48667V0.0565186Z" fill="black"/>
<path d="M10.9273 0.0847168C10.9181 0.0847168 10.9181 0.0847168 10.9089 0.0847168C10.8997 0.0847168 10.8905 0.0847168 10.8905 0.0847168L10.9089 0.0941286L10.9273 0.0847168Z" fill="black"/>
<path d="M12.9526 1.00708H12.9434L12.9618 1.0259L12.9526 1.00708Z" fill="black"/>
<path d="M4.03213 0.0094392C4.03213 2.743e-05 4.02293 2.743e-05 4.00452 0.0094392C4.00452 0.0094392 4.00452 0.00943919 4.01372 0.018851L4.03213 0.0094392Z" fill="black"/>
<path d="M1.8688 0.0282593L1.84119 0.037671H1.88722L1.8688 0.0282593Z" fill="black"/>
<path d="M7.48428 3.83063H7.47508C7.46587 3.83063 7.46587 3.83063 7.45667 3.83063L7.47508 3.84004C7.47508 3.83063 7.47508 3.83063 7.48428 3.83063Z" fill="black"/>
</g>
<defs>
<clipPath id="clip0_104_4532">
<rect width="13.8824" height="4" fill="white"/>
</clipPath>
</defs>
</svg>
