<svg width="31" height="7" viewBox="0 0 31 7" fill="none" xmlns="http://www.w3.org/2000/svg">
<path d="M26.775 6.2745H4.89174C3.34002 5.17332 2.46469 4.55215 0.912964 3.45097C2.46469 2.34979 3.34002 1.72862 4.89174 0.627441H26.775C28.3268 1.72862 29.2021 2.34979 30.7538 3.45097C29.2021 4.55215 28.3268 5.17332 26.775 6.2745Z" fill="white"/>
<path d="M26.8944 6.35954C26.974 6.2466 26.7551 6.27484 27.0535 6.04896C27.2525 5.90778 27.4116 5.75249 27.6305 5.59719C27.8095 5.47013 28.1079 5.2866 27.8891 5.2866C27.8493 5.30072 27.8294 5.32896 27.7896 5.34307H27.7697C27.8095 5.30072 27.8493 5.2866 27.8891 5.27249L28.0681 5.13131C28.1079 5.08896 28.1278 5.07484 28.1079 5.11719C28.2273 5.06072 28.1676 5.2019 28.4063 5.00425C28.5257 4.90543 28.4859 4.87719 28.6053 4.76425C28.7246 4.7219 28.6451 4.82072 28.7843 4.79249C28.8838 4.69366 28.9833 4.59484 29.1026 4.4819C29.2419 4.36896 29.2021 4.36896 29.1026 4.39719C29.0429 4.41131 29.1623 4.31249 29.2419 4.2419C29.5204 4.07249 29.8188 3.86072 29.9183 3.95954C29.9183 3.95954 29.9779 3.93131 30.0774 3.88896C29.9978 3.81837 30.0376 3.69131 30.3957 3.45131C30.6344 3.29602 30.5151 3.42307 30.4952 3.47954V3.49366L30.5151 3.46543C30.5549 3.42307 30.6145 3.38072 30.6543 3.33837V3.32425C30.714 3.23954 30.714 3.55013 30.6543 3.46543L30.6344 3.45131L30.5947 3.42307L30.5151 3.3666C30.4156 3.29602 30.3161 3.21131 30.2366 3.1266C30.1371 2.99955 29.9581 2.8866 29.7989 2.78778C29.6397 2.68896 29.4806 2.61837 29.3413 2.50543C29.3214 2.49131 29.2817 2.49131 29.2618 2.47719C29.1822 2.44896 29.0827 2.4066 29.0429 2.35013C29.0031 2.29366 29.1225 2.35013 29.2021 2.4066C29.2419 2.43484 29.2618 2.44896 29.3016 2.47719C29.0031 2.20896 28.6649 2.01131 28.3267 1.81366C28.1676 1.71484 27.9886 1.65837 27.8692 1.50307C28.0084 1.57366 28.1477 1.64425 28.0681 1.51719L27.8692 1.50307C27.71 1.43249 27.5509 1.3619 27.4713 1.22072C27.5111 1.23484 27.5708 1.26307 27.6106 1.27719C27.6504 1.29131 27.6106 1.24896 27.5708 1.23484C27.531 1.22072 27.5111 1.22072 27.4713 1.22072L26.7352 0.712486H26.3771H25.9395C25.661 0.712486 25.3626 0.698369 25.084 0.684251C24.9647 0.670133 24.8652 0.670133 24.8652 0.641898C25.0443 0.613663 25.2432 0.585427 25.462 0.557192C25.0642 0.57131 25.0641 0.57131 24.8453 0.641898C24.7061 0.670133 24.5668 0.684251 24.4077 0.641898C24.3878 0.641898 24.3679 0.641898 24.3679 0.62778C24.3679 0.613663 24.4077 0.613663 24.4275 0.62778C24.2883 0.57131 24.0297 0.557192 23.8108 0.613663C23.592 0.670133 23.5323 0.670133 23.3135 0.613663C23.1145 0.557192 22.9554 0.726604 22.8957 0.613663C22.8559 0.514839 22.6172 0.57131 22.458 0.57131H22.1H22.0602L22.1 0.585427C22.1 0.599545 22.1199 0.599545 22.1199 0.613663C22.2392 0.613663 22.3586 0.62778 22.3188 0.656016C22.3188 0.656016 22.2392 0.670133 22.1994 0.670133C22.1 0.670133 22.0801 0.641898 22.0602 0.62778C21.901 0.62778 21.7419 0.641898 21.5827 0.613663C21.4037 0.585427 21.2047 0.557192 21.1451 0.641898C21.1252 0.670133 20.9859 0.698369 20.8267 0.684251C20.6477 0.670133 20.4687 0.698369 20.2896 0.684251C20.3692 0.613663 20.7074 0.656016 20.8466 0.599545C20.409 0.57131 20.0111 0.585427 19.6331 0.62778C19.4939 0.641898 19.3546 0.670133 19.1756 0.670133C18.4395 0.656016 17.7233 0.712486 16.9673 0.670133C16.6689 0.656016 16.3307 0.656016 16.0323 0.670133C15.6941 0.684251 15.535 0.670133 15.5151 0.599545C15.4952 0.557192 15.1968 0.543074 15.3957 0.500722C15.5947 0.458369 15.7936 0.416016 16.1119 0.416016C16.2909 0.416016 16.47 0.430133 16.7087 0.444251C16.4501 0.500722 16.1318 0.458369 15.7936 0.500722C16.6092 0.514839 17.3254 0.500722 18.0416 0.472486C18.3002 0.444251 18.5588 0.416016 18.7777 0.500722C18.897 0.543074 19.1557 0.528957 19.3745 0.514839C19.8321 0.486604 20.3095 0.500722 20.787 0.500722C21.1649 0.500722 21.5628 0.543074 21.9408 0.486604C22.0602 0.472486 22.3785 0.472486 22.4779 0.486604C23.1344 0.585427 23.8506 0.500722 24.5469 0.528957C24.7856 0.543074 24.9249 0.500721 25.1238 0.486604C25.5416 0.458369 25.8798 0.514839 26.2379 0.528957C26.3374 0.528957 26.4567 0.57131 26.5562 0.543074C26.6159 0.528957 26.7352 0.514839 26.8546 0.514839C27.0535 0.641898 27.153 0.698369 27.2724 0.797192C27.3917 0.881898 27.5111 0.966604 27.6504 1.05131C27.8095 1.15013 27.6901 1.1219 27.6702 1.1219C27.6504 1.10778 27.5708 1.05131 27.5708 1.07954L27.6702 1.1219C27.8095 1.2066 27.9488 1.30543 28.088 1.39013C28.3069 1.53131 28.4859 1.63013 28.6649 1.82778C28.9037 2.06778 29.3214 2.33602 29.6795 2.5619C29.8785 2.68896 30.0376 2.78778 30.1769 2.92896C30.2962 3.05602 30.4554 3.16896 30.6145 3.26778L30.7339 3.33837L30.7936 3.38072L30.8334 3.39484L30.8533 3.40896C30.8533 3.6066 30.8533 3.46543 30.8533 3.50778C30.7936 3.56425 30.714 3.62072 30.6543 3.67719C30.5947 3.73366 30.5549 3.79013 30.4753 3.86072C30.4156 3.90307 30.336 3.97366 30.336 3.93131C30.336 3.91719 30.3758 3.87484 30.3957 3.83249L30.4156 3.81837L30.3957 3.8466C30.2167 4.0019 29.8984 4.17131 29.8387 4.3266C29.8387 4.34072 29.7193 4.42543 29.6994 4.42543C29.4408 4.4819 29.3413 4.67954 29.1623 4.79249C28.9634 4.91954 28.7445 5.15954 28.5257 5.17366C28.2671 5.39954 27.909 5.58307 27.6305 5.80896C27.3917 6.0066 27.1132 6.17601 26.8944 6.35954ZM16.0323 0.585427C15.9925 0.57131 15.9527 0.585427 15.9329 0.599545C15.9329 0.599545 15.9527 0.613663 15.9726 0.613663C15.9925 0.599545 16.0124 0.599545 16.0323 0.585427ZM17.1862 0.599545C17.1663 0.599545 17.1464 0.585427 17.1464 0.585427C17.0867 0.585427 17.0668 0.585427 17.1265 0.599545C17.1265 0.599545 17.1663 0.613663 17.1862 0.599545ZM18.3201 0.599545C18.3002 0.599545 18.2803 0.599545 18.2604 0.599545C18.1809 0.599545 18.1809 0.599545 18.2206 0.613663C18.2405 0.613663 18.2604 0.613663 18.2803 0.613663C18.3002 0.613663 18.3002 0.599545 18.3201 0.599545ZM18.9169 0.613663C18.8771 0.599545 18.8573 0.599545 18.8374 0.599545C18.7976 0.613663 18.7976 0.613663 18.8573 0.613663C18.897 0.62778 18.9169 0.613663 18.9169 0.613663Z" fill="white"/>
<path d="M15.4156 0.641664C15.1172 0.655782 14.9182 0.712252 14.6994 0.641664C14.6198 0.613429 14.5602 0.627546 14.4806 0.641664C14.3413 0.655782 14.222 0.669899 14.0827 0.669899C13.9236 0.684017 13.7047 0.698135 13.645 0.655782C13.5854 0.599311 13.8838 0.627546 14.0031 0.599311C13.8639 0.542841 13.6251 0.571076 13.4262 0.571076C13.3665 0.571076 13.2671 0.585194 13.2472 0.585194C13.1875 0.613429 13.5456 0.655782 13.2074 0.684017C12.8891 0.698135 12.4912 0.712252 12.2525 0.669899C12.153 0.641664 12.6503 0.655782 12.71 0.599311C12.3718 0.556958 12.0734 0.585194 11.8148 0.627546C11.397 0.698135 11.397 0.712252 11.1782 0.613429C11.0588 0.556958 10.8002 0.571076 10.7206 0.599311C10.4222 0.712252 9.8453 0.698135 9.36785 0.754605C9.26838 0.684017 9.44743 0.641664 9.64637 0.613429C9.40764 0.599311 9.28828 0.613429 9.22859 0.655782C9.18881 0.684017 9.12912 0.712252 8.96997 0.712252C8.75114 0.712252 8.73125 0.669899 8.69146 0.641664C8.67156 0.613429 8.57209 0.613429 8.45273 0.599311C8.39305 0.641664 8.35326 0.684017 8.19411 0.698135C8.09464 0.712252 7.97528 0.72637 7.87581 0.712252C7.71666 0.684017 7.85591 0.655782 7.93549 0.641664L7.97528 0.627546H7.93549C7.81613 0.627546 7.65698 0.585194 7.59729 0.641664C7.53761 0.698135 7.37846 0.698135 7.15963 0.698135C6.84133 0.712252 6.76175 0.669899 6.62249 0.627546C6.58271 0.613429 6.54292 0.613429 6.50313 0.627546L6.36387 0.641664L6.52302 0.627546H6.56281H6.6026C6.66228 0.669899 6.56281 0.698135 6.38377 0.712252C6.18483 0.72637 5.9461 0.72637 5.74716 0.712252C5.50843 0.684017 5.84663 0.655782 5.78695 0.627546C5.48854 0.627546 5.17024 0.627546 4.89172 0.641664C4.653 0.839311 4.45406 1.03696 4.29491 1.23461C4.11586 1.27696 4.21533 1.20637 4.27501 1.1499C4.33469 1.09343 4.37448 1.05108 4.33469 1.05108C4.29491 1.05108 4.23522 1.09343 4.21533 1.12166C4.07607 1.29108 3.91692 1.37578 3.71798 1.44637C3.55883 1.61578 3.22064 1.82755 3.14106 1.99696C3.22064 1.94049 3.30021 1.8699 3.37979 1.81343C3.43947 1.77108 3.49915 1.71461 3.57873 1.68637C3.47926 1.82755 3.30021 1.92637 3.10127 2.02519C2.82276 2.23696 2.56414 2.46284 2.24583 2.64637C2.18615 2.47696 2.18615 2.47696 2.58403 2.15225C2.84265 1.95461 3.12117 1.75696 3.35989 1.54519C3.49915 1.41813 3.69809 1.29108 3.75777 1.36166C3.91692 1.20637 4.13576 1.03696 4.25512 0.867546C4.3148 0.796958 4.39438 0.740488 4.49385 0.698135C4.59331 0.655782 4.69278 0.641664 4.77236 0.613429C4.79225 0.585194 4.83204 0.542841 4.85194 0.514605C4.91162 0.500488 4.95141 0.500488 4.99119 0.48637C5.01109 0.500488 5.05087 0.500488 5.07077 0.500488L5.13045 0.48637C5.17024 0.472252 5.24981 0.472252 5.32939 0.472252C5.56812 0.585194 5.82674 0.444017 6.06546 0.472252C6.16493 0.48637 6.48324 0.458135 6.24451 0.514605C6.40366 0.528723 6.56281 0.528723 6.72196 0.500488C6.90101 0.472252 7.77634 0.429899 7.95538 0.444017C8.05485 0.444017 8.13443 0.458135 8.214 0.472252C8.49252 0.415782 8.85061 0.429899 9.16891 0.415782C9.32806 0.401664 9.48721 0.429899 9.32806 0.472252C9.26838 0.48637 9.34796 0.514605 9.44743 0.500488C9.78562 0.500488 10.1437 0.48637 10.5018 0.472252C10.5217 0.472252 10.5416 0.472252 10.5615 0.458135H10.6013C10.6013 0.458135 10.5814 0.472252 10.5615 0.472252C11.0787 0.48637 11.596 0.500488 12.1132 0.472252C12.0933 0.472252 12.0734 0.472252 12.0734 0.458135C12.0734 0.444017 12.1132 0.444017 12.153 0.458135C12.8095 0.48637 13.4859 0.500488 14.1424 0.458135L14.1026 0.444017H14.1822C14.6397 0.429899 14.9381 0.472252 15.0575 0.542841C15.0575 0.599311 15.2167 0.613429 15.4156 0.641664ZM7.2591 0.627546C7.2392 0.627546 7.21931 0.613429 7.19942 0.613429C7.17952 0.613429 7.13973 0.627546 7.11984 0.627546C7.15963 0.627546 7.17952 0.641664 7.21931 0.641664L7.2591 0.627546ZM8.35326 0.48637L8.214 0.472252C8.2339 0.472252 8.27369 0.48637 8.29358 0.48637C8.31347 0.48637 8.33337 0.48637 8.35326 0.48637Z" fill="white"/>
<path d="M3.83737 5.58307C4.07609 5.63954 4.31482 5.87954 4.55355 6.0066C4.7127 6.09131 4.65302 6.13366 4.85196 6.27484L4.87185 6.28895C5.30952 6.27484 5.72729 6.28895 6.16495 6.26072C6.74188 6.23248 6.76177 6.2466 6.86124 6.11954C6.30421 6.16189 5.74718 6.2466 5.30952 6.07719C5.21005 6.11954 5.13047 6.14778 5.07079 6.16189H5.031L5.07079 6.14778C5.05089 6.13366 5.031 6.11954 5.031 6.10542C5.01111 6.10542 4.99121 6.11954 4.97132 6.11954C4.95142 6.11954 4.95143 6.10542 4.93153 6.10542C4.91164 6.09131 4.91164 6.09131 4.87185 6.07719C4.83206 6.04895 4.77238 6.0066 4.7127 5.97837C4.61323 5.90778 4.51376 5.83719 4.41429 5.78072L4.3745 5.7666L4.3944 5.78072C4.0562 5.49837 4.0562 5.49837 3.63843 5.44189C3.718 5.49837 3.79758 5.56895 3.83737 5.58307Z" fill="white"/>
<path d="M1.9474 4.15679C1.9474 4.12856 1.9474 4.08621 2.06677 4.15679C2.22592 4.25562 2.3055 4.2415 2.44475 4.32621C2.56412 4.43915 2.38507 4.35444 2.42486 4.42503C2.80284 4.69326 3.24051 4.86268 3.63839 5.17326C3.65828 5.17326 3.65828 5.18738 3.67817 5.18738L3.69807 5.2015C3.69807 5.2015 3.67817 5.2015 3.65828 5.18738C3.63839 5.22974 3.55881 5.22974 3.43945 5.2015C3.45934 5.24385 3.47923 5.28621 3.41955 5.25797C3.39966 5.24385 3.35987 5.21562 3.33998 5.2015L3.37977 5.17326C3.24051 5.10268 3.12114 4.94738 2.96199 4.94738C2.84263 4.9615 2.74316 4.74973 2.58401 4.65091L2.44475 4.59444L2.36518 4.55209H2.40496C2.42486 4.55209 2.42486 4.55209 2.42486 4.53797C2.34528 4.45326 2.22592 4.38268 2.10656 4.31209C2.00709 4.25562 1.92751 4.18503 1.9474 4.15679ZM2.50443 4.58032L2.54422 4.59444V4.58032H2.50443Z" fill="white"/>
<path d="M7.63708 6.26071C7.75645 6.21836 7.85592 6.176 7.95539 6.14777C7.93549 6.14777 7.9156 6.13365 7.9156 6.13365C7.9156 6.11953 7.95539 6.11953 7.99518 6.13365C8.19411 6.13365 8.31348 6.07718 8.5721 6.11953C8.83072 6.16189 9.12913 6.0913 9.42754 6.10542C9.56679 6.10542 9.72594 6.10542 9.76573 6.14777C9.78563 6.176 9.64637 6.19012 9.56679 6.20424C9.28828 6.24659 8.85061 6.26071 8.45273 6.21836C8.31348 6.20424 8.29358 6.21836 8.21401 6.23247C8.07475 6.23247 7.9156 6.26071 7.63708 6.26071ZM9.10923 6.14777H9.14902V6.13365L9.10923 6.14777Z" fill="white"/>
<path d="M13.8838 6.1478C13.844 6.13368 13.7644 6.11956 13.8241 6.11956C13.8838 6.10545 13.9037 6.13368 13.9236 6.1478C13.9633 6.13368 14.023 6.11956 14.0628 6.11956C14.5801 6.1478 15.1172 6.10545 15.6145 6.1478C15.9726 6.07721 16.5694 6.07721 16.9275 6.13368L16.9673 6.1478C17.0469 6.16192 17.0668 6.17603 17.2458 6.16192C17.8029 6.11956 18.34 6.03486 18.9766 6.11956C19.1557 6.1478 19.3148 6.09133 19.5137 6.09133C20.5283 6.10545 21.5031 6.09133 22.5177 6.04898C23.0946 6.02074 23.7511 6.02074 24.3679 6.06309C24.9249 6.09133 25.5018 6.03486 26.0588 6.04898C26.1782 6.04898 26.2976 6.04898 26.4169 6.04898C26.6358 6.04898 26.7949 6.07721 26.775 6.11956C26.7551 6.16192 26.5761 6.16192 26.397 6.17603C24.9448 6.19015 23.4925 6.20427 22.0204 6.20427C21.8015 6.20427 21.5628 6.20427 21.5827 6.13368L21.6026 6.11956H21.5628C21.1848 6.17603 20.8068 6.21839 20.2896 6.17603C20.1305 6.1478 19.8519 6.1478 19.6331 6.17603C19.4342 6.20427 19.275 6.19015 19.1159 6.16192H19.0761L19.096 6.17603C19.0761 6.20427 18.9766 6.21839 18.8572 6.21839C18.2007 6.20427 17.5244 6.21839 16.848 6.20427C16.7087 6.20427 16.5496 6.20427 16.4302 6.19015C16.2511 6.17603 16.5893 6.16192 16.47 6.1478C16.3705 6.13368 16.2313 6.11956 16.1517 6.1478C15.9726 6.20427 15.8334 6.13368 15.6742 6.1478C15.4952 6.21839 15.1769 6.21839 14.8387 6.21839C14.4806 6.21839 14.1026 6.21839 13.7246 6.21839C13.6848 6.19015 13.8639 6.17603 13.8838 6.1478Z" fill="white"/>
<path d="M2.12648 2.42041C1.84796 2.67453 1.52966 2.88629 1.25115 3.12629C1.13178 3.18276 1.01242 3.25335 0.91295 3.35217C0.893056 3.36629 0.893056 3.38041 0.873162 3.39453H0.833374C0.833374 3.451 0.833374 3.28159 0.833374 3.50747L0.853268 3.52159C0.893056 3.5357 0.91295 3.56394 0.952737 3.57806C1.01242 3.62041 1.0721 3.64865 1.13178 3.691C1.25115 3.7757 1.3904 3.86041 1.54955 3.98747C1.64902 4.05806 1.7286 4.10041 1.74849 4.07217C1.76839 4.02982 1.76839 3.97335 1.80818 3.94512C1.82807 3.91688 1.94743 3.931 1.76839 3.80394C1.60924 3.691 1.4103 3.54982 1.35062 3.62041L1.50977 3.76159C1.4103 3.71923 1.37051 3.67688 1.33072 3.62041C1.29093 3.57806 1.25115 3.54982 1.21136 3.50747C1.17157 3.47923 1.13178 3.451 1.11189 3.42276L1.05221 3.38041L1.03231 3.36629C1.03231 3.32394 1.03231 3.67688 1.03231 3.5357L1.05221 3.52159C1.13178 3.47923 1.21136 3.42276 1.25115 3.36629C1.31083 3.26747 1.25115 3.23923 1.11189 3.26747C1.09199 3.26747 1.03231 3.2957 1.05221 3.28159C1.0721 3.23923 1.15168 3.19688 1.21136 3.15453C1.27104 3.15453 1.31083 3.14041 1.37051 3.14041C1.54955 3.14041 1.52966 3.14041 1.70871 2.91453C1.84796 2.87217 1.80818 2.95688 1.92754 2.92865C2.10658 2.70276 2.10658 2.70276 1.7286 2.91453L1.86786 2.74512C1.90764 2.731 1.94743 2.71688 2.00711 2.67453C2.00711 2.64629 2.02701 2.64629 2.02701 2.63217L1.88775 2.70276C1.94743 2.61806 2.16627 2.491 2.12648 2.42041Z" fill="white"/>
<path d="M11.5164 6.17593C11.4766 6.21828 11.1384 6.17593 11.1384 6.24652C11.4965 6.27476 11.7949 6.21828 12.1331 6.21828C12.4315 6.24652 12.6702 6.20417 12.889 6.17593H12.9288L12.889 6.19005C12.9089 6.2324 13.0084 6.24652 13.2272 6.2324C13.3864 6.21828 13.5057 6.19005 13.4461 6.1477C13.3864 6.10534 13.267 6.11946 13.1079 6.11946C12.8095 6.13358 12.5508 6.1477 12.332 6.19005C12.1729 6.1477 11.954 6.16181 11.7551 6.16181C11.6556 6.13358 11.5561 6.09123 11.3174 6.10534C10.9593 6.13358 10.5416 6.11946 10.1437 6.16181C10.6012 6.19005 11.0787 6.16181 11.5164 6.17593Z" fill="white"/>
<path d="M3.8772 1.46072C3.8772 1.47484 3.91699 1.46072 3.93688 1.43249C3.93688 1.41837 3.95677 1.40425 3.95677 1.39014L3.91699 1.40425C3.89709 1.43249 3.8772 1.44661 3.8772 1.46072Z" fill="white"/>
<path d="M29.5203 2.42028C29.5402 2.4344 29.5601 2.4344 29.5999 2.44852C29.5999 2.4344 29.58 2.40616 29.5402 2.39205C29.5203 2.37793 29.5004 2.37793 29.5004 2.37793C29.4607 2.37793 29.4806 2.39205 29.5203 2.42028Z" fill="white"/>
<path d="M27.3519 5.70996C27.332 5.72408 27.2922 5.7382 27.2723 5.7382L27.2524 5.76643L27.332 5.7382C27.3519 5.72408 27.3718 5.70996 27.3519 5.70996Z" fill="white"/>
<path d="M14.9978 0.429688C14.9779 0.429688 14.9381 0.429688 14.9381 0.429688C14.9182 0.429688 14.9182 0.443805 14.9182 0.457923H15.0177C15.0575 0.429687 15.0376 0.429688 14.9978 0.429688Z" fill="white"/>
<path d="M10.0045 6.23234C10.0244 6.23234 10.0443 6.23234 10.0642 6.21822C10.104 6.2041 10.0841 6.2041 10.0045 6.2041C9.96471 6.2041 9.94482 6.21822 9.90503 6.21822C9.92492 6.23234 9.94482 6.24645 10.0045 6.23234Z" fill="white"/>
<path d="M10.7206 0.641602C10.7007 0.655719 10.7405 0.655719 10.8002 0.655719C10.8201 0.655719 10.84 0.641602 10.8599 0.641602H10.8201C10.7803 0.641602 10.7206 0.641602 10.7206 0.641602Z" fill="white"/>
<path d="M2.10656 4.36857C2.08667 4.35445 2.06677 4.35445 2.06677 4.34033C2.06677 4.35445 2.08667 4.35445 2.08667 4.36857C2.10656 4.38268 2.12645 4.38268 2.12645 4.3968C2.12645 4.38268 2.12645 4.38268 2.10656 4.36857Z" fill="white"/>
<path d="M12.6902 0.443848L12.6504 0.457965H12.6902V0.443848Z" fill="white"/>
<path d="M24.4474 0.486328C24.4275 0.486328 24.4275 0.486328 24.4076 0.486328C24.3877 0.486328 24.3678 0.486328 24.3678 0.486328L24.4076 0.500446L24.4474 0.486328Z" fill="white"/>
<path d="M28.8241 1.87012H28.8042L28.844 1.89835L28.8241 1.87012Z" fill="white"/>
<path d="M9.54686 0.373381C9.54686 0.359264 9.52697 0.359264 9.48718 0.373381C9.48718 0.373381 9.48718 0.373381 9.50708 0.387499L9.54686 0.373381Z" fill="white"/>
<path d="M4.87182 0.401855L4.81213 0.415973H4.9116L4.87182 0.401855Z" fill="white"/>
<path d="M17.0071 6.10547H16.9872C16.9673 6.10547 16.9673 6.10547 16.9474 6.10547L16.9872 6.11959C16.9872 6.10547 16.9872 6.10547 17.0071 6.10547Z" fill="white"/>
</svg>
