<svg width="400" height="5" viewBox="0 0 400 5" fill="none" xmlns="http://www.w3.org/2000/svg">
<g opacity="0.1">
<path d="M11.8422 2.38205C17.5776 2.10685 23.4056 2.02658 29.2798 2.01511C35.3853 2.00365 41.4908 2.04951 47.5963 2.11831C53.0542 2.17564 58.5352 2.26738 64.0162 2.19858C69.5898 2.12978 75.1634 2.30178 80.7832 2.26738C87.1662 2.23298 93.5261 2.10685 99.9091 2.09539C102.754 2.09539 105.621 2.09537 108.466 2.07243C114.109 2.02657 119.729 1.91192 125.372 1.94632C131.084 1.98072 136.773 1.86604 142.462 1.83164C146.232 1.80871 149.979 1.72844 153.748 1.79724C160.617 1.93484 167.509 2.01512 174.401 2.06099C181.593 2.11832 188.762 2.24443 195.932 2.3247C204.257 2.41643 212.583 2.46229 220.885 2.56549C224.008 2.59989 227.13 2.63431 230.252 2.69164C234.276 2.74898 238.323 2.81777 242.347 2.89803C246.556 2.98977 250.765 3.02418 254.974 3.09298C259.6 3.17325 264.225 3.21911 268.827 3.16178C277.87 3.04711 286.843 2.79484 295.932 2.79484C298.291 2.79484 300.719 2.79484 303.078 2.69164C310.525 2.32471 318.134 2.07243 325.719 1.88896C335.41 1.65963 345.146 1.45326 354.998 1.48766C360.039 1.49912 365.012 1.57937 370.007 1.68257C375.396 1.79724 380.761 1.94631 386.15 2.08391C389.781 2.17564 393.388 2.24443 397.019 2.3247C398.014 2.34763 398.684 2.43937 399.147 2.61137C399.633 2.79483 399.425 2.93246 398.407 2.95539C396.857 2.98979 395.47 3.12738 393.943 3.16178C389.226 3.25351 384.531 3.11589 379.836 3.07003C376.991 3.04709 374.193 2.90951 371.349 2.84071C365.058 2.66871 358.698 2.76046 352.385 2.63432C348.892 2.56552 345.446 2.6687 341.977 2.71456C336.473 2.78336 330.946 2.8063 325.465 2.96683C323.337 3.02416 321.256 3.15032 319.082 3.17326C313.948 3.23059 308.906 3.40256 303.98 3.67776C300.904 3.84976 297.759 3.91857 294.544 3.9415C288.971 3.9759 283.374 3.88418 277.824 4.05618C272.481 4.21671 267.047 4.29697 261.635 4.26257C257.611 4.23964 253.541 4.14791 249.516 4.12498C241.191 4.06764 232.888 3.89566 224.586 3.78099C218.272 3.68926 211.935 3.65484 205.622 3.55164C201.922 3.49431 198.221 3.4255 194.521 3.40257C190.821 3.37964 187.143 3.36817 183.443 3.29937C179.743 3.23057 176.043 3.1847 172.342 3.1503C167.74 3.10444 163.115 3.0815 158.512 2.96683C152.708 2.82923 146.903 2.78336 141.098 2.81776C134.784 2.85216 128.448 2.98978 122.134 2.90951C116.352 2.84071 110.663 3.00123 104.904 2.96683C98.9377 2.93243 92.9479 3.02416 86.9811 3.07003C84.0209 3.09296 81.0608 3.1503 78.1005 3.1503C74.7471 3.1503 71.4168 3.23057 68.0403 3.1503C65.2882 3.0815 62.4899 3.08152 59.6915 3.09298C56.1069 3.10445 52.5223 3.09296 48.9145 3.07003C46.4168 3.05856 43.896 3.01271 41.3983 2.97831C37.9987 2.93244 34.5526 2.92096 31.1761 2.85216C24.4231 2.71456 17.7627 2.81778 11.0559 2.90951C7.63315 2.95538 4.16409 3.0815 0.602539 2.89803C4.37222 2.71457 8.1188 2.57698 11.7729 2.40498L11.8422 2.38205Z" fill="black"/>
<path d="M369.938 0.834176C369.591 0.834176 369.244 0.834176 368.92 0.834176C363.347 0.75391 357.773 0.673629 352.177 0.604829C350.974 0.593362 349.725 0.536051 348.361 0.627785C349.101 0.753918 349.979 0.650711 350.789 0.799778C346.973 0.811244 343.435 0.845651 339.896 0.914451C334.739 1.01765 329.535 1.02911 324.401 1.15524C319.568 1.26991 314.804 1.49925 309.924 1.59098C306.154 1.65978 302.546 1.84324 298.962 2.04964C296.718 2.17577 294.498 2.29042 292.116 2.27895C286.288 2.24455 280.46 2.21016 274.679 2.35923C271.348 2.43949 268.041 2.56563 264.688 2.5771C260.363 2.58856 256.038 2.5427 251.691 2.4739C245.955 2.39363 240.173 2.38217 234.438 2.30191C229.049 2.23311 223.707 2.08405 218.319 2.02672C212.745 1.96939 207.171 1.92352 201.598 1.84325C192.046 1.70565 182.472 1.62536 172.897 1.53363C167.208 1.47629 161.519 1.40749 155.83 1.28136C150.464 1.16669 145.053 1.04057 139.641 1.10937C134.761 1.1667 129.882 1.25844 124.979 1.25844C117.347 1.25844 109.692 1.24698 102.083 1.30431C94.197 1.36165 86.2645 1.15524 78.4014 1.44191C73.9379 1.61391 69.3356 1.48776 64.7796 1.46483C59.6455 1.4419 54.5112 1.41895 49.3771 1.41895C43.6648 1.41895 37.9757 1.33869 32.2865 1.21256C23.8683 1.02909 15.4732 0.98325 7.10135 1.23552C5.13556 1.29285 3.19287 1.43044 1.13458 1.37311C3.03098 1.23551 5.06622 1.21255 7.00888 1.09789C11.4955 0.834154 16.1208 0.719503 20.8387 0.719503C26.3197 0.719503 31.7776 0.776843 37.2355 0.834176C44.7055 0.914443 52.1754 0.914449 59.6454 0.983249C70.7925 1.08645 81.8704 0.92591 92.9944 0.834176C95.1452 0.811243 97.3422 0.868576 99.493 0.834176C106.593 0.71951 113.716 0.66216 120.862 0.673626C127.199 0.673626 133.513 0.61631 139.826 0.54751C143.341 0.51311 146.88 0.467243 150.395 0.54751C156.084 0.662176 161.75 0.799776 167.44 0.834176C176.228 0.880043 184.97 1.0635 193.758 1.10937C201.182 1.15523 208.559 1.3043 215.983 1.36163C220.539 1.39603 225.095 1.49924 229.628 1.5795C234.854 1.6827 240.058 1.83176 245.331 1.85469C247.713 1.85469 250.118 1.93497 252.5 1.96937C258.49 2.03817 264.457 2.10698 270.446 1.98084C276.274 1.85471 282.079 1.68271 288 1.72858C292.186 1.76298 296.395 1.70565 300.372 1.48778C308.906 1.01765 317.741 0.914429 326.413 0.604829C330.761 0.455762 335.271 0.513092 339.688 0.421358C343.203 0.352558 346.742 0.306696 350.257 0.318162C354.42 0.329629 358.583 0.409913 362.745 0.478713C365.128 0.513113 367.51 0.581918 369.892 0.627785C370.285 0.627785 370.817 0.639247 370.84 0.730981C370.84 0.834181 370.285 0.811232 369.915 0.822699L369.938 0.834176Z" fill="black"/>
<path d="M11.8422 2.38205C17.5776 2.10685 23.4056 2.02658 29.2798 2.01511C35.3853 2.00365 41.4908 2.04951 47.5963 2.11831C53.0542 2.17564 58.5352 2.26738 64.0162 2.19858C69.5898 2.12978 75.1634 2.30178 80.7832 2.26738C87.1662 2.23298 93.5261 2.10685 99.9091 2.09539C102.754 2.09539 105.621 2.09537 108.466 2.07243C114.109 2.02657 119.729 1.91192 125.372 1.94632C131.084 1.98072 136.773 1.86604 142.462 1.83164C146.232 1.80871 149.979 1.72844 153.748 1.79724C160.617 1.93484 167.509 2.01512 174.401 2.06099C181.593 2.11832 188.762 2.24443 195.932 2.3247C204.257 2.41643 212.583 2.46229 220.885 2.56549C224.008 2.59989 227.13 2.63431 230.252 2.69164C234.276 2.74898 238.323 2.81777 242.347 2.89803C246.556 2.98977 250.765 3.02418 254.974 3.09298C259.6 3.17325 264.225 3.21911 268.827 3.16178C277.87 3.04711 286.843 2.79484 295.932 2.79484C298.291 2.79484 300.719 2.79484 303.078 2.69164C310.525 2.32471 318.134 2.07243 325.719 1.88896C335.41 1.65963 345.146 1.45326 354.998 1.48766C360.039 1.49912 365.012 1.57937 370.007 1.68257C375.396 1.79724 380.761 1.94631 386.15 2.08391C389.781 2.17564 393.388 2.24443 397.019 2.3247C398.014 2.34763 398.684 2.43937 399.147 2.61137C399.633 2.79483 399.425 2.93246 398.407 2.95539C396.857 2.98979 395.47 3.12738 393.943 3.16178C389.226 3.25351 384.531 3.11589 379.836 3.07003C376.991 3.04709 374.193 2.90951 371.349 2.84071C365.058 2.66871 358.698 2.76046 352.385 2.63432C348.892 2.56552 345.446 2.6687 341.977 2.71456C336.473 2.78336 330.946 2.8063 325.465 2.96683C323.337 3.02416 321.256 3.15032 319.082 3.17326C313.948 3.23059 308.906 3.40256 303.98 3.67776C300.904 3.84976 297.759 3.91857 294.544 3.9415C288.971 3.9759 283.374 3.88418 277.824 4.05618C272.481 4.21671 267.047 4.29697 261.635 4.26257C257.611 4.23964 253.541 4.14791 249.516 4.12498C241.191 4.06764 232.888 3.89566 224.586 3.78099C218.272 3.68926 211.935 3.65484 205.622 3.55164C201.922 3.49431 198.221 3.4255 194.521 3.40257C190.821 3.37964 187.143 3.36817 183.443 3.29937C179.743 3.23057 176.043 3.1847 172.342 3.1503C167.74 3.10444 163.115 3.0815 158.512 2.96683C152.708 2.82923 146.903 2.78336 141.098 2.81776C134.784 2.85216 128.448 2.98978 122.134 2.90951C116.352 2.84071 110.663 3.00123 104.904 2.96683C98.9377 2.93243 92.9479 3.02416 86.9811 3.07003C84.0209 3.09296 81.0608 3.1503 78.1005 3.1503C74.7471 3.1503 71.4168 3.23057 68.0403 3.1503C65.2882 3.0815 62.4899 3.08152 59.6915 3.09298C56.1069 3.10445 52.5223 3.09296 48.9145 3.07003C46.4168 3.05856 43.896 3.01271 41.3983 2.97831C37.9987 2.93244 34.5526 2.92096 31.1761 2.85216C24.4231 2.71456 17.7627 2.81778 11.0559 2.90951C7.63315 2.95538 4.16409 3.0815 0.602539 2.89803C4.37222 2.71457 8.1188 2.57698 11.7729 2.40498L11.8422 2.38205Z" fill="black"/>
<path d="M369.938 0.834176C369.591 0.834176 369.244 0.834176 368.92 0.834176C363.347 0.75391 357.773 0.673629 352.177 0.604829C350.974 0.593362 349.725 0.536051 348.361 0.627785C349.101 0.753918 349.979 0.650711 350.789 0.799778C346.973 0.811244 343.435 0.845651 339.896 0.914451C334.739 1.01765 329.535 1.02911 324.401 1.15524C319.568 1.26991 314.804 1.49925 309.924 1.59098C306.154 1.65978 302.546 1.84324 298.962 2.04964C296.718 2.17577 294.498 2.29042 292.116 2.27895C286.288 2.24455 280.46 2.21016 274.679 2.35923C271.348 2.43949 268.041 2.56563 264.688 2.5771C260.363 2.58856 256.038 2.5427 251.691 2.4739C245.955 2.39363 240.173 2.38217 234.438 2.30191C229.049 2.23311 223.707 2.08405 218.319 2.02672C212.745 1.96939 207.171 1.92352 201.598 1.84325C192.046 1.70565 182.472 1.62536 172.897 1.53363C167.208 1.47629 161.519 1.40749 155.83 1.28136C150.464 1.16669 145.053 1.04057 139.641 1.10937C134.761 1.1667 129.882 1.25844 124.979 1.25844C117.347 1.25844 109.692 1.24698 102.083 1.30431C94.197 1.36165 86.2645 1.15524 78.4014 1.44191C73.9379 1.61391 69.3356 1.48776 64.7796 1.46483C59.6455 1.4419 54.5112 1.41895 49.3771 1.41895C43.6648 1.41895 37.9757 1.33869 32.2865 1.21256C23.8683 1.02909 15.4732 0.98325 7.10135 1.23552C5.13556 1.29285 3.19287 1.43044 1.13458 1.37311C3.03098 1.23551 5.06622 1.21255 7.00888 1.09789C11.4955 0.834154 16.1208 0.719503 20.8387 0.719503C26.3197 0.719503 31.7776 0.776843 37.2355 0.834176C44.7055 0.914443 52.1754 0.914449 59.6454 0.983249C70.7925 1.08645 81.8704 0.92591 92.9944 0.834176C95.1452 0.811243 97.3422 0.868576 99.493 0.834176C106.593 0.71951 113.716 0.66216 120.862 0.673626C127.199 0.673626 133.513 0.61631 139.826 0.54751C143.341 0.51311 146.88 0.467243 150.395 0.54751C156.084 0.662176 161.75 0.799776 167.44 0.834176C176.228 0.880043 184.97 1.0635 193.758 1.10937C201.182 1.15523 208.559 1.3043 215.983 1.36163C220.539 1.39603 225.095 1.49924 229.628 1.5795C234.854 1.6827 240.058 1.83176 245.331 1.85469C247.713 1.85469 250.118 1.93497 252.5 1.96937C258.49 2.03817 264.457 2.10698 270.446 1.98084C276.274 1.85471 282.079 1.68271 288 1.72858C292.186 1.76298 296.395 1.70565 300.372 1.48778C308.906 1.01765 317.741 0.914429 326.413 0.604829C330.761 0.455762 335.271 0.513092 339.688 0.421358C343.203 0.352558 346.742 0.306696 350.257 0.318162C354.42 0.329629 358.583 0.409913 362.745 0.478713C365.128 0.513113 367.51 0.581918 369.892 0.627785C370.285 0.627785 370.817 0.639247 370.84 0.730981C370.84 0.834181 370.285 0.811232 369.915 0.822699L369.938 0.834176Z" fill="black"/>
</g>
</svg>
