<svg width="16" height="14" viewBox="0 0 16 14" fill="none" xmlns="http://www.w3.org/2000/svg">
<path d="M7.68508 5.92307C7.82504 6.16239 8.17496 6.16239 8.31492 5.92307L9.57459 3.76922C9.71456 3.52991 9.5396 3.23076 9.25967 3.23076H6.74033C6.4604 3.23076 6.28544 3.52991 6.42541 3.76922L7.68508 5.92307Z" fill="black"/>
<path d="M7.68508 8.07692C7.82504 7.83761 8.17496 7.83761 8.31492 8.07692L9.57459 10.2308C9.71456 10.4701 9.5396 10.7692 9.25967 10.7692H6.74033C6.4604 10.7692 6.28544 10.4701 6.42541 10.2308L7.68508 8.07692Z" fill="black"/>
<path d="M0 12.9231C0 12.7248 0.162806 12.5641 0.363636 12.5641H15.6364C15.8372 12.5641 16 12.7248 16 12.9231V13.641C16 13.8393 15.8372 14 15.6364 14H0.363636C0.162805 14 0 13.8393 0 13.641V12.9231Z" fill="black"/>
<path d="M0 0.358974C0 0.160718 0.162806 0 0.363636 0H15.6364C15.8372 0 16 0.160718 16 0.358974V1.07693C16 1.27518 15.8372 1.4359 15.6364 1.4359H0.363636C0.162805 1.4359 0 1.27518 0 1.07693V0.358974Z" fill="black"/>
</svg>
