<svg width="40" height="40" viewBox="0 0 40 40" fill="none" xmlns="http://www.w3.org/2000/svg">
<g clip-path="url(#clip0_102_2775)">
<g clip-path="url(#clip1_102_2775)">
<path d="M36.0324 15.6146C35.1343 15.4153 35.3588 14.4851 35.3588 13.9203C35.3588 13.8871 35.1343 13.7542 35.1022 13.8871C34.6852 17.7409 36.0324 17.1761 35.006 18.6047C34.8777 18.804 35.038 19.0698 35.1984 19.2359C36.6098 20.5316 36.2891 21.0964 37.2834 21.5615C38.4382 20.6645 38.4061 20.5648 39.1118 20.4651C39.593 20.3987 39.6251 21.6279 39.5609 22.1595C39.2081 25.814 38.9835 22.5914 37.7325 23.0565C37.7646 23.0897 38.1495 22.0266 37.7325 22.2592C36.4815 22.99 37.5721 22.4585 36.9627 23.8206C36.9306 23.8871 35.5834 28.6047 35.3909 28.7708C34.5248 29.5681 34.6531 30.4984 34.172 30.897C32.3436 32.392 33.4021 32.1927 31.4454 34.0532C30.1944 35.216 31.0284 34.7508 30.2265 35.4485C29.6812 35.9136 28.9113 35.8804 28.9113 36.3123C28.9113 36.8771 28.2056 37.3422 27.5962 37.4751C27.2754 37.2093 27.4037 37.2758 27.1471 37.309C27.2113 37.5083 27.083 37.4751 27.5 37.5748C26.698 38.5382 26.9226 37.5083 26.4093 37.608C26.3131 37.6412 26.4093 37.8738 26.4735 37.907C26.6018 37.9402 26.7622 37.9402 26.9226 37.9734C25.415 38.6047 24.1319 37.7741 23.7149 38.505C23.5866 38.7376 23.3941 38.8372 23.1696 38.9369C23.2016 38.9701 23.2016 39.0033 23.1696 38.7043L23.2016 38.7376C22.111 38.4386 22.2073 39.4685 22.7205 39.701C22.2714 40.3655 22.3676 39.5349 21.7903 39.7342C20.0581 40.3655 21.2129 39.701 19.8336 39.402C16.9466 38.804 16.69 39.3688 15.7598 39.0366C15.6635 39.0033 15.5352 39.0366 15.4069 39.0366C13.9635 39.1362 14.7012 39.0033 14.3484 38.7708C14.0597 38.5714 13.5465 39.2691 13.3861 39.6346C13.1936 40.0332 12.6804 39.6346 12.8087 39.402C12.8408 39.3356 13.2898 38.7043 12.937 38.7043C12.6162 38.7043 12.4558 38.6379 12.4238 38.2392C12.4238 37.9734 12.103 37.8738 11.8785 38.0399C11.4935 38.3057 11.3652 38.6711 11.2048 37.8738C11.1728 37.6744 10.435 37.8738 11.3011 38.5714C12.937 40.9302 3.41014 34.8505 2.96106 32.7575C2.57614 30.9635 1.42136 29.5017 1.35721 28.4718C1.2289 26.5781 -0.182485 27.0432 -0.182485 24.7841C-0.182485 23.6545 -0.824025 22.99 0.170361 22.4253C1.16475 21.8605 -0.0541774 19.5349 1.26098 14.9834C1.51759 14.0864 1.19683 13.2226 1.87044 12.6246C2.25537 12.2924 1.83836 12.2924 2.3516 12.2924C2.73652 11.9934 2.38367 11.6611 2.92898 10.897C3.31391 10.3322 3.37806 10.7974 3.82714 10.0332C4.69322 8.63789 5.2706 8.206 5.36683 7.67444C5.75176 5.58141 9.24815 2.45849 11.4294 1.86048C11.5898 1.82726 11.7181 1.72759 11.8464 1.62792C12.6162 0.996695 13.0012 1.19603 16.3372 0.664469C16.7862 0.598024 17.1712 0.631247 17.5561 0.897027C19.1599 0.265798 20.0902 -0.298986 21.2129 0.132908C21.8544 0.365466 21.8865 -0.0664277 22.0469 1.74642e-05C22.6563 0.16613 23.2979 -0.0664277 23.8753 0.16613C24.613 0.465134 26.281 0.199353 26.8263 0.465134C27.5 0.79736 27.4358 0.16613 28.1736 0.93025C28.5585 1.12959 29.1038 0.465134 29.3925 1.16281C29.5529 1.49503 29.9378 1.32892 30.2265 1.32892C30.6756 1.36214 32.4077 2.22593 32.7285 3.0565C32.8568 3.42194 32.7285 2.69105 35.038 4.81729C35.2305 4.98341 35.1664 5.34886 35.3909 5.38208C38.0212 5.88042 39.6892 14.8505 39.0477 16.5116C38.9835 16.6445 38.9194 17.3754 39.176 17.6412C39.4967 17.9734 39.4326 18.206 39.4967 19.6013C39.4967 19.701 39.2401 19.8339 39.0156 19.6013C38.5344 19.103 38.9835 19.1362 37.7646 19.7342C37.6684 19.8007 37.4438 19.6013 37.508 19.4685C37.6363 19.0033 38.0212 19.103 38.0533 18.4718C38.0854 17.8405 38.2137 17.7077 38.0212 17.4087C37.4759 16.5449 38.5665 16.8106 36.9306 15.4485C36.1287 14.7841 35.9683 15.6811 36.0324 15.6146ZM36.4494 9.16945C36.674 9.13623 36.5457 8.83723 36.3853 9.50168C36.5457 9.5349 36.4815 9.66779 36.3853 9.60135C36.3211 9.56812 36.3532 9.70101 36.4494 9.16945ZM9.76138 37.2758C10.0501 37.6412 9.79346 37.1761 9.21607 37.0764C9.21607 37.01 9.21607 36.9435 9.18399 36.8771C9.18399 36.8106 8.73492 36.8439 9.76138 37.2758ZM12.1351 12.8572C12.0709 12.8904 12.2313 13.0897 12.2955 12.7907C12.4238 12.7907 12.4238 12.7907 12.3596 12.7243C12.2634 12.8572 12.3596 12.7575 12.1351 12.8572ZM30.9001 4.61796C30.868 4.65118 30.9001 4.58474 30.8039 4.41862C30.7397 4.31895 30.3869 4.55151 30.9001 4.61796ZM36.1607 11.1628C36.1607 10.7974 36.1607 11.3289 36.257 11.4618C36.3211 11.5615 36.4174 11.4618 36.1607 11.1628ZM3.50637 32.9901C3.41014 32.9236 3.50637 32.2259 3.24975 32.4253C3.1856 32.4917 3.50637 33.0233 3.50637 32.9901ZM32.504 6.81065C31.9266 6.24586 32.3436 6.11297 31.3813 5.51497C31.3171 5.48175 31.0926 5.61464 31.2209 5.81397C31.6379 6.31231 32.0228 6.27909 32.504 6.81065C32.5681 7.00998 32.5681 7.54155 32.8889 7.34221C33.2417 7.14288 32.5681 6.84387 32.504 6.81065ZM23.9394 1.72759C23.8432 1.82726 23.8432 1.2957 23.2658 1.52826C23.0733 1.5947 22.5922 2.72427 23.9394 1.72759ZM21.3412 1.62792C21.3412 1.52826 21.2449 1.56148 22.0148 1.52826C23.4262 1.46181 19.7052 -0.465099 17.941 1.76081C17.7486 2.0266 18.7429 2.25915 19.5769 1.42859C19.7052 1.32892 19.9298 1.32892 20.0902 1.49503C20.9562 2.6246 23.2337 2.05982 21.3412 1.62792ZM34.6531 9.00334C34.589 8.206 33.1455 7.34221 33.37 8.23922C33.37 8.27244 33.4021 8.30567 33.4342 8.33889C34.621 8.9369 34.3965 9.30234 34.6531 9.00334ZM36.6419 12.8904C35.9362 13.3887 36.0645 13.2558 35.9041 13.4552C35.6154 13.8538 36.5136 14.02 36.5777 13.5548C36.6098 13.3887 36.6098 13.1894 36.6419 12.8904ZM37.6363 13.2226C37.5721 13.0897 37.5401 12.7575 37.1872 12.9901C36.7702 13.2558 37.1231 13.9867 37.6363 13.2226ZM35.6475 11.7276C35.4871 11.9602 35.3588 11.9934 35.6154 12.1263C35.84 12.2259 35.8721 12.1263 35.9683 11.9934C36.0004 11.8937 35.84 11.8273 35.6475 11.7276ZM37.3476 11.9934C37.0268 11.5615 36.8664 12.1595 37.1872 12.1263C37.2514 12.093 37.2834 12.0266 37.3476 11.9934ZM38.4382 21.794C38.4061 21.7608 38.3741 21.5947 38.2778 21.7276C38.2137 21.794 38.3099 21.9269 38.4382 21.794ZM8.15753 36.2126L8.22168 36.1462C8.0613 35.8472 7.83676 36.0465 8.15753 36.2126ZM15.4069 1.79404C15.3749 1.89371 15.3428 1.86048 15.439 1.92693C15.5032 1.82726 15.5032 1.86048 15.4069 1.79404ZM28.2698 36.7774C28.3981 36.6445 28.3019 36.5781 28.2056 36.6113C28.0773 36.6445 28.1094 36.8106 28.2698 36.7774Z" fill="#3F3F3F"/>
<path d="M23.9745 36.422C24.1739 35.5239 25.1041 35.7484 25.6689 35.7484C25.7021 35.7484 25.835 35.5239 25.7021 35.4918C21.8483 35.0748 22.4131 36.422 20.9845 35.3956C20.7852 35.2672 20.5194 35.4276 20.3533 35.588C19.0576 36.9994 18.4928 36.6786 18.0277 37.673C18.9247 38.8278 19.0244 38.7957 19.124 39.5014C19.1905 39.9826 17.9612 40.0146 17.4297 39.9505C13.7752 39.5976 16.9978 39.3731 16.5327 38.1221C16.4995 38.1542 17.5626 38.5391 17.33 38.1221C16.5991 36.8711 17.1307 37.9617 15.7686 37.3523C15.7021 37.3202 10.9845 35.9729 10.8184 35.7805C10.021 34.9144 9.09081 35.0427 8.69214 34.5616C7.19713 32.7332 7.39646 33.7917 5.536 31.835C4.37321 30.584 4.83832 31.418 4.14065 30.6161C3.67554 30.0708 3.70875 29.3009 3.27686 29.3009C2.71208 29.3009 2.24696 28.5952 2.11407 27.9858C2.37985 27.665 2.31341 27.7933 2.28018 27.5367C2.08085 27.6008 2.11407 27.4725 2.0144 27.8895C1.05095 27.0876 2.08085 27.3122 1.98118 26.7989C1.94796 26.7027 1.7154 26.7989 1.68218 26.8631C1.64896 26.9914 1.64896 27.1518 1.61573 27.3122C0.984504 25.8045 1.81507 24.5215 1.08417 24.1045C0.851611 23.9761 0.751944 23.7837 0.652278 23.5591C0.619056 23.5912 0.585833 23.5912 0.884837 23.5591L0.851615 23.5912C1.15062 22.5006 0.120715 22.5968 -0.111844 23.1101C-0.776296 22.661 0.0542707 22.7572 -0.145062 22.1798C-0.776292 20.4477 -0.11184 21.6025 0.187163 20.2231C0.785167 17.3362 0.220386 17.0796 0.552612 16.1494C0.585834 16.0531 0.552612 15.9248 0.552612 15.7965C0.452941 14.3531 0.585834 15.0908 0.818393 14.738C1.01773 14.4493 0.320052 13.9361 -0.0453993 13.7757C-0.44407 13.5832 -0.0453955 13.07 0.187164 13.1983C0.253608 13.2304 0.884838 13.6794 0.884838 13.3266C0.884838 13.0058 0.951282 12.8454 1.34995 12.8134C1.61573 12.8134 1.7154 12.4926 1.54929 12.268C1.28351 11.8831 0.91806 11.7548 1.7154 11.5944C1.91474 11.5624 1.7154 10.8246 1.01773 11.6907C-1.34108 13.3266 4.73866 3.79972 6.83168 3.35065C8.6257 2.96572 10.0875 1.81095 11.1174 1.7468C13.0111 1.61849 12.546 0.207101 14.8051 0.207101C15.9347 0.207101 16.5991 -0.434439 17.1639 0.559948C17.7287 1.55433 20.0543 0.335409 24.6058 1.65057C25.5028 1.90718 26.3666 1.58641 26.9646 2.26003C27.2968 2.64495 27.2968 2.22795 27.2968 2.74118C27.5958 3.12611 27.928 2.77326 28.6921 3.31857C29.2569 3.70349 28.7918 3.76765 29.5559 4.21673C30.9513 5.0828 31.3832 5.66019 31.9147 5.75642C34.0078 6.14134 37.1307 9.63774 37.7287 11.819C37.7619 11.9794 37.8616 12.1077 37.9612 12.236C38.5925 13.0058 38.3931 13.3907 38.9247 16.7267C38.9911 17.1758 38.9579 17.5608 38.6921 17.9457C39.3234 19.5495 39.8882 20.4798 39.4563 21.6025C39.2237 22.244 39.6556 22.2761 39.5892 22.4365C39.423 23.0459 39.6556 23.6875 39.423 24.2648C39.124 25.0026 39.3898 26.6706 39.124 27.2159C38.7918 27.8895 39.423 27.8254 38.6589 28.5632C38.4596 28.9481 39.124 29.4934 38.4264 29.7821C38.0941 29.9425 38.2602 30.3274 38.2602 30.6161C38.227 31.0652 37.3632 32.7973 36.5327 33.1181C36.1672 33.2464 36.8981 33.1181 34.7719 35.4276C34.6058 35.6201 34.2403 35.5559 34.2071 35.7805C33.7088 38.4108 24.7387 40.0788 23.0775 39.4373C22.9446 39.3731 22.2137 39.309 21.948 39.5656C21.6157 39.8863 21.3832 39.8222 19.9878 39.8863C19.8882 39.8863 19.7553 39.6297 19.9878 39.4052C20.4862 38.924 20.4529 39.3731 19.8549 38.1542C19.7885 38.0579 19.9878 37.8334 20.1207 37.8976C20.5858 38.0259 20.4862 38.4108 21.1174 38.4429C21.7486 38.4749 21.8815 38.6033 22.1805 38.4108C23.0443 37.8655 22.7785 38.9561 24.1406 37.3202C24.8051 36.5183 23.9081 36.3579 23.9745 36.422ZM30.4197 36.839C30.4529 37.0636 30.7519 36.9353 30.0875 36.7749C30.0543 36.9353 29.9214 36.8711 29.9878 36.7749C30.021 36.7107 29.8882 36.7428 30.4197 36.839ZM2.31341 10.151C1.94796 10.4397 2.41307 10.183 2.51274 9.60566C2.57919 9.60566 2.64563 9.60566 2.71208 9.57358C2.77852 9.57358 2.7453 9.1245 2.31341 10.151ZM26.732 12.5247C26.6988 12.4605 26.4995 12.6209 26.7985 12.685C26.7985 12.8134 26.7985 12.8134 26.8649 12.7492C26.732 12.653 26.8317 12.7492 26.732 12.5247ZM34.9712 31.2897C34.938 31.2576 35.0044 31.2897 35.1705 31.1935C35.2702 31.1293 35.0377 30.7765 34.9712 31.2897ZM28.4264 36.5503C28.7918 36.5503 28.2602 36.5503 28.1274 36.6466C28.0277 36.7107 28.1274 36.8069 28.4264 36.5503ZM6.59912 3.89595C6.66557 3.79972 7.36324 3.89595 7.16391 3.63934C7.09746 3.57518 6.5659 3.89595 6.59912 3.89595ZM32.7785 32.8936C33.3433 32.3162 33.4762 32.7332 34.0742 31.7709C34.1074 31.7067 33.9745 31.4822 33.7752 31.6105C33.2769 32.0275 33.3101 32.4124 32.7785 32.8936C32.5792 32.9577 32.0476 32.9577 32.247 33.2785C32.4463 33.6313 32.7453 32.9577 32.7785 32.8936ZM37.8616 24.329C37.7619 24.2328 38.2935 24.2328 38.0609 23.6554C37.9945 23.4629 36.8649 22.9818 37.8616 24.329ZM37.9612 21.7308C38.0609 21.7308 38.0277 21.6345 38.0609 22.4044C38.1274 23.8158 40.0543 20.0948 37.8284 18.3306C37.5626 18.1381 37.33 19.1325 38.1606 19.9665C38.2603 20.0948 38.2603 20.3194 38.0941 20.4798C36.9646 21.3458 37.5294 23.6233 37.9612 21.7308ZM30.5858 35.0427C31.3832 34.9786 32.247 33.5351 31.35 33.7596C31.3167 33.7596 31.2835 33.7917 31.2503 33.8238C30.6523 35.0106 30.2868 34.7861 30.5858 35.0427ZM26.6988 37.0315C26.2004 36.3258 26.3333 36.4541 26.134 36.2937C25.7353 36.005 25.5692 36.9032 26.0343 36.9673C26.2004 36.9994 26.3998 36.9994 26.6988 37.0315ZM26.3666 38.0259C26.4995 37.9617 26.8317 37.9296 26.5991 37.5768C26.3333 37.1598 25.6024 37.5126 26.3666 38.0259ZM27.8616 36.0371C27.629 35.8767 27.5958 35.7484 27.4629 36.005C27.3632 36.2296 27.4629 36.2616 27.5958 36.3579C27.6955 36.3899 27.7619 36.2296 27.8616 36.0371ZM27.5958 37.7372C28.0277 37.4164 27.4297 37.256 27.4629 37.5768C27.4961 37.6409 27.5626 37.673 27.5958 37.7372ZM17.7951 38.8278C17.8284 38.7957 17.9945 38.7636 17.8616 38.6674C17.7951 38.6033 17.6622 38.6995 17.7951 38.8278ZM3.37653 8.54712L3.44297 8.61127C3.74198 8.45089 3.54264 8.22635 3.37653 8.54712ZM37.7951 15.7965C37.6955 15.7644 37.7287 15.7324 37.6622 15.8286C37.7619 15.8927 37.7287 15.8927 37.7951 15.7965ZM2.81175 28.6594C2.94464 28.7877 3.01108 28.6915 2.97786 28.5952C2.94464 28.4669 2.77853 28.499 2.81175 28.6594Z" fill="#3F3F3F"/>
<path d="M36.0003 15.6479C36.3211 15.8472 36.706 15.7143 36.706 16.4452C36.6419 16.4784 36.5136 16.3123 36.4815 16.4784C36.5456 16.4452 36.6098 16.4452 36.674 16.412C36.706 16.4784 36.9306 17.01 36.6098 17.0432C36.0003 17.0764 35.6796 17.1429 35.6796 16.9103C35.7116 16.2791 36.0645 15.5814 36.0003 15.6479Z" fill="#3F3F3F"/>
<path d="M37.7645 23.0565C37.2513 23.8538 38.5023 24.0864 37.7645 23.0565V23.0565Z" fill="#3F3F3F"/>
<path d="M22.9771 39.4352C23.2657 38.3721 23.3299 39.2691 22.9771 39.4352V39.4352Z" fill="#3F3F3F"/>
<path d="M2.09498 12.2924C2.38367 12.2924 2.3516 12.3256 2.3516 12.2924C2.09498 12.2924 2.0629 12.2592 2.09498 12.2924Z" fill="#3F3F3F"/>
<path d="M22.9771 39.4352C22.6884 39.7342 22.7205 39.701 22.7526 39.701C23.0413 39.402 23.0092 39.4685 22.9771 39.4352Z" fill="#3F3F3F"/>
</g>
<path d="M19.814 15.1748C20.0227 15.9084 21.4233 16.4912 22.7137 16.4912C23.6851 16.4912 25.0335 16.2013 26.1934 16.2216C28.2435 16.2477 29.3831 17.2075 29.8383 17.828C30.3487 17.4945 30.8503 16.5985 30.975 16.007C30.5214 16.3143 29.9794 16.4641 29.4323 16.4332H29.1424C29.2788 16.2092 29.3594 15.9556 29.3773 15.6938V15.63C28.9675 15.776 28.5327 15.8381 28.0985 15.8127H27.9245C28.0582 15.5422 28.1277 15.2445 28.1275 14.9428C28.1273 14.7876 28.1098 14.633 28.0753 14.4817C27.8172 15.1023 27.3271 15.3516 26.666 15.6039C26.6567 15.3327 26.5864 15.067 26.4601 14.8268C25.7758 15.4734 25.5293 15.6967 24.2911 15.9867C24.5399 15.7322 24.7369 15.4319 24.8711 15.1023C24.3457 15.4796 23.729 15.7099 23.0849 15.7692C23.3748 15.5198 23.6648 15.2733 23.8997 15.0066C23.1479 15.2423 22.3674 15.374 21.5799 15.398C21.0695 15.398 20.2779 15.3951 19.814 15.1748Z" fill="white"/>
<path d="M14.5858 18.3354C12.6139 18.4224 11.744 19.4721 10.9756 19.4721C10.5406 20.1304 9.56634 20.7161 9.05309 20.1913C8.64423 20.7712 8.53984 22.1225 8.76312 22.6995C9.12558 21.4063 10.558 20.1217 11.8136 19.7418C9.52284 22.0616 10.0883 23.958 10.0883 23.9638C10.1434 23.0939 10.6305 21.7803 11.4541 21.4353C11.773 20.1623 13.8492 18.4543 14.9337 18.4543L14.5858 18.3354Z" fill="white"/>
<path d="M22.2497 27.0144C22.2497 27.0144 23.7634 27.5769 23.9548 29.54C24.0222 30.2805 23.8534 31.0233 23.4726 31.662C23.0918 32.3006 22.5186 32.8023 21.8351 33.0951C21.8351 33.0951 23.7083 32.9559 24.268 31.5524C24.9117 29.9228 25.5844 30.5694 25.7758 30.9522C25.7758 30.9522 25.8802 29.4704 24.8885 29.1109C25.3511 29.1085 25.8112 29.18 26.2514 29.3225C26.2514 29.3225 25.3524 27.9191 23.9084 27.7915L24.4883 27.4812C24.4883 27.4812 24.0128 26.9245 22.2497 27.0144Z" fill="white"/>
<path d="M30.688 19.9941C30.688 19.9941 32.2103 22.4646 28.806 25.028C28.806 25.028 30.4676 24.6684 31.1432 23.639C31.2643 23.6827 31.3747 23.752 31.4667 23.842C31.5588 23.9321 31.6304 24.0408 31.6768 24.161C31.6768 24.161 32.2306 22.8445 31.6768 21.7078L32.1929 21.9775C32.1929 21.9775 32.132 20.7422 30.688 19.9941Z" fill="white"/>
<path d="M16.0299 11.3443C16.0299 11.3443 14.1335 13.203 15.5978 16.7986C15.5978 16.7986 14.6264 16.0244 14.5278 14.9573L14.0639 15.4822C14.0639 15.4822 13.8261 14.3223 14.4611 13.4959L13.6289 13.8206C13.8432 13.295 14.1756 12.8257 14.6003 12.4491L14.2118 12.3331C14.7572 11.9025 15.372 11.5681 16.0299 11.3443Z" fill="white"/>
<path d="M8.64715 23.7637C8.64715 23.7637 8.1513 27.7885 12.1268 31.4886C12.1268 31.4886 9.65046 30.3287 9.35469 29.8474L10.0477 29.6676L8.26439 27.6813L8.88493 27.7219L8.01501 25.692L8.44997 25.9994C8.30556 25.2504 8.37387 24.4759 8.64715 23.7637Z" fill="white"/>
<path d="M30.108 19.6693C29.7756 18.7478 29.1554 17.9578 28.3392 17.4162C27.8674 17.1163 27.3379 16.9187 26.7849 16.8363C26.0038 16.7604 25.216 16.7877 24.442 16.9175C23.0762 17.0828 21.6031 17.2625 20.3562 16.5724C19.3152 16.007 18.483 14.9602 18.5932 13.8815C18.7034 12.8028 19.8227 11.3674 21.1508 11.147L20.0518 12.971C20.8724 12.4606 21.5712 12.101 22.5977 12.0865C22.5062 12.2802 22.4483 12.4881 22.4266 12.7013C22.8004 12.3784 23.2703 12.1878 23.7634 12.159H23.9171C23.8254 12.3079 23.7726 12.4774 23.7634 12.652C23.7606 12.6867 23.7606 12.7216 23.7634 12.7564C24.0918 12.463 24.5098 12.2892 24.9494 12.2634C24.9508 12.2691 24.9508 12.2751 24.9494 12.2808C25.0321 12.4323 25.0871 12.5972 25.1118 12.768C25.3322 12.3069 25.3032 11.9677 25.3148 11.4312C25.1797 11.5764 25.0116 11.6868 24.8247 11.7531C24.7752 11.7025 24.7367 11.6423 24.7116 11.5762C24.6428 11.6044 24.5707 11.6239 24.4971 11.6342L24.4594 11.3442L24.0824 11.3819C24.0476 11.3529 24.0128 11.3268 23.9809 11.2949L24.0737 10.9383L23.6329 10.7991C23.5024 10.6425 23.3604 10.4656 23.3749 10.4337C23.5117 10.4597 23.6503 10.4752 23.7895 10.4801L24.1172 10.6976L24.3724 10.5207C24.5116 10.5207 24.6159 10.5207 24.6304 10.5207L24.6826 10.715L24.9146 10.4511L25.0567 10.4105L25.1147 10.86L25.4047 10.3989C25.4859 10.4656 25.6076 10.5497 25.6482 10.5961C25.6714 10.4656 26.0571 9.97844 26.0571 9.85376C26.0571 9.53479 26.1702 9.20132 25.8541 8.92004C25.7598 9.05304 25.6442 9.16962 25.512 9.26511C25.2631 9.24477 25.0126 9.25646 24.7667 9.29991C24.6372 9.28273 24.5054 9.30284 24.3869 9.3579C24.3241 9.35349 24.2611 9.35349 24.1984 9.3579C24.0302 9.3579 23.5894 9.15202 23.4242 9.19552C22.9167 9.11433 22.7543 8.65617 22.2266 8.65617C22.0787 8.65617 21.6785 8.47059 21.5074 8.52568C20.8115 8.06463 20.1417 7.74276 19.7821 7.15991C19.7066 7.31448 19.6427 7.4744 19.5907 7.63837C19.5907 8.09362 19.6748 8.19511 20.0228 8.57208C19.1065 8.3459 17.5928 7.85005 17.2999 7.17731C17.2526 7.29324 17.229 7.41747 17.2303 7.54268C17.2303 8.09652 17.6827 8.67647 18.2278 9.12303C17.4783 9.48608 16.6595 9.68386 15.8269 9.70297C15.6582 9.70245 15.4897 9.6918 15.3223 9.67107C15.6442 9.99874 16.3923 10.1901 17.1492 10.2974C17.0941 10.3264 15.6181 11.4428 15.6181 14.4614C15.6181 16.9494 17.3753 19.5127 22.1396 19.5127C23.0733 19.5127 24.0215 19.4402 24.9494 19.4402C26.7269 19.4402 27.4142 20.2464 27.4142 21.154C27.4142 22.3429 25.9643 22.9924 24.7174 22.9924C22.0816 22.9924 20.7042 20.0927 17.3086 19.8288C13.7739 19.533 11.5788 21.6701 11.8891 24.0102C12.6546 29.8097 22.1918 26.733 21.8235 30.1866C21.7046 31.3117 19.8343 31.7293 18.4714 31.6945C13.7304 31.5756 9.85635 28.9252 9.64467 23.2853C9.60697 22.2849 10.0361 21.3222 10.9727 20.4522C9.67656 21.0699 8.87624 22.772 9.12272 24.7148C9.78095 29.9343 13.0924 31.8888 15.6761 32.6021C22.2701 34.426 23.1777 31.2972 23.2995 30.0764C23.5488 27.6204 20.6259 27.0694 20.3388 26.9969C18.1235 26.4344 16.6156 26.6403 15.2411 25.6717C13.3244 24.306 14.261 22.5313 15.3368 22.1022C16.6533 21.5773 18.1728 22.1022 18.8484 22.569C19.6806 23.149 20.4142 23.8159 21.232 24.4017C22.0905 25.0661 23.0891 25.5262 24.152 25.7471C25.4187 25.952 26.7166 25.6881 27.8027 25.0048C28.8772 24.3823 29.7169 23.4234 30.1921 22.2762C30.4882 21.4268 30.4583 20.4978 30.108 19.6693ZM22.4875 9.21002L23.2125 9.74067H22.302L21.7539 9.14332L22.4875 9.21002Z" fill="white"/>
<path d="M18.4482 23.0765C18.4482 23.0765 16.891 22.2385 15.6471 22.7402C14.4031 23.2418 14.7627 24.6076 16.0298 25.2803C16.0298 25.2803 15.1918 24.1784 15.6703 23.5405L16.0066 24.1378C16.0066 24.1378 16.198 23.3723 16.6533 23.1809V23.7319C16.8617 23.4663 17.1402 23.2642 17.4574 23.1484C17.7745 23.0326 18.1177 23.0077 18.4482 23.0765Z" fill="white"/>
<path d="M25.6627 19.9883C25.6627 19.9883 26.9821 20.2029 26.7646 21.4004C26.5964 22.34 25.3148 22.8126 23.6039 22.2385C23.6039 22.2385 22.444 21.6382 21.9772 21.1134C21.9772 21.1134 23.8214 22.0703 24.7551 21.8064C24.8652 21.9218 25.011 21.9965 25.1689 22.0186C25.3268 22.0408 25.4875 22.0089 25.625 21.9282C26.1035 21.615 25.8889 21.2555 25.8889 21.2555C25.8889 21.2555 26.5645 20.777 25.6627 19.9883Z" fill="white"/>
</g>
<defs>
<clipPath id="clip0_102_2775">
<rect width="40" height="40" fill="white"/>
</clipPath>
<clipPath id="clip1_102_2775">
<rect width="40" height="40" fill="white" transform="translate(-0.375)"/>
</clipPath>
</defs>
</svg>
