<svg width="14" height="16" viewBox="0 0 14 16" fill="none" xmlns="http://www.w3.org/2000/svg">
<path d="M2.625 8.31492C2.39167 8.17496 2.39167 7.82505 2.625 7.68508L4.725 6.42541C4.95834 6.28544 5.25 6.4604 5.25 6.74033V9.25967C5.25 9.5396 4.95834 9.71456 4.725 9.57459L2.625 8.31492Z" fill="black"/>
<path d="M11.375 8.31492C11.6083 8.17496 11.6083 7.82505 11.375 7.68508L9.27499 6.42541C9.04166 6.28544 8.74999 6.4604 8.74999 6.74033L8.74999 9.25967C8.74999 9.5396 9.04166 9.71456 9.27499 9.57459L11.375 8.31492Z" fill="black"/>
<path d="M12.95 16C12.7567 16 12.6 15.8372 12.6 15.6364L12.6 0.363636C12.6 0.162806 12.7567 0 12.95 0H13.65C13.8433 0 14 0.162806 14 0.363636L14 15.6364C14 15.8372 13.8433 16 13.65 16H12.95Z" fill="black"/>
<path d="M0.35 16C0.1567 16 0 15.8372 0 15.6364L0 0.363636C0 0.162806 0.1567 0 0.35 0H1.05C1.2433 0 1.4 0.162806 1.4 0.363636L1.4 15.6364C1.4 15.8372 1.2433 16 1.05 16H0.35Z" fill="black"/>
</svg>
