<svg width="168" height="44" viewBox="0 0 168 44" fill="none" xmlns="http://www.w3.org/2000/svg">
<g clip-path="url(#clip0_105_8055)">
<path d="M22.0891 44C21.6451 43.1713 22.8661 43.3785 21.2011 41.721C20.0911 40.6851 19.2031 39.5456 17.9821 38.4061C16.9831 37.4738 15.3181 36.1271 16.5391 36.1271C16.7611 36.2307 16.8721 36.4379 17.0941 36.5415H17.2051C16.9831 36.2307 16.7611 36.1271 16.5391 36.0235L15.5401 34.9876C15.3181 34.6769 15.2071 34.5733 15.3181 34.884C14.6521 34.4697 14.9851 35.5056 13.6531 34.0553C12.9871 33.3302 13.2091 33.123 12.5431 32.2943C11.8771 31.9835 12.3211 32.7087 11.5441 32.5015C10.9891 31.7763 10.434 31.0512 9.76805 30.2225C8.99104 29.3938 9.21304 29.3938 9.76805 29.6009C10.101 29.7045 9.43505 28.9794 8.99104 28.4614C7.43703 27.2184 5.77203 25.6645 5.21703 26.3896C5.21703 26.3896 4.88402 26.1825 4.32902 25.8717C4.77302 25.3537 4.55101 24.4214 2.553 22.6604C1.22099 21.5209 1.887 22.4532 1.998 22.8676V22.9712L1.88701 22.764C1.66501 22.4532 1.33201 22.1424 1.11001 21.8317V21.7281C0.777005 21.1065 0.777005 23.3855 1.11001 22.764L1.88701 22.0388C2.44201 21.5209 2.99701 20.8994 3.44101 20.2778C3.99601 19.3455 4.99502 18.5168 5.88302 17.7916C6.77103 17.0665 7.65904 16.5486 8.43604 15.7198C8.54704 15.6162 8.76905 15.6162 8.88005 15.5127C9.32406 15.3055 9.87905 14.9947 10.1011 14.5803C10.3231 14.166 9.65704 14.5803 9.21304 14.9947C8.99104 15.2019 8.88004 15.3055 8.65804 15.5127C10.323 13.5444 12.2101 12.0942 14.0971 10.6439C14.9851 9.91878 15.9841 9.50441 16.6501 8.36492C15.8731 8.88287 15.0961 9.40082 15.5401 8.46851L16.6501 8.36492C17.5381 7.84697 18.4261 7.32902 18.8701 6.29311C18.6481 6.3967 18.3151 6.60388 18.0931 6.70747C17.8711 6.81107 18.0931 6.50029 18.3151 6.3967C18.5371 6.29311 18.6481 6.29311 18.8701 6.29311L22.9771 2.56386H27.4172C28.9712 2.56386 30.6362 2.46027 32.1902 2.35668C32.8562 2.25309 33.4112 2.25309 33.4112 2.04591C32.4122 1.83873 31.3022 1.63155 30.0812 1.42437C32.3012 1.52796 32.3012 1.52796 33.5222 2.04591C34.2992 2.25309 35.0762 2.35668 35.9642 2.04591C36.0752 2.04591 36.1862 2.04591 36.1862 1.94232C36.1862 1.83873 35.9642 1.83873 35.8532 1.94232C36.6302 1.52796 38.0732 1.42437 39.2942 1.83873C40.5152 2.25309 40.8482 2.25309 42.0693 1.83873C43.1793 1.42437 44.0673 2.66745 44.4003 1.83873C44.6223 1.1136 45.9543 1.52796 46.8423 1.52796H49.0623L48.8403 1.63155C48.8403 1.73514 48.7293 1.73514 48.7293 1.83873C48.0633 1.83873 47.3973 1.94232 47.6193 2.1495C47.6193 2.1495 48.0633 2.25309 48.2853 2.25309C48.8403 2.25309 48.9513 2.04591 49.0623 1.94232C49.9503 1.94232 50.8383 2.04591 51.7263 1.83873C52.7253 1.63155 53.8353 1.42437 54.1683 2.04591C54.2793 2.25309 55.0563 2.46027 55.9443 2.35668C56.9433 2.25309 57.9423 2.46027 58.9413 2.35668C58.4973 1.83873 56.6103 2.1495 55.8333 1.73514C58.2753 1.52796 60.4954 1.63155 62.6044 1.94232C63.3814 2.04591 64.1584 2.25309 65.1574 2.25309C69.2644 2.1495 73.2604 2.56386 77.4785 2.25309C79.1435 2.1495 81.0305 2.1495 82.6955 2.25309C84.5825 2.35668 85.4705 2.25309 85.5815 1.73514C85.6925 1.42437 87.3575 1.32078 86.2475 1.01001C85.1375 0.699235 84.0275 0.388464 82.2515 0.388464C81.2525 0.388464 80.2535 0.492054 78.9215 0.595644C80.3645 1.01001 82.1405 0.699235 84.0275 1.01001C79.4765 1.1136 75.4804 1.01001 71.4844 0.802825C70.0414 0.595644 68.5984 0.388464 67.3774 1.01001C66.7114 1.32078 65.2684 1.21719 64.0474 1.1136C61.4944 0.906416 58.8303 1.01001 56.1663 1.01001C54.0573 1.01001 51.8373 1.32078 49.7283 0.906415C49.0623 0.802825 47.2863 0.802825 46.7313 0.906415C43.0683 1.63155 39.0722 1.01001 35.1872 1.21719C33.8552 1.32078 33.0782 1.01001 31.9682 0.906415C29.6372 0.699235 27.7502 1.1136 25.7522 1.21719C25.1972 1.21719 24.5311 1.52796 23.9761 1.32078C23.6431 1.21719 22.9771 1.1136 22.3111 1.1136C21.2011 2.04591 20.6461 2.46027 19.9801 3.1854C19.3141 3.80695 18.6481 4.42849 17.8711 5.05003C16.9831 5.77516 17.6491 5.56798 17.7601 5.56798C17.8711 5.46439 18.3151 5.05003 18.3151 5.25721L17.7601 5.56798C16.9831 6.18952 16.2061 6.91466 15.4291 7.5362C14.2081 8.5721 13.2091 9.29723 12.2101 10.7475C10.8781 12.5085 8.54704 14.4768 6.54903 16.1342C5.43903 17.0665 4.55102 17.7916 3.77402 18.8275C3.10801 19.7599 2.22001 20.5886 1.332 21.3137L0.665994 21.8317L0.332988 22.1424L0.110991 22.246L0 22.3496C0 23.7999 0 22.764 0 23.0747C0.333002 23.4891 0.777005 23.9035 1.11001 24.3178C1.44301 24.7322 1.665 25.1466 2.10901 25.6645C2.44201 25.9753 2.88601 26.4932 2.88601 26.1825C2.88601 26.0789 2.664 25.7681 2.553 25.4573L2.44201 25.3537L2.553 25.5609C3.55201 26.7004 5.32802 27.9435 5.66102 29.083C5.66102 29.1866 6.32702 29.8081 6.43803 29.8081C7.88103 30.2225 8.43605 31.6727 9.43506 32.5015C10.5451 33.4338 11.7661 35.1948 12.9871 35.2984C14.4301 36.9559 16.4281 38.3025 17.9821 39.96C19.3141 41.4102 20.8681 42.6533 22.0891 44ZM82.6955 1.63155C82.9175 1.52796 83.1395 1.63155 83.2505 1.73514C83.2505 1.73514 83.1395 1.83873 83.0285 1.83873C82.9175 1.73514 82.8065 1.73514 82.6955 1.63155ZM76.2575 1.73514C76.3685 1.73514 76.4795 1.63155 76.4795 1.63155C76.8125 1.63155 76.9235 1.63155 76.5905 1.73514C76.5905 1.73514 76.3685 1.83873 76.2575 1.73514ZM69.9304 1.73514C70.0414 1.73514 70.1524 1.73514 70.2634 1.73514C70.7074 1.73514 70.7074 1.73514 70.4854 1.83873C70.3744 1.83873 70.2634 1.83873 70.1524 1.83873C70.0414 1.83873 70.0414 1.73514 69.9304 1.73514ZM66.6004 1.83873C66.8224 1.73514 66.9334 1.73514 67.0444 1.73514C67.2664 1.83873 67.2664 1.83873 66.9334 1.83873C66.7114 1.94232 66.6004 1.83873 66.6004 1.83873Z" fill="black"/>
<path d="M86.1365 2.04591C87.8015 2.1495 88.9115 2.56386 90.1325 2.04591C90.5765 1.83873 90.9095 1.94232 91.3535 2.04591C92.1305 2.1495 92.7966 2.25309 93.5736 2.25309C94.4616 2.35668 95.6826 2.46027 96.0156 2.1495C96.3486 1.73514 94.6836 1.94232 94.0176 1.73514C94.7946 1.32078 96.1266 1.52796 97.2366 1.52796C97.5696 1.52796 98.1246 1.63155 98.2356 1.63155C98.5686 1.83873 96.5706 2.1495 98.4576 2.35668C100.234 2.46027 102.454 2.56386 103.786 2.25309C104.341 2.04591 101.566 2.1495 101.233 1.73514C103.12 1.42437 104.785 1.63155 106.228 1.94232C108.559 2.46027 108.559 2.56386 109.78 1.83873C110.446 1.42437 111.889 1.52796 112.333 1.73514C113.998 2.56386 117.217 2.46027 119.881 2.87463C120.436 2.35668 119.437 2.04591 118.327 1.83873C119.659 1.73514 120.325 1.83873 120.658 2.1495C120.88 2.35668 121.213 2.56386 122.101 2.56386C123.322 2.56386 123.433 2.25309 123.655 2.04591C123.766 1.83873 124.321 1.83873 124.987 1.73514C125.32 2.04591 125.542 2.35668 126.43 2.46027C126.985 2.56386 127.651 2.66745 128.206 2.56386C129.094 2.35668 128.317 2.1495 127.873 2.04591L127.651 1.94232H127.873C128.539 1.94232 129.427 1.63155 129.76 2.04591C130.093 2.46027 130.981 2.46027 132.202 2.46027C133.978 2.56386 134.422 2.25309 135.199 1.94232C135.421 1.83873 135.643 1.83873 135.865 1.94232L136.642 2.04591L135.754 1.94232H135.31C134.977 2.25309 135.532 2.46027 136.531 2.56386C137.641 2.66745 138.973 2.66745 140.083 2.56386C141.415 2.35668 139.528 2.1495 139.861 1.94232C141.526 1.94232 143.302 1.94232 144.856 2.04591C146.188 3.49617 147.298 4.94644 148.186 6.3967C149.185 6.70747 148.63 6.18952 148.297 5.77516C147.964 5.3608 147.742 5.05003 147.964 5.05003C148.186 5.05003 148.519 5.3608 148.63 5.56798C149.407 6.81107 150.295 7.43261 151.405 7.95056C152.293 9.19364 154.18 10.7475 154.624 11.9906C154.18 11.5762 153.736 11.0583 153.292 10.6439C152.959 10.3331 152.626 9.91877 152.182 9.71159C152.737 10.7475 153.736 11.4726 154.846 12.1978C156.4 13.7516 157.843 15.4091 159.619 16.7557C159.952 15.5127 159.952 15.5127 157.732 13.1301C156.289 11.6798 154.735 10.2295 153.403 8.67569C152.626 7.74338 151.516 6.81107 151.183 7.32902C150.295 6.18952 149.074 4.94644 148.408 3.70335C148.075 3.1854 147.631 2.77104 147.076 2.46027C146.521 2.1495 145.966 2.04591 145.522 1.83873C145.411 1.63155 145.189 1.32078 145.078 1.1136C144.745 1.01001 144.523 1.01001 144.301 0.906416C144.19 1.01001 143.968 1.01001 143.857 1.01001L143.524 0.906416C143.302 0.802825 142.858 0.802825 142.414 0.802825C141.082 1.63155 139.639 0.595644 138.307 0.802825C137.752 0.906416 135.976 0.699235 137.308 1.1136C136.42 1.21719 135.532 1.21719 134.644 1.01001C133.645 0.802825 128.761 0.492054 127.762 0.595644C127.207 0.595644 126.763 0.699235 126.319 0.802825C124.765 0.388464 122.767 0.492054 120.991 0.388464C120.103 0.284873 119.215 0.492054 120.103 0.802825C120.436 0.906416 119.992 1.1136 119.437 1.01001C117.55 1.01001 115.552 0.906416 113.554 0.802825C113.443 0.802825 113.332 0.802825 113.221 0.699235H112.999C112.999 0.699235 113.11 0.802825 113.221 0.802825C110.335 0.906416 107.449 1.01001 104.563 0.802825C104.674 0.802825 104.785 0.802825 104.785 0.699235C104.785 0.595644 104.563 0.595644 104.341 0.699235C100.678 0.906415 96.9036 1.01001 93.2406 0.699235L93.4626 0.595644H93.0186C90.4655 0.492054 88.8005 0.802825 88.1345 1.32078C88.1345 1.73514 87.2465 1.83873 86.1365 2.04591ZM131.647 1.94232C131.758 1.94232 131.869 1.83873 131.98 1.83873C132.091 1.83873 132.313 1.94232 132.424 1.94232C132.202 1.94232 132.091 2.04591 131.869 2.04591L131.647 1.94232ZM125.542 0.906416L126.319 0.802825C126.208 0.802825 125.986 0.906416 125.875 0.906416C125.764 0.906416 125.653 0.906416 125.542 0.906416Z" fill="black"/>
<path d="M150.739 38.3025C149.407 38.7169 148.075 40.4779 146.743 41.4102C145.855 42.0318 146.188 42.3426 145.078 43.3785L144.967 43.482C142.525 43.3785 140.194 43.482 137.752 43.2749C134.533 43.0677 134.422 43.1713 133.867 42.239C136.975 42.5497 140.083 43.1713 142.525 41.9282C143.08 42.239 143.524 42.4461 143.857 42.5497H144.079L143.857 42.4461C143.968 42.3426 144.079 42.239 144.079 42.1354C144.19 42.1354 144.301 42.239 144.412 42.239C144.523 42.239 144.523 42.1354 144.634 42.1354C144.745 42.0318 144.745 42.0318 144.967 41.9282C145.189 41.721 145.522 41.4102 145.855 41.2031C146.41 40.6851 146.965 40.1672 147.52 39.7528L147.742 39.6492L147.631 39.7528C149.518 37.681 149.518 37.681 151.849 37.2666C151.405 37.681 150.961 38.1989 150.739 38.3025Z" fill="black"/>
<path d="M161.284 27.8399C161.284 27.6327 161.284 27.322 160.618 27.8399C159.73 28.565 159.286 28.4614 158.509 29.083C157.843 29.9117 158.842 29.2902 158.62 29.8081C156.511 31.7763 154.069 33.0194 151.849 35.2984C151.738 35.2984 151.738 35.402 151.627 35.402L151.516 35.5056C151.516 35.5056 151.627 35.5056 151.738 35.402C151.849 35.7128 152.293 35.7128 152.959 35.5056C152.848 35.8164 152.737 36.1271 153.07 35.92C153.181 35.8164 153.403 35.6092 153.514 35.5056L153.292 35.2984C154.069 34.7805 154.735 33.641 155.623 33.641C156.289 33.7446 156.844 32.1907 157.732 31.4656L158.509 31.0512L158.953 30.7404H158.731C158.62 30.7404 158.62 30.7404 158.62 30.6368C159.064 30.0153 159.73 29.4974 160.396 28.9794C160.951 28.565 161.395 28.0471 161.284 27.8399ZM158.176 30.9476L157.954 31.0512V30.9476H158.176Z" fill="black"/>
<path d="M129.538 43.2749C128.872 42.9641 128.317 42.6533 127.762 42.4461C127.873 42.4461 127.984 42.3426 127.984 42.3426C127.984 42.239 127.762 42.239 127.54 42.3426C126.43 42.3426 125.764 41.9282 124.321 42.239C122.878 42.5497 121.213 42.0318 119.548 42.1354C118.771 42.1354 117.883 42.1354 117.661 42.4461C117.55 42.6533 118.327 42.7569 118.771 42.8605C120.325 43.1713 122.767 43.2749 124.987 42.9641C125.764 42.8605 125.875 42.9641 126.319 43.0677C127.096 43.0677 127.984 43.2749 129.538 43.2749ZM121.324 42.4461H121.102V42.3426L121.324 42.4461Z" fill="black"/>
<path d="M94.6836 42.4461C94.9056 42.3426 95.3496 42.239 95.0166 42.239C94.6836 42.1354 94.5726 42.3426 94.4616 42.4461C94.2396 42.3426 93.9066 42.239 93.6846 42.239C90.7985 42.4461 87.8015 42.1354 85.0265 42.4461C83.0285 41.9282 79.6985 41.9282 77.7005 42.3426L77.4785 42.4461C77.0345 42.5497 76.9235 42.6533 75.9245 42.5497C72.8164 42.239 69.8194 41.6174 66.2674 42.239C65.2684 42.4461 64.3804 42.0318 63.2704 42.0318C57.6093 42.1354 52.1703 42.0318 46.5093 41.721C43.2903 41.5138 39.6272 41.5138 36.1862 41.8246C33.0782 42.0318 29.8592 41.6174 26.7512 41.721C26.0851 41.721 25.4191 41.721 24.7531 41.721C23.5321 41.721 22.6441 41.9282 22.7551 42.239C22.8661 42.5497 23.8651 42.5497 24.8641 42.6533C32.9672 42.7569 41.0702 42.8605 49.2843 42.8605C50.5053 42.8605 51.8373 42.8605 51.7263 42.3426L51.6153 42.239H51.8373C53.9463 42.6533 56.0553 42.9641 58.9413 42.6533C59.8293 42.4461 61.3834 42.4461 62.6044 42.6533C63.7144 42.8605 64.6024 42.7569 65.4904 42.5497H65.7124L65.6014 42.6533C65.7124 42.8605 66.2674 42.9641 66.9334 42.9641C70.5964 42.8605 74.3704 42.9641 78.1445 42.8605C78.9215 42.8605 79.8095 42.8605 80.4755 42.7569C81.4745 42.6533 79.5875 42.5497 80.2535 42.4461C80.8085 42.3426 81.5855 42.239 82.0295 42.4461C83.0285 42.8605 83.8055 42.3426 84.6935 42.4461C85.6925 42.9641 87.4685 42.9641 89.3555 42.9641C91.3535 42.9641 93.4626 42.9641 95.5716 42.9641C95.7936 42.7569 94.7946 42.6533 94.6836 42.4461Z" fill="black"/>
<path d="M160.285 15.0983C161.839 16.9629 163.615 18.5168 165.169 20.2778C165.835 20.6922 166.501 21.2101 167.056 21.9353C167.167 22.0388 167.167 22.1424 167.278 22.246H167.5C167.5 22.6604 167.5 21.4173 167.5 23.0747L167.389 23.1783C167.167 23.2819 167.056 23.4891 166.834 23.5927C166.501 23.9035 166.168 24.1107 165.835 24.4214C165.169 25.043 164.392 25.6645 163.504 26.5968C162.949 27.1148 162.505 27.4255 162.394 27.2184C162.283 26.9076 162.283 26.4932 162.061 26.2861C161.95 26.0789 161.284 26.1825 162.283 25.2501C163.171 24.4214 164.281 23.3855 164.614 23.9035L163.726 24.9394C164.281 24.6286 164.503 24.3178 164.725 23.9035C164.947 23.5927 165.169 23.3855 165.391 23.0747C165.613 22.8676 165.835 22.6604 165.946 22.4532L166.39 22.0388C166.39 21.7281 166.39 24.3178 166.39 23.2819L166.279 23.1783C165.835 22.8676 165.391 22.4532 165.169 22.0388C164.836 21.3137 165.169 21.1065 165.946 21.3137C166.057 21.3137 166.39 21.5209 166.279 21.4173C166.168 21.1065 165.724 20.7958 165.391 20.485C165.058 20.485 164.836 20.3814 164.503 20.3814C163.504 20.3814 163.615 20.3814 162.616 18.724C161.839 18.4132 162.061 19.0347 161.395 18.8275C160.396 17.1701 160.396 17.1701 162.505 18.724L161.728 17.4809C161.506 17.3773 161.284 17.2737 160.951 16.9629C160.951 16.7557 160.84 16.7557 160.84 16.6521L161.617 17.1701C161.284 16.5486 160.063 15.6162 160.285 15.0983Z" fill="black"/>
<path d="M107.893 42.6533C108.115 42.9641 110.002 42.6533 110.002 43.1713C108.004 43.3785 106.339 42.9641 104.452 42.9641C102.787 43.1713 101.455 42.8605 100.234 42.6533H100.012L100.234 42.7569C100.123 43.0677 99.5676 43.1713 98.3466 43.0677C97.4586 42.9641 96.7926 42.7569 97.1256 42.4461C97.4586 42.1354 98.1246 42.239 99.0126 42.239C100.678 42.3426 102.121 42.4461 103.342 42.7569C104.23 42.4461 105.451 42.5497 106.561 42.5497C107.116 42.3426 107.671 42.0318 109.003 42.1354C111.001 42.3426 113.332 42.239 115.552 42.5497C112.999 42.7569 110.335 42.5497 107.893 42.6533Z" fill="black"/>
<path d="M150.517 8.05415C150.517 8.15774 150.295 8.05415 150.184 7.84697C150.184 7.74338 150.073 7.63979 150.073 7.5362L150.295 7.63979C150.406 7.84697 150.517 7.95056 150.517 8.05415Z" fill="black"/>
<path d="M7.43705 15.0983C7.32605 15.2019 7.21503 15.2019 6.99303 15.3055C6.99303 15.2019 7.10404 14.9947 7.32604 14.8911C7.43704 14.7875 7.54804 14.7875 7.54804 14.7875C7.77004 14.7875 7.65905 14.8911 7.43705 15.0983Z" fill="black"/>
<path d="M19.5361 39.2348C19.6471 39.3384 19.8691 39.442 19.9801 39.442L20.0911 39.6492L19.6471 39.442C19.5361 39.3384 19.4251 39.2348 19.5361 39.2348Z" fill="black"/>
<path d="M88.4675 0.492054C88.5785 0.492054 88.8005 0.492054 88.8005 0.492054C88.9115 0.492054 88.9115 0.595644 88.9115 0.699235H88.3565C88.1345 0.492054 88.2455 0.492054 88.4675 0.492054Z" fill="black"/>
<path d="M116.329 43.0677C116.218 43.0677 116.107 43.0677 115.996 42.9641C115.774 42.8605 115.885 42.8605 116.329 42.8605C116.551 42.8605 116.662 42.9641 116.884 42.9641C116.773 43.0677 116.662 43.1713 116.329 43.0677Z" fill="black"/>
<path d="M112.333 2.04591C112.444 2.1495 112.222 2.1495 111.889 2.1495C111.778 2.1495 111.667 2.04591 111.556 2.04591H111.778C112 2.04591 112.333 2.04591 112.333 2.04591Z" fill="black"/>
<path d="M160.396 29.3938C160.507 29.2902 160.618 29.2902 160.618 29.1866C160.618 29.2902 160.507 29.2902 160.507 29.3938C160.396 29.4974 160.285 29.4974 160.285 29.6009C160.285 29.4974 160.285 29.4974 160.396 29.3938Z" fill="black"/>
<path d="M101.344 0.595645L101.566 0.699235H101.344V0.595645Z" fill="black"/>
<path d="M35.7422 0.906416C35.8532 0.906416 35.8532 0.906416 35.9642 0.906416C36.0752 0.906416 36.1862 0.906416 36.1862 0.906416L35.9642 1.01001L35.7422 0.906416Z" fill="black"/>
<path d="M11.3221 11.0583H11.4331L11.2111 11.2655L11.3221 11.0583Z" fill="black"/>
<path d="M118.882 0.0776928C118.882 -0.0258976 118.993 -0.0258976 119.215 0.0776928C119.215 0.0776928 119.215 0.0776928 119.104 0.181283L118.882 0.0776928Z" fill="black"/>
<path d="M144.967 0.284873L145.3 0.388464H144.745L144.967 0.284873Z" fill="black"/>
<path d="M77.2565 42.1354H77.3675C77.4785 42.1354 77.4785 42.1354 77.5895 42.1354L77.3675 42.239C77.3675 42.1354 77.3675 42.1354 77.2565 42.1354Z" fill="black"/>
<path d="M145.411 44C145.855 43.1713 144.634 43.3785 146.299 41.721C147.409 40.6851 148.297 39.5456 149.518 38.4061C150.517 37.4738 152.182 36.1271 150.961 36.1271C150.739 36.2307 150.628 36.4379 150.406 36.5415H150.295C150.517 36.2307 150.739 36.1271 150.961 36.0235L151.96 34.9876C152.182 34.6769 152.293 34.5733 152.182 34.884C152.848 34.4697 152.515 35.5056 153.847 34.0553C154.513 33.3302 154.291 33.123 154.957 32.2943C155.623 31.9835 155.179 32.7087 155.956 32.5015C156.511 31.7763 157.066 31.0512 157.732 30.2225C158.509 29.3938 158.287 29.3938 157.732 29.6009C157.399 29.7045 158.065 28.9794 158.509 28.4614C160.063 27.2184 161.728 25.6645 162.283 26.3896C162.283 26.3896 162.616 26.1825 163.171 25.8717C162.727 25.3537 162.949 24.4214 164.947 22.6604C166.279 21.5209 165.613 22.4532 165.502 22.8676V22.9712L165.613 22.764C165.835 22.4532 166.168 22.1424 166.39 21.8317V21.7281C166.723 21.1065 166.723 23.3855 166.39 22.764L165.613 22.0388C165.058 21.5209 164.503 20.8994 164.059 20.2778C163.504 19.3455 162.505 18.5168 161.617 17.7916C160.729 17.0665 159.841 16.5486 159.064 15.7198C158.953 15.6162 158.731 15.6162 158.62 15.5127C158.176 15.3055 157.621 14.9947 157.399 14.5803C157.177 14.166 157.843 14.5803 158.287 14.9947C158.509 15.2019 158.62 15.3055 158.842 15.5127C157.177 13.5444 155.29 12.0942 153.403 10.6439C152.515 9.91878 151.516 9.50441 150.85 8.36492C151.627 8.88287 152.404 9.40082 151.96 8.46851L150.85 8.36492C149.962 7.84697 149.074 7.32902 148.63 6.29311C148.852 6.3967 149.185 6.60388 149.407 6.70747C149.629 6.81107 149.407 6.50029 149.185 6.3967C148.963 6.29311 148.852 6.29311 148.63 6.29311L144.523 2.56386L140.083 2.56386C138.529 2.56386 136.864 2.46027 135.31 2.35668C134.644 2.25309 134.089 2.25309 134.089 2.04591C135.088 1.83873 136.198 1.63155 137.419 1.42437C135.199 1.52796 135.199 1.52796 133.978 2.04591C133.201 2.25309 132.424 2.35668 131.536 2.04591C131.425 2.04591 131.314 2.04591 131.314 1.94232C131.314 1.83873 131.536 1.83873 131.647 1.94232C130.87 1.52796 129.427 1.42437 128.206 1.83873C126.985 2.25309 126.652 2.25309 125.431 1.83873C124.321 1.42437 123.433 2.66745 123.1 1.83873C122.878 1.1136 121.546 1.52796 120.658 1.52796H118.438L118.66 1.63155C118.66 1.73514 118.771 1.73514 118.771 1.83873C119.437 1.83873 120.103 1.94232 119.881 2.1495C119.881 2.1495 119.437 2.25309 119.215 2.25309C118.66 2.25309 118.549 2.04591 118.438 1.94232C117.55 1.94232 116.662 2.04591 115.774 1.83873C114.775 1.63155 113.665 1.42437 113.332 2.04591C113.221 2.25309 112.444 2.46027 111.556 2.35668C110.557 2.25309 109.558 2.46027 108.559 2.35668C109.003 1.83873 110.89 2.1495 111.667 1.73514C109.225 1.52796 107.005 1.63155 104.896 1.94232C104.119 2.04591 103.342 2.25309 102.343 2.25309C98.2356 2.1495 94.2396 2.56386 90.0215 2.25309C88.3565 2.1495 86.4695 2.1495 84.8045 2.25309C82.9175 2.35668 82.0295 2.25309 81.9185 1.73514C81.8075 1.42437 80.1425 1.32078 81.2525 1.01001C82.3625 0.699235 83.4725 0.388464 85.2485 0.388464C86.2475 0.388464 87.2465 0.492054 88.5785 0.595644C87.1355 1.01001 85.3595 0.699235 83.4725 1.01001C88.0235 1.1136 92.0196 1.01001 96.0156 0.802825C97.4586 0.595644 98.9016 0.388464 100.123 1.01001C100.789 1.32078 102.232 1.21719 103.453 1.1136C106.006 0.906416 108.67 1.01001 111.334 1.01001C113.443 1.01001 115.663 1.32078 117.772 0.906415C118.438 0.802825 120.214 0.802825 120.769 0.906415C124.432 1.63155 128.428 1.01001 132.313 1.21719C133.645 1.32078 134.422 1.01001 135.532 0.906415C137.863 0.699235 139.75 1.1136 141.748 1.21719C142.303 1.21719 142.969 1.52796 143.524 1.32078C143.857 1.21719 144.523 1.1136 145.189 1.1136C146.299 2.04591 146.854 2.46027 147.52 3.1854C148.186 3.80695 148.852 4.42849 149.629 5.05003C150.517 5.77516 149.851 5.56798 149.74 5.56798C149.629 5.46439 149.185 5.05003 149.185 5.25721L149.74 5.56798C150.517 6.18952 151.294 6.91466 152.071 7.5362C153.292 8.5721 154.291 9.29723 155.29 10.7475C156.622 12.5085 158.953 14.4768 160.951 16.1342C162.061 17.0665 162.949 17.7916 163.726 18.8275C164.392 19.7599 165.28 20.5886 166.168 21.3137L166.834 21.8317L167.167 22.1424L167.389 22.246L167.5 22.3496C167.5 23.7999 167.5 22.764 167.5 23.0747C167.167 23.4891 166.723 23.9035 166.39 24.3178C166.057 24.7322 165.835 25.1466 165.391 25.6645C165.058 25.9753 164.614 26.4932 164.614 26.1825C164.614 26.0789 164.836 25.7681 164.947 25.4573L165.058 25.3537L164.947 25.5609C163.948 26.7004 162.172 27.9435 161.839 29.083C161.839 29.1866 161.173 29.8081 161.062 29.8081C159.619 30.2225 159.064 31.6727 158.065 32.5015C156.955 33.4338 155.734 35.1948 154.513 35.2984C153.07 36.9559 151.072 38.3025 149.518 39.96C148.186 41.4102 146.632 42.6533 145.411 44ZM84.8045 1.63155C84.5825 1.52796 84.3605 1.63155 84.2495 1.73514C84.2495 1.73514 84.3605 1.83873 84.4715 1.83873C84.5825 1.73514 84.6935 1.73514 84.8045 1.63155ZM91.2425 1.73514C91.1315 1.73514 91.0205 1.63155 91.0205 1.63155C90.6875 1.63155 90.5765 1.63155 90.9095 1.73514C90.9095 1.73514 91.1315 1.83873 91.2425 1.73514ZM97.5696 1.73514C97.4586 1.73514 97.3476 1.73514 97.2366 1.73514C96.7926 1.73514 96.7926 1.73514 97.0146 1.83873C97.1256 1.83873 97.2366 1.83873 97.3476 1.83873C97.4586 1.83873 97.4586 1.73514 97.5696 1.73514ZM100.9 1.83873C100.678 1.73514 100.567 1.73514 100.456 1.73514C100.234 1.83873 100.234 1.83873 100.567 1.83873C100.789 1.94232 100.9 1.83873 100.9 1.83873Z" fill="black"/>
<path d="M81.3635 2.04591C79.6985 2.1495 78.5885 2.56386 77.3675 2.04591C76.9235 1.83873 76.5905 1.94232 76.1465 2.04591C75.3695 2.1495 74.7034 2.25309 73.9264 2.25309C73.0384 2.35668 71.8174 2.46027 71.4844 2.1495C71.1514 1.73514 72.8164 1.94232 73.4824 1.73514C72.7054 1.32078 71.3734 1.52796 70.2634 1.52796C69.9304 1.52796 69.3754 1.63155 69.2644 1.63155C68.9314 1.83873 70.9294 2.1495 69.0424 2.35668C67.2664 2.46027 65.0464 2.56386 63.7144 2.25309C63.1594 2.04591 65.9344 2.1495 66.2674 1.73514C64.3804 1.42437 62.7154 1.63155 61.2724 1.94232C58.9414 2.46027 58.9414 2.56386 57.7203 1.83873C57.0543 1.42437 55.6113 1.52796 55.1673 1.73514C53.5023 2.56386 50.2833 2.46027 47.6193 2.87463C47.0643 2.35668 48.0633 2.04591 49.1733 1.83873C47.8413 1.73514 47.1753 1.83873 46.8423 2.1495C46.6203 2.35668 46.2873 2.56386 45.3993 2.56386C44.1783 2.56386 44.0673 2.25309 43.8453 2.04591C43.7343 1.83873 43.1793 1.83873 42.5133 1.73514C42.1803 2.04591 41.9583 2.35668 41.0702 2.46027C40.5152 2.56386 39.8492 2.66745 39.2942 2.56386C38.4062 2.35668 39.1832 2.1495 39.6272 2.04591L39.8492 1.94232H39.6272C38.9612 1.94232 38.0732 1.63155 37.7402 2.04591C37.4072 2.46027 36.5192 2.46027 35.2982 2.46027C33.5222 2.56386 33.0782 2.25309 32.3012 1.94232C32.0792 1.83873 31.8572 1.83873 31.6352 1.94232L30.8582 2.04591L31.7462 1.94232H32.1902C32.5232 2.25309 31.9682 2.46027 30.9692 2.56386C29.8592 2.66745 28.5272 2.66745 27.4172 2.56386C26.0852 2.35668 27.9722 2.1495 27.6392 1.94232C25.9742 1.94232 24.1981 1.94232 22.6441 2.04591C21.3121 3.49617 20.2021 4.94644 19.3141 6.3967C18.3151 6.70747 18.8701 6.18952 19.2031 5.77516C19.5361 5.3608 19.7581 5.05003 19.5361 5.05003C19.3141 5.05003 18.9811 5.3608 18.8701 5.56798C18.0931 6.81107 17.2051 7.43261 16.0951 7.95056C15.2071 9.19364 13.3201 10.7475 12.8761 11.9906C13.3201 11.5762 13.7641 11.0583 14.2081 10.6439C14.5411 10.3331 14.8741 9.91877 15.3181 9.71159C14.7631 10.7475 13.7641 11.4726 12.6541 12.1978C11.1001 13.7516 9.65706 15.4091 7.88105 16.7557C7.54805 15.5127 7.54805 15.5127 9.76806 13.1301C11.2111 11.6798 12.7651 10.2295 14.0971 8.67569C14.8741 7.74338 15.9841 6.81107 16.3171 7.32902C17.2051 6.18952 18.4261 4.94644 19.0921 3.70335C19.4251 3.1854 19.8691 2.77104 20.4241 2.46027C20.9791 2.1495 21.5341 2.04591 21.9781 1.83873C22.0891 1.63155 22.3111 1.32078 22.4221 1.1136C22.7551 1.01001 22.9771 1.01001 23.1991 0.906416C23.3101 1.01001 23.5321 1.01001 23.6431 1.01001L23.9761 0.906416C24.1981 0.802825 24.6421 0.802825 25.0862 0.802825C26.4182 1.63155 27.8612 0.595644 29.1932 0.802825C29.7482 0.906416 31.5242 0.699235 30.1922 1.1136C31.0802 1.21719 31.9682 1.21719 32.8562 1.01001C33.8552 0.802825 38.7392 0.492054 39.7382 0.595644C40.2932 0.595644 40.7372 0.699235 41.1812 0.802825C42.7353 0.388464 44.7333 0.492054 46.5093 0.388464C47.3973 0.284873 48.2853 0.492054 47.3973 0.802825C47.0643 0.906416 47.5083 1.1136 48.0633 1.01001C49.9503 1.01001 51.9483 0.906416 53.9463 0.802825C54.0573 0.802825 54.1683 0.802825 54.2793 0.699235H54.5013C54.5013 0.699235 54.3903 0.802825 54.2793 0.802825C57.1653 0.906416 60.0514 1.01001 62.9374 0.802825C62.8264 0.802825 62.7154 0.802825 62.7154 0.699235C62.7154 0.595644 62.9374 0.595644 63.1594 0.699235C66.8224 0.906415 70.5964 1.01001 74.2595 0.699235L74.0374 0.595644H74.4814C77.0345 0.492054 78.6995 0.802825 79.3655 1.32078C79.3655 1.73514 80.2535 1.83873 81.3635 2.04591ZM35.8532 1.94232C35.7422 1.94232 35.6312 1.83873 35.5202 1.83873C35.4092 1.83873 35.1872 1.94232 35.0762 1.94232C35.2982 1.94232 35.4092 2.04591 35.6312 2.04591L35.8532 1.94232ZM41.9583 0.906416L41.1812 0.802825C41.2922 0.802825 41.5143 0.906416 41.6253 0.906416C41.7363 0.906416 41.8473 0.906416 41.9583 0.906416Z" fill="black"/>
<path d="M16.7611 38.3025C18.0931 38.7169 19.4251 40.4779 20.7571 41.4102C21.6451 42.0318 21.3121 42.3426 22.4221 43.3785L22.5331 43.482C24.9751 43.3785 27.3062 43.482 29.7482 43.2749C32.9672 43.0677 33.0782 43.1713 33.6332 42.239C30.5252 42.5497 27.4172 43.1713 24.9752 41.9282C24.4201 42.239 23.9761 42.4461 23.6431 42.5497H23.4211L23.6431 42.4461C23.5321 42.3426 23.4211 42.239 23.4211 42.1354C23.3101 42.1354 23.1991 42.239 23.0881 42.239C22.9771 42.239 22.9771 42.1354 22.8661 42.1354C22.7551 42.0318 22.7551 42.0318 22.5331 41.9282C22.3111 41.721 21.9781 41.4102 21.6451 41.2031C21.0901 40.6851 20.5351 40.1672 19.9801 39.7528L19.7581 39.6492L19.8691 39.7528C17.9821 37.681 17.9821 37.681 15.6511 37.2666C16.0951 37.681 16.5391 38.1989 16.7611 38.3025Z" fill="black"/>
<path d="M6.21604 27.8399C6.21604 27.6327 6.21604 27.322 6.88204 27.8399C7.77005 28.565 8.21405 28.4614 8.99105 29.083C9.65706 29.9117 8.65805 29.2902 8.88005 29.8081C10.9891 31.7763 13.4311 33.0194 15.6511 35.2984C15.7621 35.2984 15.7621 35.402 15.8731 35.402L15.9841 35.5056C15.9841 35.5056 15.8731 35.5056 15.7621 35.402C15.6511 35.7128 15.2071 35.7128 14.5411 35.5056C14.6521 35.8164 14.7631 36.1271 14.4301 35.92C14.3191 35.8164 14.0971 35.6092 13.9861 35.5056L14.2081 35.2984C13.4311 34.7805 12.7651 33.641 11.8771 33.641C11.2111 33.7446 10.6561 32.1907 9.76806 31.4656L8.99105 31.0512L8.54705 30.7404H8.76905C8.88005 30.7404 8.88005 30.7404 8.88005 30.6368C8.43605 30.0153 7.77005 29.4974 7.10404 28.9794C6.54904 28.565 6.10504 28.0471 6.21604 27.8399ZM9.32406 30.9476L9.54606 31.0512V30.9476H9.32406Z" fill="black"/>
<path d="M37.9622 43.2749C38.6282 42.9641 39.1832 42.6533 39.7382 42.4461C39.6272 42.4461 39.5162 42.3426 39.5162 42.3426C39.5162 42.239 39.7382 42.239 39.9602 42.3426C41.0702 42.3426 41.7363 41.9282 43.1793 42.239C44.6223 42.5497 46.2873 42.0318 47.9523 42.1354C48.7293 42.1354 49.6173 42.1354 49.8393 42.4461C49.9503 42.6533 49.1733 42.7569 48.7293 42.8605C47.1753 43.1713 44.7333 43.2749 42.5133 42.9641C41.7363 42.8605 41.6252 42.9641 41.1812 43.0677C40.4042 43.0677 39.5162 43.2749 37.9622 43.2749ZM46.1763 42.4461H46.3983V42.3426L46.1763 42.4461Z" fill="black"/>
<path d="M72.8164 42.4461C72.5944 42.3426 72.1504 42.239 72.4834 42.239C72.8164 42.1354 72.9274 42.3426 73.0384 42.4461C73.2604 42.3426 73.5934 42.239 73.8154 42.239C76.7015 42.4461 79.6985 42.1354 82.4735 42.4461C84.4715 41.9282 87.8015 41.9282 89.7995 42.3426L90.0215 42.4461C90.4655 42.5497 90.5765 42.6533 91.5756 42.5497C94.6836 42.239 97.6806 41.6174 101.233 42.239C102.232 42.4461 103.12 42.0318 104.23 42.0318C109.891 42.1354 115.33 42.0318 120.991 41.721C124.21 41.5138 127.873 41.5138 131.314 41.8246C134.422 42.0318 137.641 41.6174 140.749 41.721C141.415 41.721 142.081 41.721 142.747 41.721C143.968 41.721 144.856 41.9282 144.745 42.239C144.634 42.5497 143.635 42.5497 142.636 42.6533C134.533 42.7569 126.43 42.8605 118.216 42.8605C116.995 42.8605 115.663 42.8605 115.774 42.3426L115.885 42.239H115.663C113.554 42.6533 111.445 42.9641 108.559 42.6533C107.671 42.4461 106.117 42.4461 104.896 42.6533C103.786 42.8605 102.898 42.7569 102.01 42.5497H101.788L101.899 42.6533C101.788 42.8605 101.233 42.9641 100.567 42.9641C96.9036 42.8605 93.1296 42.9641 89.3555 42.8605C88.5785 42.8605 87.6905 42.8605 87.0245 42.7569C86.0255 42.6533 87.9125 42.5497 87.2465 42.4461C86.6915 42.3426 85.9145 42.239 85.4705 42.4461C84.4715 42.8605 83.6945 42.3426 82.8065 42.4461C81.8075 42.9641 80.0315 42.9641 78.1445 42.9641C76.1465 42.9641 74.0375 42.9641 71.9284 42.9641C71.7064 42.7569 72.7054 42.6533 72.8164 42.4461Z" fill="black"/>
<path d="M7.21504 15.0983C5.66103 16.9629 3.88502 18.5168 2.33101 20.2778C1.66501 20.6922 0.999006 21.2101 0.444003 21.9353C0.333002 22.0388 0.333002 22.1424 0.222001 22.246H0C0 22.6604 0 21.4173 0 23.0747L0.111001 23.1783C0.333002 23.2819 0.444003 23.4891 0.666004 23.5927C0.999006 23.9035 1.33201 24.1107 1.66501 24.4214C2.33101 25.043 3.10802 25.6645 3.99602 26.5968C4.55103 27.1148 4.99503 27.4255 5.10603 27.2184C5.21703 26.9076 5.21703 26.4932 5.43903 26.2861C5.55003 26.0789 6.21604 26.1825 5.21703 25.2501C4.32903 24.4214 3.21902 23.3855 2.88602 23.9035L3.77402 24.9394C3.21902 24.6286 2.99702 24.3178 2.77502 23.9035C2.55302 23.5927 2.33101 23.3855 2.10901 23.0747C1.88701 22.8676 1.66501 22.6604 1.55401 22.4532L1.11001 22.0388C1.11001 21.7281 1.11001 24.3178 1.11001 23.2819L1.22101 23.1783C1.66501 22.8676 2.10901 22.4532 2.33101 22.0388C2.66402 21.3137 2.33101 21.1065 1.55401 21.3137C1.44301 21.3137 1.11001 21.5209 1.22101 21.4173C1.33201 21.1065 1.77601 20.7958 2.10901 20.485C2.44201 20.485 2.66402 20.3814 2.99702 20.3814C3.99602 20.3814 3.88502 20.3814 4.88403 18.724C5.66103 18.4132 5.43903 19.0347 6.10504 18.8275C7.10404 17.1701 7.10404 17.1701 4.99503 18.724L5.77203 17.4809C5.99404 17.3773 6.21604 17.2737 6.54904 16.9629C6.54904 16.7557 6.66004 16.7557 6.66004 16.6521L5.88304 17.1701C6.21604 16.5486 7.43704 15.6162 7.21504 15.0983Z" fill="black"/>
<path d="M59.6074 42.6533C59.3854 42.9641 57.4983 42.6533 57.4983 43.1713C59.4964 43.3785 61.1614 42.9641 63.0484 42.9641C64.7134 43.1713 66.0454 42.8605 67.2664 42.6533H67.4884L67.2664 42.7569C67.3774 43.0677 67.9324 43.1713 69.1534 43.0677C70.0414 42.9641 70.7074 42.7569 70.3744 42.4461C70.0414 42.1354 69.3754 42.239 68.4874 42.239C66.8224 42.3426 65.3794 42.4461 64.1584 42.7569C63.2704 42.4461 62.0494 42.5497 60.9394 42.5497C60.3844 42.3426 59.8294 42.0318 58.4974 42.1354C56.4993 42.3426 54.1683 42.239 51.9483 42.5497C54.5013 42.7569 57.1653 42.5497 59.6074 42.6533Z" fill="black"/>
<path d="M16.9831 8.05415C16.9831 8.15774 17.2051 8.05415 17.3161 7.84697C17.3161 7.74338 17.4271 7.63979 17.4271 7.5362L17.2051 7.63979C17.0941 7.84697 16.9831 7.95056 16.9831 8.05415Z" fill="black"/>
<path d="M160.063 15.0983C160.174 15.2019 160.285 15.2019 160.507 15.3055C160.507 15.2019 160.396 14.9947 160.174 14.8911C160.063 14.7875 159.952 14.7875 159.952 14.7875C159.73 14.7875 159.841 14.8911 160.063 15.0983Z" fill="black"/>
<path d="M147.964 39.2348C147.853 39.3384 147.631 39.442 147.52 39.442L147.409 39.6492L147.853 39.442C147.964 39.3384 148.075 39.2348 147.964 39.2348Z" fill="black"/>
<path d="M79.0325 0.492054C78.9215 0.492054 78.6995 0.492054 78.6995 0.492054C78.5885 0.492054 78.5885 0.595644 78.5885 0.699235H79.1435C79.3655 0.492054 79.2545 0.492054 79.0325 0.492054Z" fill="black"/>
<path d="M51.1713 43.0677C51.2823 43.0677 51.3933 43.0677 51.5043 42.9641C51.7263 42.8605 51.6153 42.8605 51.1713 42.8605C50.9493 42.8605 50.8383 42.9641 50.6163 42.9641C50.7273 43.0677 50.8383 43.1713 51.1713 43.0677Z" fill="black"/>
<path d="M55.1673 2.04591C55.0563 2.1495 55.2783 2.1495 55.6113 2.1495C55.7223 2.1495 55.8333 2.04591 55.9443 2.04591H55.7223C55.5003 2.04591 55.1673 2.04591 55.1673 2.04591Z" fill="black"/>
<path d="M7.10404 29.3938C6.99304 29.2902 6.88204 29.2902 6.88204 29.1866C6.88204 29.2902 6.99304 29.2902 6.99304 29.3938C7.10404 29.4974 7.21504 29.4974 7.21504 29.6009C7.21504 29.4974 7.21504 29.4974 7.10404 29.3938Z" fill="black"/>
<path d="M66.1564 0.595645L65.9344 0.699235H66.1564V0.595645Z" fill="black"/>
<path d="M131.758 0.906416C131.647 0.906416 131.647 0.906416 131.536 0.906416C131.425 0.906416 131.314 0.906416 131.314 0.906416L131.536 1.01001L131.758 0.906416Z" fill="black"/>
<path d="M156.178 11.0583H156.067L156.289 11.2655L156.178 11.0583Z" fill="black"/>
<path d="M48.6183 0.0776928C48.6183 -0.0258976 48.5073 -0.0258976 48.2853 0.0776928C48.2853 0.0776928 48.2853 0.0776928 48.3963 0.181283L48.6183 0.0776928Z" fill="black"/>
<path d="M22.5331 0.284873L22.2001 0.388464H22.7551L22.5331 0.284873Z" fill="black"/>
<path d="M90.2435 42.1354H90.1325C90.0215 42.1354 90.0215 42.1354 89.9105 42.1354L90.1325 42.239C90.1325 42.1354 90.1325 42.1354 90.2435 42.1354Z" fill="black"/>
<path d="M60.2282 13.767C60.5215 13.7804 60.6682 13.927 60.6682 14.207C60.6682 14.4337 60.5949 14.6937 60.4482 14.987C60.3015 15.2804 60.1549 15.5137 60.0082 15.687C59.7282 16.0337 59.4082 16.267 59.0482 16.387C58.6882 16.507 58.2749 16.567 57.8082 16.567C57.6482 16.567 57.3949 16.5537 57.0482 16.527C56.6215 16.5004 56.3015 16.4937 56.0882 16.507C55.9815 16.507 55.8549 16.507 55.7082 16.507C55.5749 16.507 55.4815 16.5337 55.4282 16.587C55.3882 16.6404 55.3349 16.7604 55.2682 16.947C55.2282 17.0804 55.2015 17.2537 55.1882 17.467C55.1882 17.6804 55.1882 17.8337 55.1882 17.927L55.0482 20.147C55.0082 20.9204 54.9815 21.6004 54.9682 22.187C54.9549 22.7604 54.9415 23.2404 54.9282 23.627C54.9282 24.147 54.9215 24.5337 54.9082 24.787C55.0149 24.7604 55.0882 24.747 55.1282 24.747C55.4215 24.747 55.5682 24.9737 55.5682 25.427C55.5682 25.747 55.5149 26.087 55.4082 26.447C55.3149 26.807 55.1949 27.207 55.0482 27.647C54.9682 27.8737 54.7949 28.1804 54.5282 28.567C54.2749 28.9404 53.9882 29.267 53.6682 29.547C53.3482 29.827 53.0682 29.967 52.8282 29.967C52.5215 29.967 52.3149 29.727 52.2082 29.247C52.1015 28.7804 52.0482 28.2204 52.0482 27.567C52.0482 26.8337 52.1215 25.907 52.2682 24.787L52.4082 23.347C52.6082 20.747 52.8549 18.627 53.1482 16.987C53.0682 17.0137 52.8482 17.087 52.4882 17.207C52.1415 17.3137 51.8215 17.4404 51.5282 17.587C51.2349 17.7337 51.0082 17.887 50.8482 18.047C50.6749 18.2337 50.5215 18.4737 50.3882 18.767C50.2149 19.0604 50.0615 19.287 49.9282 19.447C49.8082 19.607 49.6282 19.7337 49.3882 19.827C49.2415 19.8937 49.0949 19.927 48.9482 19.927C48.6682 19.927 48.5282 19.7537 48.5282 19.407C48.5282 19.1804 48.5815 18.9137 48.6882 18.607C48.7949 18.3004 48.9082 18.0537 49.0282 17.867C49.9215 16.4004 51.2949 15.347 53.1482 14.707C55.0015 14.0537 56.9615 13.727 59.0282 13.727C59.3215 13.727 59.7215 13.7404 60.2282 13.767ZM62.0468 18.527C62.0468 18.247 62.2201 18.007 62.5668 17.807C62.9135 17.607 63.2735 17.507 63.6468 17.507C63.8735 17.507 64.0535 17.5537 64.1868 17.647C64.3201 17.727 64.3801 17.8604 64.3668 18.047C64.3401 19.1937 64.3135 20.927 64.2868 23.247L64.1868 28.467C64.1735 28.7604 63.9868 29.0137 63.6268 29.227C63.2801 29.4404 62.9201 29.547 62.5468 29.547C62.3068 29.547 62.1135 29.5004 61.9668 29.407C61.8335 29.3004 61.7668 29.147 61.7668 28.947L61.8468 25.667C61.7935 25.6804 61.7135 25.687 61.6068 25.687L61.2068 25.667C61.1135 25.6537 60.9735 25.647 60.7868 25.647C60.6935 25.647 60.5801 25.6604 60.4468 25.687C60.3801 27.0204 60.2868 28.1537 60.1668 29.087C60.1401 29.367 59.9335 29.6137 59.5468 29.827C59.1735 30.0404 58.8001 30.147 58.4268 30.147C58.2001 30.147 58.0201 30.1004 57.8868 30.007C57.7668 29.9137 57.7135 29.7737 57.7268 29.587C57.9268 27.747 58.0535 26.067 58.1068 24.547L58.1268 23.947C58.1668 22.787 58.1868 22.0204 58.1868 21.647C58.1868 20.447 58.1135 19.707 57.9668 19.427C57.7535 19.4404 57.5868 19.407 57.4668 19.327C57.3601 19.2337 57.3068 19.1204 57.3068 18.987C57.3068 18.8537 57.3601 18.7137 57.4668 18.567C57.5735 18.4204 57.7068 18.3004 57.8668 18.207C58.3735 17.927 58.8068 17.787 59.1668 17.787C59.4601 17.787 59.7201 17.8804 59.9468 18.067C60.2935 18.3604 60.4668 18.9737 60.4668 19.907L60.4468 20.907C60.4868 21.587 60.5068 22.2737 60.5068 22.967L60.4868 24.147C60.5668 24.1204 60.6935 24.1204 60.8668 24.147C61.0401 24.1737 61.1735 24.187 61.2668 24.187C61.3601 24.187 61.4668 24.1804 61.5868 24.167C61.7068 24.1404 61.8135 24.1204 61.9068 24.107L62.0468 18.527ZM73.4487 27.187C73.6487 27.2537 73.7487 27.3737 73.7487 27.547C73.7487 27.7604 73.622 27.9937 73.3687 28.247C73.0887 28.527 72.7287 28.667 72.2887 28.667C72.0753 28.667 71.8953 28.6404 71.7487 28.587C71.042 28.3604 70.402 28.247 69.8287 28.247C68.8287 28.247 67.8087 28.567 66.7687 29.207C66.5953 29.327 66.382 29.427 66.1287 29.507C65.8887 29.5737 65.662 29.607 65.4487 29.607C65.2487 29.607 65.0887 29.5737 64.9687 29.507C64.8487 29.427 64.7887 29.307 64.7887 29.147C64.7887 29.0537 64.802 28.9737 64.8287 28.907C65.2153 27.827 65.522 26.8537 65.7487 25.987C65.9887 25.1204 66.1487 24.2404 66.2287 23.347C66.3487 22.147 66.4087 21.267 66.4087 20.707C66.4087 19.227 66.122 18.0937 65.5487 17.307C65.482 17.227 65.4487 17.1204 65.4487 16.987C65.4487 16.7204 65.6353 16.4737 66.0087 16.247C66.382 16.007 66.7487 15.887 67.1087 15.887C67.3487 15.887 67.522 15.9404 67.6287 16.047C67.802 16.1137 67.9153 16.2204 67.9687 16.367C68.302 17.247 68.762 17.9937 69.3487 18.607C69.9353 19.207 70.6287 19.507 71.4287 19.507C71.5753 19.507 71.7953 19.4804 72.0887 19.427C72.2753 19.4004 72.3953 19.387 72.4487 19.387C72.6753 19.387 72.842 19.4404 72.9487 19.547C73.0687 19.6404 73.1287 19.7737 73.1287 19.947C73.1287 20.1337 73.0487 20.3204 72.8887 20.507C72.742 20.6937 72.542 20.827 72.2887 20.907C71.742 21.0937 71.1953 21.187 70.6487 21.187C69.9953 21.187 69.3687 21.0537 68.7687 20.787C68.742 21.5337 68.7087 22.0937 68.6687 22.467L68.5287 23.727C69.0487 23.6337 69.5687 23.5537 70.0887 23.487L70.3687 23.467C70.902 23.467 71.1687 23.647 71.1687 24.007C71.1687 24.247 71.0353 24.4604 70.7687 24.647C70.502 24.8337 70.2287 24.9537 69.9487 25.007C69.5353 25.087 68.9687 25.1737 68.2487 25.267C68.102 25.9204 67.942 26.5337 67.7687 27.107C68.6487 26.787 69.542 26.627 70.4487 26.627C71.4487 26.627 72.4487 26.8137 73.4487 27.187ZM80.0926 25.027C80.3992 24.307 80.5526 23.567 80.5526 22.807C80.5526 22.207 80.4459 21.6604 80.2326 21.167C80.0326 20.6604 79.7126 20.247 79.2726 19.927C78.9792 19.7137 78.6992 19.607 78.4326 19.607C78.3259 19.607 78.1926 19.6337 78.0326 19.687C78.1526 19.7404 78.2126 19.8337 78.2126 19.967C78.2126 20.047 78.1859 20.1404 78.1326 20.247C77.8259 20.8337 77.5859 21.4737 77.4126 22.167C77.2392 22.847 77.1526 23.5337 77.1526 24.227C77.1526 25.027 77.2726 25.787 77.5126 26.507C77.6726 26.907 77.8392 27.2204 78.0126 27.447C78.0926 27.5404 78.1726 27.607 78.2526 27.647C78.6392 27.3804 78.9859 27.007 79.2926 26.527C79.6126 26.047 79.8792 25.547 80.0926 25.027ZM79.8126 18.007C80.4659 18.1404 81.0259 18.427 81.4926 18.867C81.9592 19.307 82.3126 19.8404 82.5526 20.467C82.7926 21.0804 82.9126 21.7204 82.9126 22.387C82.9126 23.1737 82.7592 23.9804 82.4526 24.807C82.1459 25.6337 81.7259 26.3937 81.1926 27.087C80.6592 27.7804 80.0659 28.327 79.4126 28.727C78.7992 29.1004 78.1992 29.287 77.6126 29.287C77.0259 29.287 76.5126 29.107 76.0726 28.747C75.6326 28.387 75.3126 27.867 75.1126 27.187C74.8859 26.4937 74.7726 25.7137 74.7726 24.847C74.7726 24.327 74.8126 23.8204 74.8926 23.327C74.7992 23.3537 74.6592 23.367 74.4726 23.367C74.0192 23.367 73.7926 23.2137 73.7926 22.907C73.7926 22.8004 73.8059 22.7137 73.8326 22.647C74.2859 21.3804 74.9659 20.2804 75.8726 19.347C76.7926 18.4004 77.8459 17.927 79.0326 17.927C79.2059 17.927 79.4659 17.9537 79.8126 18.007ZM90.2915 13.227C90.4648 13.1337 90.6515 13.087 90.8515 13.087C91.1315 13.087 91.3915 13.167 91.6315 13.327C91.7248 13.3937 91.8115 13.4604 91.8915 13.527C91.9715 13.5937 92.0448 13.6537 92.1115 13.707C92.1915 13.7604 92.2982 13.8137 92.4315 13.867C92.5648 13.9204 92.6782 13.9737 92.7715 14.027C93.1715 14.2404 93.7582 14.5737 94.5315 15.027L96.3115 16.047C97.3382 16.6337 98.2382 17.1404 99.0115 17.567L100.291 18.247C101.051 18.6337 101.691 18.9804 102.211 19.287C102.745 19.5937 103.238 19.9404 103.691 20.327C104.025 20.6337 104.285 20.9337 104.471 21.227C104.658 21.5204 104.751 21.8404 104.751 22.187L104.731 22.407C104.598 23.1804 104.191 23.9204 103.511 24.627C102.991 25.187 102.378 25.667 101.671 26.067C100.978 26.467 100.178 26.847 99.2715 27.207C97.7248 27.7937 95.9515 28.3204 93.9515 28.787C93.7382 28.8404 93.5848 28.8737 93.4915 28.887L92.6715 29.087L91.5115 29.307C91.1515 29.3737 90.7115 29.4404 90.1915 29.507C90.1382 29.5204 90.0382 29.547 89.8915 29.587C89.7582 29.6137 89.6382 29.627 89.5315 29.627C89.4782 29.627 89.3982 29.6137 89.2915 29.587C89.0115 29.5337 88.8715 29.367 88.8715 29.087C88.8715 28.9004 88.9382 28.687 89.0715 28.447C89.1915 28.1937 89.3182 27.9937 89.4515 27.847C89.8515 27.3804 90.4382 27.0604 91.2115 26.887C91.3715 26.847 91.4648 26.807 91.4915 26.767C91.5315 26.7137 91.5582 26.6004 91.5715 26.427C91.5715 26.187 91.5848 25.827 91.6115 25.347C91.7182 24.0804 91.7848 23.1137 91.8115 22.447C91.8648 21.807 91.8982 21.327 91.9115 21.007C91.9248 20.9404 91.9382 20.8537 91.9515 20.747C91.9648 20.627 91.9715 20.487 91.9715 20.327C91.9715 20.1537 91.9448 19.9937 91.8915 19.847C91.6115 19.167 91.1648 18.327 90.5515 17.327C90.5515 17.3404 90.5582 17.3604 90.5715 17.387C90.5982 17.4004 90.6182 17.4337 90.6315 17.487C90.4582 17.1804 90.1715 16.7337 89.7715 16.147C89.7182 16.0804 89.6582 15.9937 89.5915 15.887C89.5248 15.7804 89.4648 15.6937 89.4115 15.627C89.3715 15.587 89.3182 15.5337 89.2515 15.467C89.1848 15.387 89.1315 15.3204 89.0915 15.267C89.0248 15.1337 88.9915 15.0137 88.9915 14.907C88.9915 14.6137 89.1382 14.307 89.4315 13.987C89.7115 13.667 89.9982 13.4137 90.2915 13.227ZM94.9515 26.107C96.1648 25.8404 97.4782 25.487 98.8915 25.047C99.6515 24.807 100.271 24.587 100.751 24.387C101.231 24.187 101.685 23.927 102.111 23.607C101.725 23.1404 101.285 22.7404 100.791 22.407C100.311 22.0604 99.6248 21.6204 98.7315 21.087L97.2315 20.187L94.8115 18.687C95.3048 20.087 95.5515 21.4004 95.5515 22.627C95.5515 23.5204 95.4248 24.407 95.1715 25.287L94.9515 26.107ZM110.764 25.027C111.07 24.307 111.224 23.567 111.224 22.807C111.224 22.207 111.117 21.6604 110.904 21.167C110.704 20.6604 110.384 20.247 109.944 19.927C109.65 19.7137 109.37 19.607 109.104 19.607C108.997 19.607 108.864 19.6337 108.704 19.687C108.824 19.7404 108.884 19.8337 108.884 19.967C108.884 20.047 108.857 20.1404 108.804 20.247C108.497 20.8337 108.257 21.4737 108.084 22.167C107.91 22.847 107.824 23.5337 107.824 24.227C107.824 25.027 107.944 25.787 108.184 26.507C108.344 26.907 108.51 27.2204 108.684 27.447C108.764 27.5404 108.844 27.607 108.924 27.647C109.31 27.3804 109.657 27.007 109.964 26.527C110.284 26.047 110.55 25.547 110.764 25.027ZM110.484 18.007C111.137 18.1404 111.697 18.427 112.164 18.867C112.63 19.307 112.984 19.8404 113.224 20.467C113.464 21.0804 113.584 21.7204 113.584 22.387C113.584 23.1737 113.43 23.9804 113.124 24.807C112.817 25.6337 112.397 26.3937 111.864 27.087C111.33 27.7804 110.737 28.327 110.084 28.727C109.47 29.1004 108.87 29.287 108.284 29.287C107.697 29.287 107.184 29.107 106.744 28.747C106.304 28.387 105.984 27.867 105.784 27.187C105.557 26.4937 105.444 25.7137 105.444 24.847C105.444 24.327 105.484 23.8204 105.564 23.327C105.47 23.3537 105.33 23.367 105.144 23.367C104.69 23.367 104.464 23.2137 104.464 22.907C104.464 22.8004 104.477 22.7137 104.504 22.647C104.957 21.3804 105.637 20.2804 106.544 19.347C107.464 18.4004 108.517 17.927 109.704 17.927C109.877 17.927 110.137 17.9537 110.484 18.007ZM111.464 13.967C111.477 13.6604 111.637 13.387 111.944 13.147C112.264 12.907 112.577 12.787 112.884 12.787C113.07 12.787 113.217 12.8404 113.324 12.947C113.444 13.0537 113.504 13.2204 113.504 13.447C113.517 13.9937 113.37 14.4604 113.064 14.847C112.757 15.2337 112.377 15.527 111.924 15.727C111.484 15.927 111.057 16.027 110.644 16.027C110.524 16.027 110.437 16.0204 110.384 16.007C109.984 15.967 109.464 15.8204 108.824 15.567C108.49 15.447 108.277 15.3737 108.184 15.347L107.464 15.167L107.384 15.407C107.33 15.6737 107.13 15.9137 106.784 16.127C106.437 16.3404 106.11 16.447 105.804 16.447C105.47 16.447 105.33 16.3137 105.384 16.047C105.53 15.2604 105.817 14.6137 106.244 14.107C106.67 13.6004 107.19 13.327 107.804 13.287C107.977 13.287 108.417 13.3937 109.124 13.607C109.257 13.647 109.584 13.7337 110.104 13.867C110.624 14.0004 110.997 14.067 111.224 14.067C111.384 14.067 111.464 14.0337 111.464 13.967ZM115.488 18.547C115.502 18.2804 115.695 18.047 116.068 17.847C116.442 17.6337 116.815 17.527 117.188 17.527C117.402 17.527 117.575 17.5737 117.708 17.667C117.842 17.747 117.902 17.8804 117.888 18.067L117.308 28.927C117.295 29.207 117.102 29.4537 116.728 29.667C116.355 29.867 115.982 29.967 115.608 29.967C115.115 29.967 114.875 29.7737 114.888 29.387L115.488 18.547ZM115.448 15.907C115.422 16.0937 115.468 16.2337 115.588 16.327C115.722 16.4204 115.895 16.467 116.108 16.467C116.468 16.467 116.835 16.367 117.208 16.167C117.582 15.967 117.788 15.727 117.828 15.447C117.935 14.7804 118.008 14.2804 118.048 13.947C118.102 13.6137 117.895 13.447 117.428 13.447C117.068 13.447 116.695 13.547 116.308 13.747C115.922 13.947 115.715 14.1737 115.688 14.427L115.448 15.907Z" fill="#090A0B"/>
</g>
<defs>
<clipPath id="clip0_105_8055">
<rect width="167.5" height="44" fill="white"/>
</clipPath>
</defs>
</svg>
