<svg width="47" height="47" viewBox="0 0 47 47" fill="none" xmlns="http://www.w3.org/2000/svg">
<g clip-path="url(#clip0_2308_7221)">
<g clip-path="url(#clip1_2308_7221)">
<path d="M41.7304 18.5312C40.7005 18.3027 40.958 17.236 40.958 16.5884C40.958 16.5503 40.7005 16.3979 40.6637 16.5503C40.1856 20.9693 41.7304 20.3217 40.5534 21.9598C40.4062 22.1884 40.5902 22.4932 40.7741 22.6836C42.3925 24.1693 42.0246 24.817 43.1649 25.3503C44.489 24.3217 44.4522 24.2074 45.2614 24.0932C45.8131 24.017 45.8499 25.4265 45.7764 26.036C45.3718 30.2265 45.1143 26.5312 43.6798 27.0646C43.7166 27.1027 44.158 25.8836 43.6798 26.1503C42.2453 26.9884 43.4959 26.3789 42.7971 27.9408C42.7603 28.017 41.2154 33.4265 40.9948 33.617C40.0017 34.5312 40.1488 35.5979 39.5971 36.0551C37.5005 37.7693 38.7143 37.5408 36.4706 39.6741C35.0361 41.0074 35.9925 40.4741 35.0729 41.2741C34.4476 41.8074 33.5649 41.7693 33.5649 42.2646C33.5649 42.9122 32.7557 43.4455 32.0568 43.5979C31.689 43.2932 31.8361 43.3693 31.5419 43.4074C31.6154 43.636 31.4683 43.5979 31.9465 43.7122C31.0269 44.817 31.2844 43.636 30.6959 43.7503C30.5856 43.7884 30.6959 44.0551 30.7695 44.0932C30.9166 44.1312 31.1005 44.1312 31.2844 44.1693C29.5557 44.8932 28.0844 43.9408 27.6062 44.7789C27.4591 45.0455 27.2384 45.1598 26.981 45.2741C27.0177 45.3122 27.0177 45.3503 26.981 45.0074L27.0177 45.0455C25.7672 44.7027 25.8775 45.8836 26.466 46.1503C25.9511 46.9122 26.0614 45.9598 25.3994 46.1884C23.4131 46.9122 24.7373 46.1503 23.1557 45.8074C19.8453 45.1217 19.5511 45.7693 18.4844 45.3884C18.3741 45.3503 18.2269 45.3884 18.0798 45.3884C16.4246 45.5027 17.2706 45.3503 16.866 45.0836C16.535 44.8551 15.9465 45.6551 15.7626 46.0741C15.5419 46.5312 14.9534 46.0741 15.1005 45.8074C15.1373 45.7312 15.6522 45.0074 15.2476 45.0074C14.8798 45.0074 14.6959 44.9312 14.6591 44.4741C14.6591 44.1693 14.2913 44.0551 14.0338 44.2455C13.5925 44.5503 13.4453 44.9693 13.2614 44.0551C13.2246 43.8265 12.3787 44.0551 13.3718 44.8551C15.2476 47.5598 4.32349 40.5884 3.80854 38.1884C3.36717 36.1312 2.04303 34.4551 1.96946 33.2741C1.82234 31.1027 0.203947 31.636 0.203947 29.0455C0.203947 27.7503 -0.531686 26.9884 0.608544 26.3408C1.74877 25.6932 0.351073 23.0265 1.85912 17.8074C2.15337 16.7789 1.78556 15.7884 2.55797 15.1027C2.99935 14.7217 2.52119 14.7217 3.10969 14.7217C3.55107 14.3789 3.14648 13.9979 3.77176 13.1217C4.21314 12.4741 4.28671 13.0074 4.80165 12.1312C5.79475 10.5312 6.45682 10.036 6.56717 9.42649C7.00854 7.02649 11.0177 3.44553 13.5189 2.75982C13.7028 2.72172 13.8499 2.60744 13.9971 2.49315C14.8798 1.76934 15.3212 1.99792 19.1465 1.38839C19.6614 1.3122 20.1028 1.3503 20.5442 1.65506C22.3833 0.931248 23.4499 0.283629 24.7373 0.778867C25.4729 1.04553 25.5097 0.550296 25.6936 0.626486C26.3925 0.816963 27.1281 0.550296 27.7902 0.816963C28.6361 1.15982 30.5488 0.855058 31.1741 1.15982C31.9465 1.54077 31.8729 0.816963 32.7189 1.69315C33.1603 1.92172 33.7856 1.15982 34.1166 1.95982C34.3005 2.34077 34.7419 2.1503 35.0729 2.1503C35.5879 2.18839 37.5741 3.17887 37.9419 4.13125C38.089 4.5503 37.9419 3.7122 40.5902 6.1503C40.8108 6.34077 40.7373 6.75982 40.9948 6.79792C44.0108 7.36934 45.9235 17.6551 45.1879 19.5598C45.1143 19.7122 45.0407 20.5503 45.335 20.8551C45.7028 21.236 45.6292 21.5027 45.7028 23.1027C45.7028 23.217 45.4086 23.3693 45.1511 23.1027C44.5994 22.5312 45.1143 22.5693 43.7166 23.2551C43.6063 23.3312 43.3488 23.1027 43.4223 22.9503C43.5695 22.417 44.0108 22.5312 44.0476 21.8074C44.0844 21.0836 44.2315 20.9312 44.0108 20.5884C43.3856 19.5979 44.6361 19.9027 42.7603 18.3408C41.8407 17.5789 41.6568 18.6074 41.7304 18.5312ZM42.2085 11.1408C42.466 11.1027 42.3189 10.7598 42.135 11.5217C42.3189 11.5598 42.2453 11.7122 42.135 11.636C42.0614 11.5979 42.0982 11.7503 42.2085 11.1408ZM11.6062 43.3693C11.9373 43.7884 11.643 43.2551 10.981 43.1408C10.981 43.0646 10.981 42.9884 10.9442 42.9122C10.9442 42.836 10.4292 42.8741 11.6062 43.3693ZM14.3281 15.3693C14.2545 15.4074 14.4384 15.636 14.512 15.2932C14.6591 15.2932 14.6591 15.2932 14.5856 15.217C14.4752 15.3693 14.5856 15.2551 14.3281 15.3693ZM35.8453 5.92172C35.8085 5.95982 35.8453 5.88363 35.735 5.69315C35.6614 5.57887 35.2568 5.84553 35.8453 5.92172ZM41.8775 13.4265C41.8775 13.0074 41.8775 13.617 41.9879 13.7693C42.0614 13.8836 42.1718 13.7693 41.8775 13.4265ZM4.43383 38.4551C4.32349 38.3789 4.43383 37.5789 4.13958 37.8074C4.06602 37.8836 4.43383 38.4932 4.43383 38.4551ZM37.6844 8.43601C37.0223 7.78839 37.5005 7.63601 36.3971 6.9503C36.3235 6.9122 36.066 7.06458 36.2131 7.29315C36.6913 7.86458 37.1327 7.82649 37.6844 8.43601C37.758 8.66458 37.758 9.27411 38.1258 9.04553C38.5304 8.81696 37.758 8.47411 37.6844 8.43601ZM27.8637 2.60744C27.7534 2.72172 27.7534 2.1122 27.0913 2.37887C26.8706 2.45506 26.3189 3.7503 27.8637 2.60744ZM24.8844 2.49315C24.8844 2.37887 24.7741 2.41696 25.6568 2.37887C27.2752 2.30268 23.0085 0.0931532 20.9856 2.64553C20.7649 2.9503 21.9051 3.21696 22.8614 2.26458C23.0085 2.1503 23.266 2.1503 23.4499 2.34077C24.443 3.63601 27.0545 2.98839 24.8844 2.49315ZM40.1488 10.9503C40.0752 10.036 38.42 9.04553 38.6775 10.0741C38.6775 10.1122 38.7143 10.1503 38.7511 10.1884C40.112 10.8741 39.8545 11.2932 40.1488 10.9503ZM42.4292 15.4074C41.62 15.9789 41.7672 15.8265 41.5833 16.0551C41.2522 16.5122 42.2821 16.7027 42.3557 16.1693C42.3925 15.9789 42.3925 15.7503 42.4292 15.4074ZM43.5695 15.7884C43.4959 15.636 43.4591 15.2551 43.0545 15.5217C42.5764 15.8265 42.981 16.6646 43.5695 15.7884ZM41.289 14.0741C41.1051 14.3408 40.958 14.3789 41.2522 14.5312C41.5097 14.6455 41.5465 14.5312 41.6568 14.3789C41.6936 14.2646 41.5097 14.1884 41.289 14.0741ZM43.2384 14.3789C42.8706 13.8836 42.6867 14.5693 43.0545 14.5312C43.1281 14.4932 43.1649 14.417 43.2384 14.3789ZM44.489 25.617C44.4522 25.5789 44.4154 25.3884 44.3051 25.5408C44.2315 25.617 44.3419 25.7693 44.489 25.617ZM9.76717 42.1503L9.84073 42.0741C9.65682 41.7313 9.39935 41.9598 9.76717 42.1503ZM18.0798 2.68363C18.043 2.79792 18.0062 2.75982 18.1166 2.83601C18.1902 2.72172 18.1902 2.75982 18.0798 2.68363ZM32.8292 42.7979C32.9764 42.6455 32.866 42.5693 32.7557 42.6074C32.6085 42.6455 32.6453 42.836 32.8292 42.7979Z" fill="#090A0B"/>
<path d="M27.9041 42.3903C28.1326 41.3604 29.1993 41.6179 29.8469 41.6179C29.885 41.6179 30.0374 41.3604 29.885 41.3236C25.466 40.8455 26.1136 42.3903 24.4755 41.2133C24.2469 41.0662 23.9421 41.2501 23.7517 41.434C22.266 43.0524 21.6183 42.6846 21.085 43.8248C22.1136 45.1489 22.2279 45.1121 22.3421 45.9213C22.4183 46.4731 21.0088 46.5098 20.3993 46.4363C16.2088 46.0317 19.9041 45.7742 19.3707 44.3397C19.3326 44.3765 20.5517 44.8179 20.285 44.3397C19.4469 42.9052 20.0564 44.1558 18.4945 43.457C18.4183 43.4202 13.0088 41.8754 12.8183 41.6547C11.9041 40.6616 10.8374 40.8087 10.3802 40.257C8.66596 38.1604 8.89453 39.3742 6.76119 37.1305C5.42786 35.696 5.9612 36.6524 5.1612 35.7328C4.62786 35.1075 4.66596 34.2248 4.17072 34.2248C3.5231 34.2248 2.98977 33.4156 2.83739 32.7167C3.14215 32.3489 3.06596 32.496 3.02786 32.2018C2.79929 32.2754 2.83739 32.1282 2.7231 32.6064C1.61834 31.6868 2.79929 31.9443 2.68501 31.3558C2.64691 31.2455 2.38024 31.3558 2.34215 31.4294C2.30405 31.5765 2.30405 31.7604 2.26596 31.9443C1.54215 30.2156 2.49453 28.7443 1.65644 28.2662C1.38977 28.119 1.27548 27.8983 1.1612 27.6409C1.1231 27.6777 1.08501 27.6777 1.42786 27.6409L1.38977 27.6777C1.73263 26.4271 0.551673 26.5374 0.285006 27.1259C-0.476899 26.611 0.475482 26.7213 0.246913 26.0593C-0.476899 24.0731 0.285006 25.3972 0.627864 23.8156C1.31358 20.5052 0.665958 20.211 1.04691 19.1443C1.08501 19.034 1.04691 18.8868 1.04691 18.7397C0.932624 17.0845 1.08501 17.9305 1.35167 17.5259C1.58025 17.1949 0.780242 16.6064 0.361194 16.4225C-0.0959479 16.2018 0.361198 15.6133 0.627864 15.7604C0.704055 15.7972 1.42786 16.3121 1.42786 15.9075C1.42786 15.5397 1.50405 15.3558 1.9612 15.319C2.26596 15.319 2.38024 14.9512 2.18977 14.6937C1.88501 14.2524 1.46596 14.1052 2.38024 13.9213C2.60882 13.8845 2.38024 13.0386 1.58025 14.0317C-1.12452 15.9075 5.84691 4.9834 8.24691 4.46846C10.3041 4.02708 11.9802 2.70294 13.1612 2.62937C15.3326 2.48225 14.7993 0.863857 17.3898 0.863858C18.685 0.863858 19.4469 0.128225 20.0945 1.26846C20.7422 2.40869 23.4088 1.01098 28.6279 2.51903C29.6564 2.81328 30.6469 2.44547 31.3326 3.21788C31.7136 3.65926 31.7136 3.1811 31.7136 3.76961C32.0564 4.21099 32.4374 3.80639 33.3136 4.43167C33.9612 4.87305 33.4279 4.94662 34.3041 5.46156C35.9041 6.45466 36.3993 7.11673 37.0088 7.22708C39.4088 7.66846 42.9898 11.6777 43.6755 14.1788C43.7136 14.3627 43.8279 14.5098 43.9421 14.657C44.666 15.5397 44.4374 15.9811 45.0469 19.8064C45.1231 20.3213 45.085 20.7627 44.7802 21.2041C45.5041 23.0432 46.1517 24.1098 45.6564 25.3972C45.3898 26.1328 45.885 26.1696 45.8088 26.3535C45.6183 27.0524 45.885 27.788 45.6183 28.4501C45.2755 29.296 45.5802 31.2087 45.2755 31.834C44.8945 32.6064 45.6183 32.5328 44.7421 33.3788C44.5136 33.8202 45.2755 34.4455 44.4755 34.7765C44.0945 34.9604 44.285 35.4018 44.285 35.7328C44.2469 36.2478 43.2564 38.234 42.3041 38.6018C41.885 38.7489 42.7231 38.6018 40.285 41.2501C40.0945 41.4708 39.6755 41.3972 39.6374 41.6547C39.066 44.6708 28.7802 46.5834 26.8755 45.8478C26.7231 45.7742 25.885 45.7006 25.5802 45.9949C25.1993 46.3627 24.9326 46.2891 23.3326 46.3627C23.2183 46.3627 23.066 46.0685 23.3326 45.811C23.9041 45.2593 23.866 45.7742 23.1802 44.3765C23.1041 44.2662 23.3326 44.0087 23.485 44.0823C24.0183 44.2294 23.9041 44.6708 24.6279 44.7075C25.3517 44.7443 25.5041 44.8914 25.8469 44.6708C26.8374 44.0455 26.5326 45.296 28.0945 43.4202C28.8564 42.5006 27.8279 42.3167 27.9041 42.3903ZM35.2945 42.8685C35.3326 43.1259 35.6755 42.9788 34.9136 42.7949C34.8755 42.9788 34.7231 42.9052 34.7993 42.7949C34.8374 42.7213 34.685 42.7581 35.2945 42.8685ZM3.06596 12.2662C2.64691 12.5972 3.18024 12.3029 3.29453 11.6409C3.37072 11.6409 3.44691 11.6409 3.5231 11.6041C3.59929 11.6041 3.5612 11.0891 3.06596 12.2662ZM31.066 14.988C31.0279 14.9144 30.7993 15.0983 31.1421 15.1719C31.1421 15.319 31.1421 15.319 31.2183 15.2455C31.066 15.1351 31.1802 15.2455 31.066 14.988ZM40.5136 36.5052C40.4755 36.4685 40.5517 36.5052 40.7421 36.3949C40.8564 36.3213 40.5898 35.9167 40.5136 36.5052ZM33.0088 42.5374C33.4279 42.5374 32.8183 42.5374 32.666 42.6478C32.5517 42.7213 32.666 42.8317 33.0088 42.5374ZM7.98024 5.09374C8.05643 4.9834 8.85644 5.09374 8.62786 4.79949C8.55167 4.72593 7.94215 5.09374 7.98024 5.09374ZM37.9993 38.3443C38.6469 37.6823 38.7993 38.1604 39.485 37.057C39.5231 36.9834 39.3707 36.7259 39.1421 36.8731C38.5707 37.3512 38.6088 37.7926 37.9993 38.3443C37.7707 38.4179 37.1612 38.4179 37.3898 38.7857C37.6183 39.1903 37.9612 38.4179 37.9993 38.3443ZM43.8279 28.5236C43.7136 28.4133 44.3231 28.4133 44.0564 27.7512C43.9802 27.5305 42.685 26.9788 43.8279 28.5236ZM43.9421 25.5443C44.0564 25.5443 44.0183 25.434 44.0564 26.3167C44.1326 27.9351 46.3421 23.6685 43.7898 21.6455C43.485 21.4248 43.2183 22.565 44.1707 23.5213C44.285 23.6685 44.285 23.9259 44.0945 24.1098C42.7993 25.1029 43.4469 27.7144 43.9421 25.5443ZM35.485 40.8087C36.3993 40.7351 37.3898 39.08 36.3612 39.3374C36.3231 39.3374 36.285 39.3742 36.2469 39.411C35.5612 40.7719 35.1421 40.5144 35.485 40.8087ZM31.0279 43.0891C30.4564 42.28 30.6088 42.4271 30.3802 42.2432C29.9231 41.9121 29.7326 42.942 30.266 43.0156C30.4564 43.0524 30.685 43.0524 31.0279 43.0891ZM30.6469 44.2294C30.7993 44.1558 31.1802 44.119 30.9136 43.7144C30.6088 43.2363 29.7707 43.6409 30.6469 44.2294ZM32.3612 41.9489C32.0945 41.765 32.0564 41.6179 31.9041 41.9121C31.7898 42.1696 31.9041 42.2064 32.0564 42.3167C32.1707 42.3535 32.2469 42.1696 32.3612 41.9489ZM32.0564 43.8983C32.5517 43.5305 31.866 43.3466 31.9041 43.7144C31.9421 43.788 32.0183 43.8248 32.0564 43.8983ZM20.8183 45.1489C20.8564 45.1121 21.0469 45.0754 20.8945 44.965C20.8183 44.8914 20.666 45.0018 20.8183 45.1489ZM4.28501 10.4271L4.3612 10.5006C4.70405 10.3167 4.47548 10.0593 4.28501 10.4271ZM43.7517 18.7397C43.6374 18.7029 43.6755 18.6662 43.5993 18.7765C43.7136 18.8501 43.6755 18.8501 43.7517 18.7397ZM3.63739 33.4891C3.78977 33.6363 3.86596 33.5259 3.82786 33.4156C3.78977 33.2685 3.59929 33.3052 3.63739 33.4891Z" fill="#090A0B"/>
<path d="M41.6936 18.5695C42.0614 18.7981 42.5028 18.6457 42.5028 19.4838C42.4293 19.5219 42.2821 19.3314 42.2453 19.5219C42.3189 19.4838 42.3925 19.4838 42.466 19.4457C42.5028 19.5219 42.7603 20.1314 42.3925 20.1695C41.6936 20.2076 41.3258 20.2838 41.3258 20.0171C41.3626 19.2933 41.7672 18.4933 41.6936 18.5695Z" fill="#090A0B"/>
<path d="M43.7167 27.0645C43.1282 27.9787 44.5627 28.2454 43.7167 27.0645V27.0645Z" fill="#090A0B"/>
<path d="M26.7604 45.8455C27.0914 44.6264 27.165 45.655 26.7604 45.8455V45.8455Z" fill="#090A0B"/>
<path d="M2.81548 14.7215C3.14652 14.7215 3.10973 14.7596 3.10973 14.7215C2.81548 14.7215 2.7787 14.6834 2.81548 14.7215Z" fill="#090A0B"/>
<path d="M26.7603 45.8457C26.4293 46.1886 26.4661 46.1505 26.5029 46.1505C26.8339 45.8076 26.7971 45.8838 26.7603 45.8457Z" fill="#090A0B"/>
</g>
<g clip-path="url(#clip2_2308_7221)">
<path d="M24.2029 9.57471L30.3672 13.6006V37.6291H24.2029V9.57471Z" fill="white"/>
<path d="M30.8499 26.8936V37.5032H38.3972V29.3045L30.8499 26.8936ZM34.0364 35.1967L31.7303 34.5255V32.535L34.0364 33.3719V35.1967ZM34.0364 31.7159L31.7303 31.0441V29.0547L34.0364 29.8926V31.7159ZM36.9296 36.0341L34.6225 35.3639V33.3724L36.9296 34.2109V36.0341ZM36.9296 32.5538L34.623 31.8831V29.8926L36.9305 30.7295V32.5538H36.9296Z" fill="white"/>
<path d="M15.8794 14.3551V30.2866L14.7897 30.9984V25.6775L14.0982 25.9634V20.6559L9.06516 22.8778V28.0484L8.58337 28.2482V37.6292H23.4989V9.49121L15.8794 14.3551ZM9.52666 23.8904L11.2253 23.1044V25.1483L9.52666 25.9031V23.8904ZM9.6528 27.203L11.3509 26.416V28.4614L9.6528 29.2152V27.203ZM11.4024 34.5456L9.70424 35.3014V33.2877L11.4024 32.5017V34.5456ZM11.4024 31.4313L9.70424 32.1876V30.1739L11.4024 29.3884V31.4313ZM11.6442 22.905L13.3429 22.119V24.1634L11.6442 24.9178V22.905ZM11.7704 26.2172L13.4685 25.4312V27.4756L11.7704 28.2309V26.2172ZM13.6674 33.5716L11.9687 34.3269V32.3142L13.6674 31.5272V33.5716ZM13.6674 30.4578L11.9687 31.2121V29.2004L13.6674 28.4139V30.4578ZM19.108 30.812L16.7589 32.2825V30.1021L19.108 28.5826V30.812ZM19.108 27.1278L16.7589 28.5974V26.416L19.108 24.8965V27.1278ZM19.108 23.4427L16.7589 24.9138V22.7319L19.108 21.2114V23.4427ZM19.108 19.7581L16.7589 21.2272V19.0468L19.108 17.5262V19.7581ZM19.108 16.0725L16.7589 17.5426V15.3617L19.108 13.8416V16.0725ZM22.5883 28.6345L19.8628 30.3401V28.0929L22.5883 26.329V28.6345ZM22.5883 24.9494L19.8628 26.6554V24.4078L22.5883 22.6429V24.9494ZM22.5883 21.2643L19.8628 22.9703V20.7236L22.5883 18.9583V21.2643ZM22.5883 17.5792L19.8628 19.2852V17.038L22.5883 15.2731V17.5792ZM22.5883 13.8936L19.8628 15.5996V13.3524L22.5883 11.5875V13.8936Z" fill="white"/>
</g>
</g>
<defs>
<clipPath id="clip0_2308_7221">
<rect width="45.8667" height="45.8667" fill="white" transform="translate(0.41333 0.626465)"/>
</clipPath>
<clipPath id="clip1_2308_7221">
<rect width="45.8667" height="45.8667" fill="white" transform="translate(-0.0167236 0.626465)"/>
</clipPath>
<clipPath id="clip2_2308_7221">
<rect width="29.8133" height="29.8133" fill="white" transform="translate(8.58337 8.65332)"/>
</clipPath>
</defs>
</svg>
