<svg width="40" height="40" viewBox="0 0 40 40" fill="none" xmlns="http://www.w3.org/2000/svg">
<g clip-path="url(#clip0_102_3079)">
<g clip-path="url(#clip1_102_3079)">
<path d="M36.0324 15.6146C35.1343 15.4153 35.3588 14.4851 35.3588 13.9203C35.3588 13.8871 35.1343 13.7542 35.1022 13.8871C34.6852 17.7409 36.0324 17.1761 35.006 18.6047C34.8777 18.804 35.038 19.0698 35.1984 19.2359C36.6098 20.5316 36.2891 21.0964 37.2834 21.5615C38.4382 20.6645 38.4061 20.5648 39.1118 20.4651C39.593 20.3987 39.6251 21.6279 39.5609 22.1595C39.2081 25.814 38.9835 22.5914 37.7325 23.0565C37.7646 23.0897 38.1495 22.0266 37.7325 22.2592C36.4815 22.99 37.5721 22.4585 36.9627 23.8206C36.9306 23.8871 35.5834 28.6047 35.3909 28.7708C34.5248 29.5681 34.6531 30.4984 34.172 30.897C32.3436 32.392 33.4021 32.1927 31.4454 34.0532C30.1944 35.216 31.0284 34.7508 30.2265 35.4485C29.6812 35.9136 28.9113 35.8804 28.9113 36.3123C28.9113 36.8771 28.2056 37.3422 27.5962 37.4751C27.2754 37.2093 27.4037 37.2758 27.1471 37.309C27.2113 37.5083 27.083 37.4751 27.5 37.5748C26.698 38.5382 26.9226 37.5083 26.4093 37.608C26.3131 37.6412 26.4093 37.8738 26.4735 37.907C26.6018 37.9402 26.7622 37.9402 26.9226 37.9734C25.415 38.6047 24.1319 37.7741 23.7149 38.505C23.5866 38.7376 23.3941 38.8372 23.1696 38.9369C23.2016 38.9701 23.2016 39.0033 23.1696 38.7043L23.2016 38.7376C22.111 38.4386 22.2073 39.4685 22.7205 39.701C22.2714 40.3655 22.3676 39.5349 21.7903 39.7342C20.0581 40.3655 21.2129 39.701 19.8336 39.402C16.9466 38.804 16.69 39.3688 15.7598 39.0366C15.6635 39.0033 15.5352 39.0366 15.4069 39.0366C13.9635 39.1362 14.7012 39.0033 14.3484 38.7708C14.0597 38.5714 13.5465 39.2691 13.3861 39.6346C13.1936 40.0332 12.6804 39.6346 12.8087 39.402C12.8408 39.3356 13.2898 38.7043 12.937 38.7043C12.6162 38.7043 12.4558 38.6379 12.4238 38.2392C12.4238 37.9734 12.103 37.8738 11.8785 38.0399C11.4935 38.3057 11.3652 38.6711 11.2048 37.8738C11.1728 37.6744 10.435 37.8738 11.3011 38.5714C12.937 40.9302 3.41014 34.8505 2.96106 32.7575C2.57614 30.9635 1.42136 29.5017 1.35721 28.4718C1.2289 26.5781 -0.182485 27.0432 -0.182485 24.7841C-0.182485 23.6545 -0.824025 22.99 0.170361 22.4253C1.16475 21.8605 -0.0541774 19.5349 1.26098 14.9834C1.51759 14.0864 1.19683 13.2226 1.87044 12.6246C2.25537 12.2924 1.83836 12.2924 2.3516 12.2924C2.73652 11.9934 2.38367 11.6611 2.92898 10.897C3.31391 10.3322 3.37806 10.7974 3.82714 10.0332C4.69322 8.63789 5.2706 8.206 5.36683 7.67444C5.75176 5.58141 9.24815 2.45849 11.4294 1.86048C11.5898 1.82726 11.7181 1.72759 11.8464 1.62792C12.6162 0.996695 13.0012 1.19603 16.3372 0.664469C16.7862 0.598024 17.1712 0.631247 17.5561 0.897027C19.1599 0.265798 20.0902 -0.298986 21.2129 0.132908C21.8544 0.365466 21.8865 -0.0664277 22.0469 1.74642e-05C22.6563 0.16613 23.2979 -0.0664277 23.8753 0.16613C24.613 0.465134 26.281 0.199353 26.8263 0.465134C27.5 0.79736 27.4358 0.16613 28.1736 0.93025C28.5585 1.12959 29.1038 0.465134 29.3925 1.16281C29.5529 1.49503 29.9378 1.32892 30.2265 1.32892C30.6756 1.36214 32.4077 2.22593 32.7285 3.0565C32.8568 3.42194 32.7285 2.69105 35.038 4.81729C35.2305 4.98341 35.1664 5.34886 35.3909 5.38208C38.0212 5.88042 39.6892 14.8505 39.0477 16.5116C38.9835 16.6445 38.9194 17.3754 39.176 17.6412C39.4967 17.9734 39.4326 18.206 39.4967 19.6013C39.4967 19.701 39.2401 19.8339 39.0156 19.6013C38.5344 19.103 38.9835 19.1362 37.7646 19.7342C37.6684 19.8007 37.4438 19.6013 37.508 19.4685C37.6363 19.0033 38.0212 19.103 38.0533 18.4718C38.0854 17.8405 38.2137 17.7077 38.0212 17.4087C37.4759 16.5449 38.5665 16.8106 36.9306 15.4485C36.1287 14.7841 35.9683 15.6811 36.0324 15.6146ZM36.4494 9.16945C36.674 9.13623 36.5457 8.83723 36.3853 9.50168C36.5457 9.5349 36.4815 9.66779 36.3853 9.60135C36.3211 9.56812 36.3532 9.70101 36.4494 9.16945ZM9.76138 37.2758C10.0501 37.6412 9.79346 37.1761 9.21607 37.0764C9.21607 37.01 9.21607 36.9435 9.18399 36.8771C9.18399 36.8106 8.73492 36.8439 9.76138 37.2758ZM12.1351 12.8572C12.0709 12.8904 12.2313 13.0897 12.2955 12.7907C12.4238 12.7907 12.4238 12.7907 12.3596 12.7243C12.2634 12.8572 12.3596 12.7575 12.1351 12.8572ZM30.9001 4.61796C30.868 4.65118 30.9001 4.58474 30.8039 4.41862C30.7397 4.31895 30.3869 4.55151 30.9001 4.61796ZM36.1607 11.1628C36.1607 10.7974 36.1607 11.3289 36.257 11.4618C36.3211 11.5615 36.4174 11.4618 36.1607 11.1628ZM3.50637 32.9901C3.41014 32.9236 3.50637 32.2259 3.24975 32.4253C3.1856 32.4917 3.50637 33.0233 3.50637 32.9901ZM32.504 6.81065C31.9266 6.24586 32.3436 6.11297 31.3813 5.51497C31.3171 5.48175 31.0926 5.61464 31.2209 5.81397C31.6379 6.31231 32.0228 6.27909 32.504 6.81065C32.5681 7.00998 32.5681 7.54155 32.8889 7.34221C33.2417 7.14288 32.5681 6.84387 32.504 6.81065ZM23.9394 1.72759C23.8432 1.82726 23.8432 1.2957 23.2658 1.52826C23.0733 1.5947 22.5922 2.72427 23.9394 1.72759ZM21.3412 1.62792C21.3412 1.52826 21.2449 1.56148 22.0148 1.52826C23.4262 1.46181 19.7052 -0.465099 17.941 1.76081C17.7486 2.0266 18.7429 2.25915 19.5769 1.42859C19.7052 1.32892 19.9298 1.32892 20.0902 1.49503C20.9562 2.6246 23.2337 2.05982 21.3412 1.62792ZM34.6531 9.00334C34.589 8.206 33.1455 7.34221 33.37 8.23922C33.37 8.27244 33.4021 8.30567 33.4342 8.33889C34.621 8.9369 34.3965 9.30234 34.6531 9.00334ZM36.6419 12.8904C35.9362 13.3887 36.0645 13.2558 35.9041 13.4552C35.6154 13.8538 36.5136 14.02 36.5777 13.5548C36.6098 13.3887 36.6098 13.1894 36.6419 12.8904ZM37.6363 13.2226C37.5721 13.0897 37.5401 12.7575 37.1872 12.9901C36.7702 13.2558 37.1231 13.9867 37.6363 13.2226ZM35.6475 11.7276C35.4871 11.9602 35.3588 11.9934 35.6154 12.1263C35.84 12.2259 35.8721 12.1263 35.9683 11.9934C36.0004 11.8937 35.84 11.8273 35.6475 11.7276ZM37.3476 11.9934C37.0268 11.5615 36.8664 12.1595 37.1872 12.1263C37.2514 12.093 37.2834 12.0266 37.3476 11.9934ZM38.4382 21.794C38.4061 21.7608 38.3741 21.5947 38.2778 21.7276C38.2137 21.794 38.3099 21.9269 38.4382 21.794ZM8.15753 36.2126L8.22168 36.1462C8.0613 35.8472 7.83676 36.0465 8.15753 36.2126ZM15.4069 1.79404C15.3749 1.89371 15.3428 1.86048 15.439 1.92693C15.5032 1.82726 15.5032 1.86048 15.4069 1.79404ZM28.2698 36.7774C28.3981 36.6445 28.3019 36.5781 28.2056 36.6113C28.0773 36.6445 28.1094 36.8106 28.2698 36.7774Z" fill="#3F3F3F"/>
<path d="M23.9745 36.422C24.1739 35.5239 25.1041 35.7484 25.6689 35.7484C25.7021 35.7484 25.835 35.5239 25.7021 35.4918C21.8483 35.0748 22.4131 36.422 20.9845 35.3956C20.7852 35.2672 20.5194 35.4276 20.3533 35.588C19.0576 36.9994 18.4928 36.6786 18.0277 37.673C18.9247 38.8278 19.0244 38.7957 19.124 39.5014C19.1905 39.9826 17.9612 40.0146 17.4297 39.9505C13.7752 39.5976 16.9978 39.3731 16.5327 38.1221C16.4995 38.1542 17.5626 38.5391 17.33 38.1221C16.5991 36.8711 17.1307 37.9617 15.7686 37.3523C15.7021 37.3202 10.9845 35.9729 10.8184 35.7805C10.021 34.9144 9.09081 35.0427 8.69214 34.5616C7.19713 32.7332 7.39646 33.7917 5.536 31.835C4.37321 30.584 4.83832 31.418 4.14065 30.6161C3.67554 30.0708 3.70875 29.3009 3.27686 29.3009C2.71208 29.3009 2.24696 28.5952 2.11407 27.9858C2.37985 27.665 2.31341 27.7933 2.28018 27.5367C2.08085 27.6008 2.11407 27.4725 2.0144 27.8895C1.05095 27.0876 2.08085 27.3122 1.98118 26.7989C1.94796 26.7027 1.7154 26.7989 1.68218 26.8631C1.64896 26.9914 1.64896 27.1518 1.61573 27.3122C0.984504 25.8045 1.81507 24.5215 1.08417 24.1045C0.851611 23.9761 0.751944 23.7837 0.652278 23.5591C0.619056 23.5912 0.585833 23.5912 0.884837 23.5591L0.851615 23.5912C1.15062 22.5006 0.120715 22.5968 -0.111844 23.1101C-0.776296 22.661 0.0542707 22.7572 -0.145062 22.1798C-0.776292 20.4477 -0.11184 21.6025 0.187163 20.2231C0.785167 17.3362 0.220386 17.0796 0.552612 16.1494C0.585834 16.0531 0.552612 15.9248 0.552612 15.7965C0.452941 14.3531 0.585834 15.0908 0.818393 14.738C1.01773 14.4493 0.320052 13.9361 -0.0453993 13.7757C-0.44407 13.5832 -0.0453955 13.07 0.187164 13.1983C0.253608 13.2304 0.884838 13.6794 0.884838 13.3266C0.884838 13.0058 0.951282 12.8454 1.34995 12.8134C1.61573 12.8134 1.7154 12.4926 1.54929 12.268C1.28351 11.8831 0.91806 11.7548 1.7154 11.5944C1.91474 11.5624 1.7154 10.8246 1.01773 11.6907C-1.34108 13.3266 4.73866 3.79972 6.83168 3.35065C8.6257 2.96572 10.0875 1.81095 11.1174 1.7468C13.0111 1.61849 12.546 0.207101 14.8051 0.207101C15.9347 0.207101 16.5991 -0.434439 17.1639 0.559948C17.7287 1.55433 20.0543 0.335409 24.6058 1.65057C25.5028 1.90718 26.3666 1.58641 26.9646 2.26003C27.2968 2.64495 27.2968 2.22795 27.2968 2.74118C27.5958 3.12611 27.928 2.77326 28.6921 3.31857C29.2569 3.70349 28.7918 3.76765 29.5559 4.21673C30.9513 5.0828 31.3832 5.66019 31.9147 5.75642C34.0078 6.14134 37.1307 9.63774 37.7287 11.819C37.7619 11.9794 37.8616 12.1077 37.9612 12.236C38.5925 13.0058 38.3931 13.3907 38.9247 16.7267C38.9911 17.1758 38.9579 17.5608 38.6921 17.9457C39.3234 19.5495 39.8882 20.4798 39.4563 21.6025C39.2237 22.244 39.6556 22.2761 39.5892 22.4365C39.423 23.0459 39.6556 23.6875 39.423 24.2648C39.124 25.0026 39.3898 26.6706 39.124 27.2159C38.7918 27.8895 39.423 27.8254 38.6589 28.5632C38.4596 28.9481 39.124 29.4934 38.4264 29.7821C38.0941 29.9425 38.2602 30.3274 38.2602 30.6161C38.227 31.0652 37.3632 32.7973 36.5327 33.1181C36.1672 33.2464 36.8981 33.1181 34.7719 35.4276C34.6058 35.6201 34.2403 35.5559 34.2071 35.7805C33.7088 38.4108 24.7387 40.0788 23.0775 39.4373C22.9446 39.3731 22.2137 39.309 21.948 39.5656C21.6157 39.8863 21.3832 39.8222 19.9878 39.8863C19.8882 39.8863 19.7553 39.6297 19.9878 39.4052C20.4862 38.924 20.4529 39.3731 19.8549 38.1542C19.7885 38.0579 19.9878 37.8334 20.1207 37.8976C20.5858 38.0259 20.4862 38.4108 21.1174 38.4429C21.7486 38.4749 21.8815 38.6033 22.1805 38.4108C23.0443 37.8655 22.7785 38.9561 24.1406 37.3202C24.8051 36.5183 23.9081 36.3579 23.9745 36.422ZM30.4197 36.839C30.4529 37.0636 30.7519 36.9353 30.0875 36.7749C30.0543 36.9353 29.9214 36.8711 29.9878 36.7749C30.021 36.7107 29.8882 36.7428 30.4197 36.839ZM2.31341 10.151C1.94796 10.4397 2.41307 10.183 2.51274 9.60566C2.57919 9.60566 2.64563 9.60566 2.71208 9.57358C2.77852 9.57358 2.7453 9.1245 2.31341 10.151ZM26.732 12.5247C26.6988 12.4605 26.4995 12.6209 26.7985 12.685C26.7985 12.8134 26.7985 12.8134 26.8649 12.7492C26.732 12.653 26.8317 12.7492 26.732 12.5247ZM34.9712 31.2897C34.938 31.2576 35.0044 31.2897 35.1705 31.1935C35.2702 31.1293 35.0377 30.7765 34.9712 31.2897ZM28.4264 36.5503C28.7918 36.5503 28.2602 36.5503 28.1274 36.6466C28.0277 36.7107 28.1274 36.8069 28.4264 36.5503ZM6.59912 3.89595C6.66557 3.79972 7.36324 3.89595 7.16391 3.63934C7.09746 3.57518 6.5659 3.89595 6.59912 3.89595ZM32.7785 32.8936C33.3433 32.3162 33.4762 32.7332 34.0742 31.7709C34.1074 31.7067 33.9745 31.4822 33.7752 31.6105C33.2769 32.0275 33.3101 32.4124 32.7785 32.8936C32.5792 32.9577 32.0476 32.9577 32.247 33.2785C32.4463 33.6313 32.7453 32.9577 32.7785 32.8936ZM37.8616 24.329C37.7619 24.2328 38.2935 24.2328 38.0609 23.6554C37.9945 23.4629 36.8649 22.9818 37.8616 24.329ZM37.9612 21.7308C38.0609 21.7308 38.0277 21.6345 38.0609 22.4044C38.1274 23.8158 40.0543 20.0948 37.8284 18.3306C37.5626 18.1381 37.33 19.1325 38.1606 19.9665C38.2603 20.0948 38.2603 20.3194 38.0941 20.4798C36.9646 21.3458 37.5294 23.6233 37.9612 21.7308ZM30.5858 35.0427C31.3832 34.9786 32.247 33.5351 31.35 33.7596C31.3167 33.7596 31.2835 33.7917 31.2503 33.8238C30.6523 35.0106 30.2868 34.7861 30.5858 35.0427ZM26.6988 37.0315C26.2004 36.3258 26.3333 36.4541 26.134 36.2937C25.7353 36.005 25.5692 36.9032 26.0343 36.9673C26.2004 36.9994 26.3998 36.9994 26.6988 37.0315ZM26.3666 38.0259C26.4995 37.9617 26.8317 37.9296 26.5991 37.5768C26.3333 37.1598 25.6024 37.5126 26.3666 38.0259ZM27.8616 36.0371C27.629 35.8767 27.5958 35.7484 27.4629 36.005C27.3632 36.2296 27.4629 36.2616 27.5958 36.3579C27.6955 36.3899 27.7619 36.2296 27.8616 36.0371ZM27.5958 37.7372C28.0277 37.4164 27.4297 37.256 27.4629 37.5768C27.4961 37.6409 27.5626 37.673 27.5958 37.7372ZM17.7951 38.8278C17.8284 38.7957 17.9945 38.7636 17.8616 38.6674C17.7951 38.6033 17.6622 38.6995 17.7951 38.8278ZM3.37653 8.54712L3.44297 8.61127C3.74198 8.45089 3.54264 8.22635 3.37653 8.54712ZM37.7951 15.7965C37.6955 15.7644 37.7287 15.7324 37.6622 15.8286C37.7619 15.8927 37.7287 15.8927 37.7951 15.7965ZM2.81175 28.6594C2.94464 28.7877 3.01108 28.6915 2.97786 28.5952C2.94464 28.4669 2.77853 28.499 2.81175 28.6594Z" fill="#3F3F3F"/>
<path d="M36.0003 15.6479C36.3211 15.8472 36.706 15.7143 36.706 16.4452C36.6419 16.4784 36.5136 16.3123 36.4815 16.4784C36.5456 16.4452 36.6098 16.4452 36.674 16.412C36.706 16.4784 36.9306 17.01 36.6098 17.0432C36.0003 17.0764 35.6796 17.1429 35.6796 16.9103C35.7116 16.2791 36.0645 15.5814 36.0003 15.6479Z" fill="#3F3F3F"/>
<path d="M37.7645 23.0565C37.2513 23.8538 38.5023 24.0864 37.7645 23.0565V23.0565Z" fill="#3F3F3F"/>
<path d="M22.9771 39.4352C23.2657 38.3721 23.3299 39.2691 22.9771 39.4352V39.4352Z" fill="#3F3F3F"/>
<path d="M2.09498 12.2924C2.38367 12.2924 2.3516 12.3256 2.3516 12.2924C2.09498 12.2924 2.0629 12.2592 2.09498 12.2924Z" fill="#3F3F3F"/>
<path d="M22.9771 39.4352C22.6884 39.7342 22.7205 39.701 22.7526 39.701C23.0413 39.402 23.0092 39.4685 22.9771 39.4352Z" fill="#3F3F3F"/>
</g>
<g clip-path="url(#clip2_102_3079)">
<path d="M19.0588 13.7732C19.1362 13.5458 19.3023 13.0521 19.4074 12.5861C18.4501 13.7122 17.1883 13.9396 16.6682 13.984L16.5852 17.2902C16.5796 17.4066 16.5962 17.5176 16.6239 17.6285C17.1717 19.6145 19.2192 20.7738 21.2003 20.2302C22.4731 19.8807 23.4581 18.8767 23.8012 17.6008C23.8289 17.4954 23.84 17.3845 23.84 17.2735L23.7459 13.0964C22.5893 13.0077 22.0027 12.2699 21.7316 11.7263C21.2833 12.464 20.2707 13.6955 19.5402 14.2059C19.4461 14.2724 19.3189 14.2891 19.2137 14.2392C19.0588 14.1671 18.9868 13.9951 19.0366 13.8398L19.0588 13.7732Z" fill="white"/>
<path d="M16.5243 19.681C16.5188 19.8363 16.3915 19.9528 16.2421 19.9528C16.1425 19.9528 16.0539 19.8974 16.0041 19.8086C15.7053 19.265 15.2515 18.2443 14.8974 17.0405L14.6262 18.3663C14.3661 19.6422 14.8143 21.2509 15.6555 22.144L15.7385 22.0941C15.7385 22.0663 15.744 22.0442 15.7496 22.0164L15.8104 21.7723C15.9764 21.1455 16.552 20.7128 17.1994 20.7405V19.6921C16.9449 19.4369 16.7235 19.154 16.5354 18.8489L16.5243 19.681Z" fill="white"/>
<path d="M13.193 28.3958C13.193 28.2404 13.3147 28.1184 13.4697 28.1184C13.6246 28.1184 13.7464 28.2404 13.7464 28.3958V33H19.911V32.301C19.59 32.2067 19.341 31.9571 19.247 31.6354H18.439C18.2841 31.9127 17.9354 32.0181 17.6588 31.8628C17.3821 31.7075 17.2769 31.358 17.4319 31.0806C17.5868 30.8033 17.9354 30.6979 18.2121 30.8532C18.3062 30.9087 18.3892 30.9863 18.439 31.0806H19.247C19.341 30.7589 19.59 30.5093 19.911 30.415V29.5385C19.59 29.4442 19.341 29.1946 19.247 28.8728H18.4446C18.3007 29.1557 17.952 29.2667 17.6643 29.1225C17.3765 28.9782 17.2714 28.6288 17.4153 28.3403C17.5591 28.0518 17.9078 27.9464 18.1955 28.0907C18.2951 28.1406 18.3726 28.2183 18.428 28.3181H19.2414C19.3355 27.9964 19.5845 27.7467 19.9055 27.6524V26.7205C19.5845 26.6262 19.3355 26.3766 19.2414 26.0548H18.439C18.2951 26.3377 17.9465 26.4487 17.6588 26.3045C17.3765 26.1602 17.2659 25.8107 17.4097 25.5223C17.5536 25.2394 17.9022 25.1284 18.19 25.2727C18.2896 25.3226 18.3671 25.4003 18.4224 25.5001H19.2359C19.33 25.1784 19.579 24.9287 19.8999 24.8344L19.8944 24.4517L16.0927 22.5323L12.374 24.668C11.7431 25.0341 11.2119 25.55 10.8301 26.1713L10.8135 26.1935C10.4372 26.8148 10.2158 27.5249 10.1826 28.2515L10 33H13.193V28.3958ZM15.1298 26.2601C15.1298 26.1048 15.2516 25.9827 15.4065 25.9827C15.5615 25.9827 15.6832 26.1048 15.6832 26.2601V26.5541C15.6832 26.7094 15.5615 26.8314 15.4065 26.8314C15.2516 26.8314 15.1298 26.7094 15.1298 26.5541V26.2601ZM15.1298 27.6635C15.1298 27.5082 15.2516 27.3862 15.4065 27.3862C15.5615 27.3862 15.6832 27.5082 15.6832 27.6635V31.8794C15.6832 32.0348 15.5615 32.1568 15.4065 32.1568C15.2516 32.1568 15.1298 32.0348 15.1298 31.8794V27.6635Z" fill="white"/>
<path d="M14.4215 14.5332C14.2168 11.9149 15.1077 9.93451 17.0169 8.78068C17.5038 8.48668 18.024 8.26479 18.5719 8.12056C18.6327 7.69897 18.8486 7.3162 19.1806 7.04994C18.1347 6.93899 16.4801 6.95009 15.2737 7.85984C14.2776 8.60872 13.7575 9.8513 13.7187 11.5488C13.7187 11.6098 13.7187 11.6708 13.7132 11.7485C13.7021 12.7026 13.6745 14.8161 12.4238 15.5372C12.8942 15.5539 13.8183 15.2155 14.4215 14.5332Z" fill="white"/>
<path d="M20.896 22.3326C20.7577 22.4491 20.6027 22.5323 20.4257 22.5767L20.4423 23.8803L23.9673 22.1052L23.9119 21.8611C23.8068 21.4118 23.3641 21.1344 22.9159 21.2343C22.8716 21.2453 22.8273 21.2564 22.7831 21.2786C21.9419 21.6281 21.2889 21.9942 20.896 22.3326Z" fill="white"/>
<path d="M21.3221 8.0207C21.1339 7.42159 20.4975 7.08876 19.8999 7.27736C19.5568 7.38831 19.2856 7.64903 19.1694 7.99296C19.8833 7.87647 20.6138 7.88756 21.3221 8.0207Z" fill="white"/>
<path d="M20.1545 22.0608C20.2929 22.0553 20.4257 21.9998 20.5308 21.911C20.9735 21.5283 21.6652 21.1455 22.5783 20.7628C22.606 20.7517 22.6281 20.7406 22.6558 20.735V20.1526C21.1838 21.1843 19.2304 21.1843 17.7639 20.1526V20.8737C18.6051 21.2121 19.2691 21.5727 19.7339 21.9332C19.8557 22.0275 20.0051 22.0719 20.1545 22.0608Z" fill="white"/>
<path d="M17.3045 9.25218C15.4839 10.3505 14.7092 12.2255 15.008 14.8272C15.163 16.2029 15.6001 17.5398 16.0041 18.505L16.1203 13.8952C16.1203 13.6567 16.3085 13.457 16.5519 13.4404C17.0112 13.4126 18.5718 13.2018 19.4461 11.5598C19.507 11.4433 19.6343 11.3768 19.7671 11.3934C19.8999 11.4101 20.005 11.5099 20.0327 11.6375C20.1212 12.0203 19.994 12.6249 19.8113 13.2518C20.492 12.575 21.228 11.5931 21.4106 11.1771C21.4936 10.9829 21.715 10.8942 21.9086 10.9774C22.0027 11.0218 22.0802 11.0994 22.1134 11.1993C22.2849 11.6819 22.7387 12.4973 23.8676 12.5473C24.1111 12.5583 24.2992 12.758 24.3048 12.9966L24.432 18.4828C25.0906 16.9185 26.07 13.9063 25.1459 11.5266C24.6368 10.223 23.602 9.29656 22.0691 8.77512C21.4604 8.56987 20.8185 8.45892 20.1766 8.45892C19.1528 8.46447 18.1678 8.73629 17.3045 9.25218Z" fill="white"/>
<path d="M19.7561 28.5899C19.7561 28.8284 19.9498 29.0171 20.1877 29.0171C20.4257 29.0171 20.6138 28.8229 20.6138 28.5844C20.6138 28.3458 20.4202 28.1572 20.1877 28.1572C19.9498 28.1628 19.7561 28.3569 19.7561 28.5899Z" fill="white"/>
<path d="M19.7561 25.7664C19.7561 26.0049 19.9498 26.1935 20.1877 26.1935C20.4257 26.1935 20.6138 25.9994 20.6138 25.7608C20.6138 25.5223 20.4202 25.3337 20.1877 25.3337C19.9498 25.3392 19.7561 25.5334 19.7561 25.7664Z" fill="white"/>
<path d="M24.1775 19.9529C24.1554 19.9529 24.1332 19.9529 24.1111 19.9473C23.9894 19.9196 23.9008 19.8086 23.9008 19.6866L23.8787 18.8379C23.6905 19.154 23.4692 19.4425 23.2091 19.6977V20.674C23.8123 20.7184 24.3214 21.1511 24.4542 21.7446L24.5372 22.1107C24.5427 22.1274 24.5427 22.144 24.5427 22.1662L24.8139 22.3049C25.6938 21.3008 26.1475 19.6034 25.8764 18.2554L25.5997 16.8076C25.3119 17.8504 24.9135 18.8545 24.4155 19.8142C24.3712 19.8974 24.2771 19.9529 24.1775 19.9529Z" fill="white"/>
<path d="M19.7561 31.358C19.7561 31.5965 19.9498 31.7851 20.1877 31.7851C20.4257 31.7851 20.6138 31.591 20.6138 31.3525C20.6138 31.1139 20.4202 30.9253 20.1877 30.9253C19.9498 30.9309 19.7561 31.1195 19.7561 31.358Z" fill="white"/>
<path d="M19.8944 23.847L19.8778 22.5878C19.7062 22.549 19.5402 22.4768 19.4019 22.3659C18.9647 22.0275 18.2951 21.6725 17.4706 21.3452C17.0445 21.1732 16.563 21.384 16.3915 21.8112C16.3804 21.8445 16.3693 21.8777 16.3583 21.9055L16.3251 22.022L19.8944 23.847C19.8888 23.847 19.8888 23.847 19.8944 23.847Z" fill="white"/>
<path d="M30.4751 33V28.5067C30.4751 26.8869 29.573 25.4003 28.1398 24.6514L24.2053 22.6044L20.4534 24.4517L20.4589 24.8233C20.7799 24.9176 21.0344 25.1673 21.1285 25.489H21.8257C21.9862 25.2116 22.3349 25.1173 22.6115 25.2782C22.8882 25.4391 22.9823 25.7886 22.8218 26.0659C22.6613 26.3433 22.3127 26.4376 22.036 26.2767C21.942 26.2212 21.8645 26.138 21.8147 26.0437H21.134C21.04 26.3655 20.7909 26.6151 20.47 26.7094V27.6413C20.7909 27.7356 21.04 27.9853 21.134 28.307H21.8313C21.9918 28.0297 22.3404 27.9353 22.6171 28.0962C22.8938 28.2571 22.9878 28.6066 22.8274 28.8839C22.6669 29.1613 22.3183 29.2556 22.0416 29.0947C21.9475 29.0393 21.87 28.956 21.8202 28.8617H21.1396C21.0455 29.1835 20.7965 29.4331 20.4755 29.5274V30.4039C20.7965 30.4982 21.0455 30.7478 21.1396 31.0695H21.8257C21.9807 30.7922 22.3293 30.6868 22.606 30.8421C22.8827 30.9974 22.9878 31.3469 22.8329 31.6243C22.678 31.9016 22.3293 32.007 22.0526 31.8517C21.9586 31.7962 21.8756 31.7186 21.8257 31.6243H21.1396C21.0455 31.946 20.7965 32.1956 20.4755 32.2899V32.9889H26.4133V28.3847C26.4133 28.2294 26.535 28.1073 26.6899 28.1073C26.8449 28.1073 26.9666 28.2294 26.9666 28.3847V32.9889L30.4751 33Z" fill="white"/>
</g>
</g>
<defs>
<clipPath id="clip0_102_3079">
<rect width="40" height="40" fill="white"/>
</clipPath>
<clipPath id="clip1_102_3079">
<rect width="40" height="40" fill="white" transform="translate(-0.375)"/>
</clipPath>
<clipPath id="clip2_102_3079">
<rect width="20.475" height="26" fill="white" transform="translate(10 7)"/>
</clipPath>
</defs>
</svg>
