<svg width="32" height="32" viewBox="0 0 32 32" fill="none" xmlns="http://www.w3.org/2000/svg">
<path d="M28.3316 25.485H10.0102C9.27362 25.485 8.62915 24.8866 8.62915 24.104C8.62915 23.3215 9.22759 22.723 10.0102 22.723H28.3316C29.0681 22.723 29.7126 23.3215 29.7126 24.104C29.7126 24.8866 29.0681 25.485 28.3316 25.485Z" fill="#22262B"/>
<path d="M29.022 25.301C29.022 25.301 28.9759 25.255 29.022 25.255C29.114 25.1169 29.2061 25.0248 29.2521 24.8867C29.2982 24.7486 29.3442 24.7486 29.4823 24.7486V24.7026C29.5283 24.6105 29.6204 24.4264 29.5283 24.3803C29.4823 24.3343 29.5283 24.2883 29.5283 24.2422C29.5744 24.0121 29.4823 23.7819 29.3902 23.5517C29.3442 23.4597 29.2982 23.3676 29.2061 23.3216C29.114 23.2295 28.9759 23.1835 28.8839 23.0914C28.7458 22.9993 28.6077 22.9533 28.4235 22.9533C28.2394 22.9533 28.0553 22.9533 27.8251 22.9533C27.733 22.9533 27.6409 22.9533 27.5949 22.9073C27.5949 22.9073 27.5489 22.8612 27.5489 22.9073C27.4568 23.0454 27.3187 22.9993 27.1346 22.9533C27.0885 22.9533 27.0425 22.9533 27.0425 22.9533C26.9044 23.0914 26.7203 22.9993 26.6282 22.9533C26.4901 22.9533 26.4441 22.9533 26.352 22.9533C26.0298 23.0454 25.7075 23.0454 25.3393 22.9993C25.0631 22.9533 24.7408 22.9993 24.4646 22.9993C23.8201 22.9993 23.2217 22.9993 22.5772 22.9533C22.3931 22.9533 22.209 22.9533 22.0248 22.9533C21.9328 22.9533 21.7947 22.9533 21.8407 22.8612C21.8407 22.8152 21.9788 22.8152 22.0248 22.8152C22.0709 22.8152 22.0709 22.8152 22.1169 22.8152C22.0248 22.7231 21.9788 22.6771 21.7947 22.7691H21.7486C21.5645 22.8152 21.4724 22.8612 21.3343 22.9073C21.1962 22.9533 20.9661 22.9073 20.828 22.9533C20.7819 22.9533 20.7819 22.9533 20.7359 22.9073C20.6438 22.7231 20.4137 22.6771 20.1835 22.8152C19.9073 22.9533 19.539 22.9533 19.2628 22.9533C18.9866 22.9533 18.7104 22.9533 18.4342 22.9533H18.3882C18.2501 22.9533 18.0659 22.9533 17.9278 22.9533C17.7437 22.9533 17.8358 22.8612 17.7437 22.7691C17.6977 22.7231 17.6516 22.7231 17.5596 22.7231C17.6977 22.9073 17.6977 22.8612 17.3294 22.9073C16.5929 22.9533 15.9023 22.9073 15.2118 22.9073C14.6134 22.9073 14.061 22.9073 13.4626 22.9073C12.8641 22.9073 12.2657 22.8612 11.6672 22.9073C11.2529 22.9073 10.8386 22.8612 10.4243 22.9073C10.3783 22.9073 10.3323 22.9073 10.2862 22.9073C10.2862 22.8152 10.4243 22.8152 10.5164 22.8152C10.8386 22.8612 11.1609 22.8152 11.4831 22.8152C11.6672 22.8152 11.8514 22.8152 12.0355 22.8152C11.7593 22.631 11.391 22.7691 11.0688 22.7691C10.3783 22.8152 9.54969 22.585 9.04332 23.1374C8.99729 23.1835 8.90522 23.2755 8.85919 23.3216C8.81315 23.3676 8.76712 23.4597 8.72109 23.5057C8.53695 24.0581 8.67505 24.7026 9.13539 25.0708C9.22746 25.1629 9.36556 25.2089 9.45763 25.2089C9.54969 25.1169 9.68779 25.1629 9.82589 25.1629C10.0561 25.1629 10.3783 25.1629 10.6545 25.1629C11.4831 25.2089 12.3117 25.1629 13.1403 25.1629C13.6467 25.1629 14.1991 25.2089 14.7055 25.1629C14.7975 25.1629 14.9356 25.1629 14.9356 25.2089C14.9356 25.255 14.7975 25.255 14.7515 25.255C14.7515 25.255 14.7055 25.255 14.6134 25.301C15.1198 25.347 15.5801 25.301 15.9944 25.301C16.4548 25.301 16.8691 25.301 17.3294 25.255C16.8691 25.2089 16.3627 25.301 15.8563 25.2089C16.0865 25.1169 16.5468 25.1169 17.0992 25.1169C17.5135 25.1169 17.9278 25.0708 18.3882 25.0708C18.8025 25.0708 19.2168 24.9788 19.6311 25.0708C18.9406 25.1169 18.2961 25.1169 17.6056 25.1629C17.6977 25.255 17.7897 25.2089 17.8818 25.1629C19.6771 25.1169 21.4724 25.1169 23.2677 25.1169C24.3265 25.1169 25.3853 25.0708 26.398 25.0708C26.9504 25.0708 27.5028 25.1169 28.0553 25.1169C28.1473 25.1169 28.2394 25.1169 28.2394 25.1629C28.2394 25.2089 28.1473 25.255 28.0553 25.255C27.6409 25.255 27.2727 25.301 26.8584 25.301C25.9837 25.301 25.1551 25.301 24.2805 25.301C23.3138 25.347 22.3471 25.301 21.4264 25.347C20.2755 25.3931 19.1247 25.3931 17.9739 25.4391C16.6849 25.4851 15.396 25.4851 14.107 25.5312C13.2784 25.5312 12.4959 25.5312 11.6672 25.5772H10.4243C10.1942 25.5772 10.01 25.5772 9.77986 25.5772C9.54969 25.5772 9.31952 25.4851 9.13539 25.3931C8.72109 25.1629 8.44488 24.7486 8.39885 24.2883C8.30678 23.8279 8.44488 23.3676 8.76712 22.9993C9.04332 22.6771 9.54969 22.4929 9.964 22.4929H11.2069C11.8974 22.4929 12.5419 22.4469 13.2324 22.4469C14.7975 22.4469 16.4087 22.4469 17.9739 22.4469C18.9406 22.4469 19.9073 22.4009 20.828 22.4009C21.7026 22.4009 22.6233 22.4469 23.4979 22.4469C24.6488 22.4469 25.7536 22.4469 26.9044 22.4009C27.2266 22.4009 27.5489 22.4009 27.8251 22.4009C28.0092 22.4009 28.1013 22.4009 28.3315 22.4009C28.5156 22.4009 28.6997 22.4469 28.8839 22.4929C29.2982 22.631 29.6204 22.9993 29.8045 23.4136C29.9426 23.8279 29.9426 24.2883 29.8045 24.7026C29.7585 24.8867 29.6204 25.0248 29.5283 25.1169C29.2061 25.347 28.7918 25.5312 28.3775 25.5772C28.3314 25.5772 28.2394 25.5772 28.2394 25.5312C28.5156 25.4851 28.7918 25.3931 29.022 25.255C29.2521 25.1169 29.4363 24.8407 29.5283 24.6105C29.4363 24.8867 29.2061 25.0248 28.9759 25.2089C29.068 25.301 29.022 25.301 29.022 25.301ZM11.4831 25.3931C11.7133 25.4391 11.8974 25.3931 12.1276 25.3931C12.5419 25.4391 13.9689 25.4391 14.2912 25.347C13.6467 25.347 13.0483 25.347 12.4959 25.347C12.3578 25.347 12.2657 25.347 12.1276 25.3931C11.8974 25.347 11.6672 25.347 11.4831 25.3931ZM10.01 25.347C10.3323 25.3931 10.6545 25.3931 10.9767 25.347C10.6545 25.301 10.3323 25.301 10.01 25.347ZM9.54969 25.255C9.59573 25.301 9.68779 25.347 9.77986 25.301C9.73383 25.301 9.64176 25.301 9.54969 25.255ZM12.8641 22.8612C12.68 22.8612 12.5419 22.8152 12.4038 22.8612C12.5419 22.8612 12.726 22.8612 12.8641 22.8612ZM15.6722 22.8612C15.5801 22.8612 15.5341 22.8612 15.442 22.8612C15.488 22.8612 15.5341 22.9072 15.6722 22.8612ZM18.204 22.8152H18.158C18.112 22.8152 18.0659 22.8152 18.0659 22.8612C18.0659 22.8612 18.112 22.9073 18.158 22.9073C18.204 22.8152 18.204 22.8152 18.204 22.8152ZM18.6644 22.7691C18.6183 22.7691 18.6183 22.7691 18.6183 22.7691C18.5723 22.7691 18.5723 22.7691 18.6644 22.7691ZM19.585 22.7231C19.4469 22.7231 19.4009 22.7231 19.3549 22.7231C19.3088 22.7231 19.2168 22.7231 19.2628 22.7691C19.2628 22.7691 19.2628 22.8152 19.3088 22.8152C19.3549 22.8612 19.4009 22.8152 19.4469 22.8152C19.4469 22.8152 19.493 22.7691 19.585 22.7231ZM21.0581 22.7691H21.0121C20.9661 22.7691 20.92 22.7691 20.92 22.8152C20.92 22.8152 20.9661 22.8152 21.0121 22.8152C21.0581 22.7691 21.1042 22.7691 21.0581 22.7691ZM22.6693 22.8152C22.6693 22.7691 22.6693 22.7691 22.6693 22.8152V22.8152ZM23.1757 22.8152C23.0836 22.7691 23.0836 22.7691 23.0836 22.8152C23.0836 22.8152 23.1296 22.8152 23.1296 22.8612C23.1757 22.8152 23.1757 22.8152 23.1757 22.8152ZM24.7408 22.7691C24.6027 22.7691 24.5107 22.8152 24.4186 22.8612C24.6488 22.8612 24.6488 22.8612 24.7408 22.7691ZM26.1218 22.8152C26.1218 22.7691 26.1218 22.7691 26.1218 22.8152V22.8152ZM26.4901 22.7691H26.4441C26.398 22.7691 26.352 22.7691 26.352 22.8152C26.352 22.8612 26.398 22.8612 26.4441 22.8152C26.4901 22.8152 26.4901 22.8152 26.4901 22.7691ZM29.2521 23.0914C29.2061 23.0454 29.1601 23.0454 29.114 23.0454C29.1601 22.9993 29.2061 23.0914 29.2521 23.0914ZM29.6664 23.8279V23.7359V23.6898C29.6664 23.7359 29.6664 23.7819 29.6664 23.8279Z" fill="#22262B"/>
<path d="M9.50362 25.1629C9.18138 24.9327 8.90518 24.6105 8.85914 24.2422C8.81311 24.4263 8.90518 24.6565 9.04328 24.8406C9.13535 24.9787 9.31948 25.0708 9.50362 25.1629Z" fill="#22262B"/>
<path d="M9.96392 22.9072C9.77978 22.9533 9.50358 22.9993 9.36548 23.1834C9.45755 23.1374 9.54961 23.0914 9.68771 23.0914C9.77978 23.0914 9.87185 23.0453 9.96392 23.0453C10.01 23.0453 10.056 22.9993 10.056 22.9993C10.056 22.9072 10.01 22.8612 9.96392 22.9072Z" fill="#22262B"/>
<path d="M20.6438 25.1629C20.4137 25.1169 20.2295 25.1169 20.0454 25.209C20.2295 25.209 20.4137 25.209 20.6438 25.1629Z" fill="#22262B"/>
<path d="M15.488 25.3012C15.5801 25.3012 15.7182 25.3472 15.7182 25.2552C15.7182 25.2091 15.6261 25.1631 15.5341 25.2091C15.442 25.2091 15.2579 25.1631 15.3039 25.2552C15.3039 25.3472 15.442 25.3012 15.488 25.3012Z" fill="#22262B"/>
<path d="M20.5058 22.8612C20.4137 22.8612 20.3677 22.9072 20.3677 22.9072C20.3677 22.9533 20.4137 22.9993 20.5058 22.9993C20.5978 22.9993 20.6439 22.9533 20.6439 22.9533C20.6439 22.8612 20.5978 22.8612 20.5058 22.8612Z" fill="#22262B"/>
<path d="M8.81323 23.9201C8.81323 24.0121 8.81323 24.0122 8.85927 24.0582C8.85927 24.0582 8.9053 24.0582 8.9053 24.0121C8.9053 23.9661 8.9053 23.874 8.85927 23.874C8.81323 23.828 8.81323 23.874 8.81323 23.9201Z" fill="#22262B"/>
<path d="M8.95117 23.5518C9.04324 23.4598 9.04324 23.4137 9.13531 23.2756C9.04324 23.4137 8.95117 23.4598 8.95117 23.5518Z" fill="#22262B"/>
<path d="M28.3313 16.9227H10.0099C9.27338 16.9227 8.62891 16.3242 8.62891 15.5417C8.62891 14.8051 9.22735 14.1606 10.0099 14.1606H28.3313C29.0679 14.1606 29.7124 14.7591 29.7124 15.5417C29.7124 16.2782 29.0679 16.9227 28.3313 16.9227Z" fill="#22262B"/>
<path d="M29.0218 16.7387C29.0218 16.7387 28.9758 16.6927 29.0218 16.6927C29.1139 16.5546 29.206 16.4625 29.252 16.3244C29.298 16.1863 29.3441 16.1863 29.4822 16.1863V16.1403C29.5282 16.0482 29.6203 15.8641 29.5282 15.8181C29.4822 15.772 29.5282 15.726 29.5282 15.68C29.5742 15.4498 29.4822 15.2196 29.3901 14.9895C29.3441 14.8974 29.298 14.8053 29.206 14.7593C29.1139 14.6672 28.9758 14.6212 28.8837 14.5291C28.7456 14.437 28.6075 14.391 28.4234 14.391C28.2392 14.391 28.0551 14.391 27.8249 14.391C27.7329 14.391 27.6408 14.391 27.5948 14.345C27.5948 14.345 27.5487 14.2989 27.5487 14.345C27.4567 14.4831 27.3186 14.437 27.1344 14.391C27.0884 14.391 27.0424 14.391 27.0424 14.391C26.9043 14.5291 26.7201 14.437 26.6281 14.391C26.536 14.345 26.49 14.345 26.3519 14.345C26.0296 14.437 25.7074 14.437 25.3391 14.391C25.0629 14.345 24.7407 14.391 24.4645 14.391C23.82 14.391 23.2216 14.391 22.5771 14.345C22.393 14.345 22.2088 14.345 22.0247 14.345C21.9326 14.345 21.7945 14.345 21.8406 14.2529C21.8406 14.2069 21.9787 14.2069 22.0247 14.2069C22.0707 14.2069 22.0707 14.2069 22.1168 14.2069C22.0247 14.1148 21.9787 14.0688 21.7945 14.1608H21.7485C21.5644 14.2069 21.4723 14.2529 21.3342 14.2989C21.1961 14.345 20.9659 14.2989 20.8278 14.345C20.7818 14.345 20.7818 14.345 20.7358 14.2989C20.6437 14.1148 20.4135 14.0688 20.1833 14.2069C19.9071 14.345 19.5389 14.345 19.2627 14.345C18.9865 14.345 18.7103 14.345 18.4341 14.345H18.388C18.2499 14.345 18.0658 14.345 17.9277 14.345C17.7436 14.345 17.8356 14.2529 17.7436 14.1608C17.6975 14.2069 17.6515 14.2069 17.6055 14.2069C17.7436 14.391 17.7436 14.345 17.3753 14.391C16.6388 14.437 15.9482 14.391 15.2577 14.391C14.6593 14.391 14.1069 14.391 13.5085 14.391C12.91 14.391 12.3116 14.345 11.7131 14.391C11.2988 14.391 10.8845 14.345 10.4702 14.391C10.4242 14.391 10.3782 14.391 10.3321 14.391C10.3321 14.2989 10.4702 14.2989 10.5623 14.2989C10.8845 14.345 11.2068 14.2989 11.529 14.2989C11.7131 14.2989 11.8973 14.2989 12.0814 14.2989C11.8052 14.1148 11.4369 14.2529 11.1147 14.2529C10.4242 14.2989 9.59559 14.0688 9.08922 14.6212C9.04319 14.6672 8.95112 14.7593 8.90509 14.8053C8.85905 14.8514 8.81302 14.9434 8.76698 14.9895C8.58285 15.5419 8.72095 16.1863 9.18129 16.5546C9.27335 16.6467 9.41146 16.6927 9.50352 16.6927C9.59559 16.6006 9.73369 16.6467 9.87179 16.6467C10.102 16.6467 10.4242 16.6467 10.7004 16.6467C11.529 16.6927 12.3576 16.6467 13.1862 16.6467C13.6926 16.6467 14.245 16.6927 14.7514 16.6467C14.8434 16.6467 14.9815 16.6467 14.9815 16.6927C14.9815 16.7387 14.8434 16.7387 14.7974 16.7387C14.7974 16.7387 14.7514 16.7387 14.6593 16.7848C15.1657 16.8308 15.626 16.7848 16.0403 16.7848C16.5006 16.7848 16.915 16.7848 17.3753 16.7387C16.915 16.6927 16.4086 16.7848 15.9022 16.6927C16.1324 16.6006 16.5927 16.6006 17.1451 16.6006C17.5594 16.6006 17.9737 16.5546 18.4341 16.5546C18.8484 16.5546 19.2627 16.4625 19.677 16.5546C18.9865 16.6006 18.342 16.6006 17.6515 16.6467C17.7436 16.7387 17.8356 16.6927 17.9277 16.6467C19.723 16.6006 21.5183 16.6006 23.3136 16.6006C24.3724 16.6006 25.4312 16.5546 26.4439 16.5546C26.9963 16.5546 27.5487 16.6006 28.1011 16.6006C28.1932 16.6006 28.2853 16.6006 28.2853 16.6467C28.2853 16.6927 28.1932 16.7387 28.1011 16.7387C27.6868 16.7387 27.3186 16.7848 26.9043 16.7848C26.0296 16.7848 25.201 16.7848 24.3264 16.7848C23.3597 16.8308 22.393 16.7848 21.4723 16.8308C20.3214 16.8768 19.1706 16.8768 18.0198 16.9229C16.7308 16.9689 15.4419 16.9689 14.1529 17.0149C13.3243 17.0149 12.5417 17.0149 11.7131 17.061H10.4702C10.2401 17.061 10.0559 17.061 9.82576 17.061C9.59559 17.061 9.36542 16.9689 9.18129 16.8768C8.76698 16.6467 8.49078 16.2324 8.44475 15.772C8.35268 15.3117 8.49078 14.8514 8.81302 14.4831C9.08922 14.1608 9.59559 13.9767 10.0099 13.9767H11.2528C11.9433 13.9767 12.5878 13.9307 13.2783 13.9307C14.8434 13.9307 16.4546 13.9307 18.0198 13.9307C18.9865 13.9307 19.9532 13.8846 20.8739 13.8846C21.7485 13.8846 22.6692 13.9307 23.5438 13.9307C24.6947 13.9307 25.7995 13.9307 26.9503 13.8846C27.2725 13.8846 27.5948 13.8846 27.871 13.8846C28.0551 13.8846 28.1472 13.8846 28.3773 13.8846C28.5615 13.8846 28.7456 13.9307 28.9298 13.9767C29.3441 14.1148 29.6663 14.4831 29.8504 14.8974C29.9885 15.3117 29.9885 15.772 29.8504 16.1863C29.8044 16.3705 29.6663 16.5086 29.5742 16.6006C29.252 16.8308 28.8377 17.0149 28.4234 17.061C28.3773 17.061 28.2853 17.061 28.2853 17.0149C28.5615 16.9689 28.8377 16.8768 29.0679 16.7387C29.298 16.6006 29.4822 16.3244 29.5742 16.0943C29.4822 16.3705 29.252 16.5086 29.0218 16.6927C29.0679 16.7387 29.0218 16.7387 29.0218 16.7387ZM11.483 16.7848C11.7131 16.8308 11.8973 16.7848 12.1274 16.7848C12.5417 16.8308 13.9688 16.8308 14.291 16.7387C13.6466 16.7387 13.0481 16.7387 12.4957 16.7387C12.3576 16.7387 12.2655 16.7387 12.1274 16.7848C11.8973 16.7848 11.6671 16.7387 11.483 16.7848ZM10.0099 16.7848C10.3321 16.8308 10.6544 16.8308 10.9766 16.7848C10.6544 16.7387 10.3321 16.7387 10.0099 16.7848ZM9.54956 16.6927C9.59559 16.7387 9.68766 16.7848 9.77973 16.7387C9.73369 16.6927 9.64162 16.7387 9.54956 16.6927ZM12.864 14.2989C12.6799 14.2989 12.5417 14.2529 12.4036 14.2989C12.5417 14.2989 12.7259 14.2989 12.864 14.2989ZM15.672 14.2989C15.58 14.2989 15.5339 14.2989 15.4419 14.2989C15.4879 14.2989 15.5339 14.345 15.672 14.2989ZM18.2039 14.2069H18.1579C18.1118 14.2069 18.0658 14.2069 18.0658 14.2529C18.0658 14.2529 18.1118 14.2989 18.1579 14.2989C18.2039 14.2529 18.2039 14.2529 18.2039 14.2069ZM18.6642 14.2069C18.6182 14.2069 18.6182 14.2069 18.6182 14.2069C18.5722 14.2069 18.5722 14.2069 18.6642 14.2069ZM19.5849 14.1608C19.4468 14.1608 19.4008 14.1608 19.3547 14.1608C19.3087 14.1608 19.2166 14.1608 19.2627 14.2069C19.2627 14.2069 19.2627 14.2529 19.3087 14.2529C19.3547 14.2989 19.4008 14.2529 19.4468 14.2529C19.4468 14.2529 19.4928 14.2069 19.5849 14.1608ZM21.058 14.1608H21.012C20.9659 14.1608 20.9199 14.1608 20.9199 14.2069C20.9199 14.2069 20.9659 14.2069 21.012 14.2069C21.058 14.2069 21.104 14.2069 21.058 14.1608ZM22.6692 14.2069C22.6231 14.2069 22.6231 14.2069 22.6231 14.2069C22.6231 14.2529 22.6231 14.2529 22.6692 14.2069C22.6692 14.2529 22.6692 14.2529 22.6692 14.2069ZM23.1755 14.2069C23.0835 14.1608 23.0835 14.1608 23.0835 14.2069C23.0835 14.2069 23.1295 14.2069 23.1295 14.2529C23.1755 14.2529 23.1755 14.2529 23.1755 14.2069ZM24.7407 14.2069C24.6026 14.2069 24.5105 14.2529 24.4184 14.2989C24.6486 14.2529 24.6486 14.2529 24.7407 14.2069ZM26.1217 14.2069C26.0757 14.2069 26.0757 14.2069 26.0757 14.2069C26.0757 14.2529 26.0757 14.2529 26.1217 14.2069ZM26.49 14.2069H26.4439C26.3979 14.2069 26.3519 14.2069 26.3519 14.2529C26.3519 14.2989 26.3979 14.2989 26.4439 14.2529C26.49 14.2529 26.49 14.2069 26.49 14.2069ZM29.252 14.4831C29.206 14.437 29.1599 14.437 29.1139 14.437C29.1599 14.437 29.206 14.5291 29.252 14.4831ZM29.6663 15.2196V15.1276V15.0815C29.6663 15.1736 29.6663 15.2196 29.6663 15.2196Z" fill="#22262B"/>
<path d="M9.50362 16.6005C9.18138 16.3703 8.90518 16.0481 8.85914 15.6798C8.81311 15.8639 8.90518 16.0941 9.04328 16.2782C9.13535 16.4163 9.31948 16.5084 9.50362 16.6005Z" fill="#22262B"/>
<path d="M9.96392 14.2988C9.77978 14.3449 9.50358 14.3909 9.36548 14.575C9.45755 14.529 9.54961 14.483 9.68771 14.483C9.77978 14.483 9.87185 14.4369 9.96392 14.4369C10.01 14.4369 10.056 14.3909 10.056 14.3909C10.056 14.2988 10.01 14.2988 9.96392 14.2988Z" fill="#22262B"/>
<path d="M20.6438 16.5547C20.4137 16.5086 20.2295 16.5086 20.0454 16.6007C20.2295 16.6007 20.4137 16.6467 20.6438 16.5547Z" fill="#22262B"/>
<path d="M15.488 16.7385C15.5801 16.7385 15.7182 16.7845 15.7182 16.6924C15.7182 16.6464 15.6261 16.6004 15.5341 16.6464C15.442 16.6464 15.2579 16.6004 15.3039 16.6924C15.3039 16.7845 15.442 16.7385 15.488 16.7385Z" fill="#22262B"/>
<path d="M20.5055 14.2529C20.4135 14.2529 20.3674 14.299 20.3674 14.299C20.3674 14.345 20.4135 14.391 20.5055 14.391C20.5976 14.391 20.6436 14.345 20.6436 14.345C20.6436 14.299 20.5976 14.299 20.5055 14.2529Z" fill="#22262B"/>
<path d="M8.81299 15.3575C8.81299 15.4495 8.81299 15.4495 8.85902 15.4956C8.85902 15.4956 8.90506 15.4956 8.90506 15.4495C8.90506 15.4035 8.90506 15.3114 8.85902 15.3114C8.81299 15.2654 8.81299 15.3114 8.81299 15.3575Z" fill="#22262B"/>
<path d="M8.95117 14.9895C9.04324 14.8974 9.04324 14.8514 9.13531 14.7133C9.04324 14.8053 8.95117 14.8514 8.95117 14.9895Z" fill="#22262B"/>
<path d="M28.3311 8.31488H10.0097C9.27313 8.31488 8.62866 7.71644 8.62866 6.93387C8.62866 6.19733 9.2271 5.55286 10.0097 5.55286H28.3311C29.0676 5.55286 29.7121 6.15129 29.7121 6.93387C29.7121 7.71644 29.0676 8.31488 28.3311 8.31488Z" fill="#22262B"/>
<path d="M29.0217 8.13043C29.0217 8.13043 28.9757 8.0844 29.0217 8.0844C29.1138 7.9463 29.2058 7.85423 29.2519 7.71613C29.2979 7.57803 29.3439 7.57803 29.482 7.57803V7.53199C29.5281 7.43993 29.6201 7.25579 29.5281 7.20976C29.482 7.16372 29.5281 7.11769 29.5281 7.07166C29.5741 6.84149 29.482 6.61132 29.39 6.38115C29.3439 6.28908 29.2979 6.19702 29.2058 6.15098C29.1138 6.05891 28.9757 6.01288 28.8836 5.92081C28.7455 5.82875 28.6074 5.78271 28.4232 5.78271C28.2391 5.78271 28.055 5.78271 27.8248 5.78271C27.7327 5.78271 27.6407 5.78271 27.5946 5.73668C27.5946 5.73668 27.5486 5.69064 27.5486 5.73668C27.4565 5.87478 27.3184 5.82875 27.1343 5.78271C27.0883 5.78271 27.0422 5.78271 27.0422 5.78271C26.9041 5.92081 26.72 5.82875 26.6279 5.78271C26.5359 5.73668 26.4898 5.73668 26.3517 5.73668C26.0295 5.87478 25.7073 5.92081 25.293 5.82875C25.0168 5.78271 24.6945 5.82875 24.4183 5.82875C23.7738 5.82875 23.1754 5.82875 22.5309 5.78271C22.3468 5.78271 22.1627 5.78271 21.9785 5.78271C21.8865 5.78271 21.7484 5.78271 21.7944 5.69064C21.7944 5.64461 21.9325 5.64461 21.9785 5.64461C22.0246 5.64461 22.0246 5.64461 22.0706 5.64461C21.9785 5.55254 21.9325 5.50651 21.7484 5.59858H21.7023C21.5182 5.64461 21.4261 5.69064 21.288 5.73668C21.1499 5.78271 20.9198 5.73668 20.7816 5.78271C20.7356 5.78271 20.7356 5.78271 20.6896 5.73668C20.5975 5.55254 20.3673 5.50651 20.1372 5.64461C19.861 5.78271 19.4927 5.78271 19.2165 5.78271C18.9403 5.78271 18.6641 5.78271 18.3879 5.78271H18.3419C18.2038 5.78271 18.0196 5.78271 17.8815 5.78271C17.6974 5.78271 17.7895 5.69064 17.6974 5.59858C17.6514 5.55254 17.6053 5.55254 17.5133 5.55254C17.6514 5.73668 17.6514 5.69064 17.2831 5.73668C16.5465 5.78271 15.856 5.73668 15.1655 5.73668C14.5671 5.73668 14.0147 5.73668 13.4163 5.73668C12.8178 5.73668 12.2194 5.69064 11.6209 5.73668C11.2066 5.73668 10.7923 5.69064 10.378 5.73668C10.332 5.73668 10.286 5.73668 10.2399 5.73668C10.2399 5.64461 10.378 5.64461 10.4701 5.64461C10.7923 5.69064 11.1146 5.64461 11.4368 5.64461C11.6209 5.64461 11.8051 5.64461 11.9892 5.64461C11.713 5.46048 11.3447 5.59858 11.0225 5.59858C10.332 5.64461 9.50339 5.41444 8.99702 5.96685C8.95098 6.01288 8.85892 6.10495 8.81288 6.15098C8.76685 6.19702 8.72082 6.28908 8.67478 6.33512C8.49065 6.88752 8.62875 7.53199 9.08908 7.90026C9.18115 7.99233 9.31925 8.03836 9.41132 8.03836C9.50339 7.9463 9.64149 7.99233 9.77959 7.99233C10.0098 7.99233 10.332 7.99233 10.6082 7.99233C11.4368 8.03836 12.2654 7.99233 13.094 7.99233C13.6004 7.99233 14.1528 8.03836 14.6592 7.99233C14.7512 7.99233 14.8893 7.99233 14.8893 8.03836C14.8893 8.0844 14.7512 8.0844 14.7052 8.0844C14.7052 8.0844 14.6592 8.0844 14.5671 8.13043C15.0735 8.17646 15.5338 8.13043 15.9481 8.13043C16.4084 8.13043 16.8228 8.13043 17.2831 8.0844C16.8228 8.03836 16.3164 8.13043 15.81 8.03836C16.0402 7.9463 16.5005 7.9463 17.0529 7.9463C17.4672 7.9463 17.8815 7.90026 18.3419 7.90026C18.7562 7.90026 19.1705 7.8082 19.5848 7.90026C18.8943 7.9463 18.2498 7.9463 17.5593 7.99233C17.6514 8.0844 17.7434 8.03836 17.8355 7.99233C19.6308 7.9463 21.4261 7.9463 23.2214 7.9463C24.2802 7.9463 25.339 7.90026 26.3517 7.90026C26.9041 7.90026 27.4565 7.9463 28.0089 7.9463C28.101 7.9463 28.1931 7.9463 28.1931 7.99233C28.3312 8.17646 28.2391 8.2225 28.147 8.2225C27.7327 8.2225 27.3645 8.26853 26.9502 8.26853C26.0755 8.26853 25.2469 8.26853 24.3723 8.26853C23.4056 8.31457 22.4389 8.26853 21.5182 8.31457C20.3673 8.3606 19.2165 8.3606 18.0657 8.40663C16.7767 8.45267 15.4878 8.45267 14.1988 8.4987C13.3702 8.4987 12.5876 8.4987 11.759 8.54473H10.5161C10.286 8.54473 10.1018 8.54473 9.87166 8.54473C9.64149 8.54473 9.41132 8.45267 9.22719 8.3606C8.81288 8.13043 8.53668 7.71613 8.49065 7.25579C8.39858 6.79545 8.53668 6.33512 8.85892 5.96685C9.13512 5.64461 9.64149 5.46048 10.0558 5.46048H11.2987C11.9892 5.46048 12.6337 5.41444 13.3242 5.41444C14.8893 5.41444 16.5005 5.41444 18.0657 5.41444C19.0324 5.41444 19.9991 5.36841 20.9198 5.36841C21.7944 5.36841 22.7151 5.41444 23.5897 5.41444C24.7406 5.41444 25.8454 5.41444 26.9962 5.36841C27.3184 5.36841 27.6407 5.36841 27.9169 5.36841C28.101 5.36841 28.1931 5.36841 28.4232 5.36841C28.6074 5.36841 28.7915 5.41444 28.9757 5.46048C29.39 5.59858 29.7122 5.96685 29.8963 6.38115C30.0344 6.79545 30.0344 7.25579 29.8963 7.67009C29.8503 7.85423 29.7122 7.99233 29.6201 8.0844C29.2979 8.31457 28.8836 8.4987 28.4693 8.54473C28.4232 8.54473 28.3312 8.54473 28.3312 8.4987C28.6074 8.45267 28.8836 8.3606 29.1138 8.2225C29.3439 8.0844 29.5281 7.8082 29.6201 7.57803C29.5281 7.85423 29.2979 7.99233 29.0677 8.17646C29.0677 8.13043 29.0217 8.17646 29.0217 8.13043ZM11.4828 8.2225C11.713 8.26853 11.8971 8.2225 12.1273 8.2225C12.5416 8.26853 13.9687 8.26853 14.2909 8.17646C13.6464 8.17646 13.048 8.17646 12.4956 8.17646C12.3575 8.17646 12.2654 8.17646 12.1273 8.2225C11.8971 8.17646 11.667 8.17646 11.4828 8.2225ZM10.0098 8.2225C10.332 8.26853 10.6542 8.26853 10.9765 8.2225C10.6542 8.17646 10.332 8.17646 10.0098 8.2225ZM9.54942 8.13043C9.59546 8.17646 9.68752 8.2225 9.77959 8.17646C9.73356 8.13043 9.64149 8.17646 9.54942 8.13043ZM12.8639 5.69064C12.6797 5.69064 12.5416 5.64461 12.4035 5.69064C12.5416 5.73668 12.7257 5.73668 12.8639 5.69064ZM15.6719 5.69064C15.5798 5.69064 15.5338 5.69064 15.4417 5.69064C15.4878 5.73668 15.5338 5.78271 15.6719 5.69064ZM18.2038 5.64461H18.1577C18.1117 5.64461 18.0657 5.64461 18.0657 5.69064C18.0657 5.69064 18.1117 5.73668 18.1577 5.73668C18.2038 5.69064 18.2038 5.64461 18.2038 5.64461ZM18.6641 5.64461C18.6641 5.59858 18.6641 5.59858 18.6641 5.64461C18.6181 5.64461 18.6181 5.64461 18.6181 5.64461C18.572 5.64461 18.572 5.64461 18.6641 5.64461ZM19.5848 5.59858C19.4467 5.59858 19.4006 5.59858 19.3546 5.59858C19.3086 5.59858 19.2165 5.59858 19.2625 5.64461C19.2625 5.64461 19.2625 5.69064 19.3086 5.69064C19.3546 5.73668 19.4006 5.69064 19.4467 5.69064C19.4467 5.64461 19.4927 5.64461 19.5848 5.59858ZM21.0579 5.59858H21.0118C20.9658 5.59858 20.9198 5.59858 20.9198 5.64461C20.9198 5.64461 20.9658 5.64461 21.0118 5.64461C21.0579 5.64461 21.1039 5.64461 21.0579 5.59858ZM22.669 5.64461C22.623 5.64461 22.623 5.64461 22.623 5.64461C22.623 5.69064 22.623 5.69064 22.669 5.64461ZM23.1754 5.64461C23.0833 5.59858 23.0833 5.59858 23.0833 5.64461C23.0833 5.64461 23.1294 5.64461 23.1294 5.69064C23.1754 5.69064 23.1754 5.64461 23.1754 5.64461ZM24.7406 5.64461C24.6024 5.64461 24.5104 5.69064 24.4183 5.73668C24.6485 5.69064 24.6485 5.69064 24.7406 5.64461ZM26.1216 5.64461C26.0755 5.64461 26.0755 5.64461 26.0755 5.64461C26.0755 5.69064 26.0755 5.69064 26.1216 5.64461ZM26.4898 5.64461H26.4438C26.3978 5.64461 26.3517 5.64461 26.3517 5.69064C26.3517 5.73668 26.3978 5.73668 26.4438 5.69064C26.4898 5.64461 26.4898 5.64461 26.4898 5.64461ZM29.2519 5.92081C29.2058 5.87478 29.1598 5.87478 29.1138 5.87478C29.1598 5.87478 29.2058 5.92081 29.2519 5.92081ZM29.6662 6.65735V6.56528V6.51925C29.6662 6.61132 29.6662 6.61132 29.6662 6.65735Z" fill="#22262B"/>
<path d="M9.5034 8.03872C9.18116 7.80855 8.90496 7.48631 8.85892 7.11804C8.81289 7.30218 8.90496 7.48631 8.99703 7.67045C9.13513 7.80855 9.31926 7.94665 9.5034 8.03872Z" fill="#22262B"/>
<path d="M9.96367 5.73706C9.77954 5.78309 9.50334 5.82913 9.36523 6.01326C9.4573 5.9212 9.54937 5.9212 9.68747 5.87516C9.77954 5.87516 9.87161 5.82913 9.96367 5.82913C10.0097 5.82913 10.0557 5.78309 10.0557 5.78309C10.0557 5.73706 10.0097 5.73706 9.96367 5.73706Z" fill="#22262B"/>
<path d="M20.6436 7.9924C20.4134 7.94636 20.2293 7.94636 20.0452 8.03843C20.2293 8.03843 20.4134 8.08446 20.6436 7.9924Z" fill="#22262B"/>
<path d="M15.4878 8.13067C15.5799 8.13067 15.718 8.1767 15.718 8.08463C15.718 8.0386 15.6259 7.99257 15.5338 8.0386C15.4418 8.0386 15.2576 7.99257 15.3037 8.08463C15.3037 8.1767 15.4418 8.13067 15.4878 8.13067Z" fill="#22262B"/>
<path d="M20.5053 5.69067C20.4132 5.69067 20.3672 5.73671 20.3672 5.73671C20.3672 5.78274 20.4132 5.82877 20.5053 5.82877C20.5974 5.82877 20.6434 5.78274 20.6434 5.78274C20.6434 5.73671 20.5974 5.69067 20.5053 5.69067Z" fill="#22262B"/>
<path d="M8.81274 6.79557C8.81274 6.88764 8.81274 6.88764 8.85878 6.93367C8.85878 6.93367 8.90481 6.93367 8.90481 6.88764C8.90481 6.8416 8.90481 6.74954 8.85878 6.74954C8.81274 6.7035 8.81274 6.74954 8.81274 6.79557Z" fill="#22262B"/>
<path d="M8.95093 6.4272C9.043 6.33514 9.043 6.2891 9.13506 6.151C9.043 6.24307 8.95093 6.2891 8.95093 6.4272Z" fill="#22262B"/>
<path d="M4.16361 8.9128C5.18056 8.9128 6.00496 8.0884 6.00496 7.07145C6.00496 6.0545 5.18056 5.2301 4.16361 5.2301C3.14667 5.2301 2.32227 6.0545 2.32227 7.07145C2.32227 8.0884 3.14667 8.9128 4.16361 8.9128Z" fill="#22262B"/>
<path d="M3.97942 8.86683V8.91287C3.93339 9.00493 3.88736 9.05097 3.79529 9.05097C3.74926 9.097 3.74925 9.05097 3.74925 8.9589C3.70322 8.9589 3.65719 8.91287 3.61115 9.00493C3.61115 9.05097 3.56512 9.05097 3.56512 9.00493C3.47305 8.9589 3.42702 9.00493 3.33495 8.91287C3.33495 8.86683 3.28892 8.86683 3.24288 8.86683C3.19685 8.86683 3.15082 8.86683 3.10478 8.8208C3.10478 8.72873 2.96668 8.72873 2.87461 8.6827C2.87461 8.6827 2.82858 8.6827 2.82858 8.63666C2.82858 8.63666 2.87461 8.59063 2.82858 8.59063C2.73651 8.6827 2.78255 8.59063 2.73651 8.5446C2.73651 8.5446 2.73651 8.5446 2.69048 8.5446C2.59841 8.59063 2.59841 8.49856 2.59841 8.45253C2.59841 8.4065 2.59841 8.4065 2.55238 8.36046C2.46031 8.36046 2.36824 8.26839 2.36824 8.17633C2.36824 8.08426 2.27618 8.03823 2.27618 7.94616C2.18411 7.76202 2.13807 7.62392 2.13807 7.39375C2.13807 7.34772 2.13807 7.30169 2.09204 7.25565C2.09204 7.20962 2.09204 7.20962 2.13807 7.20962C2.18411 7.20962 2.18411 7.25565 2.18411 7.25565C2.18411 7.25565 2.18411 7.25565 2.18411 7.30169C2.23014 7.25565 2.32221 7.25565 2.23014 7.20962C2.23014 7.16358 2.13807 7.11755 2.13807 7.07152C2.09204 7.02548 2.13807 6.97945 2.09204 6.93342C2.09204 6.93342 2.09204 6.93342 2.13807 6.93342C2.32221 6.93342 2.36824 6.88738 2.27618 6.79532C2.09204 6.65721 2.13807 6.56515 2.18411 6.47308C2.23014 6.38101 2.23014 6.33498 2.27618 6.24291C2.32221 6.19688 2.32221 6.15084 2.32221 6.15084C2.36824 6.10481 2.41428 6.19688 2.50634 6.19688C2.55238 6.19688 2.55238 6.19688 2.55238 6.15084C2.36824 6.10481 2.36824 6.10481 2.36824 6.01274C2.41428 5.82861 2.59841 5.69051 2.73651 5.5524C2.87461 5.4143 3.01272 5.32224 3.15082 5.2762C3.28892 5.23017 3.47305 5.18413 3.65719 5.09207C3.79529 5 3.88736 5.04603 4.02546 5C4.02546 5 4.02546 5 4.07149 5C4.07149 5.09207 4.02546 5.09207 4.02546 5.09207C3.93339 5.04603 3.84132 5.09207 3.74925 5.1381C3.70322 5.1381 3.65719 5.18413 3.61115 5.18413C3.74925 5.32224 3.79529 5.18413 3.88736 5.1381C4.07149 5.1381 4.25563 5.09207 4.48579 5.1381C4.53183 5.1381 4.53183 5.18413 4.57786 5.18413L4.6239 5.23017C4.80803 5.18413 4.94613 5.2762 5.08423 5.36827C5.13027 5.36827 5.1763 5.36827 5.22233 5.36827C5.1763 5.2762 5.26837 5.32224 5.3144 5.32224C5.36044 5.36827 5.4525 5.4143 5.49854 5.46034C5.63664 5.64447 5.82077 5.78257 5.95887 6.01274C6.05094 6.15084 6.05094 6.28894 6.14301 6.42705C6.14301 6.47308 6.14301 6.47308 6.09697 6.51911C6.05094 6.51911 6.05094 6.47308 6.05094 6.47308C6.05094 6.47308 6.05094 6.47308 6.00491 6.42705C6.00491 6.56515 6.05094 6.65721 6.09697 6.79532C6.14301 6.93342 6.09697 7.02548 6.18904 7.16358C6.23508 7.02548 6.14301 6.88738 6.18904 6.74928C6.28111 6.79532 6.28111 6.93342 6.28111 7.11755C6.28111 7.25565 6.28111 7.39375 6.28111 7.48582C6.23508 7.62392 6.28111 7.76202 6.14301 7.85409C6.18904 7.66996 6.23508 7.43979 6.18904 7.25565C6.14301 7.25565 6.18904 7.30169 6.18904 7.34772C6.14301 7.85409 5.91284 8.36046 5.49854 8.6827C5.26837 8.86683 4.99217 9.05097 4.66993 9.14303C4.53183 9.18907 4.34769 9.18907 4.20959 9.14303C4.16356 9.14303 4.16356 9.14303 4.16356 9.097C4.16356 9.05097 4.20959 9.00493 4.20959 9.00493C4.30166 9.00493 4.43976 8.9589 4.53183 8.91287C4.762 8.86683 4.99217 8.8208 5.1763 8.63666C5.3144 8.5446 5.54457 8.36046 5.68267 8.17633C5.82077 7.90012 5.95887 7.62392 5.91284 7.34772C5.91284 7.02548 5.86681 6.70325 5.72871 6.42705C5.54457 6.10481 5.26837 5.78257 4.94613 5.59844C4.6239 5.4143 4.20959 5.36827 3.84132 5.4143C3.70322 5.46034 3.56512 5.5524 3.42702 5.59844C3.10478 5.78257 2.82858 6.01274 2.69048 6.38101C2.59841 6.56515 2.59841 6.79532 2.55238 6.97945C2.55238 7.20962 2.55238 7.39375 2.59841 7.57789C2.69048 7.80806 2.82858 8.03823 3.01272 8.17633C3.10478 8.26839 3.24288 8.36046 3.38099 8.4065C3.51909 8.45253 3.65719 8.5446 3.84132 8.49856C3.88736 8.49856 3.88736 8.49856 3.93339 8.5446C3.97942 8.63666 4.02546 8.6827 4.11752 8.6827C4.11752 8.6827 4.16356 8.6827 4.16356 8.72873C4.02546 8.8208 3.93339 8.72873 3.79529 8.8208C3.84132 8.8208 3.88736 8.91287 3.97942 8.86683ZM5.54457 5.69051C5.54457 5.73654 5.5906 5.78257 5.68267 5.78257C5.72871 5.92067 5.91284 6.19688 6.00491 6.28894C5.91284 6.15084 5.86681 6.01274 5.77474 5.87464C5.77474 5.82861 5.72871 5.82861 5.68267 5.82861C5.63664 5.78257 5.5906 5.73654 5.54457 5.69051ZM5.22233 5.46034C5.3144 5.5524 5.36044 5.59844 5.4525 5.59844C5.40647 5.50637 5.36044 5.46034 5.22233 5.46034ZM5.13027 5.36827C5.13027 5.4143 5.13027 5.4143 5.1763 5.4143C5.1763 5.36827 5.13027 5.4143 5.13027 5.36827ZM3.38099 5.2762C3.42702 5.2762 3.47305 5.32224 3.51909 5.2762C3.47305 5.23017 3.42702 5.23017 3.38099 5.2762ZM3.19685 5.36827C3.24288 5.36827 3.24288 5.36827 3.28892 5.32224C3.24288 5.36827 3.19685 5.36827 3.19685 5.36827ZM2.78255 5.69051C2.82858 5.69051 2.82858 5.69051 2.82858 5.64447C2.78255 5.64447 2.78255 5.64447 2.78255 5.69051ZM2.46031 6.28894C2.46031 6.24291 2.46031 6.24291 2.46031 6.28894C2.41428 6.24291 2.41428 6.24291 2.46031 6.28894C2.41428 6.28894 2.41428 6.24291 2.46031 6.28894ZM2.36824 6.65721C2.36824 6.61118 2.36824 6.61118 2.36824 6.61118C2.36824 6.61118 2.36824 6.56515 2.32221 6.56515H2.27618C2.23014 6.56515 2.27618 6.56515 2.27618 6.61118C2.32221 6.56515 2.32221 6.61118 2.36824 6.65721ZM2.32221 7.02548C2.32221 6.97945 2.32221 6.97945 2.32221 7.02548C2.27618 6.97945 2.27618 6.97945 2.32221 7.02548C2.27618 7.02548 2.27618 6.97945 2.32221 7.02548ZM2.32221 7.43979C2.27618 7.39375 2.32221 7.39375 2.32221 7.43979C2.27618 7.39375 2.27618 7.43979 2.32221 7.43979C2.27618 7.43979 2.27618 7.43979 2.32221 7.43979ZM2.32221 7.53185C2.36824 7.53185 2.36824 7.53185 2.32221 7.53185V7.53185ZM2.50634 7.94616C2.46031 7.94616 2.41428 7.90012 2.36824 7.90012C2.41428 7.94616 2.41428 7.94616 2.50634 7.94616ZM2.69048 8.22236C2.64445 8.22236 2.64445 8.26839 2.69048 8.22236V8.22236ZM2.73651 8.31443C2.73651 8.26839 2.73651 8.26839 2.73651 8.31443C2.69048 8.31443 2.69048 8.31443 2.73651 8.31443ZM3.56512 8.77476C3.51909 8.77476 3.51909 8.77476 3.56512 8.77476V8.77476Z" fill="#22262B"/>
<path d="M5.13048 5.32232C5.08444 5.13818 4.90031 5.13818 4.76221 5.13818C4.85427 5.27628 4.99238 5.23025 5.13048 5.32232Z" fill="#22262B"/>
<path d="M4.16353 5.09207C4.20956 5.04603 4.30163 5.09207 4.34766 5.04603C4.34766 5.04603 4.30163 5 4.25559 5C4.25559 5 4.20956 5 4.16353 5C4.16353 5 4.11749 5.04603 4.16353 5.09207Z" fill="#22262B"/>
<path d="M6.05105 8.1303C6.09708 8.08427 6.18915 8.03823 6.09708 7.94617C6.05105 7.9922 6.00502 8.03823 6.05105 8.1303Z" fill="#22262B"/>
<path d="M6.143 6.6572C6.143 6.6572 6.09696 6.70324 6.18903 6.70324C6.23507 6.70324 6.23507 6.6572 6.23507 6.61117C6.23507 6.61117 6.23507 6.5191 6.143 6.56514C6.05093 6.61117 6.09697 6.61117 6.143 6.6572Z" fill="#22262B"/>
<path d="M2.23014 6.84132L2.18411 6.79529C2.13807 6.79529 2.09204 6.79529 2.09204 6.84132C2.09204 6.84132 2.09204 6.88736 2.13807 6.88736C2.18411 6.88736 2.23014 6.88736 2.23014 6.84132Z" fill="#22262B"/>
<path d="M4.66992 5.18399C4.66992 5.18399 4.71596 5.18399 4.71596 5.13795V5.09192C4.71596 5.09192 4.66992 5.09192 4.66992 5.13795V5.18399Z" fill="#22262B"/>
<path d="M4.57791 5.09226C4.53187 5.04623 4.53187 5.04623 4.48584 5.09226C4.48584 5.09226 4.53187 5.1383 4.57791 5.09226Z" fill="#22262B"/>
<path d="M4.47629 17.3536C5.47839 17.1806 6.15053 16.228 5.97754 15.2259C5.80456 14.2238 4.85197 13.5516 3.84987 13.7246C2.84776 13.8976 2.17563 14.8502 2.34861 15.8523C2.5216 16.8544 3.47419 17.5265 4.47629 17.3536Z" fill="#22262B"/>
<path d="M3.97945 17.337V17.3831C3.93342 17.4291 3.88738 17.4751 3.84135 17.5212C3.79532 17.5672 3.79532 17.5212 3.79532 17.4291C3.74928 17.4291 3.70325 17.3831 3.65721 17.4751C3.65721 17.5212 3.61118 17.5212 3.61118 17.4751C3.51911 17.4291 3.47308 17.4751 3.38101 17.3831C3.38101 17.337 3.33498 17.337 3.28894 17.337C3.24291 17.337 3.19688 17.337 3.15084 17.291C3.10481 17.1529 2.96671 17.1529 2.87464 17.1069C2.87464 17.1069 2.82861 17.1069 2.82861 17.0608C2.82861 17.0608 2.87464 17.0148 2.82861 17.0148C2.73654 17.1069 2.73654 17.0148 2.69051 16.9688C2.69051 16.9688 2.69051 16.9688 2.64447 16.9688C2.5524 17.0148 2.5524 16.9227 2.5524 16.8767C2.5524 16.8307 2.5524 16.8307 2.50637 16.7846C2.36827 16.7386 2.32224 16.6926 2.32224 16.5545C2.32224 16.4624 2.23017 16.4164 2.23017 16.3243C2.18413 16.1402 2.09207 16.0021 2.09207 15.8179C2.09207 15.7719 2.04603 15.7259 2.04603 15.6798C2.04603 15.6338 2.04603 15.6338 2.09207 15.6338C2.1381 15.6338 2.1381 15.6798 2.1381 15.6798C2.1381 15.6798 2.1381 15.6798 2.1381 15.7259C2.18413 15.6798 2.2762 15.6798 2.18413 15.6338C2.1381 15.5878 2.04603 15.5417 2.04603 15.5417C2 15.4957 2.04603 15.4497 2 15.4036C2 15.4036 2 15.4036 2.04603 15.4036C2.23017 15.4036 2.2762 15.3576 2.18413 15.2655C2.09207 15.1274 2.1381 15.0353 2.18413 14.9433C2.23017 14.8512 2.23017 14.8052 2.2762 14.7131C2.32224 14.6671 2.32224 14.621 2.32224 14.621C2.36827 14.575 2.4143 14.6671 2.50637 14.6671C2.5524 14.6671 2.5524 14.6671 2.5524 14.621C2.36827 14.575 2.4143 14.575 2.4143 14.4829C2.46034 14.2988 2.64447 14.1607 2.78257 14.0226C2.92067 13.8845 3.05878 13.7924 3.19688 13.7464C3.33498 13.7004 3.51911 13.6543 3.70325 13.5623C3.79532 13.5162 3.93342 13.5623 4.07152 13.5162C4.07152 13.5162 4.07152 13.5162 4.11755 13.5162C4.11755 13.6083 4.07152 13.6083 4.07152 13.6083C3.97945 13.5623 3.88738 13.6083 3.79532 13.6543C3.74928 13.6543 3.70325 13.7004 3.65721 13.7004C3.79532 13.8385 3.84135 13.7004 3.93342 13.6543C4.11755 13.6543 4.30169 13.6083 4.53185 13.6543C4.57789 13.6543 4.57789 13.7004 4.62392 13.7004L4.66996 13.7464C4.85409 13.7004 4.99219 13.7924 5.13029 13.8845C5.17633 13.8845 5.22236 13.8845 5.26839 13.8845C5.17633 13.7464 5.26839 13.7924 5.31443 13.7924C5.4065 13.8385 5.45253 13.8845 5.49856 13.9305C5.63666 14.1147 5.8208 14.2528 5.9589 14.4829C6.05097 14.621 6.05097 14.7591 6.14303 14.8972C6.14303 14.9433 6.14303 14.9433 6.097 14.9893C6.05097 14.9893 6.05097 14.9433 6.05097 14.9433C6.05097 14.9433 6.05097 14.9433 6.00493 14.8972C6.00493 15.0353 6.05097 15.1274 6.097 15.2655C6.14303 15.4036 6.097 15.4957 6.18907 15.6338C6.2351 15.4957 6.14303 15.3576 6.18907 15.2195C6.28114 15.2655 6.28114 15.4036 6.28114 15.5878C6.28114 15.7259 6.28114 15.864 6.28114 15.956C6.2351 16.0941 6.28114 16.2322 6.14303 16.3243C6.18907 16.1402 6.2351 15.91 6.18907 15.7259C6.097 15.7259 6.14303 15.7719 6.14303 15.8179C6.097 16.3243 5.86683 16.8307 5.45253 17.1529C5.22236 17.337 4.94616 17.5212 4.66996 17.6132C4.53185 17.6593 4.34772 17.6593 4.20962 17.6593C4.16358 17.6593 4.16358 17.6593 4.16358 17.6132C4.16358 17.5672 4.20962 17.5212 4.20962 17.5212C4.30169 17.5212 4.39375 17.4291 4.53185 17.4291C4.76202 17.3831 4.99219 17.337 5.17633 17.1529C5.36046 17.0148 5.59063 16.8307 5.6827 16.6005C5.8208 16.3243 5.9589 16.0481 5.91287 15.7719C5.91287 15.4497 5.86683 15.1274 5.72873 14.8512C5.5446 14.529 5.26839 14.2067 4.94616 14.0226C4.62392 13.8385 4.20962 13.7464 3.84135 13.8385C3.70325 13.8845 3.56515 13.9305 3.42705 14.0226C3.10481 14.1607 2.82861 14.4369 2.69051 14.7591C2.59844 14.9433 2.59844 15.1734 2.5524 15.4036C2.5524 15.6798 2.5524 15.864 2.59844 16.0481C2.69051 16.2783 2.82861 16.5084 3.01274 16.6465C3.10481 16.7386 3.24291 16.8307 3.38101 16.8767C3.51911 16.9227 3.65721 17.0148 3.84135 16.9688C3.88738 16.9688 3.88738 16.9688 3.93342 17.0148C3.97945 17.1069 4.07152 17.1529 4.16358 17.1529C4.16358 17.1529 4.20962 17.1529 4.20962 17.1989C4.07152 17.291 3.97945 17.1989 3.84135 17.291C3.84135 17.291 3.88738 17.3831 3.97945 17.337ZM5.5446 14.1607C5.5446 14.2067 5.59063 14.2528 5.6827 14.2528C5.72873 14.3909 5.91287 14.6671 6.00493 14.7591C5.9589 14.621 5.86683 14.4369 5.77476 14.3448C5.77476 14.2988 5.72873 14.2988 5.6827 14.2988C5.63666 14.2528 5.59063 14.2067 5.5446 14.1607ZM5.22236 13.9305C5.26839 14.0226 5.36046 14.0686 5.45253 14.0686C5.4065 13.9766 5.36046 13.9305 5.22236 13.9305ZM5.13029 13.8385C5.13029 13.8845 5.13029 13.8845 5.17633 13.8845C5.17633 13.8385 5.13029 13.8845 5.13029 13.8385ZM3.38101 13.7464C3.42705 13.7464 3.47308 13.7924 3.51911 13.7464C3.47308 13.7004 3.42705 13.7004 3.38101 13.7464ZM3.19688 13.8385C3.24291 13.8385 3.24291 13.8385 3.28894 13.7924C3.24291 13.8385 3.19688 13.8385 3.19688 13.8385ZM2.78257 14.1607C2.82861 14.1607 2.82861 14.1607 2.82861 14.1147C2.78257 14.1147 2.78257 14.1147 2.78257 14.1607ZM2.46034 14.7591C2.4143 14.7131 2.4143 14.7131 2.46034 14.7591C2.4143 14.7131 2.4143 14.7591 2.46034 14.7591ZM2.36827 15.1274C2.36827 15.0814 2.36827 15.0814 2.36827 15.0814C2.36827 15.0814 2.36827 15.0353 2.32224 15.0353H2.2762C2.23017 15.0353 2.2762 15.0353 2.2762 15.0814C2.32224 15.0353 2.32224 15.0814 2.36827 15.1274ZM2.32224 15.4957C2.32224 15.4497 2.32224 15.4497 2.32224 15.4957C2.2762 15.4497 2.2762 15.4497 2.32224 15.4957C2.2762 15.4957 2.2762 15.4497 2.32224 15.4957ZM2.32224 15.91C2.2762 15.864 2.32224 15.864 2.32224 15.91C2.2762 15.864 2.2762 15.91 2.32224 15.91C2.2762 15.91 2.2762 15.91 2.32224 15.91ZM2.32224 16.0021C2.36827 16.0021 2.36827 16.0021 2.32224 16.0021V16.0021ZM2.50637 16.4164C2.46034 16.4164 2.4143 16.3703 2.36827 16.3703C2.4143 16.4164 2.4143 16.4164 2.50637 16.4164ZM2.69051 16.6926C2.64447 16.6926 2.64447 16.7386 2.69051 16.6926V16.6926ZM2.73654 16.7846C2.73654 16.7386 2.73654 16.7386 2.73654 16.7846C2.69051 16.7846 2.69051 16.7846 2.73654 16.7846ZM3.56515 17.245C3.51911 17.245 3.51911 17.245 3.56515 17.245V17.245Z" fill="#22262B"/>
<path d="M5.13023 13.7926C5.03817 13.6545 4.90006 13.6545 4.76196 13.6545C4.85403 13.7466 4.99213 13.7006 5.13023 13.7926Z" fill="#22262B"/>
<path d="M4.16353 13.5624C4.20956 13.5164 4.30163 13.5624 4.34766 13.5164C4.30163 13.5164 4.25559 13.4703 4.25559 13.4703C4.20956 13.4703 4.16353 13.4703 4.16353 13.4703C4.16353 13.4703 4.11749 13.5164 4.16353 13.5624Z" fill="#22262B"/>
<path d="M6.05105 16.6005C6.09708 16.5545 6.18915 16.5084 6.09708 16.4164C6.05105 16.4624 6.00502 16.5084 6.05105 16.6005Z" fill="#22262B"/>
<path d="M6.143 15.1275C6.143 15.1275 6.09696 15.1736 6.18903 15.1736C6.23507 15.1736 6.23507 15.1275 6.23507 15.0815C6.23507 15.0815 6.23507 14.9894 6.143 15.0355C6.05093 15.0815 6.09697 15.0815 6.143 15.1275Z" fill="#22262B"/>
<path d="M2.23014 15.3117L2.18411 15.2656C2.13807 15.2656 2.09204 15.2656 2.09204 15.3117C2.09204 15.3117 2.09204 15.3577 2.13807 15.3577C2.18411 15.3577 2.23014 15.3577 2.23014 15.3117Z" fill="#22262B"/>
<path d="M4.66992 13.6543C4.66992 13.6543 4.71596 13.6543 4.71596 13.6083V13.5623C4.71596 13.5623 4.66992 13.5623 4.66992 13.6083V13.6543Z" fill="#22262B"/>
<path d="M4.57791 13.5625C4.53187 13.5164 4.53187 13.5164 4.48584 13.5625C4.48584 13.5625 4.53187 13.6085 4.57791 13.5625Z" fill="#22262B"/>
<path d="M4.45002 25.8283C5.45456 25.6701 6.14063 24.7274 5.98239 23.7229C5.82415 22.7184 4.88153 22.0323 3.87699 22.1905C2.87245 22.3488 2.18638 23.2914 2.34462 24.2959C2.50286 25.3005 3.44548 25.9865 4.45002 25.8283Z" fill="#22262B"/>
<path d="M3.97956 25.8068V25.8528C3.93352 25.8988 3.88749 25.9449 3.84146 25.9909C3.79542 26.0369 3.79542 25.9909 3.79542 25.8988C3.74939 25.8988 3.70336 25.8528 3.65732 25.9449C3.65732 25.9909 3.61129 25.9909 3.61129 25.9449C3.51922 25.8988 3.47319 25.9449 3.38112 25.8528C3.38112 25.8068 3.33509 25.8068 3.28905 25.8068C3.24302 25.8068 3.19699 25.8068 3.15095 25.7607C3.10492 25.6226 2.96682 25.6226 2.87475 25.5766C2.87475 25.5766 2.82872 25.5766 2.82872 25.5306C2.82872 25.5306 2.87475 25.4845 2.82872 25.4845C2.73665 25.5766 2.73665 25.4845 2.69061 25.4385C2.69061 25.4385 2.69061 25.4385 2.64458 25.4385C2.55251 25.4845 2.55251 25.3925 2.55251 25.3464C2.55251 25.3004 2.55251 25.3004 2.50648 25.2544C2.36838 25.2083 2.32234 25.1623 2.32234 25.0242C2.32234 24.9321 2.23028 24.8861 2.23028 24.794C2.18424 24.6099 2.09218 24.4718 2.09218 24.2876C2.09218 24.2416 2.04614 24.1956 2.04614 24.1495C2.04614 24.1035 2.04614 24.1035 2.09218 24.1035C2.13821 24.1035 2.13821 24.1495 2.13821 24.1495C2.13821 24.1495 2.13821 24.1495 2.13821 24.1956C2.18424 24.1495 2.27631 24.1495 2.18424 24.1035C2.13821 24.0575 2.04614 24.0114 2.04614 24.0114C2.09218 23.9654 2.13821 23.9194 2.09218 23.8733C2.09218 23.8733 2.09218 23.8733 2.13821 23.8733C2.32234 23.8733 2.36838 23.8273 2.27631 23.7352C2.09218 23.5971 2.13821 23.5051 2.18424 23.413C2.23028 23.3209 2.23028 23.2749 2.27631 23.1828C2.32234 23.1368 2.32234 23.0908 2.32234 23.0908C2.36838 23.0447 2.41441 23.1368 2.50648 23.1368C2.55251 23.1368 2.55251 23.1368 2.55251 23.0908C2.36838 23.0447 2.41441 23.0447 2.41441 22.9527C2.46045 22.7685 2.64458 22.6304 2.78268 22.4923C2.92078 22.3542 3.05888 22.2622 3.19699 22.2161C3.33509 22.1701 3.51922 22.1241 3.70336 22.032C3.79542 21.986 3.93353 22.032 4.07163 21.986C4.07163 21.986 4.07163 21.986 4.11766 21.986C4.11766 22.078 4.07163 22.078 4.07163 22.078C3.97956 22.032 3.88749 22.078 3.79542 22.1241C3.74939 22.1241 3.70336 22.1701 3.65732 22.1701C3.79542 22.3082 3.84146 22.1701 3.93352 22.1241C4.11766 22.1241 4.30179 22.078 4.53196 22.1241C4.578 22.1241 4.578 22.1701 4.62403 22.1701L4.67006 22.2161C4.8542 22.1701 4.9923 22.2622 5.1304 22.3542C5.17644 22.3542 5.22247 22.3542 5.2685 22.3542C5.31454 22.2622 5.4066 22.2622 5.45264 22.3082C5.54471 22.3542 5.59074 22.4003 5.63677 22.4463C5.77487 22.6304 5.95901 22.7685 6.09711 22.9987C6.18918 23.1368 6.18918 23.2749 6.28125 23.413C6.28125 23.459 6.28124 23.459 6.23521 23.5051C6.18918 23.5051 6.18918 23.459 6.18918 23.459C6.18918 23.459 6.18918 23.459 6.14314 23.413C6.14314 23.5511 6.18918 23.6432 6.23521 23.7813C6.28124 23.9194 6.23521 24.0114 6.32728 24.1495C6.37331 24.0114 6.28124 23.8733 6.32728 23.7352C6.41935 23.7813 6.41935 23.9194 6.41935 24.1035C6.41935 24.2416 6.41935 24.3797 6.41935 24.4718C6.37331 24.6099 6.41935 24.748 6.28125 24.8401C6.32728 24.6559 6.37331 24.4257 6.32728 24.2416C6.23521 24.2416 6.28125 24.2876 6.28125 24.3337C6.23521 24.8401 6.00504 25.3464 5.59074 25.6687C5.36057 25.8528 5.08437 26.0369 4.80817 26.129C4.67006 26.175 4.48593 26.175 4.34783 26.175C4.30179 26.175 4.30179 26.175 4.30179 26.129C4.30179 26.083 4.34783 26.0369 4.34783 26.0369C4.4399 26.0369 4.578 25.9909 4.67006 25.9449C4.90023 25.8988 5.1304 25.8528 5.31454 25.6687C5.49867 25.5306 5.72884 25.3464 5.82091 25.1163C5.95901 24.8401 6.09711 24.5638 6.05108 24.2876C6.05108 23.9654 6.00504 23.6432 5.86694 23.367C5.68281 23.0447 5.4066 22.7225 5.08437 22.5384C4.76213 22.3542 4.34783 22.2622 3.97956 22.3542C3.84146 22.4003 3.70336 22.4463 3.56526 22.5384C3.24302 22.6765 2.96682 22.9527 2.82872 23.2749C2.73665 23.459 2.73665 23.6892 2.69061 23.9194C2.55251 24.1495 2.55251 24.3337 2.59855 24.5178C2.69061 24.748 2.82872 24.9782 3.01285 25.1163C3.10492 25.2083 3.24302 25.3004 3.38112 25.3464C3.51922 25.3925 3.65732 25.4845 3.84146 25.4385C3.88749 25.4385 3.88749 25.4385 3.93352 25.4845C3.97956 25.5766 4.07163 25.6226 4.16369 25.6226C4.16369 25.6226 4.20973 25.6226 4.20973 25.6687C4.07163 25.7607 3.97956 25.6687 3.84146 25.7607C3.84146 25.7607 3.88749 25.8528 3.97956 25.8068ZM5.54471 22.6304C5.54471 22.6765 5.59074 22.7225 5.68281 22.7225C5.72884 22.8606 5.91298 23.1368 6.00504 23.2289C5.91298 23.0908 5.86694 22.9527 5.77487 22.8146C5.77487 22.7685 5.72884 22.7685 5.68281 22.7685C5.63677 22.7225 5.59074 22.6765 5.54471 22.6304ZM5.22247 22.4003C5.31454 22.4923 5.36057 22.5384 5.45264 22.5384C5.4066 22.4463 5.36057 22.4003 5.22247 22.4003ZM5.1304 22.3082C5.1304 22.3542 5.1304 22.3542 5.17644 22.3542C5.17644 22.3082 5.1304 22.3542 5.1304 22.3082ZM3.38112 22.2161C3.42715 22.1701 3.47319 22.2622 3.51922 22.1701C3.47319 22.1701 3.42715 22.1701 3.38112 22.2161ZM3.19699 22.3082C3.24302 22.3082 3.24302 22.3082 3.28905 22.2622C3.24302 22.3082 3.19699 22.3082 3.19699 22.3082ZM2.78268 22.6304C2.82872 22.6304 2.82872 22.6304 2.82872 22.5844C2.78268 22.5844 2.78268 22.5844 2.78268 22.6304ZM2.46045 23.2289C2.41441 23.1828 2.41441 23.1828 2.46045 23.2289C2.41441 23.1828 2.41441 23.2289 2.46045 23.2289ZM2.36838 23.5971C2.36838 23.5511 2.36838 23.5511 2.36838 23.5511C2.36838 23.5511 2.36838 23.5051 2.32234 23.5051H2.27631C2.23028 23.5051 2.27631 23.5051 2.27631 23.5511C2.32234 23.5051 2.32234 23.5511 2.36838 23.5971ZM2.32234 23.9654C2.32234 23.9194 2.32234 23.9194 2.32234 23.9654C2.27631 23.9194 2.27631 23.9194 2.32234 23.9654C2.27631 23.9654 2.27631 23.9194 2.32234 23.9654ZM2.32234 24.3797C2.27631 24.3337 2.32234 24.3337 2.32234 24.3797C2.27631 24.3337 2.27631 24.3797 2.32234 24.3797C2.27631 24.3797 2.27631 24.3797 2.32234 24.3797ZM2.32234 24.4718C2.36838 24.4718 2.36838 24.4718 2.32234 24.4718V24.4718ZM2.50648 24.8861C2.46045 24.8861 2.41441 24.8401 2.36838 24.8401C2.41441 24.8861 2.41441 24.8861 2.50648 24.8861ZM2.69061 25.1623C2.64458 25.1623 2.64458 25.2083 2.69061 25.1623V25.1623ZM2.73665 25.2544C2.73665 25.2083 2.73665 25.2083 2.73665 25.2544C2.69061 25.2544 2.69061 25.2544 2.73665 25.2544ZM3.56526 25.7147C3.51922 25.7147 3.51922 25.7147 3.56526 25.7147V25.7147Z" fill="#22262B"/>
<path d="M5.13048 22.2622C5.03841 22.1241 4.90031 22.1241 4.76221 22.1241C4.85427 22.2162 4.99238 22.1702 5.13048 22.2622Z" fill="#22262B"/>
<path d="M4.16377 22.032C4.2098 21.986 4.30187 22.032 4.3479 21.986C4.30187 21.986 4.25584 21.9399 4.25584 21.9399C4.2098 21.9399 4.16377 21.9399 4.16377 21.9399C4.16377 21.9399 4.11774 21.986 4.16377 22.032Z" fill="#22262B"/>
<path d="M6.05105 25.0702C6.09708 25.0242 6.18915 24.9782 6.09708 24.8861C6.05105 24.9321 6.00502 24.9782 6.05105 25.0702Z" fill="#22262B"/>
<path d="M6.14324 23.5973C6.14324 23.5973 6.09721 23.6433 6.18928 23.6433C6.23531 23.6433 6.23531 23.5973 6.23531 23.5512C6.23531 23.5512 6.23531 23.4592 6.14324 23.5052C6.05118 23.5512 6.09721 23.5512 6.14324 23.5973Z" fill="#22262B"/>
<path d="M2.23039 23.7813L2.18435 23.7352C2.13832 23.7352 2.09229 23.7352 2.09229 23.7813C2.09229 23.7813 2.09229 23.8273 2.13832 23.8273C2.18435 23.8273 2.23039 23.8273 2.23039 23.7813Z" fill="#22262B"/>
<path d="M4.67017 22.1239C4.67017 22.1239 4.7162 22.1239 4.7162 22.0779V22.0319C4.7162 22.0319 4.67017 22.0319 4.67017 22.0779V22.1239Z" fill="#22262B"/>
<path d="M4.57815 22.0322C4.53212 21.9862 4.53212 21.9862 4.48608 22.0322C4.48608 22.0322 4.53212 22.0782 4.57815 22.0322Z" fill="#22262B"/>
</svg>
