<svg width="33" height="32" viewBox="0 0 33 32" fill="none" xmlns="http://www.w3.org/2000/svg">
<path d="M12.9379 4.23886C13.151 3.75956 13.0445 3.22701 12.6717 2.85422C12.2989 2.48143 11.7663 2.37492 11.287 2.58794C6.49402 4.82468 3.13892 9.67093 3.13892 15.316C3.13892 22.9848 9.36982 29.2157 17.0386 29.2157C22.6837 29.2157 27.53 25.8606 29.7135 21.0144C29.9265 20.5351 29.82 20.0025 29.4472 19.6297C29.0744 19.2569 28.5418 19.1504 28.0625 19.3634C26.6246 20.0025 25.027 20.3753 23.3228 20.3753C16.9854 20.3753 11.8196 15.2095 11.8196 8.8721C11.9261 7.32769 12.2989 5.73002 12.9379 4.23886Z" fill="#22262B"/>
<path d="M12.4588 5.57028C12.5121 5.57028 12.5653 5.57028 12.5653 5.62354C12.5653 5.94307 12.6186 6.20935 12.6186 6.52888C12.6186 6.84842 12.5653 6.90167 12.3523 6.95493C12.3523 7.22121 12.2458 7.54074 12.4055 7.64725C12.4588 7.70051 12.4588 7.86027 12.4588 7.96678C12.4055 8.44608 12.4588 8.97864 12.4055 9.5112C12.4055 9.72422 12.4055 9.9905 12.4588 10.2035C12.5653 10.5231 12.6186 10.7893 12.6186 11.1089C12.6186 11.4817 12.7251 11.8544 12.8316 12.174C12.9381 12.5468 13.0979 12.8663 13.2044 13.1858C13.2576 13.3456 13.3641 13.4521 13.3109 13.5586C13.3109 13.5586 13.2576 13.6651 13.3109 13.6651C13.6304 13.7184 13.6304 14.0379 13.7369 14.3042C13.7902 14.3575 13.8434 14.464 13.8967 14.464C14.2162 14.5705 14.2695 14.89 14.3227 15.103C14.376 15.3161 14.4293 15.3693 14.589 15.5291C15.0683 15.9551 15.4411 16.3812 15.8672 16.9137C16.0269 17.0735 16.2399 17.2865 16.453 17.4463C16.666 17.606 16.9323 17.7658 17.1453 17.9256C18.1039 18.6179 19.169 19.0972 20.2341 19.5232C20.5536 19.6298 20.8732 19.683 21.1927 19.7363C21.3525 19.7895 21.6188 19.7895 21.5655 19.9493C21.5122 20.0558 21.2992 20.0025 21.1927 19.9493C21.1395 19.9493 21.0862 19.9493 20.9797 19.9493C21.0862 20.1091 21.1927 20.2688 21.5655 20.1623H21.6188C21.9383 20.1623 22.2046 20.0558 22.4708 20.0025C22.7371 19.9493 23.1099 20.0558 23.4294 20.0025C23.4827 20.0558 23.536 20.0558 23.5892 20.0558C23.749 20.4286 24.2283 20.5351 24.6543 20.2156C25.1336 19.896 25.7727 19.7895 26.3052 19.683C26.8378 19.5765 27.3171 19.4167 27.7964 19.1505L27.8497 19.0972C27.9029 19.0972 27.9562 19.0439 28.0627 19.0439C28.1159 18.9907 28.2224 18.9907 28.329 18.9374C28.542 18.8842 28.7017 18.8309 28.9148 18.8842C29.3408 18.9907 29.1278 19.1505 29.2876 19.3102C29.3408 19.4167 29.4473 19.47 29.6071 19.5232C29.6071 19.3102 29.5538 19.2037 29.6071 19.2037C29.7136 19.2037 29.9266 19.3102 30.1929 19.683C30.4592 20.0558 30.5657 20.5884 30.4592 21.0677C30.4059 21.3339 30.2994 21.4404 30.2462 21.6002L29.9799 22.0795C29.8201 22.399 29.6071 22.6653 29.4473 22.9849L28.6485 23.837C27.9562 24.7956 27.1573 25.6476 26.252 26.34C25.2934 27.0855 24.2815 27.7246 23.2697 28.2572C22.8969 28.4702 22.5241 28.5767 22.1513 28.7365C21.7785 28.843 21.4057 29.0027 20.9797 29.1093C20.9264 29.1093 20.8199 29.1093 20.7667 29.1625C20.7667 29.0027 20.9797 28.8962 21.1395 28.8962C21.459 28.843 21.7785 28.7365 22.0981 28.63C22.4176 28.5234 22.6839 28.3637 22.9501 28.2039C23.2697 28.0441 23.6425 27.8844 23.962 27.7246C23.6425 27.7246 23.3229 27.8311 23.0567 28.0441C22.7904 28.2039 22.4708 28.3637 22.2046 28.5234C20.8732 29.0027 19.4885 29.3223 18.0506 29.4288C17.8909 29.4288 17.6778 29.4288 17.5181 29.3755C17.3583 29.3755 17.1985 29.3223 17.0388 29.3223C15.8672 29.4288 14.6955 29.269 13.5772 28.9495C13.3109 28.8962 13.0446 28.843 12.7783 28.843C12.6186 29.056 12.2458 28.8962 11.9262 28.7897L11.4469 28.63L11.0742 28.4702C10.8079 28.3637 10.5948 28.2039 10.3286 28.0974C8.89067 27.2453 7.55928 26.2867 6.38766 25.0618C6.22789 24.8488 6.01487 24.689 5.8551 24.476L5.3758 23.837C5.05627 23.4109 4.78999 22.9849 4.47046 22.5588C4.31069 22.399 4.25743 22.186 4.36395 22.1328C4.47046 22.0795 4.52371 22.3458 4.63022 22.4523C4.68348 22.5056 4.68348 22.5056 4.78999 22.6653C4.52371 22.2393 4.36395 21.8132 4.15092 21.4404C3.9379 21.0677 3.77813 20.6416 3.61837 20.2688C3.51186 20.0558 3.4586 19.8428 3.40535 19.6298L3.24558 18.9907C3.19232 18.7777 3.13907 18.5646 3.03256 18.3516C2.9793 18.1386 2.92604 17.9256 2.87279 17.7126C2.92604 17.9256 2.92604 18.1919 2.9793 18.4049C3.03256 18.6179 3.08581 18.8842 3.19232 19.0972C3.29883 19.5765 3.4586 20.0025 3.56511 20.5351C3.4586 20.3753 3.24558 20.0558 3.08581 19.6298C2.9793 19.2037 2.81953 18.7244 2.71302 18.1919C2.65977 17.7658 2.55326 17.3398 2.5 16.9137C2.55326 16.3812 2.55326 15.9551 2.5 15.5291C2.5 15.103 2.5 14.7302 2.5 14.3042C2.55326 13.8782 2.55326 13.4521 2.71302 13.0793C2.65977 13.7716 2.60651 14.4107 2.60651 15.103C2.60651 15.4226 2.65977 15.7954 2.65977 16.1149C2.71302 16.4344 2.71302 16.8072 2.81953 17.1267C2.92604 16.9137 2.81953 16.754 2.81953 16.5942C2.60651 14.8368 2.81953 12.9728 3.29883 11.2686C3.77813 9.56445 4.63022 7.91353 5.74859 6.47563C7.02672 4.8247 8.67765 3.3868 10.5948 2.4282L10.9676 2.26844L11.1807 2.16192C11.2872 2.10867 11.3404 2.10867 11.4469 2.05541C11.8197 1.9489 12.2458 2.00216 12.5653 2.16192C13.2576 2.48146 13.6837 3.28029 13.5772 4.02587C13.5239 4.23889 13.4174 4.50517 13.3109 4.45192C13.2576 4.39866 13.2576 4.18564 13.3109 4.02587C13.4174 3.54657 13.2044 3.06727 12.8316 2.80099C12.5121 2.48146 12.0328 2.4282 11.6067 2.48146C10.7546 2.80099 10.0623 3.17378 9.31672 3.65308C8.62439 4.13238 7.93207 4.66494 7.39951 5.25075C6.76045 5.94307 6.12138 6.6354 5.58882 7.38097C5.32255 7.75376 5.10952 8.17981 4.84325 8.5526C4.63022 8.92539 4.4172 9.35143 4.25743 9.77747C3.40534 11.8544 3.03256 14.0912 3.29883 16.2747L3.35209 16.754L3.4586 17.2333L3.56511 18.1386L3.83139 19.0439L3.9379 19.47L4.09767 19.896C4.47046 21.0677 5.10952 22.1328 5.80185 23.1446C7.61254 25.6476 10.2753 27.5116 13.2044 28.4169C16.1334 29.269 19.4353 29.1625 22.2578 27.8844C23.4294 27.4051 24.4946 26.6595 25.5064 25.8607C26.678 24.9021 27.6899 23.837 28.4887 22.5588C28.6485 22.2393 28.8615 21.9197 29.0213 21.6002L29.2876 21.1209C29.3941 20.9611 29.4473 20.8546 29.4473 20.6949C29.5006 20.4286 29.3941 20.1623 29.181 20.0025C28.968 19.8428 28.7017 19.7363 28.4887 19.7895C28.3822 19.7895 28.3822 19.8428 28.2757 19.896L27.9562 20.0558C27.7431 20.1623 27.5301 20.2156 27.2638 20.3221C26.8378 20.4818 26.3585 20.6416 25.8792 20.7481C24.9206 20.9611 23.962 21.0677 23.0034 20.9611C21.246 20.8546 19.4885 20.3753 17.8909 19.5765C15.8672 18.5114 14.163 16.9137 12.9914 14.9965C12.3523 13.9314 11.9262 12.7065 11.6067 11.4817C11.5002 11.1089 11.4469 10.7893 11.3937 10.4165C11.3404 10.0438 11.3404 9.67096 11.3404 9.29817C11.2872 8.5526 11.3404 7.86027 11.3937 7.1147C11.3937 6.84842 11.4469 6.52888 11.5534 6.31586C11.873 5.67679 12.1393 5.03773 12.4055 4.39866C12.4588 4.18564 12.5653 4.13238 12.6186 4.13238C12.4055 5.09098 11.9262 6.15609 11.9262 7.16795C11.9795 6.63539 12.2458 6.20935 12.3523 5.67679C12.3523 5.62354 12.4055 5.57028 12.4588 5.57028ZM9.26346 27.0855C8.94393 26.8193 8.62439 26.553 8.2516 26.3932C8.09184 26.2867 7.87881 26.0204 7.61254 25.7542C7.45277 25.6476 7.34626 25.4879 7.18649 25.3281C7.02673 25.1683 6.86696 25.0086 6.76045 24.8488C6.12138 24.2097 5.64208 23.5174 5.3758 23.3044C5.74859 23.7837 6.06812 24.3163 6.49417 24.7423C6.70719 24.9553 6.86696 25.1683 7.07998 25.3814L7.71905 25.9672C7.87881 26.1269 8.09184 26.2867 8.30486 26.3932C8.57114 26.6595 8.89067 26.979 9.26346 27.0855ZM11.8197 28.4702C11.5002 28.3637 11.2339 28.1507 10.9676 28.0441C10.7014 27.8844 10.3818 27.7779 10.0623 27.6714C10.3286 27.8844 10.5948 28.0441 10.9144 28.1507C11.1807 28.2572 11.4469 28.4169 11.8197 28.4702ZM12.7251 28.7897C12.5653 28.63 12.4055 28.5767 12.1925 28.63C12.3523 28.7365 12.5653 28.7365 12.7251 28.7897ZM25.1336 26.8725C24.8673 27.0855 24.6011 27.1388 24.3348 27.3518C24.6543 27.2986 24.9206 27.1388 25.1336 26.8725ZM26.5183 25.8074C26.3585 25.9672 26.1987 26.0737 26.039 26.1802V26.2335C26.1987 26.0737 26.3585 25.9672 26.5183 25.8074ZM28.9148 22.9849C28.8083 23.0914 28.7017 23.1979 28.6485 23.3576C28.755 23.3044 28.8615 23.2511 28.9148 23.0914C28.968 23.0381 28.9148 22.9849 28.9148 22.9849ZM28.1692 19.3635C28.2225 19.3635 28.2757 19.3635 28.2757 19.3635C28.329 19.3102 28.4355 19.3102 28.4355 19.257C28.4355 19.2037 28.329 19.2037 28.2757 19.257C28.2225 19.257 28.1692 19.3102 28.1692 19.3635ZM27.3704 19.7363C27.4236 19.7363 27.4769 19.7363 27.4769 19.7363C27.5301 19.683 27.4769 19.683 27.4236 19.7363C27.4236 19.683 27.4236 19.683 27.3704 19.7363ZM25.6662 20.2688C25.8792 20.2156 25.9857 20.1623 26.0922 20.1091C26.1987 20.0558 26.3052 20.0558 26.3052 20.0025L26.252 19.9493C26.1455 19.896 26.0922 19.9493 26.039 20.0025C25.9325 20.1091 25.8792 20.1623 25.6662 20.2688ZM22.8436 20.4286C22.8436 20.4286 22.9501 20.4818 22.9501 20.4286C23.0034 20.4286 23.1099 20.4286 23.1099 20.3753C23.1099 20.3753 23.0034 20.3753 22.9501 20.3753C22.8969 20.3753 22.7904 20.3753 22.8436 20.4286ZM19.8081 19.7895C19.8081 19.7895 19.8081 19.8428 19.8613 19.8428C19.9146 19.8428 19.9146 19.8428 19.9146 19.7895C19.9146 19.7895 19.9146 19.7363 19.8613 19.7363C19.8613 19.7895 19.8613 19.7895 19.8081 19.7895ZM18.9027 19.47C18.9027 19.47 18.956 19.5232 18.956 19.5765C19.0092 19.6298 19.0625 19.6298 19.0625 19.5765L19.0092 19.5232C19.0092 19.4167 18.956 19.4167 18.9027 19.47ZM16.2932 17.9256C16.5062 18.0321 16.666 18.0853 16.879 18.1386C16.5062 17.9256 16.5062 17.9256 16.2932 17.9256ZM14.4825 16.0616C14.4825 16.0616 14.4825 16.1149 14.5358 16.1149H14.589C14.589 16.1149 14.5358 16.0616 14.4825 16.0616C14.4825 16.0084 14.4825 16.0084 14.4825 16.0616ZM14.0032 15.4758C14.0032 15.5291 14.0565 15.5823 14.0565 15.5823C14.1097 15.6356 14.163 15.6888 14.2162 15.6888C14.2695 15.6888 14.2162 15.5823 14.163 15.5291C14.1097 15.5291 14.0565 15.4758 14.0032 15.4758ZM11.9795 10.5231L12.086 10.7893V10.7361C12.0328 10.6828 12.086 10.5231 11.9795 10.5231ZM11.873 8.87213V9.0319C11.873 8.97864 11.9262 8.92538 11.873 8.87213Z" fill="#22262B"/>
<path d="M12.8848 29.0027C13.3108 29.2157 13.7369 29.3222 14.2162 29.4287C14.6955 29.482 15.1215 29.5352 15.6008 29.5352C15.1748 29.3755 14.6955 29.269 14.2694 29.269C13.7901 29.1625 13.3641 29.1092 12.8848 29.0027Z" fill="#22262B"/>
<path d="M19.9144 29.2158C19.7014 29.269 19.4351 29.3223 19.2221 29.3755C19.0091 29.4288 18.7428 29.4288 18.5298 29.5353C18.7961 29.5353 19.0623 29.5353 19.2754 29.5353C19.4884 29.482 19.7547 29.482 19.9677 29.4288C20.0742 29.4288 20.1275 29.3223 20.1275 29.269C20.1275 29.1625 20.0209 29.1625 19.9144 29.2158Z" fill="#22262B"/>
<path d="M3.08596 11.2152C2.9262 11.588 2.71317 12.014 2.81968 12.4401C2.97945 12.014 3.13922 11.6413 3.08596 11.2152Z" fill="#22262B"/>
<path d="M4.04455 21.2275C3.93804 21.0677 3.93804 20.8014 3.77827 20.8547C3.67176 20.8547 3.72502 21.121 3.83153 21.2807C3.93804 21.4405 3.99129 21.76 4.15106 21.7068C4.31083 21.547 4.15106 21.3873 4.04455 21.2275Z" fill="#22262B"/>
<path d="M23.9619 20.2687C24.1216 20.2687 24.2281 20.2155 24.2281 20.109C24.2281 20.0024 24.1216 20.0024 23.9086 20.0024C23.7488 20.0024 23.6423 20.0557 23.6423 20.109C23.6423 20.2687 23.8021 20.2687 23.9619 20.2687Z" fill="#22262B"/>
<path d="M16.2399 29.4821C16.0801 29.4821 16.0269 29.5353 15.9736 29.5886C15.9736 29.6418 15.9736 29.6418 16.0801 29.6951C16.2399 29.6951 16.3997 29.6951 16.4529 29.5886C16.4529 29.4821 16.3464 29.4821 16.2399 29.4821Z" fill="#22262B"/>
<path d="M17.1453 29.5885C17.3583 29.6418 17.5713 29.6418 17.8376 29.5353C17.5713 29.5353 17.4115 29.482 17.1453 29.5885Z" fill="#22262B"/>
</svg>
