<svg width="151" height="18" viewBox="0 0 151 18" fill="none" xmlns="http://www.w3.org/2000/svg">
<g opacity="0.7">
<path d="M8.84783 12.9081L0.881635 8.62133C0.689975 8.51913 0.477781 8.52465 0.291597 8.63652C0.105413 8.74976 0 8.9362 0 9.15441V12.7313C0 12.9605 0.117735 13.1566 0.317608 13.2644L8.2838 17.5511C8.47546 17.6547 8.68903 17.6492 8.87521 17.5359C9.06002 17.424 9.16407 17.2348 9.16407 17.018V13.4425C9.16407 13.2133 9.0477 13.0158 8.84783 12.9081ZM10.3428 7.27068V12.0145C10.3428 12.2452 10.4591 12.4399 10.659 12.549L18.6184 16.8316C18.81 16.9338 19.0236 16.9296 19.2098 16.8164C19.3946 16.7045 19.5 16.5167 19.5 16.2985V11.5533C19.5 11.324 19.3836 11.1265 19.1824 11.0202L11.2244 6.73621C11.0328 6.63402 10.8192 6.63954 10.6344 6.75141C10.4482 6.86465 10.3428 7.05109 10.3428 7.27068ZM10.6522 5.0914L18.6184 9.37813C18.81 9.48033 19.0236 9.47481 19.2098 9.36294C19.3946 9.2497 19.5 9.06326 19.5 8.84367V5.26817C19.5 5.03892 19.3836 4.84281 19.1824 4.73509L11.2162 0.448358C11.0259 0.346161 10.811 0.350304 10.6262 0.463549C10.44 0.575413 10.3359 0.763234 10.3359 0.981437V4.55694C10.3359 4.78619 10.4523 4.98368 10.6522 5.0914ZM8.84098 5.45047L0.881635 1.16788C0.689975 1.06568 0.477781 1.06982 0.291597 1.18307C0.105413 1.29493 0 1.48275 0 1.70096V6.4462C0 6.67545 0.117735 6.87294 0.317608 6.98066L8.27696 11.2632C8.46725 11.3654 8.68081 11.3599 8.867 11.2481C9.05318 11.1348 9.15859 10.9484 9.15859 10.7288V5.98493C9.15859 5.7543 9.04223 5.55957 8.84098 5.45047Z" fill="url(#paint0_linear_2322_5035)"/>
<path d="M8.84783 12.9081L0.881635 8.62133C0.689975 8.51913 0.477781 8.52465 0.291597 8.63652C0.105413 8.74976 0 8.9362 0 9.15441V12.7313C0 12.9605 0.117735 13.1566 0.317608 13.2644L8.2838 17.5511C8.47546 17.6547 8.68903 17.6492 8.87521 17.5359C9.06002 17.424 9.16407 17.2348 9.16407 17.018V13.4425C9.16407 13.2133 9.0477 13.0158 8.84783 12.9081ZM10.3428 7.27068V12.0145C10.3428 12.2452 10.4591 12.4399 10.659 12.549L18.6184 16.8316C18.81 16.9338 19.0236 16.9296 19.2098 16.8164C19.3946 16.7045 19.5 16.5167 19.5 16.2985V11.5533C19.5 11.324 19.3836 11.1265 19.1824 11.0202L11.2244 6.73621C11.0328 6.63402 10.8192 6.63954 10.6344 6.75141C10.4482 6.86465 10.3428 7.05109 10.3428 7.27068ZM10.6522 5.0914L18.6184 9.37813C18.81 9.48033 19.0236 9.47481 19.2098 9.36294C19.3946 9.2497 19.5 9.06326 19.5 8.84367V5.26817C19.5 5.03892 19.3836 4.84281 19.1824 4.73509L11.2162 0.448358C11.0259 0.346161 10.811 0.350304 10.6262 0.463549C10.44 0.575413 10.3359 0.763234 10.3359 0.981437V4.55694C10.3359 4.78619 10.4523 4.98368 10.6522 5.0914ZM8.84098 5.45047L0.881635 1.16788C0.689975 1.06568 0.477781 1.06982 0.291597 1.18307C0.105413 1.29493 0 1.48275 0 1.70096V6.4462C0 6.67545 0.117735 6.87294 0.317608 6.98066L8.27696 11.2632C8.46725 11.3654 8.68081 11.3599 8.867 11.2481C9.05318 11.1348 9.15859 10.9484 9.15859 10.7288V5.98493C9.15859 5.7543 9.04223 5.55957 8.84098 5.45047Z" fill="url(#paint1_linear_2322_5035)"/>
<path opacity="0.7" d="M35.6484 14.0713C34.9929 14.0713 34.4039 13.924 33.8814 13.6295C33.3589 13.3255 32.9456 12.8885 32.6416 12.3185C32.3376 11.7485 32.1856 11.0597 32.1856 10.2522C32.1856 9.43525 32.3376 8.7465 32.6416 8.186C32.9551 7.616 33.3731 7.18375 33.8956 6.88925C34.4181 6.59475 35.0024 6.4475 35.6484 6.4475C36.3609 6.4475 36.9974 6.609 37.5579 6.932C38.1279 7.2455 38.5744 7.68725 38.8974 8.25725C39.2204 8.82725 39.3819 9.49225 39.3819 10.2522C39.3819 11.0027 39.2204 11.6677 38.8974 12.2472C38.5744 12.8172 38.1279 13.2637 37.5579 13.5867C36.9974 13.9097 36.3609 14.0713 35.6484 14.0713ZM31.7866 14V3.4265H32.7984V8.7275L32.6559 10.238L32.7556 11.7485V14H31.7866ZM35.5771 13.1735C36.1091 13.1735 36.5841 13.0547 37.0021 12.8172C37.4201 12.5702 37.7526 12.2282 37.9996 11.7912C38.2466 11.3447 38.3701 10.8317 38.3701 10.2522C38.3701 9.66325 38.2466 9.15025 37.9996 8.71325C37.7526 8.27625 37.4201 7.939 37.0021 7.7015C36.5841 7.4545 36.1091 7.331 35.5771 7.331C35.0451 7.331 34.5654 7.4545 34.1379 7.7015C33.7199 7.939 33.3874 8.27625 33.1404 8.71325C32.9029 9.15025 32.7841 9.66325 32.7841 10.2522C32.7841 10.8317 32.9029 11.3447 33.1404 11.7912C33.3874 12.2282 33.7199 12.5702 34.1379 12.8172C34.5654 13.0547 35.0451 13.1735 35.5771 13.1735ZM41.2926 16.8358C40.9411 16.8358 40.6038 16.7788 40.2808 16.6648C39.9673 16.5508 39.6966 16.3798 39.4686 16.1518L39.9388 15.3965C40.1288 15.577 40.3331 15.7148 40.5516 15.8098C40.7796 15.9143 41.0313 15.9665 41.3068 15.9665C41.6393 15.9665 41.9243 15.8715 42.1618 15.6815C42.4088 15.501 42.6416 15.178 42.8601 14.7125L43.3446 13.6152L43.4586 13.4585L46.5366 6.51875H47.5341L43.7863 14.8978C43.5773 15.3823 43.3446 15.767 43.0881 16.052C42.8411 16.337 42.5703 16.5365 42.2758 16.6505C41.9813 16.774 41.6536 16.8358 41.2926 16.8358ZM43.2876 14.2138L39.8391 6.51875H40.8936L43.9431 13.3872L43.2876 14.2138ZM52.9022 14V4.025H53.7715L60.6542 12.689H60.1982V4.025H61.2385V14H60.3692L53.5007 5.336H53.9567V14H52.9022ZM67.4583 14.0713C66.6793 14.0713 65.9953 13.9097 65.4063 13.5867C64.8173 13.2542 64.3565 12.803 64.024 12.233C63.6915 11.6535 63.5253 10.9932 63.5253 10.2522C63.5253 9.51125 63.682 8.85575 63.9955 8.28575C64.3185 7.71575 64.7555 7.26925 65.3065 6.94625C65.867 6.61375 66.494 6.4475 67.1875 6.4475C67.8905 6.4475 68.5128 6.609 69.0543 6.932C69.6053 7.2455 70.0375 7.692 70.351 8.2715C70.6645 8.8415 70.8213 9.50175 70.8213 10.2522C70.8213 10.2997 70.8165 10.352 70.807 10.409C70.807 10.4565 70.807 10.5087 70.807 10.5657H64.2948V9.8105H70.2655L69.8665 10.1097C69.8665 9.56825 69.7478 9.0885 69.5103 8.6705C69.2823 8.243 68.9688 7.9105 68.5698 7.673C68.1708 7.4355 67.71 7.31675 67.1875 7.31675C66.6745 7.31675 66.2138 7.4355 65.8053 7.673C65.3968 7.9105 65.0785 8.243 64.8505 8.6705C64.6225 9.098 64.5085 9.58725 64.5085 10.1382V10.295C64.5085 10.865 64.632 11.3685 64.879 11.8055C65.1355 12.233 65.487 12.5702 65.9335 12.8172C66.3895 13.0547 66.9073 13.1735 67.4868 13.1735C67.9428 13.1735 68.3655 13.0927 68.755 12.9312C69.154 12.7697 69.496 12.5227 69.781 12.1902L70.351 12.8457C70.0185 13.2447 69.6005 13.5487 69.097 13.7577C68.603 13.9667 68.0568 14.0713 67.4583 14.0713ZM75.9301 14.0713C75.2081 14.0713 74.5573 13.9097 73.9778 13.5867C73.4078 13.2542 72.9566 12.803 72.6241 12.233C72.2916 11.6535 72.1253 10.9932 72.1253 10.2522C72.1253 9.50175 72.2916 8.8415 72.6241 8.2715C72.9566 7.7015 73.4078 7.255 73.9778 6.932C74.5478 6.609 75.1986 6.4475 75.9301 6.4475C76.6711 6.4475 77.3266 6.609 77.8966 6.932C78.4761 7.255 78.9273 7.7015 79.2503 8.2715C79.5828 8.8415 79.7491 9.50175 79.7491 10.2522C79.7491 10.9932 79.5828 11.6535 79.2503 12.233C78.9273 12.803 78.4761 13.2542 77.8966 13.5867C77.3171 13.9097 76.6616 14.0713 75.9301 14.0713ZM75.9301 13.1735C76.4716 13.1735 76.9513 13.0547 77.3693 12.8172C77.7873 12.5702 78.1151 12.2282 78.3526 11.7912C78.5996 11.3447 78.7231 10.8317 78.7231 10.2522C78.7231 9.66325 78.5996 9.15025 78.3526 8.71325C78.1151 8.27625 77.7873 7.939 77.3693 7.7015C76.9513 7.4545 76.4763 7.331 75.9443 7.331C75.4123 7.331 74.9373 7.4545 74.5193 7.7015C74.1013 7.939 73.7688 8.27625 73.5218 8.71325C73.2748 9.15025 73.1513 9.66325 73.1513 10.2522C73.1513 10.8317 73.2748 11.3447 73.5218 11.7912C73.7688 12.2282 74.1013 12.5702 74.5193 12.8172C74.9373 13.0547 75.4076 13.1735 75.9301 13.1735ZM85.6764 14.0713C85.0304 14.0713 84.4462 13.924 83.9237 13.6295C83.4012 13.3255 82.9832 12.8932 82.6697 12.3327C82.3657 11.7627 82.2137 11.0692 82.2137 10.2522C82.2137 9.43525 82.3657 8.7465 82.6697 8.186C82.9737 7.616 83.3869 7.18375 83.9094 6.88925C84.4319 6.59475 85.0209 6.4475 85.6764 6.4475C86.3889 6.4475 87.0254 6.609 87.5859 6.932C88.1559 7.2455 88.6024 7.692 88.9254 8.2715C89.2484 8.8415 89.4099 9.50175 89.4099 10.2522C89.4099 11.0122 89.2484 11.6772 88.9254 12.2472C88.6024 12.8172 88.1559 13.2637 87.5859 13.5867C87.0254 13.9097 86.3889 14.0713 85.6764 14.0713ZM81.8147 16.7645V6.51875H82.7837V8.77025L82.6839 10.2665L82.8264 11.777V16.7645H81.8147ZM85.6052 13.1735C86.1372 13.1735 86.6122 13.0547 87.0302 12.8172C87.4482 12.5702 87.7807 12.2282 88.0277 11.7912C88.2747 11.3447 88.3982 10.8317 88.3982 10.2522C88.3982 9.67275 88.2747 9.1645 88.0277 8.7275C87.7807 8.2905 87.4482 7.9485 87.0302 7.7015C86.6122 7.4545 86.1372 7.331 85.6052 7.331C85.0732 7.331 84.5934 7.4545 84.1659 7.7015C83.7479 7.9485 83.4154 8.2905 83.1684 8.7275C82.9309 9.1645 82.8122 9.67275 82.8122 10.2522C82.8122 10.8317 82.9309 11.3447 83.1684 11.7912C83.4154 12.2282 83.7479 12.5702 84.1659 12.8172C84.5934 13.0547 85.0732 13.1735 85.6052 13.1735ZM91.4724 14V6.51875H92.4414V8.5565L92.3416 8.20025C92.5506 7.63025 92.9021 7.198 93.3961 6.9035C93.8901 6.5995 94.5029 6.4475 95.2344 6.4475V7.43075C95.1964 7.43075 95.1584 7.43075 95.1204 7.43075C95.0824 7.42125 95.0444 7.4165 95.0064 7.4165C94.2179 7.4165 93.6004 7.65875 93.1539 8.14325C92.7074 8.61825 92.4841 9.2975 92.4841 10.181V14H91.4724ZM100.06 14.0713C99.3385 14.0713 98.6877 13.9097 98.1082 13.5867C97.5382 13.2542 97.087 12.803 96.7545 12.233C96.422 11.6535 96.2557 10.9932 96.2557 10.2522C96.2557 9.50175 96.422 8.8415 96.7545 8.2715C97.087 7.7015 97.5382 7.255 98.1082 6.932C98.6782 6.609 99.329 6.4475 100.06 6.4475C100.801 6.4475 101.457 6.609 102.027 6.932C102.606 7.255 103.058 7.7015 103.381 8.2715C103.713 8.8415 103.879 9.50175 103.879 10.2522C103.879 10.9932 103.713 11.6535 103.381 12.233C103.058 12.803 102.606 13.2542 102.027 13.5867C101.447 13.9097 100.792 14.0713 100.06 14.0713ZM100.06 13.1735C100.602 13.1735 101.082 13.0547 101.5 12.8172C101.918 12.5702 102.245 12.2282 102.483 11.7912C102.73 11.3447 102.853 10.8317 102.853 10.2522C102.853 9.66325 102.73 9.15025 102.483 8.71325C102.245 8.27625 101.918 7.939 101.5 7.7015C101.082 7.4545 100.607 7.331 100.075 7.331C99.5427 7.331 99.0677 7.4545 98.6497 7.7015C98.2317 7.939 97.8992 8.27625 97.6522 8.71325C97.4052 9.15025 97.2817 9.66325 97.2817 10.2522C97.2817 10.8317 97.4052 11.3447 97.6522 11.7912C97.8992 12.2282 98.2317 12.5702 98.6497 12.8172C99.0677 13.0547 99.538 13.1735 100.06 13.1735ZM108.311 14.0713C107.608 14.0713 107.066 13.8813 106.686 13.5012C106.306 13.1212 106.116 12.5845 106.116 11.891V4.86575H107.128V11.834C107.128 12.271 107.237 12.6082 107.456 12.8457C107.684 13.0832 108.007 13.202 108.425 13.202C108.871 13.202 109.242 13.0737 109.536 12.8172L109.892 13.544C109.693 13.7245 109.451 13.8575 109.166 13.943C108.89 14.0285 108.605 14.0713 108.311 14.0713ZM104.777 7.3595V6.51875H109.408V7.3595H104.777ZM114.519 14.0713C113.797 14.0713 113.146 13.9097 112.567 13.5867C111.997 13.2542 111.546 12.803 111.213 12.233C110.881 11.6535 110.714 10.9932 110.714 10.2522C110.714 9.50175 110.881 8.8415 111.213 8.2715C111.546 7.7015 111.997 7.255 112.567 6.932C113.137 6.609 113.788 6.4475 114.519 6.4475C115.26 6.4475 115.916 6.609 116.486 6.932C117.065 7.255 117.516 7.7015 117.839 8.2715C118.172 8.8415 118.338 9.50175 118.338 10.2522C118.338 10.9932 118.172 11.6535 117.839 12.233C117.516 12.803 117.065 13.2542 116.486 13.5867C115.906 13.9097 115.251 14.0713 114.519 14.0713ZM114.519 13.1735C115.061 13.1735 115.54 13.0547 115.958 12.8172C116.376 12.5702 116.704 12.2282 116.942 11.7912C117.189 11.3447 117.312 10.8317 117.312 10.2522C117.312 9.66325 117.189 9.15025 116.942 8.71325C116.704 8.27625 116.376 7.939 115.958 7.7015C115.54 7.4545 115.065 7.331 114.533 7.331C114.001 7.331 113.526 7.4545 113.108 7.7015C112.69 7.939 112.358 8.27625 112.111 8.71325C111.864 9.15025 111.74 9.66325 111.74 10.2522C111.74 10.8317 111.864 11.3447 112.111 11.7912C112.358 12.2282 112.69 12.5702 113.108 12.8172C113.526 13.0547 113.997 13.1735 114.519 13.1735ZM122.769 14.0713C122.066 14.0713 121.525 13.8813 121.145 13.5012C120.765 13.1212 120.575 12.5845 120.575 11.891V4.86575H121.587V11.834C121.587 12.271 121.696 12.6082 121.914 12.8457C122.142 13.0832 122.465 13.202 122.883 13.202C123.33 13.202 123.7 13.0737 123.995 12.8172L124.351 13.544C124.152 13.7245 123.909 13.8575 123.624 13.943C123.349 14.0285 123.064 14.0713 122.769 14.0713ZM119.235 7.3595V6.51875H123.867V7.3595H119.235ZM126.111 16.8358C125.759 16.8358 125.422 16.7788 125.099 16.6648C124.785 16.5508 124.515 16.3798 124.287 16.1518L124.757 15.3965C124.947 15.577 125.151 15.7148 125.37 15.8098C125.598 15.9143 125.849 15.9665 126.125 15.9665C126.457 15.9665 126.742 15.8715 126.98 15.6815C127.227 15.501 127.46 15.178 127.678 14.7125L128.163 13.6152L128.277 13.4585L131.355 6.51875H132.352L128.604 14.8978C128.395 15.3823 128.163 15.767 127.906 16.052C127.659 16.337 127.388 16.5365 127.094 16.6505C126.799 16.774 126.472 16.8358 126.111 16.8358ZM128.106 14.2138L124.657 6.51875H125.712L128.761 13.3872L128.106 14.2138ZM137.639 14.0713C136.993 14.0713 136.409 13.924 135.886 13.6295C135.364 13.3255 134.946 12.8932 134.632 12.3327C134.328 11.7627 134.176 11.0692 134.176 10.2522C134.176 9.43525 134.328 8.7465 134.632 8.186C134.936 7.616 135.349 7.18375 135.872 6.88925C136.394 6.59475 136.983 6.4475 137.639 6.4475C138.351 6.4475 138.988 6.609 139.548 6.932C140.118 7.2455 140.565 7.692 140.888 8.2715C141.211 8.8415 141.372 9.50175 141.372 10.2522C141.372 11.0122 141.211 11.6772 140.888 12.2472C140.565 12.8172 140.118 13.2637 139.548 13.5867C138.988 13.9097 138.351 14.0713 137.639 14.0713ZM133.777 16.7645V6.51875H134.746V8.77025L134.646 10.2665L134.789 11.777V16.7645H133.777ZM137.568 13.1735C138.1 13.1735 138.575 13.0547 138.993 12.8172C139.411 12.5702 139.743 12.2282 139.99 11.7912C140.237 11.3447 140.361 10.8317 140.361 10.2522C140.361 9.67275 140.237 9.1645 139.99 8.7275C139.743 8.2905 139.411 7.9485 138.993 7.7015C138.575 7.4545 138.1 7.331 137.568 7.331C137.036 7.331 136.556 7.4545 136.128 7.7015C135.71 7.9485 135.378 8.2905 135.131 8.7275C134.893 9.1645 134.775 9.67275 134.775 10.2522C134.775 10.8317 134.893 11.3447 135.131 11.7912C135.378 12.2282 135.71 12.5702 136.128 12.8172C136.556 13.0547 137.036 13.1735 137.568 13.1735ZM146.613 14.0713C145.834 14.0713 145.15 13.9097 144.561 13.5867C143.972 13.2542 143.511 12.803 143.178 12.233C142.846 11.6535 142.68 10.9932 142.68 10.2522C142.68 9.51125 142.836 8.85575 143.15 8.28575C143.473 7.71575 143.91 7.26925 144.461 6.94625C145.021 6.61375 145.648 6.4475 146.342 6.4475C147.045 6.4475 147.667 6.609 148.209 6.932C148.76 7.2455 149.192 7.692 149.505 8.2715C149.819 8.8415 149.976 9.50175 149.976 10.2522C149.976 10.2997 149.971 10.352 149.961 10.409C149.961 10.4565 149.961 10.5087 149.961 10.5657H143.449V9.8105H149.42L149.021 10.1097C149.021 9.56825 148.902 9.0885 148.665 8.6705C148.437 8.243 148.123 7.9105 147.724 7.673C147.325 7.4355 146.864 7.31675 146.342 7.31675C145.829 7.31675 145.368 7.4355 144.96 7.673C144.551 7.9105 144.233 8.243 144.005 8.6705C143.777 9.098 143.663 9.58725 143.663 10.1382V10.295C143.663 10.865 143.786 11.3685 144.033 11.8055C144.29 12.233 144.641 12.5702 145.088 12.8172C145.544 13.0547 146.062 13.1735 146.641 13.1735C147.097 13.1735 147.52 13.0927 147.909 12.9312C148.308 12.7697 148.65 12.5227 148.935 12.1902L149.505 12.8457C149.173 13.2447 148.755 13.5487 148.251 13.7577C147.757 13.9667 147.211 14.0713 146.613 14.0713Z" fill="#090A0B"/>
</g>
<defs>
<linearGradient id="paint0_linear_2322_5035" x1="2.08675" y1="2.35667" x2="16.2882" y2="17.1433" gradientUnits="userSpaceOnUse">
<stop stop-color="#3538CD"/>
<stop offset="1" stop-color="#35178C"/>
</linearGradient>
<linearGradient id="paint1_linear_2322_5035" x1="19.5" y1="17.625" x2="-2.77368" y2="5.44886" gradientUnits="userSpaceOnUse">
<stop stop-color="#F0CA4D"/>
<stop offset="0.265" stop-color="#FAE474"/>
<stop offset="0.515" stop-color="#E1AD26"/>
<stop offset="0.776" stop-color="#F8E370"/>
<stop offset="1" stop-color="#E2B033"/>
</linearGradient>
</defs>
</svg>
