<svg width="39" height="41" viewBox="0 0 39 41" fill="none" xmlns="http://www.w3.org/2000/svg">
<g filter="url(#filter0_b_2371_4911)">
<rect y="0.460205" width="39" height="40.0796" rx="19.5" fill="#EBBC5D"/>
<path d="M15.0217 12.3152C16.2094 11.1275 17.8203 10.4602 19.5 10.4602C19.5 10.4602 21.0833 10.4602 22.1389 10.988C23.5463 11.6438 26.2556 13.8286 25.8333 17.3213C25.8333 21.1163 26.6687 23.3798 27.4813 24.6839C27.7758 25.1566 27.3212 26.2935 26.7643 26.2935H11.7431C11.2209 26.2935 10.8705 25.4396 11.1629 25.007C12.0664 23.6706 13.1667 21.149 13.1667 16.7935C13.1667 15.1138 13.8339 13.5029 15.0217 12.3152Z" fill="white" stroke="white" stroke-width="1.5" stroke-linecap="round" stroke-linejoin="round"/>
<path d="M21.326 29.488C21.1405 29.8079 20.8741 30.0734 20.5536 30.258C20.2331 30.4426 19.8698 30.5398 19.4999 30.5398C19.1301 30.5398 18.7667 30.4426 18.4463 30.258C18.1258 30.0734 17.8594 29.8079 17.6738 29.488" stroke="white" stroke-width="1.5" stroke-linecap="round" stroke-linejoin="round"/>
</g>
<defs>
<filter id="filter0_b_2371_4911" x="-4" y="-3.53979" width="47" height="48.0796" filterUnits="userSpaceOnUse" color-interpolation-filters="sRGB">
<feFlood flood-opacity="0" result="BackgroundImageFix"/>
<feGaussianBlur in="BackgroundImageFix" stdDeviation="2"/>
<feComposite in2="SourceAlpha" operator="in" result="effect1_backgroundBlur_2371_4911"/>
<feBlend mode="normal" in="SourceGraphic" in2="effect1_backgroundBlur_2371_4911" result="shape"/>
</filter>
</defs>
</svg>
