<svg width="168" height="44" viewBox="0 0 168 44" fill="none" xmlns="http://www.w3.org/2000/svg">
<g clip-path="url(#clip0_105_7999)">
<path d="M145.245 43.3785H23.1443C14.4862 35.2985 9.60218 30.7405 0.944125 22.6605C9.60218 14.5804 14.4862 10.0225 23.1443 1.94241H145.245C153.903 10.0225 158.787 14.5804 167.445 22.6605C158.787 30.7405 153.903 35.2985 145.245 43.3785Z" fill="black"/>
<path d="M145.911 44.0001C146.355 43.1714 145.134 43.3785 146.799 41.7211C147.909 40.6852 148.797 39.5457 150.018 38.4062C151.017 37.4739 152.682 36.1272 151.461 36.1272C151.239 36.2308 151.128 36.438 150.906 36.5416H150.795C151.017 36.2308 151.239 36.1272 151.461 36.0236L152.46 34.9877C152.682 34.677 152.793 34.5734 152.682 34.8841C153.348 34.4698 153.015 35.5057 154.347 34.0554C155.013 33.3303 154.791 33.1231 155.457 32.2944C156.123 31.9836 155.679 32.7087 156.456 32.5016C157.011 31.7764 157.566 31.0513 158.232 30.2226C159.009 29.3939 158.787 29.3939 158.232 29.601C157.899 29.7046 158.565 28.9795 159.009 28.4615C160.563 27.2185 162.228 25.6646 162.783 26.3897C162.783 26.3897 163.116 26.1826 163.671 25.8718C163.227 25.3538 163.449 24.4215 165.447 22.6605C166.779 21.521 166.113 22.4533 166.002 22.8677V22.9713L166.113 22.7641C166.335 22.4533 166.668 22.1425 166.89 21.8318V21.7282C167.223 21.1066 167.223 23.3856 166.89 22.7641L166.113 22.0389C165.558 21.521 165.003 20.8994 164.559 20.2779C164.004 19.3456 163.005 18.5169 162.117 17.7917C161.229 17.0666 160.341 16.5486 159.564 15.7199C159.453 15.6163 159.231 15.6163 159.12 15.5127C158.676 15.3056 158.121 14.9948 157.899 14.5804C157.677 14.1661 158.343 14.5804 158.787 14.9948C159.009 15.202 159.12 15.3056 159.342 15.5127C157.677 13.5445 155.79 12.0943 153.903 10.644C153.015 9.91887 152.016 9.50451 151.35 8.36501C152.127 8.88296 152.904 9.40091 152.46 8.4686L151.35 8.36501C150.462 7.84706 149.574 7.32911 149.13 6.2932C149.352 6.3968 149.685 6.60398 149.907 6.70757C150.129 6.81116 149.907 6.50039 149.685 6.3968C149.463 6.2932 149.352 6.2932 149.13 6.2932L145.023 2.56395H140.583C139.029 2.56395 137.364 2.46036 135.81 2.35677C135.144 2.25318 134.589 2.25318 134.589 2.046C135.588 1.83882 136.698 1.63164 137.919 1.42446C135.699 1.52805 135.699 1.52805 134.478 2.046C133.701 2.25318 132.924 2.35677 132.036 2.046C131.925 2.046 131.814 2.046 131.814 1.94241C131.814 1.83882 132.036 1.83882 132.147 1.94241C131.37 1.52805 129.927 1.42446 128.706 1.83882C127.485 2.25318 127.152 2.25318 125.931 1.83882C124.821 1.42446 123.933 2.66754 123.6 1.83882C123.378 1.11369 122.046 1.52805 121.158 1.52805H118.938L119.16 1.63164C119.16 1.73523 119.271 1.73523 119.271 1.83882C119.937 1.83882 120.603 1.94241 120.381 2.14959C120.381 2.14959 119.937 2.25318 119.715 2.25318C119.16 2.25318 119.049 2.046 118.938 1.94241C118.05 1.94241 117.162 2.046 116.274 1.83882C115.275 1.63164 114.165 1.42446 113.832 2.046C113.721 2.25318 112.944 2.46036 112.056 2.35677C111.057 2.25318 110.058 2.46036 109.059 2.35677C109.503 1.83882 111.39 2.14959 112.167 1.73523C109.725 1.52805 107.505 1.63164 105.396 1.94241C104.619 2.046 103.842 2.25318 102.843 2.25318C98.7357 2.14959 94.7397 2.56395 90.5217 2.25318C88.8567 2.14959 86.9696 2.14959 85.3046 2.25318C83.4176 2.35677 82.5296 2.25318 82.4186 1.73523C82.3076 1.42446 80.6426 1.32087 81.7526 1.0101C82.8626 0.699326 83.9726 0.388555 85.7486 0.388555C86.7476 0.388555 87.7467 0.492146 89.0787 0.595736C87.6357 1.0101 85.8596 0.699326 83.9726 1.0101C88.5237 1.11369 92.5197 1.0101 96.5157 0.802917C97.9587 0.595736 99.4017 0.388555 100.623 1.0101C101.289 1.32087 102.732 1.21728 103.953 1.11369C106.506 0.906507 109.17 1.0101 111.834 1.0101C113.943 1.0101 116.163 1.32087 118.272 0.906507C118.938 0.802917 120.714 0.802917 121.269 0.906507C124.932 1.63164 128.928 1.0101 132.813 1.21728C134.145 1.32087 134.922 1.0101 136.032 0.906507C138.363 0.699326 140.25 1.11369 142.248 1.21728C142.803 1.21728 143.469 1.52805 144.024 1.32087C144.357 1.21728 145.023 1.11369 145.689 1.11369C146.799 2.046 147.354 2.46036 148.02 3.18549C148.686 3.80704 149.352 4.42858 150.129 5.05012C151.017 5.77525 150.351 5.56807 150.24 5.56807C150.129 5.46448 149.685 5.05012 149.685 5.2573L150.24 5.56807C151.017 6.18961 151.794 6.91475 152.571 7.53629C153.792 8.57219 154.791 9.29733 155.79 10.7476C157.122 12.5086 159.453 14.4768 161.451 16.1343C162.561 17.0666 163.449 17.7917 164.226 18.8276C164.892 19.76 165.78 20.5887 166.668 21.3138L167.334 21.8318L167.667 22.1425L167.889 22.2461L168 22.3497C168 23.8 168 22.7641 168 23.0748C167.667 23.4892 167.223 23.9036 166.89 24.3179C166.557 24.7323 166.335 25.1466 165.891 25.6646C165.558 25.9754 165.114 26.4933 165.114 26.1826C165.114 26.079 165.336 25.7682 165.447 25.4574L165.558 25.3538L165.447 25.561C164.448 26.7005 162.672 27.9436 162.339 29.0831C162.339 29.1867 161.673 29.8082 161.562 29.8082C160.119 30.2226 159.564 31.6728 158.565 32.5016C157.455 33.4339 156.234 35.1949 155.013 35.2985C153.57 36.9559 151.572 38.3026 150.018 39.9601C148.686 41.4103 147.132 42.6534 145.911 44.0001ZM85.3046 1.63164C85.0826 1.52805 84.8606 1.63164 84.7496 1.73523C84.7496 1.73523 84.8606 1.83882 84.9716 1.83882C85.0826 1.73523 85.1936 1.73523 85.3046 1.63164ZM91.7427 1.73523C91.6317 1.73523 91.5207 1.63164 91.5207 1.63164C91.1877 1.63164 91.0767 1.63164 91.4097 1.73523C91.4097 1.73523 91.6317 1.83882 91.7427 1.73523ZM98.0697 1.73523C97.9587 1.73523 97.8477 1.73523 97.7367 1.73523C97.2927 1.73523 97.2927 1.73523 97.5147 1.83882C97.6257 1.83882 97.7367 1.83882 97.8477 1.83882C97.9587 1.83882 97.9587 1.73523 98.0697 1.73523ZM101.4 1.83882C101.178 1.73523 101.067 1.73523 100.956 1.73523C100.734 1.83882 100.734 1.83882 101.067 1.83882C101.289 1.94241 101.4 1.83882 101.4 1.83882Z" fill="black"/>
<path d="M81.8636 2.046C80.1986 2.14959 79.0886 2.56395 77.8676 2.046C77.4236 1.83882 77.0906 1.94241 76.6466 2.046C75.8696 2.14959 75.2036 2.25318 74.4266 2.25318C73.5386 2.35677 72.3176 2.46036 71.9846 2.14959C71.6516 1.73523 73.3166 1.94241 73.9826 1.73523C73.2056 1.32087 71.8736 1.52805 70.7635 1.52805C70.4305 1.52805 69.8755 1.63164 69.7645 1.63164C69.4315 1.83882 71.4296 2.14959 69.5425 2.35677C67.7665 2.46036 65.5465 2.56395 64.2145 2.25318C63.6595 2.046 66.4345 2.14959 66.7675 1.73523C64.8805 1.42446 63.2155 1.63164 61.7725 1.94241C59.4415 2.46036 59.4415 2.56395 58.2205 1.83882C57.5545 1.42446 56.1115 1.52805 55.6675 1.73523C54.0024 2.56395 50.7834 2.46036 48.1194 2.87472C47.5644 2.35677 48.5634 2.046 49.6734 1.83882C48.3414 1.73523 47.6754 1.83882 47.3424 2.14959C47.1204 2.35677 46.7874 2.56395 45.8994 2.56395C44.6784 2.56395 44.5674 2.25318 44.3454 2.046C44.2344 1.83882 43.6794 1.83882 43.0134 1.73523C42.6804 2.046 42.4584 2.35677 41.5704 2.46036C41.0154 2.56395 40.3494 2.66754 39.7944 2.56395C38.9064 2.35677 39.6834 2.14959 40.1274 2.046L40.3494 1.94241H40.1274C39.4614 1.94241 38.5734 1.63164 38.2403 2.046C37.9073 2.46036 37.0193 2.46036 35.7983 2.46036C34.0223 2.56395 33.5783 2.25318 32.8013 1.94241C32.5793 1.83882 32.3573 1.83882 32.1353 1.94241L31.3583 2.046L32.2463 1.94241H32.6903C33.0233 2.25318 32.4683 2.46036 31.4693 2.56395C30.3593 2.66754 29.0273 2.66754 27.9173 2.56395C26.5853 2.35677 28.4723 2.14959 28.1393 1.94241C26.4743 1.94241 24.6983 1.94241 23.1443 2.046C21.8123 3.49627 20.7022 4.94653 19.8142 6.3968C18.8152 6.70757 19.3702 6.18961 19.7032 5.77525C20.0362 5.36089 20.2582 5.05012 20.0362 5.05012C19.8142 5.05012 19.4812 5.36089 19.3702 5.56807C18.5932 6.81116 17.7052 7.4327 16.5952 7.95065C15.7072 9.19373 13.8202 10.7476 13.3762 11.9907C13.8202 11.5763 14.2642 11.0584 14.7082 10.644C15.0412 10.3332 15.3742 9.91887 15.8182 9.71169C15.2632 10.7476 14.2642 11.4727 13.1542 12.1979C11.6002 13.7517 10.1572 15.4092 8.38117 16.7558C8.04817 15.5127 8.04817 15.5127 10.2682 13.1302C11.7112 11.6799 13.2652 10.2296 14.5972 8.67578C15.3742 7.74347 16.4842 6.81116 16.8172 7.32911C17.7052 6.18961 18.9262 4.94653 19.5922 3.70345C19.9252 3.18549 20.3692 2.77113 20.9242 2.46036C21.4792 2.14959 22.0343 2.046 22.4783 1.83882C22.5893 1.63164 22.8113 1.32087 22.9223 1.11369C23.2553 1.0101 23.4773 1.0101 23.6993 0.906507C23.8103 1.0101 24.0323 1.0101 24.1433 1.0101L24.4763 0.906507C24.6983 0.802917 25.1423 0.802917 25.5863 0.802917C26.9183 1.63164 28.3613 0.595736 29.6933 0.802917C30.2483 0.906507 32.0243 0.699326 30.6923 1.11369C31.5803 1.21728 32.4683 1.21728 33.3563 1.0101C34.3553 0.802917 39.2394 0.492146 40.2384 0.595736C40.7934 0.595736 41.2374 0.699326 41.6814 0.802917C43.2354 0.388555 45.2334 0.492146 47.0094 0.388555C47.8974 0.284965 48.7854 0.492146 47.8974 0.802917C47.5644 0.906507 48.0084 1.11369 48.5634 1.0101C50.4504 1.0101 52.4484 0.906507 54.4464 0.802917C54.5574 0.802917 54.6684 0.802917 54.7794 0.699326H55.0014C55.0014 0.699326 54.8905 0.802917 54.7794 0.802917C57.6655 0.906507 60.5515 1.0101 63.4375 0.802917C63.3265 0.802917 63.2155 0.802917 63.2155 0.699326C63.2155 0.595736 63.4375 0.595736 63.6595 0.699326C67.3225 0.906507 71.0965 1.0101 74.7596 0.699326L74.5376 0.595736H74.9816C77.5346 0.492146 79.1996 0.802917 79.8656 1.32087C79.8656 1.73523 80.7536 1.83882 81.8636 2.046ZM36.3533 1.94241C36.2423 1.94241 36.1313 1.83882 36.0203 1.83882C35.9093 1.83882 35.6873 1.94241 35.5763 1.94241C35.7983 1.94241 35.9093 2.046 36.1313 2.046L36.3533 1.94241ZM42.4584 0.906507L41.6814 0.802917C41.7924 0.802917 42.0144 0.906507 42.1254 0.906507C42.2364 0.906507 42.3474 0.906507 42.4584 0.906507Z" fill="black"/>
<path d="M17.2612 38.3026C18.5932 38.717 19.9252 40.478 21.2572 41.4103C22.1453 42.0319 21.8123 42.3426 22.9223 43.3785L23.0333 43.4821C25.4753 43.3785 27.8063 43.4821 30.2483 43.275C33.4673 43.0678 33.5783 43.1714 34.1333 42.2391C31.0253 42.5498 27.9173 43.1714 25.4753 41.9283C24.9203 42.2391 24.4763 42.4462 24.1433 42.5498H23.9213L24.1433 42.4462C24.0323 42.3426 23.9213 42.2391 23.9213 42.1355C23.8103 42.1355 23.6993 42.2391 23.5883 42.2391C23.4773 42.2391 23.4773 42.1355 23.3663 42.1355C23.2553 42.0319 23.2553 42.0319 23.0333 41.9283C22.8113 41.7211 22.4783 41.4103 22.1453 41.2031C21.5903 40.6852 21.0352 40.1672 20.4802 39.7529L20.2582 39.6493L20.3692 39.7529C18.4822 37.6811 18.4822 37.6811 16.1512 37.2667C16.5952 37.6811 17.0392 38.199 17.2612 38.3026Z" fill="black"/>
<path d="M6.71616 27.84C6.71616 27.6328 6.71616 27.322 7.38216 27.84C8.27017 28.5651 8.71417 28.4615 9.49118 29.0831C10.1572 29.9118 9.15817 29.2903 9.38018 29.8082C11.4892 31.7764 13.9312 33.0195 16.1512 35.2985C16.2622 35.2985 16.2622 35.4021 16.3732 35.4021L16.4842 35.5057C16.4842 35.5057 16.3732 35.5057 16.2622 35.4021C16.1512 35.7129 15.7072 35.7129 15.0412 35.5057C15.1522 35.8165 15.2632 36.1272 14.9302 35.92C14.8192 35.8165 14.5972 35.6093 14.4862 35.5057L14.7082 35.2985C13.9312 34.7805 13.2652 33.6411 12.3772 33.6411C11.7112 33.7446 11.1562 32.1908 10.2682 31.4657L9.49118 31.0513L9.04717 30.7405H9.26917C9.38018 30.7405 9.38018 30.7405 9.38018 30.6369C8.93617 30.0154 8.27017 29.4974 7.60417 28.9795C7.04916 28.5651 6.60516 28.0472 6.71616 27.84ZM9.82418 30.9477L10.0462 31.0513V30.9477H9.82418Z" fill="black"/>
<path d="M38.4624 43.275C39.1284 42.9642 39.6834 42.6534 40.2384 42.4462C40.1274 42.4462 40.0164 42.3426 40.0164 42.3426C40.0164 42.2391 40.2384 42.2391 40.4604 42.3426C41.5704 42.3426 42.2364 41.9283 43.6794 42.2391C45.1224 42.5498 46.7874 42.0319 48.4524 42.1355C49.2294 42.1355 50.1174 42.1355 50.3394 42.4462C50.4504 42.6534 49.6734 42.757 49.2294 42.8606C47.6754 43.1714 45.2334 43.275 43.0134 42.9642C42.2364 42.8606 42.1254 42.9642 41.6814 43.0678C40.9044 43.0678 40.0164 43.275 38.4624 43.275ZM46.6764 42.4462H46.8984V42.3426L46.6764 42.4462Z" fill="black"/>
<path d="M73.3166 42.4462C73.0946 42.3426 72.6506 42.2391 72.9836 42.2391C73.3166 42.1355 73.4276 42.3426 73.5386 42.4462C73.7606 42.3426 74.0936 42.2391 74.3156 42.2391C77.2016 42.4462 80.1986 42.1355 82.9736 42.4462C84.9716 41.9283 88.3017 41.9283 90.2997 42.3426L90.5217 42.4462C90.9657 42.5498 91.0767 42.6534 92.0757 42.5498C95.1837 42.2391 98.1807 41.6175 101.733 42.2391C102.732 42.4462 103.62 42.0319 104.73 42.0319C110.391 42.1355 115.83 42.0319 121.491 41.7211C124.71 41.5139 128.373 41.5139 131.814 41.8247C134.922 42.0319 138.141 41.6175 141.249 41.7211C141.915 41.7211 142.581 41.7211 143.247 41.7211C144.468 41.7211 145.356 41.9283 145.245 42.2391C145.134 42.5498 144.135 42.5498 143.136 42.6534C135.033 42.757 126.93 42.8606 118.716 42.8606C117.495 42.8606 116.163 42.8606 116.274 42.3426L116.385 42.2391H116.163C114.054 42.6534 111.945 42.9642 109.059 42.6534C108.171 42.4462 106.617 42.4462 105.396 42.6534C104.286 42.8606 103.398 42.757 102.51 42.5498H102.288L102.399 42.6534C102.288 42.8606 101.733 42.9642 101.067 42.9642C97.4037 42.8606 93.6297 42.9642 89.8557 42.8606C89.0787 42.8606 88.1907 42.8606 87.5247 42.757C86.5256 42.6534 88.4127 42.5498 87.7466 42.4462C87.1916 42.3426 86.4146 42.2391 85.9706 42.4462C84.9716 42.8606 84.1946 42.3426 83.3066 42.4462C82.3076 42.9642 80.5316 42.9642 78.6446 42.9642C76.6466 42.9642 74.5376 42.9642 72.4286 42.9642C72.2066 42.757 73.2056 42.6534 73.3166 42.4462Z" fill="black"/>
<path d="M7.71517 15.0984C6.16116 16.963 4.38515 18.5169 2.83114 20.2779C2.16513 20.6923 1.49913 21.2102 0.944125 21.9353C0.833124 22.0389 0.833124 22.1425 0.722123 22.2461H0.500122C0.500122 22.6605 0.500122 21.4174 0.500122 23.0748L0.611123 23.1784C0.833124 23.282 0.944125 23.4892 1.16613 23.5928C1.49913 23.9036 1.83213 24.1107 2.16513 24.4215C2.83114 25.0431 3.60814 25.6646 4.49615 26.5969C5.05115 27.1149 5.49515 27.4256 5.60615 27.2185C5.71715 26.9077 5.71715 26.4933 5.93916 26.2861C6.05016 26.079 6.71616 26.1826 5.71715 25.2502C4.82915 24.4215 3.71914 23.3856 3.38614 23.9036L4.27414 24.9395C3.71914 24.6287 3.49714 24.3179 3.27514 23.9036C3.05314 23.5928 2.83114 23.3856 2.60913 23.0748C2.38713 22.8677 2.16513 22.6605 2.05413 22.4533L1.61013 22.0389C1.61013 21.7282 1.61013 24.3179 1.61013 23.282L1.72113 23.1784C2.16513 22.8677 2.60913 22.4533 2.83114 22.0389C3.16414 21.3138 2.83114 21.1066 2.05413 21.3138C1.94313 21.3138 1.61013 21.521 1.72113 21.4174C1.83213 21.1066 2.27613 20.7959 2.60913 20.4851C2.94214 20.4851 3.16414 20.3815 3.49714 20.3815C4.49615 20.3815 4.38515 20.3815 5.38415 18.724C6.16116 18.4133 5.93915 19.0348 6.60516 18.8276C7.60417 17.1702 7.60417 17.1702 5.49515 18.724L6.27216 17.481C6.49416 17.3774 6.71616 17.2738 7.04916 16.963C7.04916 16.7558 7.16016 16.7558 7.16016 16.6522L6.38316 17.1702C6.71616 16.5487 7.93717 15.6163 7.71517 15.0984Z" fill="black"/>
<path d="M60.1075 42.6534C59.8855 42.9642 57.9985 42.6534 57.9985 43.1714C59.9965 43.3785 61.6615 42.9642 63.5485 42.9642C65.2135 43.1714 66.5455 42.8606 67.7665 42.6534H67.9885L67.7665 42.757C67.8775 43.0678 68.4325 43.1714 69.6535 43.0678C70.5415 42.9642 71.2076 42.757 70.8745 42.4462C70.5415 42.1355 69.8755 42.2391 68.9875 42.2391C67.3225 42.3426 65.8795 42.4462 64.6585 42.757C63.7705 42.4462 62.5495 42.5498 61.4395 42.5498C60.8845 42.3426 60.3295 42.0319 58.9975 42.1355C56.9995 42.3426 54.6684 42.2391 52.4484 42.5498C55.0014 42.757 57.6655 42.5498 60.1075 42.6534Z" fill="black"/>
<path d="M17.4832 8.05424C17.4832 8.15783 17.7052 8.05424 17.8162 7.84706C17.8162 7.74347 17.9272 7.63988 17.9272 7.53629L17.7052 7.63988C17.5942 7.84706 17.4832 7.95065 17.4832 8.05424Z" fill="black"/>
<path d="M160.563 15.0984C160.674 15.202 160.785 15.202 161.007 15.3056C161.007 15.202 160.896 14.9948 160.674 14.8912C160.563 14.7876 160.452 14.7876 160.452 14.7876C160.23 14.7876 160.341 14.8912 160.563 15.0984Z" fill="black"/>
<path d="M148.464 39.2349C148.353 39.3385 148.131 39.4421 148.02 39.4421L147.909 39.6493L148.353 39.4421C148.464 39.3385 148.575 39.2349 148.464 39.2349Z" fill="black"/>
<path d="M79.5326 0.492146C79.4216 0.492146 79.1996 0.492146 79.1996 0.492146C79.0886 0.492146 79.0886 0.595736 79.0886 0.699326H79.6436C79.8656 0.492146 79.7546 0.492146 79.5326 0.492146Z" fill="black"/>
<path d="M51.6714 43.0678C51.7824 43.0678 51.8934 43.0678 52.0044 42.9642C52.2264 42.8606 52.1154 42.8606 51.6714 42.8606C51.4494 42.8606 51.3384 42.9642 51.1164 42.9642C51.2274 43.0678 51.3384 43.1714 51.6714 43.0678Z" fill="black"/>
<path d="M55.6675 2.046C55.5565 2.14959 55.7785 2.14959 56.1115 2.14959C56.2225 2.14959 56.3335 2.046 56.4445 2.046H56.2225C56.0005 2.046 55.6675 2.046 55.6675 2.046Z" fill="black"/>
<path d="M7.60417 29.3939C7.49316 29.2903 7.38216 29.2903 7.38216 29.1867C7.38216 29.2903 7.49316 29.2903 7.49316 29.3939C7.60417 29.4974 7.71517 29.4974 7.71517 29.601C7.71517 29.4974 7.71517 29.4974 7.60417 29.3939Z" fill="black"/>
<path d="M66.6565 0.595736L66.4345 0.699326H66.6565V0.595736Z" fill="black"/>
<path d="M132.258 0.906507C132.147 0.906507 132.147 0.906507 132.036 0.906507C131.925 0.906507 131.814 0.906507 131.814 0.906507L132.036 1.0101L132.258 0.906507Z" fill="black"/>
<path d="M156.678 11.0584H156.567L156.789 11.2655L156.678 11.0584Z" fill="black"/>
<path d="M49.1184 0.0777843C49.1184 -0.025806 49.0074 -0.025806 48.7854 0.0777843C48.7854 0.0777843 48.7854 0.0777843 48.8964 0.181375L49.1184 0.0777843Z" fill="black"/>
<path d="M23.0333 0.284965L22.7003 0.388555H23.2553L23.0333 0.284965Z" fill="black"/>
<path d="M90.7437 42.1355H90.6327C90.5217 42.1355 90.5217 42.1355 90.4107 42.1355L90.6327 42.2391C90.6327 42.1355 90.6327 42.1355 90.7437 42.1355Z" fill="black"/>
<path d="M22.5893 44.0001C22.1453 43.1714 23.3663 43.3785 21.7012 41.7211C20.5912 40.6852 19.7032 39.5457 18.4822 38.4062C17.4832 37.4739 15.8182 36.1272 17.0392 36.1272C17.2612 36.2308 17.3722 36.438 17.5942 36.5416H17.7052C17.4832 36.2308 17.2612 36.1272 17.0392 36.0236L16.0402 34.9877C15.8182 34.677 15.7072 34.5734 15.8182 34.8841C15.1522 34.4698 15.4852 35.5057 14.1532 34.0554C13.4872 33.3303 13.7092 33.1231 13.0432 32.2944C12.3772 31.9836 12.8212 32.7087 12.0442 32.5016C11.4892 31.7764 10.9342 31.0513 10.2682 30.2226C9.49116 29.3939 9.71316 29.3939 10.2682 29.601C10.6012 29.7046 9.93517 28.9795 9.49117 28.4615C7.93716 27.2185 6.27215 25.6646 5.71715 26.3897C5.71715 26.3897 5.38414 26.1826 4.82914 25.8718C5.27314 25.3538 5.05114 24.4215 3.05312 22.6605C1.72112 21.521 2.38712 22.4533 2.49812 22.8677V22.9713L2.38713 22.7641C2.16513 22.4533 1.83213 22.1425 1.61013 21.8318V21.7282C1.27713 21.1066 1.27713 23.3856 1.61013 22.7641L2.38713 22.0389C2.94213 21.521 3.49713 20.8994 3.94113 20.2779C4.49614 19.3456 5.49514 18.5169 6.38314 17.7917C7.27115 17.0666 8.15916 16.5486 8.93616 15.7199C9.04716 15.6163 9.26917 15.6163 9.38018 15.5127C9.82418 15.3056 10.3792 14.9948 10.6012 14.5804C10.8232 14.1661 10.1572 14.5804 9.71316 14.9948C9.49116 15.202 9.38016 15.3056 9.15816 15.5127C10.8232 13.5445 12.7102 12.0943 14.5972 10.644C15.4852 9.91887 16.4842 9.50451 17.1502 8.36501C16.3732 8.88296 15.5962 9.40091 16.0402 8.4686L17.1502 8.36501C18.0382 7.84706 18.9262 7.32911 19.3702 6.2932C19.1482 6.3968 18.8152 6.60398 18.5932 6.70757C18.3712 6.81116 18.5932 6.50039 18.8152 6.3968C19.0372 6.2932 19.1482 6.2932 19.3702 6.2932L23.4773 2.56395L27.9173 2.56395C29.4713 2.56395 31.1363 2.46036 32.6903 2.35677C33.3563 2.25318 33.9113 2.25318 33.9113 2.046C32.9123 1.83882 31.8023 1.63164 30.5813 1.42446C32.8013 1.52805 32.8013 1.52805 34.0223 2.046C34.7993 2.25318 35.5763 2.35677 36.4643 2.046C36.5753 2.046 36.6863 2.046 36.6863 1.94241C36.6863 1.83882 36.4643 1.83882 36.3533 1.94241C37.1303 1.52805 38.5733 1.42446 39.7944 1.83882C41.0154 2.25318 41.3484 2.25318 42.5694 1.83882C43.6794 1.42446 44.5674 2.66754 44.9004 1.83882C45.1224 1.11369 46.4544 1.52805 47.3424 1.52805H49.5624L49.3404 1.63164C49.3404 1.73523 49.2294 1.73523 49.2294 1.83882C48.5634 1.83882 47.8974 1.94241 48.1194 2.14959C48.1194 2.14959 48.5634 2.25318 48.7854 2.25318C49.3404 2.25318 49.4514 2.046 49.5624 1.94241C50.4504 1.94241 51.3384 2.046 52.2264 1.83882C53.2254 1.63164 54.3354 1.42446 54.6684 2.046C54.7794 2.25318 55.5564 2.46036 56.4445 2.35677C57.4435 2.25318 58.4425 2.46036 59.4415 2.35677C58.9975 1.83882 57.1105 2.14959 56.3335 1.73523C58.7755 1.52805 60.9955 1.63164 63.1045 1.94241C63.8815 2.046 64.6585 2.25318 65.6575 2.25318C69.7645 2.14959 73.7606 2.56395 77.9786 2.25318C79.6436 2.14959 81.5306 2.14959 83.1956 2.25318C85.0826 2.35677 85.9706 2.25318 86.0816 1.73523C86.1926 1.42446 87.8576 1.32087 86.7476 1.0101C85.6376 0.699326 84.5276 0.388555 82.7516 0.388555C81.7526 0.388555 80.7536 0.492146 79.4216 0.595736C80.8646 1.0101 82.6406 0.699326 84.5276 1.0101C79.9766 1.11369 75.9806 1.0101 71.9845 0.802917C70.5415 0.595736 69.0985 0.388555 67.8775 1.0101C67.2115 1.32087 65.7685 1.21728 64.5475 1.11369C61.9945 0.906507 59.3305 1.0101 56.6665 1.0101C54.5574 1.0101 52.3374 1.32087 50.2284 0.906507C49.5624 0.802917 47.7864 0.802917 47.2314 0.906507C43.5684 1.63164 39.5724 1.0101 35.6873 1.21728C34.3553 1.32087 33.5783 1.0101 32.4683 0.906507C30.1373 0.699326 28.2503 1.11369 26.2523 1.21728C25.6973 1.21728 25.0313 1.52805 24.4763 1.32087C24.1433 1.21728 23.4773 1.11369 22.8113 1.11369C21.7012 2.046 21.1463 2.46036 20.4802 3.18549C19.8142 3.80704 19.1482 4.42858 18.3712 5.05012C17.4832 5.77525 18.1492 5.56807 18.2602 5.56807C18.3712 5.46448 18.8152 5.05012 18.8152 5.2573L18.2602 5.56807C17.4832 6.18961 16.7062 6.91475 15.9292 7.53629C14.7082 8.57219 13.7092 9.29733 12.7102 10.7476C11.3782 12.5086 9.04717 14.4768 7.04915 16.1343C5.93915 17.0666 5.05114 17.7917 4.27414 18.8276C3.60813 19.76 2.72013 20.5887 1.83213 21.3138L1.16612 21.8318L0.833111 22.1425L0.611113 22.2461L0.500122 22.3497C0.500122 23.8 0.500122 22.7641 0.500122 23.0748C0.833124 23.4892 1.27713 23.9036 1.61013 24.3179C1.94313 24.7323 2.16513 25.1466 2.60913 25.6646C2.94213 25.9754 3.38613 26.4933 3.38613 26.1826C3.38613 26.079 3.16412 25.7682 3.05312 25.4574L2.94213 25.3538L3.05312 25.561C4.05213 26.7005 5.82814 27.9436 6.16115 29.0831C6.16115 29.1867 6.82715 29.8082 6.93815 29.8082C8.38116 30.2226 8.93617 31.6728 9.93518 32.5016C11.0452 33.4339 12.2662 35.1949 13.4872 35.2985C14.9302 36.9559 16.9282 38.3026 18.4822 39.9601C19.8142 41.4103 21.3682 42.6534 22.5893 44.0001ZM83.1956 1.63164C83.4176 1.52805 83.6396 1.63164 83.7506 1.73523C83.7506 1.73523 83.6396 1.83882 83.5286 1.83882C83.4176 1.73523 83.3066 1.73523 83.1956 1.63164ZM76.7576 1.73523C76.8686 1.73523 76.9796 1.63164 76.9796 1.63164C77.3126 1.63164 77.4236 1.63164 77.0906 1.73523C77.0906 1.73523 76.8686 1.83882 76.7576 1.73523ZM70.4305 1.73523C70.5415 1.73523 70.6525 1.73523 70.7635 1.73523C71.2076 1.73523 71.2075 1.73523 70.9855 1.83882C70.8745 1.83882 70.7635 1.83882 70.6525 1.83882C70.5415 1.83882 70.5415 1.73523 70.4305 1.73523ZM67.1005 1.83882C67.3225 1.73523 67.4335 1.73523 67.5445 1.73523C67.7665 1.83882 67.7665 1.83882 67.4335 1.83882C67.2115 1.94241 67.1005 1.83882 67.1005 1.83882Z" fill="black"/>
<path d="M86.6366 2.046C88.3016 2.14959 89.4117 2.56395 90.6327 2.046C91.0767 1.83882 91.4097 1.94241 91.8537 2.046C92.6307 2.14959 93.2967 2.25318 94.0737 2.25318C94.9617 2.35677 96.1827 2.46036 96.5157 2.14959C96.8487 1.73523 95.1837 1.94241 94.5177 1.73523C95.2947 1.32087 96.6267 1.52805 97.7367 1.52805C98.0697 1.52805 98.6247 1.63164 98.7357 1.63164C99.0687 1.83882 97.0707 2.14959 98.9577 2.35677C100.734 2.46036 102.954 2.56395 104.286 2.25318C104.841 2.046 102.066 2.14959 101.733 1.73523C103.62 1.42446 105.285 1.63164 106.728 1.94241C109.059 2.46036 109.059 2.56395 110.28 1.83882C110.946 1.42446 112.389 1.52805 112.833 1.73523C114.498 2.56395 117.717 2.46036 120.381 2.87472C120.936 2.35677 119.937 2.046 118.827 1.83882C120.159 1.73523 120.825 1.83882 121.158 2.14959C121.38 2.35677 121.713 2.56395 122.601 2.56395C123.822 2.56395 123.933 2.25318 124.155 2.046C124.266 1.83882 124.821 1.83882 125.487 1.73523C125.82 2.046 126.042 2.35677 126.93 2.46036C127.485 2.56395 128.151 2.66754 128.706 2.56395C129.594 2.35677 128.817 2.14959 128.373 2.046L128.151 1.94241H128.373C129.039 1.94241 129.927 1.63164 130.26 2.046C130.593 2.46036 131.481 2.46036 132.702 2.46036C134.478 2.56395 134.922 2.25318 135.699 1.94241C135.921 1.83882 136.143 1.83882 136.365 1.94241L137.142 2.046L136.254 1.94241H135.81C135.477 2.25318 136.032 2.46036 137.031 2.56395C138.141 2.66754 139.473 2.66754 140.583 2.56395C141.915 2.35677 140.028 2.14959 140.361 1.94241C142.026 1.94241 143.802 1.94241 145.356 2.046C146.688 3.49627 147.798 4.94653 148.686 6.3968C149.685 6.70757 149.13 6.18961 148.797 5.77525C148.464 5.36089 148.242 5.05012 148.464 5.05012C148.686 5.05012 149.019 5.36089 149.13 5.56807C149.907 6.81116 150.795 7.4327 151.905 7.95065C152.793 9.19373 154.68 10.7476 155.124 11.9907C154.68 11.5763 154.236 11.0584 153.792 10.644C153.459 10.3332 153.126 9.91887 152.682 9.71169C153.237 10.7476 154.236 11.4727 155.346 12.1979C156.9 13.7517 158.343 15.4092 160.119 16.7558C160.452 15.5127 160.452 15.5127 158.232 13.1302C156.789 11.6799 155.235 10.2296 153.903 8.67578C153.126 7.74347 152.016 6.81116 151.683 7.32911C150.795 6.18961 149.574 4.94653 148.908 3.70345C148.575 3.18549 148.131 2.77113 147.576 2.46036C147.021 2.14959 146.466 2.046 146.022 1.83882C145.911 1.63164 145.689 1.32087 145.578 1.11369C145.245 1.0101 145.023 1.0101 144.801 0.906507C144.69 1.0101 144.468 1.0101 144.357 1.0101L144.024 0.906507C143.802 0.802917 143.358 0.802917 142.914 0.802917C141.582 1.63164 140.139 0.595736 138.807 0.802917C138.252 0.906507 136.476 0.699326 137.808 1.11369C136.92 1.21728 136.032 1.21728 135.144 1.0101C134.145 0.802917 129.261 0.492146 128.262 0.595736C127.707 0.595736 127.263 0.699326 126.819 0.802917C125.265 0.388555 123.267 0.492146 121.491 0.388555C120.603 0.284965 119.715 0.492146 120.603 0.802917C120.936 0.906507 120.492 1.11369 119.937 1.0101C118.05 1.0101 116.052 0.906507 114.054 0.802917C113.943 0.802917 113.832 0.802917 113.721 0.699326H113.499C113.499 0.699326 113.61 0.802917 113.721 0.802917C110.835 0.906507 107.949 1.0101 105.063 0.802917C105.174 0.802917 105.285 0.802917 105.285 0.699326C105.285 0.595736 105.063 0.595736 104.841 0.699326C101.178 0.906507 97.4037 1.0101 93.7407 0.699326L93.9627 0.595736H93.5187C90.9657 0.492146 89.3007 0.802917 88.6346 1.32087C88.6346 1.73523 87.7466 1.83882 86.6366 2.046ZM132.147 1.94241C132.258 1.94241 132.369 1.83882 132.48 1.83882C132.591 1.83882 132.813 1.94241 132.924 1.94241C132.702 1.94241 132.591 2.046 132.369 2.046L132.147 1.94241ZM126.042 0.906507L126.819 0.802917C126.708 0.802917 126.486 0.906507 126.375 0.906507C126.264 0.906507 126.153 0.906507 126.042 0.906507Z" fill="black"/>
<path d="M151.239 38.3026C149.907 38.717 148.575 40.478 147.243 41.4103C146.355 42.0319 146.688 42.3426 145.578 43.3785L145.467 43.4821C143.025 43.3785 140.694 43.4821 138.252 43.275C135.033 43.0678 134.922 43.1714 134.367 42.2391C137.475 42.5498 140.583 43.1714 143.025 41.9283C143.58 42.2391 144.024 42.4462 144.357 42.5498H144.579L144.357 42.4462C144.468 42.3426 144.579 42.2391 144.579 42.1355C144.69 42.1355 144.801 42.2391 144.912 42.2391C145.023 42.2391 145.023 42.1355 145.134 42.1355C145.245 42.0319 145.245 42.0319 145.467 41.9283C145.689 41.7211 146.022 41.4103 146.355 41.2031C146.91 40.6852 147.465 40.1672 148.02 39.7529L148.242 39.6493L148.131 39.7529C150.018 37.6811 150.018 37.6811 152.349 37.2667C151.905 37.6811 151.461 38.199 151.239 38.3026Z" fill="black"/>
<path d="M161.784 27.84C161.784 27.6328 161.784 27.322 161.118 27.84C160.23 28.5651 159.786 28.4615 159.009 29.0831C158.343 29.9118 159.342 29.2903 159.12 29.8082C157.011 31.7764 154.569 33.0195 152.349 35.2985C152.238 35.2985 152.238 35.4021 152.127 35.4021L152.016 35.5057C152.016 35.5057 152.127 35.5057 152.238 35.4021C152.349 35.7129 152.793 35.7129 153.459 35.5057C153.348 35.8165 153.237 36.1272 153.57 35.92C153.681 35.8165 153.903 35.6093 154.014 35.5057L153.792 35.2985C154.569 34.7805 155.235 33.6411 156.123 33.6411C156.789 33.7446 157.344 32.1908 158.232 31.4657L159.009 31.0513L159.453 30.7405H159.231C159.12 30.7405 159.12 30.7405 159.12 30.6369C159.564 30.0154 160.23 29.4974 160.896 28.9795C161.451 28.5651 161.895 28.0472 161.784 27.84ZM158.676 30.9477L158.454 31.0513V30.9477H158.676Z" fill="black"/>
<path d="M130.038 43.275C129.372 42.9642 128.817 42.6534 128.262 42.4462C128.373 42.4462 128.484 42.3426 128.484 42.3426C128.484 42.2391 128.262 42.2391 128.04 42.3426C126.93 42.3426 126.264 41.9283 124.821 42.2391C123.378 42.5498 121.713 42.0319 120.048 42.1355C119.271 42.1355 118.383 42.1355 118.161 42.4462C118.05 42.6534 118.827 42.757 119.271 42.8606C120.825 43.1714 123.267 43.275 125.487 42.9642C126.264 42.8606 126.375 42.9642 126.819 43.0678C127.596 43.0678 128.484 43.275 130.038 43.275ZM121.824 42.4462H121.602V42.3426L121.824 42.4462Z" fill="black"/>
<path d="M95.1837 42.4462C95.4057 42.3426 95.8497 42.2391 95.5167 42.2391C95.1837 42.1355 95.0727 42.3426 94.9617 42.4462C94.7397 42.3426 94.4067 42.2391 94.1847 42.2391C91.2987 42.4462 88.3016 42.1355 85.5266 42.4462C83.5286 41.9283 80.1986 41.9283 78.2006 42.3426L77.9786 42.4462C77.5346 42.5498 77.4236 42.6534 76.4246 42.5498C73.3166 42.2391 70.3195 41.6175 66.7675 42.2391C65.7685 42.4462 64.8805 42.0319 63.7705 42.0319C58.1095 42.1355 52.6704 42.0319 47.0094 41.7211C43.7904 41.5139 40.1273 41.5139 36.6863 41.8247C33.5783 42.0319 30.3593 41.6175 27.2513 41.7211C26.5853 41.7211 25.9193 41.7211 25.2533 41.7211C24.0322 41.7211 23.1443 41.9283 23.2553 42.2391C23.3663 42.5498 24.3653 42.5498 25.3643 42.6534C33.4673 42.757 41.5704 42.8606 49.7844 42.8606C51.0054 42.8606 52.3374 42.8606 52.2264 42.3426L52.1154 42.2391H52.3374C54.4464 42.6534 56.5555 42.9642 59.4415 42.6534C60.3295 42.4462 61.8835 42.4462 63.1045 42.6534C64.2145 42.8606 65.1025 42.757 65.9905 42.5498H66.2125L66.1015 42.6534C66.2125 42.8606 66.7675 42.9642 67.4335 42.9642C71.0965 42.8606 74.8706 42.9642 78.6446 42.8606C79.4216 42.8606 80.3096 42.8606 80.9756 42.757C81.9746 42.6534 80.0876 42.5498 80.7536 42.4462C81.3086 42.3426 82.0856 42.2391 82.5296 42.4462C83.5286 42.8606 84.3056 42.3426 85.1936 42.4462C86.1926 42.9642 87.9686 42.9642 89.8557 42.9642C91.8537 42.9642 93.9627 42.9642 96.0717 42.9642C96.2937 42.757 95.2947 42.6534 95.1837 42.4462Z" fill="black"/>
<path d="M160.785 15.0984C162.339 16.963 164.115 18.5169 165.669 20.2779C166.335 20.6923 167.001 21.2102 167.556 21.9353C167.667 22.0389 167.667 22.1425 167.778 22.2461H168C168 22.6605 168 21.4174 168 23.0748L167.889 23.1784C167.667 23.282 167.556 23.4892 167.334 23.5928C167.001 23.9036 166.668 24.1107 166.335 24.4215C165.669 25.0431 164.892 25.6646 164.004 26.5969C163.449 27.1149 163.005 27.4256 162.894 27.2185C162.783 26.9077 162.783 26.4933 162.561 26.2861C162.45 26.079 161.784 26.1826 162.783 25.2502C163.671 24.4215 164.781 23.3856 165.114 23.9036L164.226 24.9395C164.781 24.6287 165.003 24.3179 165.225 23.9036C165.447 23.5928 165.669 23.3856 165.891 23.0748C166.113 22.8677 166.335 22.6605 166.446 22.4533L166.89 22.0389C166.89 21.7282 166.89 24.3179 166.89 23.282L166.779 23.1784C166.335 22.8677 165.891 22.4533 165.669 22.0389C165.336 21.3138 165.669 21.1066 166.446 21.3138C166.557 21.3138 166.89 21.521 166.779 21.4174C166.668 21.1066 166.224 20.7959 165.891 20.4851C165.558 20.4851 165.336 20.3815 165.003 20.3815C164.004 20.3815 164.115 20.3815 163.116 18.724C162.339 18.4133 162.561 19.0348 161.895 18.8276C160.896 17.1702 160.896 17.1702 163.005 18.724L162.228 17.481C162.006 17.3774 161.784 17.2738 161.451 16.963C161.451 16.7558 161.34 16.7558 161.34 16.6522L162.117 17.1702C161.784 16.5487 160.563 15.6163 160.785 15.0984Z" fill="black"/>
<path d="M108.393 42.6534C108.615 42.9642 110.502 42.6534 110.502 43.1714C108.504 43.3785 106.839 42.9642 104.952 42.9642C103.287 43.1714 101.955 42.8606 100.734 42.6534H100.512L100.734 42.757C100.623 43.0678 100.068 43.1714 98.8467 43.0678C97.9587 42.9642 97.2927 42.757 97.6257 42.4462C97.9587 42.1355 98.6247 42.2391 99.5127 42.2391C101.178 42.3426 102.621 42.4462 103.842 42.757C104.73 42.4462 105.951 42.5498 107.061 42.5498C107.616 42.3426 108.171 42.0319 109.503 42.1355C111.501 42.3426 113.832 42.2391 116.052 42.5498C113.499 42.757 110.835 42.5498 108.393 42.6534Z" fill="black"/>
<path d="M151.017 8.05424C151.017 8.15783 150.795 8.05424 150.684 7.84706C150.684 7.74347 150.573 7.63988 150.573 7.53629L150.795 7.63988C150.906 7.84706 151.017 7.95065 151.017 8.05424Z" fill="black"/>
<path d="M7.93717 15.0984C7.82617 15.202 7.71516 15.202 7.49316 15.3056C7.49316 15.202 7.60416 14.9948 7.82616 14.8912C7.93716 14.7876 8.04816 14.7876 8.04816 14.7876C8.27016 14.7876 8.15917 14.8912 7.93717 15.0984Z" fill="black"/>
<path d="M20.0362 39.2349C20.1472 39.3385 20.3692 39.4421 20.4802 39.4421L20.5912 39.6493L20.1472 39.4421C20.0362 39.3385 19.9252 39.2349 20.0362 39.2349Z" fill="black"/>
<path d="M88.9677 0.492146C89.0787 0.492146 89.3007 0.492146 89.3007 0.492146C89.4117 0.492146 89.4116 0.595736 89.4116 0.699326H88.8566C88.6346 0.492146 88.7457 0.492146 88.9677 0.492146Z" fill="black"/>
<path d="M116.829 43.0678C116.718 43.0678 116.607 43.0678 116.496 42.9642C116.274 42.8606 116.385 42.8606 116.829 42.8606C117.051 42.8606 117.162 42.9642 117.384 42.9642C117.273 43.0678 117.162 43.1714 116.829 43.0678Z" fill="black"/>
<path d="M112.833 2.046C112.944 2.14959 112.722 2.14959 112.389 2.14959C112.278 2.14959 112.167 2.046 112.056 2.046H112.278C112.5 2.046 112.833 2.046 112.833 2.046Z" fill="black"/>
<path d="M160.896 29.3939C161.007 29.2903 161.118 29.2903 161.118 29.1867C161.118 29.2903 161.007 29.2903 161.007 29.3939C160.896 29.4974 160.785 29.4974 160.785 29.601C160.785 29.4974 160.785 29.4974 160.896 29.3939Z" fill="black"/>
<path d="M101.844 0.595736L102.066 0.699326H101.844V0.595736Z" fill="black"/>
<path d="M36.2423 0.906507C36.3533 0.906507 36.3533 0.906507 36.4643 0.906507C36.5753 0.906507 36.6863 0.906507 36.6863 0.906507L36.4643 1.0101L36.2423 0.906507Z" fill="black"/>
<path d="M11.8222 11.0584H11.9332L11.7112 11.2655L11.8222 11.0584Z" fill="black"/>
<path d="M119.382 0.0777843C119.382 -0.025806 119.493 -0.025806 119.715 0.0777843C119.715 0.0777843 119.715 0.0777843 119.604 0.181375L119.382 0.0777843Z" fill="black"/>
<path d="M145.467 0.284965L145.8 0.388555H145.245L145.467 0.284965Z" fill="black"/>
<path d="M77.7566 42.1355H77.8676C77.9786 42.1355 77.9786 42.1355 78.0896 42.1355L77.8676 42.2391C77.8676 42.1355 77.8676 42.1355 77.7566 42.1355Z" fill="black"/>
<path d="M36.7637 13.227C36.9371 13.1337 37.1237 13.087 37.3237 13.087C37.6037 13.087 37.8637 13.167 38.1037 13.327C38.1971 13.3937 38.2837 13.4604 38.3637 13.527C38.4437 13.5937 38.5171 13.6537 38.5837 13.707C38.6637 13.7604 38.7704 13.8137 38.9037 13.867C39.0371 13.9204 39.1504 13.9737 39.2437 14.027C39.6437 14.2404 40.2304 14.5737 41.0037 15.027L42.7837 16.047C43.8104 16.6337 44.7104 17.1404 45.4837 17.567L46.7637 18.247C47.5237 18.6337 48.1637 18.9804 48.6837 19.287C49.2171 19.5937 49.7104 19.9404 50.1637 20.327C50.4971 20.6337 50.7571 20.9337 50.9437 21.227C51.1304 21.5204 51.2237 21.8404 51.2237 22.187L51.2037 22.407C51.0704 23.1804 50.6637 23.9204 49.9837 24.627C49.4638 25.187 48.8504 25.667 48.1437 26.067C47.4504 26.467 46.6504 26.847 45.7437 27.207C44.1971 27.7937 42.4237 28.3204 40.4237 28.787C40.2104 28.8404 40.0571 28.8737 39.9637 28.887L39.1437 29.087L37.9837 29.307C37.6237 29.3737 37.1837 29.4404 36.6637 29.507C36.6104 29.5204 36.5104 29.547 36.3637 29.587C36.2304 29.6137 36.1104 29.627 36.0037 29.627C35.9504 29.627 35.8704 29.6137 35.7637 29.587C35.4837 29.5337 35.3437 29.367 35.3437 29.087C35.3437 28.9004 35.4104 28.687 35.5437 28.447C35.6637 28.1937 35.7904 27.9937 35.9237 27.847C36.3237 27.3804 36.9104 27.0604 37.6837 26.887C37.8437 26.847 37.9371 26.807 37.9637 26.767C38.0037 26.7137 38.0304 26.6004 38.0437 26.427C38.0437 26.187 38.0571 25.827 38.0837 25.347C38.1904 24.0804 38.2571 23.1137 38.2837 22.447C38.3371 21.807 38.3704 21.327 38.3837 21.007C38.3971 20.9404 38.4104 20.8537 38.4237 20.747C38.4371 20.627 38.4437 20.487 38.4437 20.327C38.4437 20.1537 38.4171 19.9937 38.3637 19.847C38.0837 19.167 37.6371 18.327 37.0237 17.327C37.0237 17.3404 37.0304 17.3604 37.0437 17.387C37.0704 17.4004 37.0904 17.4337 37.1037 17.487C36.9304 17.1804 36.6437 16.7337 36.2437 16.147C36.1904 16.0804 36.1304 15.9937 36.0637 15.887C35.9971 15.7804 35.9371 15.6937 35.8837 15.627C35.8437 15.587 35.7904 15.5337 35.7237 15.467C35.6571 15.387 35.6037 15.3204 35.5637 15.267C35.4971 15.1337 35.4637 15.0137 35.4637 14.907C35.4637 14.6137 35.6104 14.307 35.9037 13.987C36.1837 13.667 36.4704 13.4137 36.7637 13.227ZM41.4237 26.107C42.6371 25.8404 43.9504 25.487 45.3637 25.047C46.1237 24.807 46.7437 24.587 47.2237 24.387C47.7037 24.187 48.1571 23.927 48.5838 23.607C48.1971 23.1404 47.7571 22.7404 47.2638 22.407C46.7838 22.0604 46.0971 21.6204 45.2037 21.087L43.7037 20.187L41.2837 18.687C41.7771 20.087 42.0237 21.4004 42.0237 22.627C42.0237 23.5204 41.8971 24.407 41.6437 25.287L41.4237 26.107ZM36.6437 23.347C36.3104 23.2937 36.1437 23.1804 36.1437 23.007C36.1437 22.8604 36.2704 22.687 36.5237 22.487C36.7771 22.287 37.0637 22.127 37.3837 22.007C37.7037 21.8737 37.9637 21.8204 38.1637 21.847C38.9637 21.967 39.7437 22.027 40.5037 22.027C41.4104 22.027 42.3371 21.947 43.2837 21.787C43.5637 21.747 43.7437 21.727 43.8237 21.727C44.2371 21.727 44.4504 21.8804 44.4637 22.187C44.4771 22.427 44.3104 22.6404 43.9637 22.827C43.6304 23.0137 43.3171 23.1337 43.0237 23.187C41.9437 23.4537 40.7704 23.587 39.5037 23.587C38.5304 23.587 37.5771 23.507 36.6437 23.347ZM57.2359 25.027C57.5426 24.307 57.6959 23.567 57.6959 22.807C57.6959 22.207 57.5893 21.6604 57.3759 21.167C57.1759 20.6604 56.8559 20.247 56.4159 19.927C56.1226 19.7137 55.8426 19.607 55.5759 19.607C55.4693 19.607 55.3359 19.6337 55.1759 19.687C55.2959 19.7404 55.3559 19.8337 55.3559 19.967C55.3559 20.047 55.3293 20.1404 55.2759 20.247C54.9693 20.8337 54.7293 21.4737 54.5559 22.167C54.3826 22.847 54.2959 23.5337 54.2959 24.227C54.2959 25.027 54.4159 25.787 54.6559 26.507C54.8159 26.907 54.9826 27.2204 55.1559 27.447C55.2359 27.5404 55.3159 27.607 55.3959 27.647C55.7826 27.3804 56.1293 27.007 56.4359 26.527C56.7559 26.047 57.0226 25.547 57.2359 25.027ZM56.9559 18.007C57.6093 18.1404 58.1693 18.427 58.6359 18.867C59.1026 19.307 59.4559 19.8404 59.6959 20.467C59.9359 21.0804 60.0559 21.7204 60.0559 22.387C60.0559 23.1737 59.9026 23.9804 59.5959 24.807C59.2893 25.6337 58.8693 26.3937 58.3359 27.087C57.8026 27.7804 57.2093 28.327 56.5559 28.727C55.9426 29.1004 55.3426 29.287 54.7559 29.287C54.1693 29.287 53.6559 29.107 53.2159 28.747C52.7759 28.387 52.4559 27.867 52.2559 27.187C52.0293 26.4937 51.9159 25.7137 51.9159 24.847C51.9159 24.327 51.9559 23.8204 52.0359 23.327C51.9426 23.3537 51.8026 23.367 51.6159 23.367C51.1626 23.367 50.9359 23.2137 50.9359 22.907C50.9359 22.8004 50.9493 22.7137 50.9759 22.647C51.4293 21.3804 52.1093 20.2804 53.0159 19.347C53.9359 18.4004 54.9893 17.927 56.1759 17.927C56.3493 17.927 56.6093 17.9537 56.9559 18.007ZM58.3559 31.747C58.4893 31.867 58.5559 32.007 58.5559 32.167C58.5559 32.3804 58.4759 32.5804 58.3159 32.767C58.1026 32.9937 57.7893 33.1937 57.3759 33.367C56.9759 33.5137 56.6159 33.567 56.2959 33.527C56.1093 33.5137 55.9359 33.467 55.7759 33.387C55.6293 33.307 55.5359 33.187 55.4959 33.027C55.4559 32.8137 55.5226 32.5537 55.6959 32.247C55.8293 32.047 56.0559 31.8604 56.3759 31.687C56.6826 31.5137 57.0293 31.407 57.4159 31.367H57.6159C57.8826 31.367 58.0626 31.4137 58.1559 31.507C58.2093 31.547 58.2493 31.6137 58.2759 31.707L58.3559 31.747ZM67.8648 21.227C67.9182 20.9604 68.1182 20.7337 68.4648 20.547C68.8248 20.3604 69.1782 20.267 69.5248 20.267C69.9782 20.267 70.1782 20.4404 70.1248 20.787L70.0448 21.247C69.8448 22.3804 69.6382 23.3404 69.4248 24.127C69.2248 24.9004 68.9115 25.6537 68.4848 26.387C68.0715 27.1204 67.5248 27.7004 66.8448 28.127C65.9648 28.687 65.0648 28.967 64.1448 28.967C63.5982 28.967 63.0848 28.8537 62.6048 28.627C62.1382 28.4004 61.7448 28.047 61.4248 27.567C60.8648 26.7404 60.5848 25.7937 60.5848 24.727C60.5848 23.287 61.0982 21.6204 62.1248 19.727C62.4715 19.0737 62.8315 18.5537 63.2048 18.167C63.5915 17.7804 64.0715 17.547 64.6448 17.467C64.6982 17.4537 64.7715 17.447 64.8648 17.447C65.0782 17.447 65.2648 17.487 65.4248 17.567C65.8248 16.687 66.1315 16.027 66.3448 15.587C66.4382 15.387 66.6582 15.2137 67.0048 15.067C67.3648 14.9204 67.6982 14.847 68.0048 14.847C68.4048 14.847 68.6048 14.9737 68.6048 15.227C68.6048 15.2804 68.5848 15.3604 68.5448 15.467C67.6248 17.707 66.8782 19.447 66.3048 20.687C66.2115 20.9004 65.9915 21.0804 65.6448 21.227C65.3115 21.3737 64.9848 21.447 64.6648 21.447C64.4515 21.447 64.2782 21.4137 64.1448 21.347C64.0115 21.2804 63.9448 21.1737 63.9448 21.027C63.9448 20.9337 63.9715 20.8337 64.0248 20.727L64.3248 20.047C64.2582 20.0337 64.1982 20.0004 64.1448 19.947L63.7448 20.887C63.3715 21.7004 63.1248 22.5137 63.0048 23.327C62.9648 23.5804 62.9448 23.8404 62.9448 24.107C62.9448 24.6804 63.0315 25.2204 63.2048 25.727C63.3782 26.2337 63.6515 26.6404 64.0248 26.947C64.3315 27.2137 64.6315 27.347 64.9248 27.347C66.0982 27.347 67.0782 25.307 67.8648 21.227ZM83.3038 17.387C83.5838 17.3604 83.7971 17.3937 83.9438 17.487C84.1038 17.5804 84.2704 17.7604 84.4438 18.027C84.5504 18.2004 84.6038 18.347 84.6038 18.467C84.6038 18.7604 84.4171 18.9337 84.0438 18.987L83.3438 19.067C82.6904 19.1604 82.3438 19.207 82.3038 19.207C82.0771 21.3404 81.8971 23.1937 81.7638 24.767C81.6304 26.3404 81.5438 27.8937 81.5038 29.427C81.4904 29.6137 81.4104 29.7537 81.2638 29.847C81.1304 29.9404 80.9504 29.987 80.7238 29.987C80.3238 29.987 79.9238 29.8804 79.5238 29.667C79.1371 29.4404 78.9504 29.187 78.9638 28.907C79.0038 27.4937 79.0838 26.0537 79.2038 24.587C79.3238 23.107 79.4838 21.3937 79.6838 19.447L78.4238 19.607C78.2371 19.6204 78.0904 19.6137 77.9838 19.587C77.8904 19.547 77.7971 19.467 77.7038 19.347C77.6104 19.227 77.5171 19.0937 77.4238 18.947C77.3171 18.8004 77.2638 18.6537 77.2638 18.507C77.2638 18.387 77.3104 18.2804 77.4038 18.187C77.4971 18.0937 77.6371 18.0337 77.8238 18.007C78.1171 17.967 78.4571 17.9204 78.8438 17.867L79.8638 17.727L80.2238 14.267C80.2638 13.8937 80.5371 13.707 81.0438 13.707C81.4438 13.707 81.8304 13.8204 82.2038 14.047C82.5904 14.2604 82.7704 14.507 82.7438 14.787L82.4838 17.467C82.8571 17.4404 83.1304 17.4137 83.3038 17.387ZM88.247 22.187C88.767 21.7737 89.187 21.407 89.507 21.087C89.8404 20.767 90.0937 20.447 90.267 20.127C89.547 19.9404 88.4804 19.6337 87.067 19.207L86.967 23.267C87.367 22.9337 87.6004 22.7337 87.667 22.667L88.247 22.187ZM91.467 24.987C91.5737 24.7737 91.8004 24.5937 92.147 24.447C92.4937 24.287 92.827 24.207 93.147 24.207C93.587 24.207 93.807 24.347 93.807 24.627C93.807 24.707 93.787 24.8004 93.747 24.907C93.2004 26.187 92.787 27.427 92.507 28.627C92.4404 28.8937 92.247 29.1404 91.927 29.367C91.7937 29.5404 91.587 29.687 91.307 29.807C91.0404 29.927 90.7737 29.987 90.507 29.987C90.2804 29.987 90.0937 29.9404 89.947 29.847C89.8137 29.7537 89.7404 29.607 89.727 29.407C89.6737 28.5404 89.387 27.747 88.867 27.027C88.3604 26.307 87.707 25.8404 86.907 25.627L86.807 28.527C86.7937 28.7804 86.5804 29.0137 86.167 29.227C85.767 29.4404 85.3804 29.547 85.007 29.547C84.807 29.547 84.647 29.5137 84.527 29.447C84.407 29.367 84.347 29.247 84.347 29.087L84.407 26.327C84.2337 26.207 84.147 26.067 84.147 25.907C84.147 25.7204 84.247 25.5404 84.447 25.367C84.5137 22.9404 84.5937 20.5204 84.687 18.107C84.7004 17.827 84.887 17.587 85.247 17.387C85.6204 17.1737 85.9937 17.067 86.367 17.067C86.647 17.067 86.847 17.1337 86.967 17.267C88.4204 17.667 89.927 18.107 91.487 18.587C91.727 18.5337 91.8937 18.507 91.987 18.507C92.2137 18.507 92.387 18.5604 92.507 18.667C92.6404 18.7604 92.707 18.907 92.707 19.107C92.707 19.6537 92.527 20.1604 92.167 20.627C91.807 21.0804 91.307 21.587 90.667 22.147L90.267 22.507C89.627 23.1337 89.007 23.687 88.407 24.167C89.5004 24.4737 90.3804 25.0804 91.047 25.987C91.1004 25.8537 91.2404 25.5204 91.467 24.987ZM100.313 18.547C100.326 18.2804 100.513 18.047 100.873 17.847C101.246 17.6337 101.62 17.527 101.993 17.527C102.206 17.527 102.38 17.5737 102.513 17.667C102.646 17.747 102.706 17.8804 102.693 18.067C102.666 18.5737 102.653 18.9804 102.653 19.287C102.586 21.0204 102.466 22.4937 102.293 23.707C102.133 24.9204 101.766 26.0604 101.193 27.127C100.62 28.1937 99.7665 28.8937 98.6331 29.227C98.2465 29.3337 97.8798 29.387 97.5331 29.387C96.6798 29.387 95.9265 29.1337 95.2731 28.627C94.6331 28.1204 94.2665 27.4337 94.1731 26.567C94.1465 26.2204 94.1331 25.9604 94.1331 25.787C94.1331 24.867 94.2731 23.927 94.5531 22.967C94.8331 22.007 95.2398 20.847 95.7731 19.487C95.9331 19.127 96.1131 18.667 96.3131 18.107C96.3931 17.8804 96.5931 17.6937 96.9131 17.547C97.2465 17.387 97.5731 17.307 97.8931 17.307C98.1065 17.307 98.2798 17.3537 98.4131 17.447C98.5465 17.527 98.6131 17.647 98.6131 17.807C98.6131 17.8604 98.5998 17.9404 98.5731 18.047C98.3065 18.8204 98.0998 19.4004 97.9531 19.787C97.5665 20.867 97.2665 21.7737 97.0531 22.507C96.8398 23.227 96.6931 23.967 96.6131 24.727C96.5865 25.047 96.5731 25.3004 96.5731 25.487C96.5731 26.2737 96.7665 26.8404 97.1531 27.187C97.2731 27.307 97.4331 27.4204 97.6331 27.527C97.8331 27.6204 98.0198 27.6737 98.1931 27.687L98.3531 27.727C98.3665 27.727 98.3931 27.707 98.4331 27.667C98.7665 27.4537 99.0331 27.0937 99.2331 26.587C99.4465 26.067 99.5865 25.607 99.6531 25.207C99.7198 24.807 99.8131 24.1737 99.9331 23.307C100.026 22.6004 100.1 21.827 100.153 20.987C100.22 20.147 100.273 19.3337 100.313 18.547ZM108.031 17.847C108.005 17.567 108.178 17.3204 108.551 17.107C108.938 16.8804 109.318 16.767 109.691 16.767C110.105 16.767 110.331 16.907 110.371 17.187C110.665 19.3204 110.891 21.1537 111.051 22.687C111.211 24.2204 111.291 25.7404 111.291 27.247C111.291 29.2737 111.131 31.067 110.811 32.627C110.558 33.867 110.191 34.9804 109.711 35.967C109.231 36.9537 108.571 37.7204 107.731 38.267C107.038 38.707 106.338 38.927 105.631 38.927C104.978 38.927 104.338 38.7537 103.711 38.407C103.085 38.0737 102.498 37.6137 101.951 37.027C101.845 36.8937 101.791 36.7804 101.791 36.687C101.791 36.4204 101.985 36.167 102.371 35.927C102.745 35.7004 103.125 35.587 103.511 35.587C103.778 35.587 103.985 35.6604 104.131 35.807C104.198 35.8737 104.358 36.0404 104.611 36.3071C104.865 36.5737 105.125 36.8004 105.391 36.987C105.671 37.1737 105.925 37.267 106.151 37.267C106.271 37.267 106.358 37.2537 106.411 37.2271C106.665 37.1337 106.885 36.9137 107.071 36.567C107.271 36.2204 107.431 35.9004 107.551 35.607C107.671 35.3137 107.745 35.1337 107.771 35.067C108.091 34.267 108.325 33.4204 108.471 32.527C108.618 31.647 108.718 30.6604 108.771 29.567C108.798 28.7137 108.811 28.067 108.811 27.627C108.465 28.2537 108.058 28.747 107.591 29.107C107.125 29.4537 106.558 29.627 105.891 29.627C104.945 29.627 104.325 29.207 104.031 28.367C103.751 27.5137 103.605 26.4737 103.591 25.247L103.571 24.447C103.571 22.367 103.785 20.4137 104.211 18.587C104.265 18.3337 104.491 18.107 104.891 17.907C105.291 17.707 105.671 17.607 106.031 17.607C106.218 17.607 106.365 17.647 106.471 17.727C106.578 17.807 106.618 17.9204 106.591 18.067C106.285 19.6137 106.091 21.287 106.011 23.087C105.985 23.647 105.971 24.0804 105.971 24.387C105.971 24.8937 106.005 25.4604 106.071 26.087C106.151 26.647 106.245 27.047 106.351 27.287L106.511 27.607C106.605 27.4337 106.731 27.1737 106.891 26.827C107.225 25.9737 107.491 24.947 107.691 23.747L107.871 22.767C108.125 21.5804 108.251 20.6404 108.251 19.947C108.251 19.6004 108.238 19.3404 108.211 19.167L108.031 17.847ZM120.962 27.187C121.162 27.2537 121.262 27.3737 121.262 27.547C121.262 27.7604 121.136 27.9937 120.882 28.247C120.602 28.527 120.242 28.667 119.802 28.667C119.589 28.667 119.409 28.6404 119.262 28.587C118.556 28.3604 117.916 28.247 117.342 28.247C116.342 28.247 115.322 28.567 114.282 29.207C114.109 29.327 113.896 29.427 113.642 29.507C113.402 29.5737 113.176 29.607 112.962 29.607C112.762 29.607 112.602 29.5737 112.482 29.507C112.362 29.427 112.302 29.307 112.302 29.147C112.302 29.0537 112.316 28.9737 112.342 28.907C112.729 27.827 113.036 26.8537 113.262 25.987C113.502 25.1204 113.662 24.2404 113.742 23.347C113.862 22.147 113.922 21.267 113.922 20.707C113.922 19.227 113.636 18.0937 113.062 17.307C112.996 17.227 112.962 17.1204 112.962 16.987C112.962 16.7204 113.149 16.4737 113.522 16.247C113.896 16.007 114.262 15.887 114.622 15.887C114.862 15.887 115.036 15.9404 115.142 16.047C115.316 16.1137 115.429 16.2204 115.482 16.367C115.816 17.247 116.276 17.9937 116.862 18.607C117.449 19.207 118.142 19.507 118.942 19.507C119.089 19.507 119.309 19.4804 119.602 19.427C119.789 19.4004 119.909 19.387 119.962 19.387C120.189 19.387 120.356 19.4404 120.462 19.547C120.582 19.6404 120.642 19.7737 120.642 19.947C120.642 20.1337 120.562 20.3204 120.402 20.507C120.256 20.6937 120.056 20.827 119.802 20.907C119.256 21.0937 118.709 21.187 118.162 21.187C117.509 21.187 116.882 21.0537 116.282 20.787C116.256 21.5337 116.222 22.0937 116.182 22.467L116.042 23.727C116.562 23.6337 117.082 23.5537 117.602 23.487L117.882 23.467C118.416 23.467 118.682 23.647 118.682 24.007C118.682 24.247 118.549 24.4604 118.282 24.647C118.016 24.8337 117.742 24.9537 117.462 25.007C117.049 25.087 116.482 25.1737 115.762 25.267C115.616 25.9204 115.456 26.5337 115.282 27.107C116.162 26.787 117.056 26.627 117.962 26.627C118.962 26.627 119.962 26.8137 120.962 27.187ZM119.622 31.747C119.756 31.867 119.822 32.007 119.822 32.167C119.822 32.3804 119.742 32.5804 119.582 32.767C119.369 32.9937 119.056 33.1937 118.642 33.367C118.242 33.5137 117.882 33.567 117.562 33.527C117.376 33.5137 117.202 33.467 117.042 33.387C116.896 33.307 116.802 33.187 116.762 33.027C116.722 32.8137 116.789 32.5537 116.962 32.247C117.096 32.047 117.322 31.8604 117.642 31.687C117.949 31.5137 118.296 31.407 118.682 31.367H118.882C119.149 31.367 119.329 31.4137 119.422 31.507C119.476 31.547 119.516 31.6137 119.542 31.707L119.622 31.747ZM118.642 11.287C118.869 11.6337 119.136 11.9137 119.442 12.127C119.749 12.327 120.056 12.507 120.362 12.667C120.669 12.8137 120.869 12.907 120.962 12.947C121.189 13.0537 121.302 13.207 121.302 13.407C121.302 13.527 121.256 13.6604 121.162 13.807C121.082 13.9404 120.982 14.0537 120.862 14.147C120.689 14.2937 120.476 14.4137 120.222 14.507C119.982 14.587 119.742 14.627 119.502 14.627C119.289 14.627 119.109 14.6004 118.962 14.547C118.442 14.3604 117.969 14.1404 117.542 13.887C117.476 13.847 117.356 13.7404 117.182 13.567C116.796 13.9137 116.416 14.207 116.042 14.447C115.496 14.7937 115.002 14.967 114.562 14.967C114.389 14.967 114.249 14.9404 114.142 14.887C113.942 14.7937 113.842 14.667 113.842 14.507C113.842 14.4004 113.882 14.287 113.962 14.167C114.056 14.047 114.169 13.947 114.302 13.867C115.169 13.2537 115.782 12.6337 116.142 12.007C116.276 11.7804 116.536 11.5537 116.922 11.327C117.309 11.1004 117.669 10.987 118.002 10.987C118.296 10.987 118.509 11.087 118.642 11.287ZM132.115 17.887C131.795 20.3137 131.635 22.6004 131.635 24.747C131.635 25.787 131.675 26.8404 131.755 27.907C131.781 27.987 131.795 28.0537 131.795 28.107C131.795 28.147 131.781 28.207 131.755 28.287C131.755 28.3004 131.748 28.307 131.735 28.307V28.347C131.655 28.5737 131.468 28.7737 131.175 28.947C130.881 29.107 130.568 29.2004 130.235 29.227C129.701 29.2804 129.381 29.1404 129.275 28.807C128.808 27.5537 128.068 25.8204 127.055 23.607L126.815 23.047C126.708 24.7137 126.641 26.4937 126.615 28.387C126.615 28.667 126.428 28.9204 126.055 29.147C125.681 29.3604 125.301 29.467 124.915 29.467C124.675 29.467 124.481 29.4204 124.335 29.327C124.188 29.2337 124.121 29.0804 124.135 28.867C124.215 25.2404 124.475 21.807 124.915 18.567L124.935 18.487C124.908 18.1937 125.088 17.927 125.475 17.687C125.861 17.447 126.248 17.327 126.635 17.327C127.035 17.327 127.281 17.4604 127.375 17.727C127.801 18.887 128.435 20.3804 129.275 22.207C129.355 20.9537 129.495 19.6804 129.695 18.387C129.735 18.1204 129.948 17.887 130.335 17.687C130.721 17.4737 131.101 17.367 131.475 17.367C131.955 17.367 132.168 17.5404 132.115 17.887Z" fill="url(#paint0_linear_105_7999)"/>
</g>
<defs>
<linearGradient id="paint0_linear_105_7999" x1="132.75" y1="35.9929" x2="102.922" y2="-22.3406" gradientUnits="userSpaceOnUse">
<stop stop-color="#F0CA4D"/>
<stop offset="0.265" stop-color="#FAE474"/>
<stop offset="0.515" stop-color="#E1AD26"/>
<stop offset="0.776" stop-color="#F8E370"/>
<stop offset="1" stop-color="#E2B033"/>
</linearGradient>
<clipPath id="clip0_105_7999">
<rect width="167.5" height="44" fill="white" transform="translate(0.5)"/>
</clipPath>
</defs>
</svg>
