<svg width="47" height="47" viewBox="0 0 47 47" fill="none" xmlns="http://www.w3.org/2000/svg">
<g clip-path="url(#clip0_2308_7269)">
<g clip-path="url(#clip1_2308_7269)">
<path d="M41.7305 18.5312C40.7006 18.3027 40.9581 17.236 40.9581 16.5884C40.9581 16.5503 40.7006 16.3979 40.6638 16.5503C40.1857 20.9693 41.7305 20.3217 40.5535 21.9598C40.4064 22.1884 40.5903 22.4932 40.7742 22.6836C42.3926 24.1693 42.0248 24.817 43.165 25.3503C44.4891 24.3217 44.4523 24.2074 45.2615 24.0932C45.8133 24.017 45.8501 25.4265 45.7765 26.036C45.3719 30.2265 45.1144 26.5312 43.6799 27.0646C43.7167 27.1027 44.1581 25.8836 43.6799 26.1503C42.2455 26.9884 43.496 26.3789 42.7972 27.9408C42.7604 28.017 41.2156 33.4265 40.9949 33.617C40.0018 34.5312 40.1489 35.5979 39.5972 36.0551C37.5006 37.7693 38.7144 37.5408 36.4707 39.6741C35.0363 41.0074 35.9926 40.4741 35.073 41.2741C34.4478 41.8074 33.565 41.7693 33.565 42.2646C33.565 42.9122 32.7558 43.4455 32.0569 43.5979C31.6891 43.2932 31.8363 43.3693 31.542 43.4074C31.6156 43.636 31.4684 43.5979 31.9466 43.7122C31.0271 44.817 31.2845 43.636 30.696 43.7503C30.5857 43.7884 30.696 44.0551 30.7696 44.0932C30.9167 44.1312 31.1006 44.1312 31.2845 44.1693C29.5558 44.8932 28.0845 43.9408 27.6064 44.7789C27.4592 45.0455 27.2386 45.1598 26.9811 45.2741C27.0179 45.3122 27.0179 45.3503 26.9811 45.0074L27.0179 45.0455C25.7673 44.7027 25.8776 45.8836 26.4661 46.1503C25.9512 46.9122 26.0615 45.9598 25.3995 46.1884C23.4133 46.9122 24.7374 46.1503 23.1558 45.8074C19.8454 45.1217 19.5512 45.7693 18.4845 45.3884C18.3742 45.3503 18.2271 45.3884 18.0799 45.3884C16.4248 45.5027 17.2707 45.3503 16.8661 45.0836C16.5351 44.8551 15.9466 45.6551 15.7627 46.0741C15.542 46.5312 14.9535 46.0741 15.1006 45.8074C15.1374 45.7312 15.6523 45.0074 15.2477 45.0074C14.8799 45.0074 14.696 44.9312 14.6592 44.4741C14.6592 44.1693 14.2914 44.0551 14.034 44.2455C13.5926 44.5503 13.4454 44.9693 13.2615 44.0551C13.2248 43.8265 12.3788 44.0551 13.3719 44.8551C15.2477 47.5598 4.32361 40.5884 3.80867 38.1884C3.36729 36.1312 2.04315 34.4551 1.96959 33.2741C1.82246 31.1027 0.204069 31.636 0.204069 29.0455C0.204069 27.7503 -0.531563 26.9884 0.608666 26.3408C1.7489 25.6932 0.351195 23.0265 1.85924 17.8074C2.15349 16.7789 1.78568 15.7884 2.55809 15.1027C2.99947 14.7217 2.52131 14.7217 3.10982 14.7217C3.5512 14.3789 3.1466 13.9979 3.77189 13.1217C4.21326 12.4741 4.28683 13.0074 4.80177 12.1312C5.79487 10.5312 6.45694 10.036 6.56729 9.42649C7.00867 7.02649 11.0179 3.44553 13.519 2.75982C13.7029 2.72172 13.85 2.60744 13.9972 2.49315C14.8799 1.76934 15.3213 1.99792 19.1466 1.38839C19.6615 1.3122 20.1029 1.3503 20.5443 1.65506C22.3834 0.931248 23.4501 0.283629 24.7374 0.778867C25.473 1.04553 25.5098 0.550296 25.6937 0.626486C26.3926 0.816963 27.1282 0.550296 27.7903 0.816963C28.6363 1.15982 30.5489 0.855058 31.1742 1.15982C31.9466 1.54077 31.873 0.816963 32.719 1.69315C33.1604 1.92172 33.7857 1.15982 34.1167 1.95982C34.3006 2.34077 34.742 2.1503 35.073 2.1503C35.588 2.18839 37.5742 3.17887 37.942 4.13125C38.0891 4.5503 37.942 3.7122 40.5903 6.1503C40.811 6.34077 40.7374 6.75982 40.9949 6.79792C44.011 7.36934 45.9236 17.6551 45.188 19.5598C45.1144 19.7122 45.0409 20.5503 45.3351 20.8551C45.7029 21.236 45.6294 21.5027 45.7029 23.1027C45.7029 23.217 45.4087 23.3693 45.1512 23.1027C44.5995 22.5312 45.1144 22.5693 43.7167 23.2551C43.6064 23.3312 43.3489 23.1027 43.4225 22.9503C43.5696 22.417 44.011 22.5312 44.0478 21.8074C44.0845 21.0836 44.2317 20.9312 44.011 20.5884C43.3857 19.5979 44.6363 19.9027 42.7604 18.3408C41.8409 17.5789 41.6569 18.6074 41.7305 18.5312ZM42.2087 11.1408C42.4661 11.1027 42.319 10.7598 42.1351 11.5217C42.319 11.5598 42.2455 11.7122 42.1351 11.636C42.0615 11.5979 42.0983 11.7503 42.2087 11.1408ZM11.6064 43.3693C11.9374 43.7884 11.6431 43.2551 10.9811 43.1408C10.9811 43.0646 10.9811 42.9884 10.9443 42.9122C10.9443 42.836 10.4294 42.8741 11.6064 43.3693ZM14.3282 15.3693C14.2546 15.4074 14.4386 15.636 14.5121 15.2932C14.6592 15.2932 14.6592 15.2932 14.5857 15.217C14.4753 15.3693 14.5857 15.2551 14.3282 15.3693ZM35.8455 5.92172C35.8087 5.95982 35.8455 5.88363 35.7351 5.69315C35.6615 5.57887 35.2569 5.84553 35.8455 5.92172ZM41.8776 13.4265C41.8776 13.0074 41.8776 13.617 41.988 13.7693C42.0615 13.8836 42.1719 13.7693 41.8776 13.4265ZM4.43395 38.4551C4.32361 38.3789 4.43395 37.5789 4.1397 37.8074C4.06614 37.8836 4.43395 38.4932 4.43395 38.4551ZM37.6845 8.43601C37.0225 7.78839 37.5006 7.63601 36.3972 6.9503C36.3236 6.9122 36.0661 7.06458 36.2133 7.29315C36.6914 7.86458 37.1328 7.82649 37.6845 8.43601C37.7581 8.66458 37.7581 9.27411 38.1259 9.04553C38.5305 8.81696 37.7581 8.47411 37.6845 8.43601ZM27.8638 2.60744C27.7535 2.72172 27.7535 2.1122 27.0914 2.37887C26.8707 2.45506 26.319 3.7503 27.8638 2.60744ZM24.8845 2.49315C24.8845 2.37887 24.7742 2.41696 25.6569 2.37887C27.2753 2.30268 23.0087 0.0931532 20.9857 2.64553C20.765 2.9503 21.9052 3.21696 22.8615 2.26458C23.0087 2.1503 23.2661 2.1503 23.45 2.34077C24.4432 3.63601 27.0546 2.98839 24.8845 2.49315ZM40.1489 10.9503C40.0753 10.036 38.4202 9.04553 38.6776 10.0741C38.6776 10.1122 38.7144 10.1503 38.7512 10.1884C40.1121 10.8741 39.8546 11.2932 40.1489 10.9503ZM42.4294 15.4074C41.6202 15.9789 41.7673 15.8265 41.5834 16.0551C41.2523 16.5122 42.2822 16.7027 42.3558 16.1693C42.3926 15.9789 42.3926 15.7503 42.4294 15.4074ZM43.5696 15.7884C43.496 15.636 43.4592 15.2551 43.0546 15.5217C42.5765 15.8265 42.9811 16.6646 43.5696 15.7884ZM41.2891 14.0741C41.1052 14.3408 40.9581 14.3789 41.2523 14.5312C41.5098 14.6455 41.5466 14.5312 41.6569 14.3789C41.6937 14.2646 41.5098 14.1884 41.2891 14.0741ZM43.2386 14.3789C42.8707 13.8836 42.6868 14.5693 43.0546 14.5312C43.1282 14.4932 43.165 14.417 43.2386 14.3789ZM44.4891 25.617C44.4524 25.5789 44.4156 25.3884 44.3052 25.5408C44.2317 25.617 44.342 25.7693 44.4891 25.617ZM9.76729 42.1503L9.84085 42.0741C9.65694 41.7313 9.39947 41.9598 9.76729 42.1503ZM18.0799 2.68363C18.0431 2.79792 18.0064 2.75982 18.1167 2.83601C18.1903 2.72172 18.1903 2.75982 18.0799 2.68363ZM32.8294 42.7979C32.9765 42.6455 32.8661 42.5693 32.7558 42.6074C32.6087 42.6455 32.6455 42.836 32.8294 42.7979Z" fill="#090A0B"/>
<path d="M27.9041 42.3903C28.1326 41.3604 29.1993 41.6179 29.8469 41.6179C29.885 41.6179 30.0374 41.3604 29.885 41.3236C25.466 40.8455 26.1136 42.3903 24.4755 41.2133C24.2469 41.0662 23.9421 41.2501 23.7517 41.434C22.266 43.0524 21.6183 42.6846 21.085 43.8248C22.1136 45.1489 22.2279 45.1121 22.3421 45.9213C22.4183 46.4731 21.0088 46.5098 20.3993 46.4363C16.2088 46.0317 19.9041 45.7742 19.3707 44.3397C19.3326 44.3765 20.5517 44.8179 20.285 44.3397C19.4469 42.9052 20.0564 44.1558 18.4945 43.457C18.4183 43.4202 13.0088 41.8754 12.8183 41.6547C11.9041 40.6616 10.8374 40.8087 10.3802 40.257C8.66596 38.1604 8.89453 39.3742 6.76119 37.1305C5.42786 35.696 5.9612 36.6524 5.1612 35.7328C4.62786 35.1075 4.66596 34.2248 4.17072 34.2248C3.5231 34.2248 2.98977 33.4156 2.83739 32.7167C3.14215 32.3489 3.06596 32.496 3.02786 32.2018C2.79929 32.2754 2.83739 32.1282 2.7231 32.6064C1.61834 31.6868 2.79929 31.9443 2.68501 31.3558C2.64691 31.2455 2.38024 31.3558 2.34215 31.4294C2.30405 31.5765 2.30405 31.7604 2.26596 31.9443C1.54215 30.2156 2.49453 28.7443 1.65644 28.2662C1.38977 28.119 1.27548 27.8983 1.1612 27.6409C1.1231 27.6777 1.08501 27.6777 1.42786 27.6409L1.38977 27.6777C1.73263 26.4271 0.551673 26.5374 0.285006 27.1259C-0.476899 26.611 0.475482 26.7213 0.246913 26.0593C-0.476899 24.0731 0.285006 25.3972 0.627864 23.8156C1.31358 20.5052 0.665958 20.211 1.04691 19.1443C1.08501 19.034 1.04691 18.8868 1.04691 18.7397C0.932624 17.0845 1.08501 17.9305 1.35167 17.5259C1.58025 17.1949 0.780242 16.6064 0.361194 16.4225C-0.0959479 16.2018 0.361198 15.6133 0.627864 15.7604C0.704055 15.7972 1.42786 16.3121 1.42786 15.9075C1.42786 15.5397 1.50405 15.3558 1.9612 15.319C2.26596 15.319 2.38024 14.9512 2.18977 14.6937C1.88501 14.2524 1.46596 14.1052 2.38024 13.9213C2.60882 13.8845 2.38024 13.0386 1.58025 14.0317C-1.12452 15.9075 5.84691 4.9834 8.24691 4.46846C10.3041 4.02708 11.9802 2.70294 13.1612 2.62937C15.3326 2.48225 14.7993 0.863857 17.3898 0.863858C18.685 0.863858 19.4469 0.128225 20.0945 1.26846C20.7422 2.40869 23.4088 1.01098 28.6279 2.51903C29.6564 2.81328 30.6469 2.44547 31.3326 3.21788C31.7136 3.65926 31.7136 3.1811 31.7136 3.76961C32.0564 4.21099 32.4374 3.80639 33.3136 4.43167C33.9612 4.87305 33.4279 4.94662 34.3041 5.46156C35.9041 6.45466 36.3993 7.11673 37.0088 7.22708C39.4088 7.66846 42.9898 11.6777 43.6755 14.1788C43.7136 14.3627 43.8279 14.5098 43.9421 14.657C44.666 15.5397 44.4374 15.9811 45.0469 19.8064C45.1231 20.3213 45.085 20.7627 44.7802 21.2041C45.5041 23.0432 46.1517 24.1098 45.6564 25.3972C45.3898 26.1328 45.885 26.1696 45.8088 26.3535C45.6183 27.0524 45.885 27.788 45.6183 28.4501C45.2755 29.296 45.5802 31.2087 45.2755 31.834C44.8945 32.6064 45.6183 32.5328 44.7421 33.3788C44.5136 33.8202 45.2755 34.4455 44.4755 34.7765C44.0945 34.9604 44.285 35.4018 44.285 35.7328C44.2469 36.2478 43.2564 38.234 42.3041 38.6018C41.885 38.7489 42.7231 38.6018 40.285 41.2501C40.0945 41.4708 39.6755 41.3972 39.6374 41.6547C39.066 44.6708 28.7802 46.5834 26.8755 45.8478C26.7231 45.7742 25.885 45.7006 25.5802 45.9949C25.1993 46.3627 24.9326 46.2891 23.3326 46.3627C23.2183 46.3627 23.066 46.0685 23.3326 45.811C23.9041 45.2593 23.866 45.7742 23.1802 44.3765C23.1041 44.2662 23.3326 44.0087 23.485 44.0823C24.0183 44.2294 23.9041 44.6708 24.6279 44.7075C25.3517 44.7443 25.5041 44.8914 25.8469 44.6708C26.8374 44.0455 26.5326 45.296 28.0945 43.4202C28.8564 42.5006 27.8279 42.3167 27.9041 42.3903ZM35.2945 42.8685C35.3326 43.1259 35.6755 42.9788 34.9136 42.7949C34.8755 42.9788 34.7231 42.9052 34.7993 42.7949C34.8374 42.7213 34.685 42.7581 35.2945 42.8685ZM3.06596 12.2662C2.64691 12.5972 3.18024 12.3029 3.29453 11.6409C3.37072 11.6409 3.44691 11.6409 3.5231 11.6041C3.59929 11.6041 3.5612 11.0891 3.06596 12.2662ZM31.066 14.988C31.0279 14.9144 30.7993 15.0983 31.1421 15.1719C31.1421 15.319 31.1421 15.319 31.2183 15.2455C31.066 15.1351 31.1802 15.2455 31.066 14.988ZM40.5136 36.5052C40.4755 36.4685 40.5517 36.5052 40.7421 36.3949C40.8564 36.3213 40.5898 35.9167 40.5136 36.5052ZM33.0088 42.5374C33.4279 42.5374 32.8183 42.5374 32.666 42.6478C32.5517 42.7213 32.666 42.8317 33.0088 42.5374ZM7.98024 5.09374C8.05643 4.9834 8.85644 5.09374 8.62786 4.79949C8.55167 4.72593 7.94215 5.09374 7.98024 5.09374ZM37.9993 38.3443C38.6469 37.6823 38.7993 38.1604 39.485 37.057C39.5231 36.9834 39.3707 36.7259 39.1421 36.8731C38.5707 37.3512 38.6088 37.7926 37.9993 38.3443C37.7707 38.4179 37.1612 38.4179 37.3898 38.7857C37.6183 39.1903 37.9612 38.4179 37.9993 38.3443ZM43.8279 28.5236C43.7136 28.4133 44.3231 28.4133 44.0564 27.7512C43.9802 27.5305 42.685 26.9788 43.8279 28.5236ZM43.9421 25.5443C44.0564 25.5443 44.0183 25.434 44.0564 26.3167C44.1326 27.9351 46.3421 23.6685 43.7898 21.6455C43.485 21.4248 43.2183 22.565 44.1707 23.5213C44.285 23.6685 44.285 23.9259 44.0945 24.1098C42.7993 25.1029 43.4469 27.7144 43.9421 25.5443ZM35.485 40.8087C36.3993 40.7351 37.3898 39.08 36.3612 39.3374C36.3231 39.3374 36.285 39.3742 36.2469 39.411C35.5612 40.7719 35.1421 40.5144 35.485 40.8087ZM31.0279 43.0891C30.4564 42.28 30.6088 42.4271 30.3802 42.2432C29.9231 41.9121 29.7326 42.942 30.266 43.0156C30.4564 43.0524 30.685 43.0524 31.0279 43.0891ZM30.6469 44.2294C30.7993 44.1558 31.1802 44.119 30.9136 43.7144C30.6088 43.2363 29.7707 43.6409 30.6469 44.2294ZM32.3612 41.9489C32.0945 41.765 32.0564 41.6179 31.9041 41.9121C31.7898 42.1696 31.9041 42.2064 32.0564 42.3167C32.1707 42.3535 32.2469 42.1696 32.3612 41.9489ZM32.0564 43.8983C32.5517 43.5305 31.866 43.3466 31.9041 43.7144C31.9421 43.788 32.0183 43.8248 32.0564 43.8983ZM20.8183 45.1489C20.8564 45.1121 21.0469 45.0754 20.8945 44.965C20.8183 44.8914 20.666 45.0018 20.8183 45.1489ZM4.28501 10.4271L4.3612 10.5006C4.70405 10.3167 4.47548 10.0593 4.28501 10.4271ZM43.7517 18.7397C43.6374 18.7029 43.6755 18.6662 43.5993 18.7765C43.7136 18.8501 43.6755 18.8501 43.7517 18.7397ZM3.63739 33.4891C3.78977 33.6363 3.86596 33.5259 3.82786 33.4156C3.78977 33.2685 3.59929 33.3052 3.63739 33.4891Z" fill="#090A0B"/>
<path d="M41.6936 18.5695C42.0614 18.7981 42.5028 18.6457 42.5028 19.4838C42.4293 19.5219 42.2821 19.3314 42.2453 19.5219C42.3189 19.4838 42.3925 19.4838 42.466 19.4457C42.5028 19.5219 42.7603 20.1314 42.3925 20.1695C41.6936 20.2076 41.3258 20.2838 41.3258 20.0171C41.3626 19.2933 41.7672 18.4933 41.6936 18.5695Z" fill="#090A0B"/>
<path d="M43.7167 27.0645C43.1282 27.9787 44.5627 28.2454 43.7167 27.0645V27.0645Z" fill="#090A0B"/>
<path d="M26.7604 45.8455C27.0914 44.6264 27.165 45.655 26.7604 45.8455V45.8455Z" fill="#090A0B"/>
<path d="M2.81548 14.7215C3.14652 14.7215 3.10973 14.7596 3.10973 14.7215C2.81548 14.7215 2.7787 14.6834 2.81548 14.7215Z" fill="#090A0B"/>
<path d="M26.7603 45.8457C26.4293 46.1886 26.4661 46.1505 26.5029 46.1505C26.8339 45.8076 26.7971 45.8838 26.7603 45.8457Z" fill="#090A0B"/>
</g>
<path d="M15.6864 14.4761C15.971 13.392 16.8157 12.5428 17.8999 12.2627C16.8157 11.9781 15.9665 11.1334 15.6864 10.0493C15.4019 11.1334 14.5571 11.9827 13.473 12.2627C14.5571 12.5428 15.4064 13.3875 15.6864 14.4761Z" fill="white"/>
<path d="M35.6704 29.7035C36.5286 29.7035 37.2243 29.0078 37.2243 28.1496C37.2243 27.2914 36.5286 26.5957 35.6704 26.5957C34.8122 26.5957 34.1165 27.2914 34.1165 28.1496C34.1165 29.0078 34.8122 29.7035 35.6704 29.7035Z" fill="white"/>
<path d="M11.4087 18.7087C11.9076 18.7087 12.3121 18.3042 12.3121 17.8053C12.3121 17.3063 11.9076 16.9019 11.4087 16.9019C10.9097 16.9019 10.5052 17.3063 10.5052 17.8053C10.5052 18.3042 10.9097 18.7087 11.4087 18.7087Z" fill="white"/>
<path d="M32.2102 34.781C32.7092 34.781 33.1136 34.3765 33.1136 33.8776C33.1136 33.3786 32.7092 32.9741 32.2102 32.9741C31.7112 32.9741 31.3068 33.3786 31.3068 33.8776C31.3068 34.3765 31.7112 34.781 32.2102 34.781Z" fill="white"/>
<path d="M37.545 17.9498C36.7229 16.1293 34.0758 15.7047 30.7331 16.1881C30.7828 16.2332 30.828 16.2739 30.8777 16.3191L30.9544 16.3868C31.2029 16.6172 31.4197 16.8385 31.6185 17.0554L31.7359 17.1864C31.885 17.358 32.025 17.5251 32.156 17.6968C32.2735 17.8504 32.3774 18.013 32.4903 18.1756C32.7116 18.1621 32.9285 18.1575 33.1272 18.1575C34.5366 18.1575 35.3903 18.4376 35.571 18.8442C36.0543 19.9102 32.8291 23.8718 25.1951 27.3274C21.8795 28.8271 18.591 29.8164 15.9349 30.119C13.1568 30.4307 12.1314 29.8661 11.9778 29.5227C11.8423 29.2201 12.023 28.285 13.5001 26.7718C13.4414 26.5459 13.3917 26.3201 13.3465 26.0897C13.2833 25.7509 13.2471 25.4889 13.22 25.2314C13.1839 24.8746 13.1658 24.5222 13.1658 24.1835C13.1658 24.1654 13.1658 24.1518 13.1658 24.1338C13.0032 24.2738 12.8361 24.4093 12.6825 24.5493C9.56564 27.3816 9.50692 29.2969 10.0083 30.4036C10.4329 31.3432 11.5577 32.364 14.4487 32.364C14.9682 32.364 15.5419 32.3324 16.1788 32.2602C19.0562 31.9349 22.5751 30.8824 26.0895 29.2924C32.933 26.1981 39.0673 21.306 37.545 17.9498Z" fill="white"/>
<path d="M14.0739 24.179C14.0739 24.4997 14.0919 24.8204 14.1235 25.1366C14.1506 25.4031 14.1913 25.6606 14.241 25.9226C14.4578 27.1242 14.896 28.2444 15.5148 29.2472C15.6187 29.2382 15.7271 29.2292 15.8355 29.2156C18.4013 28.9265 21.5949 27.9598 24.8247 26.5008C28.8043 24.703 31.483 22.7786 33.0415 21.3151C32.6982 20.1948 32.1471 19.1604 31.4469 18.2479C31.3204 18.0898 31.1939 17.9362 31.0629 17.7826C31.0268 17.742 30.9861 17.7013 30.95 17.6607C30.7558 17.4484 30.557 17.2451 30.3447 17.0509C30.2453 16.9605 30.146 16.8657 30.0466 16.7798C29.9472 16.6985 29.8478 16.6172 29.7484 16.5404C28.0997 15.253 26.0308 14.4761 23.7767 14.4761C18.4194 14.4761 14.0739 18.8216 14.0739 24.179Z" fill="white"/>
<path d="M19.0969 32.6669C20.4837 33.4394 22.0737 33.8821 23.7767 33.8821C28.4113 33.8821 32.2825 30.6297 33.2402 26.2842C31.2617 27.6981 28.9037 29.0126 26.4644 30.1193C23.9393 31.2576 21.4097 32.1294 19.0969 32.6669Z" fill="white"/>
</g>
<defs>
<clipPath id="clip0_2308_7269">
<rect width="45.8667" height="45.8667" fill="white" transform="translate(0.41333 0.626465)"/>
</clipPath>
<clipPath id="clip1_2308_7269">
<rect width="45.8667" height="45.8667" fill="white" transform="translate(-0.0167236 0.626465)"/>
</clipPath>
</defs>
</svg>
