<svg width="32" height="32" viewBox="0 0 32 32" fill="none" xmlns="http://www.w3.org/2000/svg">
<g clip-path="url(#clip0_61_2042)">
<path d="M20.2959 20.196C20.2359 20.124 20.1759 20.052 20.1459 20.0159C20.104 19.7459 20.062 19.4758 20.0861 19.2117C20.0742 18.9777 20.1762 18.9537 20.6142 19.2599L20.6442 19.2959L20.6502 19.2299C20.6683 19.0319 20.9444 18.9239 20.6024 18.6598C20.4824 18.5157 20.5545 18.4557 20.5905 18.4257C20.8426 18.2158 20.7767 17.8437 21.0948 17.6397C21.2329 17.5857 21.221 17.3517 21.233 17.2197C21.2211 16.9856 21.2691 16.8236 21.4792 16.7096C21.7253 16.5657 21.7794 16.3376 21.8335 16.1096C21.8876 15.8815 21.8756 15.6475 21.9297 15.4195C21.9717 15.3234 21.8818 15.2154 22.1158 15.2035C22.1518 15.1735 22.3499 15.1915 22.1879 15.1435C21.6718 14.9633 21.9539 14.7893 22.032 14.6633C22.068 14.6333 22.074 14.5673 21.978 14.5253C21.5279 14.3511 21.7801 14.1411 21.9541 14.0572C22.0982 13.9372 22.1702 13.8772 22.0503 13.7331C21.9003 13.553 21.7863 13.3429 21.7684 13.1749C21.7444 13.0729 21.7504 13.0069 21.7625 12.8748C21.7325 12.8388 21.7745 12.7428 21.7865 12.6108C21.8346 12.4488 21.8166 12.2807 21.7987 12.1127C21.7447 11.9746 21.6968 11.7706 21.6428 11.6325C21.6249 11.4645 21.5769 11.2604 21.5229 11.1224L21.3371 10.6062C21.2531 10.4321 21.1991 10.2941 21.1152 10.12C21.0672 9.91595 21.0132 9.7779 20.9653 9.57384C20.9173 9.36978 20.6953 9.24969 20.6114 9.07562C20.5514 9.00359 20.4974 8.86554 20.6775 8.71556C20.8876 8.6016 20.8395 8.76362 20.8995 8.83566C20.9295 8.87167 20.9295 8.87167 21.0255 8.91371C21.2116 8.69772 21.3977 8.48173 21.0016 8.4456L20.9356 8.43958C20.6776 8.34948 20.3355 8.4514 20.1435 8.36732C19.9154 8.31324 19.9095 8.01317 19.6755 8.0251C19.6815 7.95908 19.6875 7.89307 19.7235 7.86308C20.2098 7.27509 20.1139 6.86697 19.5257 7.11285C18.8715 7.3527 18.5595 7.12455 18.3495 6.87243C18.1396 6.62031 17.8155 6.52419 17.4915 6.42807C17.4915 6.42807 17.4555 6.45806 17.4255 6.42204C17.3055 6.27797 17.1014 6.32592 16.9454 6.21185C16.7894 6.09778 17.0236 5.71976 17.0117 5.48571C16.9937 5.31766 16.9277 5.31164 16.8617 5.30562L16.8317 5.2696L16.8557 5.37163C16.7594 6.06176 16.7294 6.02574 16.3633 6.02563C15.5352 5.98336 14.8031 5.61706 14.0049 5.61081C13.6749 5.5807 13.3688 5.65262 13.0027 5.65251C12.6666 5.68842 12.3305 5.72432 11.9944 5.76022C11.6583 5.79613 11.3223 5.83203 11.0101 5.96997C10.8721 6.02394 10.668 6.07189 10.53 6.12586C10.3559 6.20982 10.2479 6.29981 10.1038 6.41979C9.89372 6.53375 9.68364 6.64771 9.47356 6.76168C9.37153 6.78565 9.26348 6.87564 9.16145 6.89961C9.08941 6.9596 8.98136 7.04959 8.93932 7.1456C8.9033 7.17559 8.83729 7.16957 8.77128 7.16355C8.59732 6.88143 8.64538 6.71941 8.77741 6.73146C9.01147 6.71952 9.15554 6.59954 9.29961 6.47956C9.44368 6.35958 9.59377 6.17358 9.76783 6.08962C9.97791 5.97565 10.188 5.86169 10.3921 5.81374C9.76806 5.35745 9.60581 6.04155 9.28768 6.2455C8.87353 6.40741 8.51336 6.70737 8.1892 6.97733C7.89504 7.28331 7.53487 7.58327 7.2707 7.92526C7.19867 7.98525 7.06062 8.03922 6.95257 8.12921C6.88054 8.1892 6.71249 8.20715 6.67045 8.30316C6.56831 8.69322 6.40618 9.01124 6.24404 9.32926C6.15996 9.52128 6.08191 9.64728 5.96783 9.80328L5.69162 10.2773C5.61357 10.4033 5.6255 10.6374 5.70946 10.8114C6.12349 11.0156 6.10543 11.2136 6.05135 11.4417C5.99124 11.7357 5.96114 12.0658 5.83502 12.3538C5.48666 13.2539 5.66039 14.2682 5.84616 15.1505C5.88809 15.4205 5.96001 15.7266 5.96592 16.0267C6.03784 16.3328 6.14578 16.6089 6.32575 16.825C6.41574 16.933 6.4037 17.0651 6.16362 17.143C5.95354 17.257 5.9716 17.0589 5.91161 16.9869C5.88162 16.9509 5.88161 16.9509 5.75561 16.8728C5.86946 17.449 6.19339 17.9112 6.52334 18.3074C6.70332 18.5235 6.8533 18.7036 7.03327 18.9197C7.21324 19.1358 7.39924 19.2859 7.68727 19.412C7.59728 19.3039 7.50729 19.1959 7.41731 19.0878C7.32732 18.9798 7.23733 18.8717 7.14734 18.7637C7.05736 18.6556 6.96737 18.5476 6.87738 18.4395C6.82341 18.3015 6.76944 18.1634 6.75149 17.9954C7.11155 18.0615 7.4415 18.4577 7.83145 18.9259C7.98143 19.106 8.16742 19.2561 8.35342 19.4062C8.57543 19.5263 8.76143 19.6764 8.91743 19.7904C9.10342 19.9405 9.33146 19.9946 9.52348 20.0787C9.71549 20.1628 9.90149 20.3129 9.97943 20.5529C9.26533 20.3547 8.64133 19.8984 7.9453 19.5021C7.78316 19.8201 8.02324 19.7422 8.11925 19.7842C9.69118 21.159 11.7614 21.8138 13.7959 21.7664C14.9962 21.7428 16.1006 21.311 17.1389 20.8732C17.277 20.8192 17.415 20.7653 17.5531 20.7113L17.9372 20.5134C18.2133 20.4054 18.4955 20.2315 18.7416 20.0875C18.8136 20.0275 18.9156 20.0036 19.0356 20.1476C19.1556 20.2917 19.1435 20.4237 19.0715 20.4837C18.8614 20.5977 18.7113 20.7837 18.5252 20.9997C18.3451 21.1496 18.159 21.3656 17.9489 21.4796C17.0366 21.9954 15.9803 22.2652 14.96 22.5049C13.8016 22.7986 12.5894 22.5882 11.4372 22.4498C9.99091 22.2513 8.69485 21.5008 7.47082 20.6902C6.02478 19.7595 5.06503 18.2409 4.44739 16.6204C3.63785 14.5496 3.7526 12.1971 4.57542 10.1089C5.42825 8.05672 6.95313 6.2988 8.88591 5.17714C9.66023 4.71527 10.5366 4.22943 11.4188 4.04366C12.5412 3.77995 13.6754 3.75029 14.7316 3.84663C15.8178 3.979 16.892 4.24339 17.8881 4.63378C19.1722 5.15029 20.3363 5.88882 21.2062 6.93332C22.016 7.90579 22.5798 9.02222 23.0776 10.1326C23.6773 11.5851 23.8988 13.1696 23.8863 14.7659C23.8381 15.6601 23.5917 16.5362 23.4474 17.3884C23.4234 17.6524 23.3333 17.9105 23.2132 18.1325C23.1231 18.3905 23.003 18.6125 22.8829 18.8345C22.7628 19.0565 22.6427 19.2785 22.4866 19.5306C22.3665 19.7526 22.2464 19.9746 22.1563 20.2326C22.0722 20.4246 21.9521 20.6466 21.718 20.6586C21.412 20.7305 21.2019 20.8445 20.9618 20.9224C20.7517 21.0364 20.5056 21.1803 20.3255 21.3303C20.2535 21.3903 20.1875 21.3843 20.0315 21.2702C20.1336 20.8801 20.3918 20.6042 20.6139 20.3582C20.806 20.0762 21.0942 19.8362 21.1003 19.4041C20.9682 19.7581 20.4401 19.71 20.3379 20.1C20.3619 20.2021 20.2959 20.196 20.2959 20.196ZM5.10263 13.0858C4.94652 13.3378 4.98844 13.6078 5.1324 13.8539C5.0423 14.112 5.02412 14.6761 5.14399 15.1862C5.18592 15.4563 5.29386 15.7324 5.37782 15.9065C5.49178 16.1166 5.57575 16.2906 5.67176 16.3327C5.43793 15.6124 5.30011 14.9342 5.26431 14.2321C5.24636 14.064 5.22239 13.962 5.1024 13.8179C5.15649 13.5899 5.24658 13.3319 5.10263 13.0858ZM5.42723 11.3515C5.22908 11.6995 5.09092 12.1195 5.22284 12.4977C5.42099 12.1496 5.55313 11.7956 5.42723 11.3515ZM5.64345 10.8054C5.43939 10.8534 5.42735 10.9854 5.54733 11.1295C5.7214 11.0455 5.60141 10.9014 5.64345 10.8054ZM11.2264 5.42391C11.0823 5.5439 10.8003 5.35177 10.6502 5.53776C10.8722 5.65786 11.0463 5.57389 11.2264 5.42391ZM12.2467 5.18417L12.2527 5.11816C12.1507 5.14213 11.9826 5.16009 11.8806 5.18406L11.8746 5.25007C12.0066 5.26212 12.1446 5.20815 12.2467 5.18417ZM14.5152 5.12486C14.4252 5.0168 14.3232 5.04078 14.2212 5.06475C14.3111 5.1728 14.3651 5.31085 14.4732 5.22086C14.5092 5.19087 14.5152 5.12486 14.5152 5.12486ZM17.5937 5.67193C17.5637 5.63591 17.5698 5.5699 17.5698 5.5699C17.5337 5.59989 17.4317 5.62387 17.3957 5.65386C17.3536 5.74987 17.3836 5.78589 17.4497 5.79191C17.4797 5.82793 17.5517 5.76793 17.5937 5.67193ZM18.1398 5.88814C18.1458 5.82213 18.1098 5.85213 18.1398 5.88814C18.1458 5.82213 18.1158 5.78611 18.0798 5.81611C18.0438 5.8461 18.0438 5.8461 18.1398 5.88814ZM19.2259 6.38659C19.0639 6.33853 19.0339 6.30251 18.9678 6.29649C18.9018 6.29047 18.8779 6.18844 18.7638 6.34444C18.7278 6.37443 18.7217 6.44045 18.7157 6.50646C18.7037 6.63849 18.8057 6.61451 18.8777 6.55452C18.8838 6.48851 18.9858 6.46453 19.2259 6.38659ZM20.5698 7.7073C20.6058 7.6773 20.5758 7.64129 20.5458 7.60527C20.5158 7.56925 20.4498 7.56323 20.3778 7.62322C20.3778 7.62322 20.4078 7.65924 20.4017 7.72525C20.4317 7.76127 20.4617 7.79729 20.5698 7.7073ZM21.5775 9.43C21.6135 9.4 21.6495 9.37001 21.6195 9.33399C21.5895 9.29797 21.5175 9.35796 21.5175 9.35796C21.4815 9.38796 21.4454 9.41796 21.4754 9.45397C21.4754 9.45397 21.5415 9.45999 21.5775 9.43ZM21.8233 10.0182C21.8594 9.98821 21.8954 9.95822 21.9014 9.8922C21.9074 9.82619 21.9074 9.82619 21.8414 9.82017C21.8054 9.85016 21.7694 9.88016 21.7634 9.94617C21.7573 10.0122 21.7573 10.0122 21.8233 10.0182ZM22.591 11.8188C22.471 11.6748 22.309 11.6267 22.1169 11.5426C22.2969 11.7587 22.2969 11.7587 22.591 11.8188ZM22.6985 13.5593C22.7045 13.4933 22.7045 13.4933 22.6385 13.4872C22.5724 13.4812 22.5364 13.5112 22.6324 13.5533C22.6324 13.5533 22.6685 13.5233 22.6985 13.5593ZM22.7583 13.9974C22.7943 13.9674 22.8304 13.9374 22.8304 13.9374C22.8004 13.9014 22.7764 13.7994 22.7104 13.7933C22.5784 13.7813 22.6084 13.8173 22.6023 13.8833C22.5963 13.9493 22.6263 13.9853 22.7583 13.9974ZM22.1751 17.472L22.1272 17.2679C22.1872 17.34 22.0491 17.3939 22.1751 17.472ZM21.6827 18.4921L21.7547 18.4321C21.7547 18.4321 21.6287 18.354 21.6827 18.4921Z" fill="black"/>
<path d="M6.57942 18.1554C6.57942 17.8273 6.53255 17.5929 6.39194 17.3585C6.25132 17.1242 6.1107 16.8898 5.92321 16.6555C5.82947 16.9836 5.87634 17.2648 6.06383 17.4992C6.20445 17.7335 6.39194 17.9679 6.57942 18.1554Z" fill="black"/>
<path d="M5.26707 14.2181C5.40768 14.4994 5.22019 14.8275 5.59517 15.0618C5.64204 14.9212 5.68891 14.7337 5.73579 14.5931C5.73579 14.4525 5.73579 14.3119 5.73579 14.1713C5.73579 14.1244 5.59517 14.0775 5.50143 14.0775C5.26707 14.0775 5.22019 14.1244 5.26707 14.2181Z" fill="black"/>
<path d="M17.5944 20.9208C17.3132 20.874 17.0789 20.874 17.032 21.2958C17.2663 21.2958 17.5007 21.2489 17.5944 20.9208Z" fill="black"/>
<path d="M19 20.8444C20.5 21.1999 21.75 21.1999 22 17.9999C20.75 17.9999 19.5 18.3555 19 20.8444Z" fill="black"/>
<path d="M12.1105 22.28C12.2042 22.28 12.3448 22.5144 12.3917 22.1863C12.4386 21.9519 12.3448 21.8582 12.2042 21.9051C12.1105 21.9519 11.9698 21.7176 11.8761 22.0926C11.7823 22.3738 12.0167 22.28 12.1105 22.28Z" fill="black"/>
<path d="M12.8603 5.40619C12.7666 5.45306 12.7197 5.54681 12.7197 5.68742C12.7197 5.87491 12.8135 5.96865 12.9541 5.96865C13.0478 5.92178 13.0947 5.87491 13.0947 5.68742C13.0478 5.49993 12.9541 5.45306 12.8603 5.40619Z" fill="black"/>
<path d="M5.59515 16.3743C5.59515 16.468 5.73577 16.468 5.87639 16.468C5.97013 16.468 6.017 16.4211 6.017 16.3743C6.017 16.2805 5.92326 16.2336 5.78264 16.2336C5.59515 16.2805 5.54828 16.3274 5.59515 16.3743Z" fill="black"/>
<path d="M5.64203 15.8117C5.73577 15.6711 5.78264 15.5774 5.54828 15.4368C5.54828 15.5774 5.36079 15.718 5.64203 15.8117Z" fill="black"/>
<path d="M20.4068 20.6864C20.4537 20.6395 20.5474 20.5457 20.5474 20.5457C20.7349 20.4051 20.8755 20.3114 21.0161 20.2176C21.1568 20.1239 21.1099 20.1708 20.7349 20.5457L20.688 20.5926H20.7349C20.8287 20.5457 20.7349 20.6864 21.063 20.4051C21.2036 20.3114 21.2036 20.3114 21.2036 20.3114C21.2036 20.4051 21.3911 20.2645 21.2974 20.452C21.2505 20.4989 21.3442 20.4989 21.3911 20.452C21.4849 20.4051 21.5317 20.4051 21.4849 20.5457C21.2974 20.827 21.5786 20.6864 21.6255 20.7801C21.6255 20.827 21.7192 20.7332 21.5317 20.9207C21.5317 20.9676 21.3911 21.0613 21.4849 20.9676C21.8598 20.5926 21.7192 20.827 21.7192 20.8739C21.7192 20.8739 21.7192 20.8739 21.813 20.827C22.1879 20.4989 22.0005 20.7332 21.9067 20.827C21.813 20.9676 21.7661 21.0145 21.8598 20.9207C22.1411 20.7332 22.1879 20.7801 22.0942 21.0145C22.0473 21.1551 22.1879 21.1082 22.1879 21.202C22.2348 21.3426 22.4223 21.3426 22.3754 21.6238C22.3754 21.6707 22.4692 21.6238 22.516 21.6707C22.516 21.6707 22.5629 21.7176 22.3286 21.905C22.1411 22.0925 22.2348 21.9519 22.1879 21.9519H22.1411C21.9536 22.1863 21.7661 22.3738 22.0005 22.1863C22.0005 22.1863 22.0473 22.1863 22.0473 22.1394C22.1879 22.0925 22.4223 21.8582 22.516 21.7644C22.6098 21.7176 22.516 21.8582 22.7035 21.7644C22.6567 21.8113 22.6567 21.8582 22.6098 21.8582C22.0942 22.4206 21.9536 22.6081 22.4223 22.2331C22.891 21.8113 22.9379 21.905 22.9379 21.9988C22.9379 22.0925 22.9848 22.1394 23.0785 22.0925H23.1254C23.1254 22.1394 23.2191 22.1394 23.1723 22.1863C23.1723 22.2331 22.8442 22.5144 22.7035 22.7019C22.7035 22.7487 22.7504 22.7487 22.7504 22.7487V22.7956L22.7973 22.7487C23.266 22.2331 23.2191 22.28 23.3597 22.2331C23.641 22.1863 23.5941 22.4675 23.7347 22.5612C23.8285 22.655 23.9222 22.7487 23.9691 22.8425C24.016 22.9831 24.0628 23.1237 24.2503 23.1237C24.3909 23.1237 24.2972 23.3581 24.4378 23.3112C24.4378 23.3112 24.4378 23.3581 24.3909 23.3581C24.1566 23.5924 24.0628 23.6393 24.1097 23.5924C24.2034 23.3581 24.016 23.4987 23.9222 23.4518C23.8753 23.4518 23.8753 23.4049 23.8285 23.3581C23.4066 23.8737 23.8753 23.5456 23.8753 23.5924C23.9222 23.733 24.1097 23.8268 24.2034 23.9205C24.2034 23.9205 24.1566 24.0143 24.1566 24.0612C24.1566 24.108 24.1097 24.1549 24.1097 24.1549C24.3909 24.0612 24.4378 24.1549 24.4847 24.2955C24.4847 24.3424 24.5784 24.2955 24.6722 24.2018C25.0003 23.8737 25.0471 23.8737 25.094 23.8737C25.1409 23.9205 25.2346 23.9205 25.2346 24.0143C25.2346 24.2486 25.469 24.2955 25.6565 24.3893C25.7502 24.4361 25.7033 24.6705 25.9377 24.6236C25.9846 24.6236 25.9377 24.6705 25.7971 24.858C25.6565 24.9986 25.7033 24.9517 25.6565 24.9517C25.6565 24.9517 25.6096 24.9517 25.5627 24.9986C25.5627 25.1392 25.7033 25.1392 25.7971 25.1861C25.8908 25.1861 25.9377 25.3267 26.1721 25.233C26.1721 25.0923 25.8908 25.1861 26.0315 24.9517C26.2658 24.7642 26.4064 24.8111 26.4533 24.9049C26.5002 24.9986 26.6877 24.9517 26.7345 24.9986C26.7814 25.0923 27.0626 24.9049 26.8752 25.233C26.6408 25.233 26.547 25.1392 26.3127 25.1861C26.1252 25.4204 26.2658 25.2798 26.2658 25.2798C26.5939 25.4673 26.9689 25.6548 27.297 25.936C27.4845 26.0767 27.7657 26.1235 27.8595 26.311C27.9063 26.4048 27.9532 26.5454 28.0001 26.686C28.0001 26.686 28.0001 26.7329 27.8595 26.8735C27.7188 27.0141 27.6251 27.061 27.6251 27.061C27.5782 26.9672 27.3439 27.061 27.297 27.0141C27.1564 26.8735 27.1095 26.686 26.8752 26.6391C26.6408 26.5922 26.5939 26.3579 26.3127 26.311C26.0315 26.2641 25.8908 26.0298 25.5627 25.9829C25.1878 25.936 25.0003 25.7485 24.719 25.6548C24.016 25.3267 23.6878 24.6705 23.0785 24.2486C22.9379 24.1549 22.7504 24.1549 22.6567 24.0143C22.4223 23.7799 22.2348 23.4518 21.9067 23.3112C21.7192 23.2175 21.4849 23.1237 21.3911 22.9362C21.2974 22.7487 21.2505 22.5612 21.063 22.4206C20.8755 22.28 20.688 22.0925 20.4068 22.0457C20.2662 21.9988 20.2193 21.8582 19.985 21.8582C19.7506 21.905 19.7975 21.6238 19.4694 21.7175C19.4225 21.7175 19.3756 21.7175 19.4225 21.6238C19.61 21.3426 19.6569 21.202 19.61 21.1082C19.61 21.1082 19.6569 21.0613 19.7506 20.9207C20.1256 20.6864 19.9381 21.0613 20.3131 20.827C20.2193 20.8739 20.4537 20.5457 20.2662 20.5926C20.3599 20.7332 20.3599 20.6864 20.4068 20.6864ZM25.0003 24.6236C24.9534 24.7642 25.0003 24.7642 25.1409 24.6705C25.0471 24.9049 25.3284 25.0455 25.5627 24.9049C25.469 24.8111 25.3752 24.7174 25.2815 24.6236C25.2815 24.6236 25.2346 24.6236 25.1409 24.6705C25.1409 24.6236 25.1878 24.5299 25.0003 24.6236ZM24.8128 24.3893C24.7659 24.5299 24.8128 24.5767 25.0003 24.5299C25.0471 24.3424 25.0003 24.2955 24.8128 24.3893ZM24.7659 24.2955C24.6722 24.4361 24.6722 24.4361 24.8128 24.3424C24.9065 24.2018 24.719 24.3424 24.7659 24.2955ZM23.641 23.3112C23.6878 23.3112 23.5472 23.4987 23.641 23.4518C23.7816 23.2643 23.7347 23.3112 23.641 23.3112ZM23.5472 23.1706C23.5472 23.2175 23.5472 23.2643 23.5472 23.2643L23.5941 23.2175L23.5472 23.1706ZM23.266 22.8894C23.2191 22.9831 23.2191 22.9831 23.266 22.9362C23.3597 22.8425 23.4066 22.7487 23.3597 22.7956C23.3129 22.7956 23.266 22.8425 23.266 22.8894ZM22.6567 22.655C22.6567 22.7019 22.6098 22.7487 22.6098 22.7019C22.6567 22.7019 22.7035 22.655 22.7504 22.6081C22.7973 22.5612 22.8442 22.5144 22.8442 22.5144C22.7973 22.5612 22.7504 22.6081 22.6567 22.655ZM22.5629 22.655C22.516 22.655 22.516 22.655 22.5629 22.655C22.516 22.655 22.516 22.7019 22.5629 22.655ZM22.2817 22.6081C22.3286 22.6081 22.3286 22.6081 22.3754 22.5612C22.4223 22.5612 22.3754 22.6081 22.516 22.4675C22.5629 22.4206 22.6098 22.3738 22.6098 22.3738C22.7035 22.28 22.6098 22.3269 22.5629 22.3738C22.516 22.4206 22.4692 22.4675 22.2817 22.6081ZM22.0942 22.3269C22.0942 22.3738 22.0942 22.3738 22.1879 22.28C22.1879 22.28 22.1879 22.28 22.1879 22.2331C22.1879 22.2331 22.1879 22.2331 22.0942 22.3269ZM22.0005 21.9519C21.9536 21.9988 21.9536 22.0457 21.9536 21.9988C21.9536 21.9988 22.0005 21.9519 22.0473 21.905C22.0942 21.8582 22.0942 21.8113 22.0942 21.8582C22.0473 21.905 22.0005 21.905 22.0005 21.9519ZM21.9067 21.8582C21.8598 21.905 21.8598 21.905 21.813 21.9519C21.813 21.9988 21.813 21.9519 21.8598 21.9519C21.9067 21.905 21.9536 21.8582 21.9067 21.8582C22.0005 21.8113 21.9536 21.8113 21.9067 21.8582ZM21.5786 21.7175C21.6724 21.6707 21.7661 21.5769 21.9067 21.4832C21.813 21.5301 21.813 21.5301 21.5786 21.7175ZM21.438 21.4363C21.5317 21.3894 21.5317 21.3426 21.4849 21.3894L21.438 21.4363ZM21.3442 21.3894L21.2974 21.4363C21.2974 21.4363 21.3442 21.3894 21.3911 21.3426C21.4849 21.2488 21.438 21.2488 21.438 21.2488C21.438 21.2957 21.3911 21.3426 21.3442 21.3894ZM20.7349 21.1082C20.7818 21.1082 20.7818 21.0613 20.8287 21.0613L20.8755 21.0145H20.8287C20.7818 21.1082 20.8755 21.0145 20.7349 21.1082ZM20.5943 21.0145C20.5943 21.0145 20.5943 21.0613 20.5474 21.0613L20.5005 21.1082L20.5943 21.0145Z" fill="black"/>
<path d="M26.5934 26.3747C26.5466 26.4215 26.4528 26.5153 26.4528 26.5153C26.2653 26.6559 26.1247 26.7496 25.9841 26.8434C25.8435 26.9371 25.8904 26.8903 26.2653 26.5153L26.3122 26.4684H26.2653C26.1716 26.5153 26.2653 26.3747 25.9372 26.6559C25.7966 26.7496 25.7966 26.7496 25.7966 26.7496C25.7966 26.6559 25.6091 26.7965 25.7029 26.609C25.7497 26.5622 25.656 26.5622 25.6091 26.609C25.5154 26.6559 25.4685 26.6559 25.5154 26.5153C25.7029 26.2341 25.4216 26.3747 25.3748 26.2809C25.3748 26.2341 25.281 26.3278 25.4685 26.1403C25.4685 26.0934 25.6091 25.9997 25.5154 26.0934C25.1404 26.4684 25.281 26.2341 25.281 26.1872C25.281 26.1872 25.281 26.1872 25.1873 26.2341C24.8123 26.5622 24.9998 26.3278 25.0935 26.2341C25.1873 26.0934 25.2341 26.0466 25.1404 26.1403C24.8592 26.3278 24.8123 26.2809 24.906 26.0466C24.9529 25.906 24.8123 25.9528 24.8123 25.8591C24.7654 25.7185 24.5779 25.7185 24.6248 25.4372C24.6248 25.3904 24.5311 25.4372 24.4842 25.3904C24.4842 25.3904 24.4373 25.3435 24.6717 25.156C24.8592 24.9685 24.7654 25.1091 24.8123 25.1091H24.8592C25.0467 24.8748 25.2341 24.6873 24.9998 24.8748C24.9998 24.8748 24.9529 24.8748 24.9529 24.9216C24.8123 24.9685 24.5779 25.2029 24.4842 25.2966C24.3905 25.3435 24.4842 25.2029 24.2967 25.2966C24.3436 25.2497 24.3436 25.2029 24.3905 25.2029C24.906 24.6404 25.0467 24.4529 24.5779 24.8279C24.1092 25.2497 24.0623 25.156 24.0623 25.0623C24.0623 24.9685 24.0155 24.9216 23.9217 24.9685H23.8749C23.8749 24.9216 23.7811 24.9216 23.828 24.8748C23.828 24.8279 24.1561 24.5467 24.2967 24.3592C24.2967 24.3123 24.2498 24.3123 24.2498 24.3123V24.2654L24.203 24.3123C23.7342 24.8279 23.7811 24.781 23.6405 24.8279C23.3593 24.8748 23.4061 24.5935 23.2655 24.4998C23.1718 24.406 23.078 24.3123 23.0312 24.2186C22.9843 24.0779 22.9374 23.9373 22.7499 23.9373C22.6093 23.9373 22.7031 23.703 22.5624 23.7498C22.5624 23.7498 22.5624 23.703 22.6093 23.703C22.8437 23.4686 22.9374 23.4217 22.8905 23.4686C22.7968 23.703 22.9843 23.5623 23.078 23.6092C23.1249 23.6092 23.1249 23.6561 23.1718 23.703C23.5936 23.1874 23.1249 23.5155 23.1249 23.4686C23.078 23.328 22.8905 23.2342 22.7968 23.1405C22.7968 23.1405 22.8437 23.0468 22.8437 22.9999C22.8437 22.953 22.8905 22.9061 22.8905 22.9061C22.6093 22.9999 22.5624 22.9061 22.5156 22.7655C22.5156 22.7186 22.4218 22.7655 22.3281 22.8593C22 23.1874 21.9531 23.1874 21.9062 23.1874C21.8594 23.1405 21.7656 23.1405 21.7656 23.0468C21.7656 22.8124 21.5313 22.7655 21.3438 22.6718C21.25 22.6249 21.2969 22.3905 21.0625 22.4374C21.0157 22.4374 21.0625 22.3905 21.2032 22.2031C21.3438 22.0624 21.2969 22.1093 21.3438 22.1093C21.3438 22.1093 21.3906 22.1093 21.4375 22.0624C21.4375 21.9218 21.2969 21.9218 21.2032 21.875C21.1094 21.875 21.0625 21.7343 20.8282 21.8281C20.8282 21.9687 21.1094 21.875 20.9688 22.1093C20.7344 22.2968 20.5938 22.2499 20.5469 22.1562C20.5001 22.0624 20.3126 22.1093 20.2657 22.0624C20.2188 21.9687 19.9376 22.1562 20.1251 21.8281C20.3595 21.8281 20.4532 21.9218 20.6876 21.875C20.875 21.6406 20.7344 21.7812 20.7344 21.7812C20.4063 21.5937 20.0314 21.4062 19.7032 21.125C19.5158 20.9844 19.2345 20.9375 19.1408 20.75C19.0939 20.6563 19.047 20.5157 19.0002 20.375C19.0002 20.375 19.0002 20.3282 19.1408 20.1876C19.2814 20.0469 19.3751 20.0001 19.3751 20.0001C19.422 20.0938 19.6564 20.0001 19.7032 20.0469C19.8439 20.1876 19.8907 20.375 20.1251 20.4219C20.3595 20.4688 20.4063 20.7031 20.6876 20.75C20.9688 20.7969 21.1094 21.0313 21.4375 21.0781C21.8125 21.125 22 21.3125 22.2812 21.4062C22.9843 21.7343 23.3124 22.3905 23.9217 22.8124C24.0623 22.9061 24.2498 22.9061 24.3436 23.0468C24.5779 23.2811 24.7654 23.6092 25.0935 23.7498C25.281 23.8436 25.5154 23.9373 25.6091 24.1248C25.7029 24.3123 25.7497 24.4998 25.9372 24.6404C26.1247 24.781 26.3122 24.9685 26.5934 25.0154C26.7341 25.0623 26.7809 25.2029 27.0153 25.2029C27.2496 25.156 27.2028 25.4372 27.5309 25.3435C27.5778 25.3435 27.6246 25.3435 27.5778 25.4372C27.3903 25.7185 27.3434 25.8591 27.3903 25.9528C27.3903 25.9528 27.3434 25.9997 27.2496 26.1403C26.8747 26.3747 27.0622 25.9997 26.6872 26.2341C26.7809 26.1872 26.5466 26.5153 26.7341 26.4684C26.6403 26.3278 26.6403 26.3747 26.5934 26.3747ZM22 22.4374C22.0468 22.2968 22 22.2968 21.8594 22.3905C21.9531 22.1562 21.6719 22.0156 21.4375 22.1562C21.5313 22.2499 21.625 22.3437 21.7187 22.4374C21.7187 22.4374 21.7656 22.4374 21.8594 22.3905C21.8594 22.4374 21.8125 22.5312 22 22.4374ZM22.1875 22.6718C22.2343 22.5312 22.1875 22.4843 22 22.5312C21.9531 22.7186 22 22.7655 22.1875 22.6718ZM22.2343 22.7655C22.3281 22.6249 22.3281 22.6249 22.1875 22.7186C22.0937 22.8593 22.2812 22.7186 22.2343 22.7655ZM23.3593 23.7498C23.3124 23.7498 23.453 23.5623 23.3593 23.6092C23.2187 23.7967 23.2655 23.7498 23.3593 23.7498ZM23.453 23.8904C23.453 23.8436 23.453 23.7967 23.453 23.7967L23.4061 23.8436L23.453 23.8904ZM23.7342 24.1717C23.7811 24.0779 23.7811 24.0779 23.7342 24.1248C23.6405 24.2186 23.5936 24.3123 23.6405 24.2654C23.6874 24.2654 23.7342 24.2186 23.7342 24.1717ZM24.3436 24.406C24.3436 24.3592 24.3905 24.3123 24.3905 24.3592C24.3436 24.3592 24.2967 24.406 24.2498 24.4529C24.203 24.4998 24.1561 24.5467 24.1561 24.5467C24.203 24.4998 24.2498 24.4529 24.3436 24.406ZM24.4373 24.406C24.4842 24.406 24.4842 24.406 24.4373 24.406C24.4842 24.406 24.4842 24.3592 24.4373 24.406ZM24.7186 24.4529C24.6717 24.4529 24.6717 24.4529 24.6248 24.4998C24.5779 24.4998 24.6248 24.4529 24.4842 24.5935C24.4373 24.6404 24.3905 24.6873 24.3905 24.6873C24.2967 24.781 24.3905 24.7341 24.4373 24.6873C24.4842 24.6404 24.5311 24.5935 24.7186 24.4529ZM24.906 24.7341C24.906 24.6873 24.906 24.6873 24.8123 24.781C24.8123 24.781 24.8123 24.781 24.8123 24.8279C24.8123 24.8279 24.8123 24.8279 24.906 24.7341ZM24.9998 25.1091C25.0467 25.0623 25.0467 25.0154 25.0467 25.0623C25.0467 25.0623 24.9998 25.1091 24.9529 25.156C24.906 25.2029 24.906 25.2497 24.906 25.2029C24.9529 25.156 24.9998 25.156 24.9998 25.1091ZM25.0935 25.2029C25.1404 25.156 25.1404 25.156 25.1873 25.1091C25.1873 25.0623 25.1873 25.1091 25.1404 25.1091C25.0935 25.156 25.0467 25.2029 25.0935 25.2029C24.9998 25.2497 25.0467 25.2497 25.0935 25.2029ZM25.4216 25.3435C25.3279 25.3904 25.2341 25.4841 25.0935 25.5778C25.1873 25.531 25.1873 25.531 25.4216 25.3435ZM25.5623 25.6247C25.4685 25.6716 25.4685 25.7185 25.5154 25.6716L25.5623 25.6247ZM25.656 25.6716L25.7029 25.6247C25.7029 25.6247 25.656 25.6716 25.6091 25.7185C25.5154 25.8122 25.5623 25.8122 25.5623 25.8122C25.5623 25.7653 25.6091 25.7185 25.656 25.6716ZM26.2653 25.9528C26.2185 25.9528 26.2185 25.9997 26.1716 25.9997L26.1247 26.0466H26.1716C26.2185 25.9528 26.1247 26.0466 26.2653 25.9528ZM26.406 26.0466C26.406 26.0466 26.406 25.9997 26.4528 25.9997L26.4997 25.9528L26.406 26.0466Z" fill="black"/>
<path d="M24.9533 24.0613C25.1408 23.7332 24.8596 23.827 24.719 23.8738C24.4846 24.2488 24.8127 24.0613 24.9533 24.0613Z" fill="black"/>
<path d="M24.2034 23.6863C24.3441 23.6394 24.2503 23.8269 24.4847 23.6395C24.4847 23.5926 24.5316 23.4988 24.5316 23.452C24.5316 23.4051 24.5316 23.4051 24.4847 23.4051C24.4847 23.4051 24.3909 23.4988 24.2972 23.5457C24.2034 23.6395 24.1566 23.6863 24.2034 23.6863Z" fill="black"/>
<path d="M27.1096 25.4205C27.2034 25.2799 27.2503 25.1393 26.9222 25.4205C26.8753 25.4674 26.8284 25.5612 27.1096 25.4205Z" fill="black"/>
<path d="M25.891 25.0455C25.9379 25.0455 25.7973 25.233 26.0316 24.9986C26.1722 24.858 26.266 24.7642 26.1722 24.8111C26.1254 24.858 26.2191 24.6705 25.9379 24.9517C25.7035 25.1392 25.8441 25.0455 25.891 25.0455Z" fill="black"/>
<path d="M22.4692 22.1396C22.5161 22.1396 22.563 22.0927 22.6567 21.9521C22.7973 21.8115 22.8442 21.7177 22.8442 21.7177C22.8442 21.7177 22.7505 21.7646 22.6567 21.8583C22.5161 22.0458 22.4692 22.0927 22.4692 22.1396Z" fill="black"/>
<path d="M24.4847 23.9676C24.4847 23.9676 24.5785 23.9207 24.6722 23.827C24.7191 23.7801 24.766 23.7332 24.766 23.6863C24.766 23.6863 24.7191 23.6863 24.5785 23.827C24.5316 23.9207 24.4847 23.9676 24.4847 23.9676Z" fill="black"/>
<path d="M24.5785 23.7332C24.6722 23.6395 24.6722 23.5926 24.4847 23.6864C24.4847 23.7801 24.391 23.9207 24.5785 23.7332Z" fill="black"/>
</g>
<defs>
<clipPath id="clip0_61_2042">
<rect width="32" height="32" fill="white"/>
</clipPath>
</defs>
</svg>
