<svg width="32" height="32" viewBox="0 0 32 32" fill="none" xmlns="http://www.w3.org/2000/svg">
<path d="M28.7251 19.0819L26.1621 17.0828C26.2134 16.7752 26.2134 16.4164 26.2134 16.0063C26.2134 15.5963 26.1621 15.2375 26.1621 14.9299L28.7251 12.9308C29.1864 12.572 29.3402 11.9056 29.0326 11.3418L26.3672 6.72849C26.0596 6.21591 25.4445 5.95961 24.8294 6.16465L21.8051 7.39486C21.2413 6.98479 20.6262 6.62598 20.0111 6.31842L19.5497 3.08912C19.4472 2.52527 18.9346 2.06394 18.3195 2.06394H12.9374C12.3222 2.06394 11.7584 2.52527 11.7071 3.14038L11.2458 6.31842C10.6307 6.57472 10.0156 6.93353 9.45175 7.39486L6.37622 6.16465C5.81238 5.95961 5.14601 6.21591 4.83846 6.72849L2.173 11.3418C1.86545 11.8544 1.96796 12.572 2.48055 12.9308L5.04349 14.9299C4.99223 15.34 4.99223 15.6475 4.99223 16.0063C4.99223 16.3139 4.99223 16.6727 5.04349 17.0828L2.48055 19.0819C2.01922 19.4407 1.86545 20.107 2.173 20.6709L4.83846 25.2842C5.14601 25.7968 5.76112 26.0531 6.37622 25.848L9.40049 24.6178C9.96434 25.0279 10.5794 25.3867 11.1946 25.6943L11.6559 28.9236C11.7071 29.5387 12.271 30 12.8861 30H18.217C18.8321 30 19.396 29.5387 19.4472 28.9236L19.9086 25.6943C20.5237 25.438 21.1388 25.0792 21.7026 24.6178L24.7269 25.848C24.8807 25.8993 25.0344 25.9506 25.1882 25.9506C25.6495 25.9506 26.0596 25.6943 26.2646 25.3354L28.9301 20.6709C29.3402 20.107 29.2377 19.4407 28.7251 19.0819ZM15.6028 20.6709C13.0399 20.6709 10.9383 18.5693 10.9383 16.0063C10.9383 13.4434 13.0399 11.3418 15.6028 11.3418C18.1658 11.3418 20.2674 13.4434 20.2674 16.0063C20.2674 18.5693 18.1658 20.6709 15.6028 20.6709Z" fill="#EBBC5D"/>
<path d="M16.0642 20.5684V20.5171C16.1667 20.4658 16.218 20.3633 16.3205 20.3121C16.423 20.2608 16.423 20.2608 16.4743 20.4146C16.5255 20.3633 16.6793 20.3633 16.6793 20.2608C16.6793 20.2096 16.7306 20.2096 16.7818 20.2096C16.9356 20.2096 17.0894 20.0558 17.2432 20.0558C17.2944 20.0558 17.3969 20.0045 17.4482 19.9533C17.4995 19.902 17.602 19.8507 17.7045 19.7995C17.9608 19.7482 18.1146 19.5432 18.3196 19.4407C18.3709 19.3894 18.3709 19.3894 18.4221 19.3894C18.4221 19.3894 18.4734 19.4407 18.4734 19.3894C18.4221 19.2356 18.5246 19.2356 18.6271 19.1844L18.6784 19.1331C18.6271 18.9793 18.7809 18.9793 18.8322 18.9281C18.8834 18.9281 18.9347 18.8768 18.986 18.8256C19.0372 18.6205 19.1397 18.4668 19.2935 18.313C19.396 18.2105 19.4985 18.0054 19.5498 17.8516C19.7036 17.5441 19.8061 17.134 19.9086 16.7752C19.9599 16.6727 19.9086 16.5702 19.9599 16.4677C19.9599 16.4164 19.9599 16.3139 20.0624 16.3651C20.1137 16.3651 20.1137 16.4677 20.1137 16.4677V16.5189C20.2162 16.4677 20.2674 16.4677 20.2162 16.3139C20.1649 16.2114 20.1137 16.1088 20.0624 16.0576C20.0111 15.9551 20.0624 15.8526 20.0111 15.75C20.0111 15.75 20.0111 15.6988 20.0624 15.6988C20.2674 15.6475 20.3187 15.4425 20.1137 15.34C19.9086 15.1862 19.8574 14.9812 19.8574 14.8274C19.8061 14.6736 19.7548 14.5198 19.7036 14.366C19.7036 14.2635 19.6011 14.2123 19.6011 14.1098C19.5498 14.0072 19.7036 14.0072 19.7036 13.9047C19.7036 13.8535 19.7036 13.8535 19.6523 13.8022C19.5498 13.956 19.5498 13.956 19.396 13.8022C19.1397 13.4946 18.8834 13.1358 18.5759 12.8283C18.3196 12.6232 18.012 12.4182 17.7045 12.2132C17.3969 12.0594 17.0381 11.8544 16.7306 11.8544C16.6281 11.8544 16.4743 11.8031 16.3718 11.8031C16.2692 11.7518 16.1155 11.7518 16.0129 11.7518H15.9617C15.9617 11.6493 16.0642 11.6493 16.1155 11.6493C16.3205 11.7006 16.5255 11.7006 16.7306 11.7518C16.8331 11.7518 16.9356 11.8031 17.0894 11.8544C16.9356 11.6493 16.6793 11.7006 16.5255 11.7006C16.0642 11.5981 15.6029 11.6493 15.1928 11.7006C15.1415 11.7006 15.0903 11.7006 15.039 11.7006C14.9878 11.7006 14.9365 11.7006 14.8853 11.7006C14.5264 11.8544 14.1676 11.9569 13.8601 12.1107C13.7576 12.1619 13.7063 12.2132 13.655 12.2644C13.7063 12.367 13.6038 12.4695 13.5013 12.5207C13.3475 12.6232 13.245 12.7258 13.0912 12.8283C12.6811 13.0846 12.3736 13.5459 12.1685 13.956C12.0148 14.2123 11.861 14.5198 11.8097 14.8274C11.8097 14.8786 11.7585 14.9299 11.7072 14.9299C11.6559 14.9299 11.7072 14.8274 11.7072 14.7761C11.7072 14.7761 11.7072 14.7249 11.7072 14.6736C11.6047 14.9812 11.5534 15.2374 11.5534 15.4937C11.5534 15.75 11.5022 16.0576 11.6047 16.3139C11.6047 16.1601 11.6047 16.0063 11.6047 15.9038C11.6047 15.75 11.6047 15.5963 11.6559 15.4425C11.7072 15.5963 11.7072 15.8526 11.7072 16.1601C11.7072 16.4164 11.7585 16.6727 11.8097 16.8777C11.861 17.134 12.0148 17.2878 12.0148 17.5441C11.8097 17.1853 11.7585 16.8265 11.6559 16.4164C11.5534 16.4677 11.6559 16.5189 11.6559 16.5702C11.8097 17.6466 12.4248 18.6205 13.245 19.2869C13.7063 19.697 14.3214 19.9533 14.8853 20.107C15.1928 20.2096 15.5004 20.2608 15.8592 20.3121C15.9104 20.3121 15.9617 20.3121 15.9617 20.3633C15.9617 20.4146 15.9104 20.4658 15.8592 20.4146C15.6029 20.4146 15.3466 20.4146 15.1415 20.4146C14.629 20.3121 14.1164 20.107 13.655 19.8507C13.1425 19.5944 12.6811 19.1331 12.3223 18.6718C11.861 18.1079 11.6047 17.3903 11.4509 16.6727C11.2459 15.8526 11.3484 14.9812 11.6559 14.2123C12.0148 13.1871 12.7836 12.367 13.7576 11.8544C14.7315 11.3418 15.8079 11.188 16.8843 11.3418C17.3457 11.4443 17.7557 11.5468 18.1658 11.7518C19.0885 12.2132 19.8574 13.0333 20.3187 13.956C20.6262 14.5198 20.78 15.1349 20.8313 15.8013C20.8313 16.4164 20.7288 16.9802 20.575 17.5441C20.3187 18.2617 19.9599 18.9281 19.4473 19.4919C19.1397 19.7995 18.8322 20.0558 18.4734 20.3121C18.0633 20.6196 17.602 20.7221 17.1406 20.9272C17.0381 20.9784 16.9356 20.9784 16.8843 20.9784C16.6281 20.9272 16.423 20.9272 16.1667 20.9272C16.1155 20.9272 16.1155 20.9272 16.0642 20.8759C16.218 20.8247 16.423 20.7734 16.5768 20.7734C16.7306 20.7221 16.9356 20.7221 17.0894 20.6196C16.4743 20.5684 16.2692 20.5171 16.0642 20.5684ZM12.4248 12.9308C12.3223 12.9821 12.2198 13.0846 12.1685 13.2384C12.066 13.3409 11.861 13.5459 11.7585 13.8022C11.6047 14.0585 11.5534 14.3148 11.5534 14.4173C11.7072 14.0585 11.861 13.7509 12.1173 13.4434C12.1685 13.3921 12.2198 13.3409 12.2198 13.2384C12.3223 13.1358 12.3736 13.0333 12.4248 12.9308ZM13.1425 12.367C12.9374 12.4695 12.7836 12.572 12.6811 12.777C12.8349 12.6232 12.9887 12.5207 13.1425 12.367ZM13.3987 12.2132C13.3475 12.2132 13.2962 12.2132 13.245 12.3157C13.3475 12.2644 13.3475 12.2132 13.3987 12.2132ZM17.3457 11.9056C17.2432 11.9056 17.1919 11.8031 17.0894 11.8031C17.1406 11.8544 17.2432 11.9056 17.3457 11.9056ZM17.807 12.1619C17.7557 12.1107 17.7045 12.0594 17.6532 12.0594C17.7045 12.1107 17.7557 12.1107 17.807 12.1619ZM18.7297 12.8795C18.7297 12.8283 18.6784 12.777 18.6271 12.777C18.6271 12.8283 18.6271 12.8795 18.7297 12.8795ZM19.7036 14.1098C19.7036 14.0585 19.6523 14.0585 19.6523 14.0585C19.6523 14.0585 19.6011 14.1098 19.6523 14.1098H19.7036ZM19.8574 14.366C19.8061 14.3148 19.8061 14.3148 19.8574 14.366V14.366ZM20.0624 14.9299C20.0111 14.8786 20.0111 14.8274 20.0111 14.7761C20.0111 14.7249 20.0111 14.7249 19.9599 14.7249C19.9599 14.7249 19.9599 14.7249 19.9086 14.7761C19.9086 14.8274 19.9086 14.8274 19.9599 14.8274C19.9599 14.8786 19.9599 14.8786 20.0624 14.9299ZM20.1649 15.8526C20.1649 15.8013 20.1649 15.75 20.1137 15.75C20.1137 15.75 20.1137 15.8013 20.1649 15.8526C20.1137 15.8526 20.1137 15.8526 20.1649 15.8526ZM20.0624 16.8777C20.0624 16.8265 20.0624 16.8265 20.0624 16.8777V16.8777ZM19.9599 17.134C20.0111 17.0828 20.0111 17.0828 20.0111 17.0828L19.9599 17.134ZM19.6523 18.1079C19.6523 18.0054 19.6523 17.9542 19.6523 17.9029C19.6011 18.0054 19.6011 18.0054 19.6523 18.1079ZM19.1397 18.8256C19.191 18.7743 19.191 18.7743 19.1397 18.8256C19.1397 18.7743 19.1397 18.7743 19.1397 18.8256ZM18.986 18.9793C19.0372 18.9793 19.0372 18.9793 18.986 18.9793C19.0372 18.9281 19.0372 18.9281 19.0372 18.8768C19.0372 18.8256 18.986 18.8768 18.986 18.8768C18.986 18.9281 18.986 18.9793 18.986 18.9793ZM17.6532 20.107L17.7045 20.0558C17.7045 20.0558 17.6532 20.0558 17.6532 20.107Z" fill="#EBBC5D"/>
<path d="M13.5012 12.2132C13.8088 12.1619 14.0138 12.0082 14.2701 11.8544C13.9626 11.8544 13.7575 12.0594 13.5012 12.2132Z" fill="#EBBC5D"/>
<path d="M15.5517 11.5982C15.3979 11.6495 15.2441 11.5982 15.0903 11.7007C15.1928 11.7007 15.2441 11.7007 15.3466 11.7007C15.3979 11.7007 15.5004 11.7007 15.5517 11.7007C15.6029 11.7007 15.6029 11.6495 15.6029 11.6495C15.6542 11.5982 15.6029 11.5982 15.5517 11.5982Z" fill="#EBBC5D"/>
<path d="M11.9636 18.0053C11.9636 17.8515 11.9123 17.749 11.7585 17.6977C11.8098 17.8002 11.8098 17.954 11.9636 18.0053Z" fill="#EBBC5D"/>
<path d="M11.3485 15.0836C11.3485 15.1349 11.2972 15.1861 11.3485 15.2374C11.3997 15.2374 11.451 15.1861 11.451 15.1349C11.451 15.0836 11.5022 14.9811 11.3997 14.9811C11.3485 14.9811 11.3997 15.0323 11.3485 15.0836Z" fill="#EBBC5D"/>
<path d="M20.0625 15.4936C20.0625 15.4423 20.0112 15.4423 19.9599 15.4423C19.9087 15.4423 19.8574 15.4936 19.9087 15.5448C19.9087 15.5961 19.9599 15.5961 20.0112 15.5961C20.0112 15.5961 20.0625 15.5448 20.0625 15.4936Z" fill="#EBBC5D"/>
<path d="M14.4241 11.7517C14.3728 11.7517 14.3728 11.8029 14.3728 11.8542C14.3728 11.8542 14.3728 11.9054 14.4241 11.9054C14.4753 11.9054 14.5266 11.8542 14.5266 11.8029C14.5266 11.7517 14.4753 11.7517 14.4241 11.7517Z" fill="#EBBC5D"/>
<path d="M14.7314 11.7518C14.7827 11.7518 14.834 11.7518 14.9365 11.7005C14.834 11.7005 14.7827 11.6493 14.7314 11.7518Z" fill="#EBBC5D"/>
<path d="M28.8277 20.466C28.8277 20.466 28.8789 20.466 28.8789 20.5172C28.7764 20.8248 28.6739 21.1323 28.5201 21.4911C28.3663 21.85 28.3151 21.9012 28.11 21.9525C28.0075 22.2088 27.7 22.5676 27.8025 22.7214C27.8025 22.7726 27.7 22.9264 27.6487 23.0802C27.3411 23.5928 27.0849 24.1566 26.726 24.6692C26.6748 24.7717 26.5723 24.8742 26.521 25.028C26.4697 25.1305 26.3672 25.2843 26.2647 25.4381C26.0084 25.7969 25.4958 26.0019 25.0858 25.9507C24.8295 25.8994 24.5732 25.7969 24.3681 25.6944C24.1631 25.5918 23.9581 25.5406 23.753 25.4381C23.343 25.2843 22.9329 25.1305 22.5228 24.9767C22.3178 24.8742 22.164 24.8742 22.0615 24.7717C22.0615 24.7717 22.0102 24.6692 21.959 24.7204C21.8052 24.7717 21.7539 24.7204 21.7027 24.7204C21.6002 24.7717 21.4464 24.8742 21.3439 24.9255C21.2413 24.9767 21.1901 25.028 21.1388 25.0793C20.9851 25.3356 20.5237 25.4893 20.2674 25.5918C20.1649 25.6431 20.1137 25.5918 20.1137 25.6431V25.6944C20.1137 25.7456 20.1137 25.7969 20.1137 25.8481C20.1137 26.617 20.0111 27.3346 19.8061 28.1548C19.7548 28.3086 19.7548 28.4623 19.7036 28.6161C19.7036 28.7699 19.6523 29.0262 19.4985 29.18C19.2935 29.5388 18.8834 29.8463 18.5246 29.8976C18.4221 29.8976 18.3196 29.9488 18.2171 29.9488H17.9608H17.4482H16.3718C15.6541 29.9488 14.9365 29.9488 14.2189 29.8976C13.8088 29.8976 13.3987 29.8976 12.9887 29.8976C12.7324 29.8976 12.4248 29.7951 12.4761 29.7438C12.5273 29.6926 12.7836 29.7951 12.9887 29.7951C13.0399 29.7951 13.0912 29.7951 13.245 29.7951C13.0912 29.6926 12.9374 29.6926 12.5273 29.6413C12.5273 29.6413 12.4761 29.6413 12.4248 29.6413C12.066 29.4875 11.7585 29.2825 11.6047 28.9237C11.5534 28.7186 11.5022 28.5136 11.5022 28.3086C11.4509 28.1035 11.4509 27.8985 11.3997 27.7447C11.3997 27.6422 11.3997 27.5909 11.3997 27.5909C11.6047 27.3859 11.5534 26.8221 11.3484 26.3095C11.2971 26.1557 11.2459 26.0019 11.1946 25.8481C11.1946 25.7969 11.1434 25.7456 11.1434 25.7456C11.0921 25.7456 11.0921 25.7456 10.9896 25.6944C10.6308 25.5406 10.3232 25.3356 10.0157 25.1818C9.86189 25.0793 9.75937 24.9767 9.60559 24.8742C9.55433 24.8742 9.55433 24.823 9.50308 24.823L9.40056 24.8742C9.093 24.9767 8.83671 25.1305 8.52916 25.233C8.4779 25.233 8.4779 25.2843 8.42664 25.2843C8.11909 25.3868 7.81153 25.5406 7.50398 25.6431C7.14517 25.7969 7.24769 25.5918 7.04265 25.6431C6.94013 25.6431 6.78636 25.6944 6.68384 25.7456C6.88888 25.7969 6.94013 25.7969 6.88888 25.8481C6.83762 25.8481 6.78636 25.8994 6.68384 25.9507C6.58132 26.0019 6.37629 26.0532 6.17125 26.0532C5.65866 26.1044 5.14608 25.8481 4.88978 25.3868C4.68475 25.028 4.47971 24.6692 4.27468 24.3104L3.09572 22.2088L2.58313 21.3374L2.32684 20.9273C2.22432 20.8248 2.1218 20.6197 2.07055 20.4147C1.96803 20.0046 2.01929 19.5946 2.22432 19.2358C2.32684 19.082 2.48062 18.9282 2.63439 18.8257L3.04446 18.4669C3.60831 18.0568 4.1209 17.6467 4.68475 17.2367L5.04356 16.9804C5.09482 16.9804 5.04356 16.9291 5.04356 16.8778V16.6216C4.9923 16.2627 4.9923 15.9039 4.9923 15.5964C4.9923 15.4939 4.9923 15.3401 4.9923 15.2376V15.135V15.0838L4.53097 14.6737C4.17216 14.3662 3.81335 14.1099 3.45453 13.8023C3.40328 13.7511 3.35202 13.6998 3.2495 13.6485C3.30076 13.5973 3.55705 13.7511 3.71083 13.9048C3.96712 14.1611 4.27468 14.4174 4.58223 14.6225L5.04356 14.93C5.09482 14.9813 5.14608 14.9813 5.19733 15.0325V15.2376C5.19733 15.4426 5.19733 15.6989 5.14608 15.9039C5.14608 16.109 5.14608 16.314 5.19733 16.519C5.24859 16.3653 5.24859 16.1602 5.24859 16.0064C5.24859 15.8014 5.29985 15.6476 5.29985 15.4426C5.29985 15.3401 5.29985 15.2376 5.29985 15.135V15.0325V14.9813C5.29985 14.9813 5.24859 14.9813 5.24859 14.93C5.14608 14.8788 4.94104 14.725 4.78726 14.6225C4.1209 14.1099 3.50579 13.5973 2.83943 13.0847C2.48062 12.8284 2.27558 12.3671 2.27558 11.957C2.27558 11.752 2.3781 11.4957 2.48062 11.3419L2.78817 10.8293C2.89069 10.6243 3.04446 10.4705 3.14698 10.2655C3.2495 10.1117 3.35202 9.9579 3.45453 9.80413C3.76209 9.18902 4.06964 8.62518 4.42845 8.01007L4.94104 7.13867C5.04356 6.98489 5.09482 6.83112 5.24859 6.67734C5.35111 6.52356 5.50489 6.42105 5.70992 6.31853C6.01748 6.16475 6.37629 6.11349 6.68384 6.16475C6.68384 6.11349 7.09391 6.26727 7.45272 6.42105C8.01657 6.62608 8.63168 6.88238 9.19552 7.13867C9.50308 7.24119 9.45182 7.29245 9.55433 7.18993C9.75937 7.03615 9.9644 6.93363 10.1694 6.77986C10.3745 6.67734 10.5795 6.52356 10.7845 6.42105L10.9896 6.31853V6.26727V6.16475L11.3484 3.34552C11.3997 2.9867 11.5534 2.62789 11.861 2.3716C12.1173 2.1153 12.5273 2.01279 12.8862 2.01279C13.5013 2.01279 14.0651 2.01279 14.6802 2.01279C14.9365 2.01279 15.1415 2.01279 15.1415 2.06405C15.1415 2.1153 14.834 2.1153 14.6802 2.1153C14.629 2.1153 14.5777 2.1153 14.3727 2.16656C15.5004 2.21782 16.5255 2.16656 17.4995 2.16656C17.7557 2.16656 17.9608 2.16656 18.2683 2.16656C18.5759 2.21782 18.8322 2.32034 19.0372 2.52538C19.4473 2.78167 19.6011 3.03796 19.6523 3.34552C19.7036 3.60181 19.7548 3.8581 19.8061 4.1144C19.7548 3.8581 19.7548 3.60181 19.7036 3.29426C19.6523 2.9867 19.4473 2.67915 19.191 2.47412C18.9347 2.26908 18.6271 2.16656 18.2683 2.16656C18.012 2.16656 17.7045 2.16656 17.4482 2.1153C17.5507 2.1153 17.7045 2.06405 17.9095 2.06405C18.012 2.06405 18.1146 2.06405 18.2171 2.06405C18.3196 2.06405 18.4734 2.06405 18.6271 2.1153C18.9347 2.16656 19.2423 2.3716 19.4985 2.62789C19.6011 2.78167 19.7036 2.93545 19.7548 3.14048C19.8061 3.243 19.8061 3.34552 19.8061 3.39678V3.55055C19.9086 4.06314 19.9599 4.52447 20.0624 4.9858C20.1137 5.39587 20.2162 5.8572 20.2674 6.26727C20.2674 6.26727 20.2674 6.26727 20.3699 6.31853L20.6775 6.4723C20.8825 6.57482 21.0876 6.67734 21.2926 6.83112C21.3951 6.88238 21.4976 6.93363 21.6002 7.03615L21.7027 7.13867C21.6002 7.18993 21.959 7.03615 22.164 6.98489L21.9077 7.08741L21.8052 7.13867C21.7539 7.13867 21.7539 7.13867 21.7539 7.13867H21.7027L21.4976 7.03615C21.1388 6.83112 20.8313 6.62608 20.4725 6.4723L20.2674 6.36979C20.2162 6.36979 20.2162 6.36979 20.2162 6.31853L20.1137 5.80594C20.0624 5.44713 19.9599 5.03706 19.9086 4.67825C19.8574 4.88328 19.9086 5.08832 19.9599 5.29335L20.0624 6.06223L20.1137 6.36979C20.1137 6.42105 20.1137 6.42105 20.1649 6.42105L20.2674 6.4723C20.7288 6.67734 21.1901 6.98489 21.6514 7.24119L21.7027 7.29245H21.7539L22.0615 7.13867L22.7791 6.83112L24.2144 6.26727C24.3169 6.21601 24.4194 6.16475 24.5732 6.11349C24.7269 6.06223 24.8807 6.01098 25.0345 6.01098C25.3421 6.01098 25.6496 6.11349 25.9059 6.26727C26.1622 6.42105 26.3672 6.7286 26.4697 6.93363L26.8798 7.6L28.4176 10.2655L28.8789 11.0343L28.9814 11.2394C29.0327 11.2906 29.0839 11.3932 29.0839 11.4957C29.1352 11.6494 29.1865 11.8545 29.1865 12.0595C29.1865 12.4183 29.0327 12.8284 28.8277 13.0847C28.7764 13.136 28.6739 13.2385 28.6226 13.2897L28.4688 13.4435L28.11 13.6998L26.726 14.8275L26.3672 15.0838L26.316 15.135V15.1863C26.316 15.4426 26.3672 15.8014 26.3672 16.109L26.316 16.8778C26.316 16.8778 26.316 16.8778 26.3672 16.9291L26.521 17.0829L26.8798 17.3904L28.3151 18.5694C28.4688 18.6719 28.6226 18.8257 28.6226 18.8769C28.5714 18.9282 28.4176 18.8257 28.2638 18.6719C27.905 18.3644 27.5462 18.1081 27.1874 17.8518L26.6235 17.4417L26.1109 17.0316C26.0597 17.0316 26.0597 16.9291 26.0597 16.9291V16.7753V16.4165V16.0577V15.6989V15.3401V15.1863V15.135L26.1109 15.0838L26.6748 14.6737L27.8537 13.7511L28.4176 13.2897C28.6226 13.136 28.8277 12.9309 28.9302 12.7259C29.0327 12.4696 29.0839 12.162 29.0327 11.9057C28.9814 11.5982 28.7764 11.3932 28.6739 11.1369L27.8537 9.70161C27.2899 8.77895 26.7773 7.80503 26.2135 6.88238C26.0084 6.62608 25.7009 6.42105 25.3933 6.36979C25.0345 6.31853 24.7269 6.42105 24.4194 6.57482L22.5228 7.24119L22.0615 7.44622L21.8565 7.54874C21.8052 7.6 21.7027 7.65126 21.6514 7.54874C21.3951 7.3437 21.0876 7.18993 20.8313 7.03615C20.5237 6.88238 20.2674 6.7286 19.9599 6.57482C19.8574 6.21601 19.8574 5.90846 19.8061 5.6009L19.4473 3.44803C19.396 3.08922 19.191 2.78167 18.9347 2.62789C18.7809 2.52538 18.6271 2.47412 18.4734 2.47412C18.3196 2.47412 18.1146 2.47412 17.9095 2.47412L13.5013 2.52538C13.245 2.52538 13.0399 2.52538 12.8349 2.57663C12.6299 2.62789 12.4761 2.73041 12.3223 2.88419C12.1685 3.03796 12.066 3.19174 12.066 3.39678L11.9635 4.06314L11.7585 5.44713L11.6047 6.11349C11.5534 6.26727 11.6047 6.77986 11.2459 6.83112C10.8358 7.03615 10.4257 7.24119 10.0669 7.49748L9.70811 7.70252C9.65685 7.70252 9.65685 7.75378 9.60559 7.75378L9.50308 7.70252L9.24678 7.65126L8.58042 7.39496L7.29895 6.88238L6.68384 6.62608C6.42755 6.52356 6.27377 6.4723 6.06873 6.4723C5.8637 6.4723 5.65866 6.57482 5.50489 6.67734C5.35111 6.77986 5.24859 6.93363 5.14608 7.13867L4.42845 8.36888L3.04446 10.778L2.68565 11.3932C2.58313 11.5982 2.53188 11.752 2.48062 11.957C2.48062 12.162 2.53188 12.3671 2.58313 12.5208C2.68565 12.7259 2.78817 12.8284 2.9932 12.9822L5.19733 14.6737L5.40237 14.8275L5.45363 14.8788V14.9813V15.3401L5.40237 15.9039C5.40237 16.109 5.40237 16.2627 5.45363 16.4678V16.7753V16.9804C5.45363 17.0316 5.50489 17.1341 5.40237 17.1854L3.55705 18.6719L3.04446 19.082C2.94195 19.1332 2.89069 19.2358 2.83943 19.287C2.78817 19.3383 2.73691 19.4408 2.68565 19.492C2.53188 19.8509 2.53188 20.2097 2.78817 20.5685L4.06964 22.9264L4.736 24.1053L5.09482 24.6692L5.24859 24.9767C5.29985 25.0793 5.35111 25.1305 5.40237 25.1818C5.65866 25.4381 6.06873 25.5406 6.42755 25.4381C6.83762 25.2843 7.24769 25.0793 7.65776 24.9255L9.14426 24.3104L9.40056 24.2079C9.45182 24.2079 9.50308 24.1566 9.55433 24.1566L9.70811 24.2591L9.91315 24.4129L10.0669 24.5154C10.272 24.6692 10.5283 24.7717 10.7333 24.9255L11.0921 25.1305L11.3484 25.233L11.5022 25.2843C11.5534 25.2843 11.5534 25.3868 11.5534 25.4381L11.7072 26.3607L11.9122 28.001L12.0148 28.7186C12.066 28.9237 12.1685 29.0774 12.3223 29.2312C12.4761 29.385 12.6811 29.4363 12.8862 29.4875C13.0912 29.4875 13.3987 29.4875 13.6038 29.4875H16.6281H17.602C17.9095 29.4875 18.2683 29.5388 18.4734 29.4363C18.7297 29.385 18.9347 29.18 19.0372 28.9749C19.0885 28.8724 19.1397 28.7699 19.1397 28.6161L19.191 28.1548L19.4473 26.2582L19.4985 25.7456L19.5498 25.5406V25.4381V25.3868H19.6011L19.9086 25.233C20.1649 25.0793 20.4725 24.9255 20.7288 24.7717C20.8825 24.6692 21.0363 24.5667 21.1388 24.4642L21.4464 24.2079C21.4976 24.1566 21.4976 24.2079 21.5489 24.2079L21.6514 24.2591L21.8565 24.3616L22.8304 24.7717C23.1379 24.9255 23.4967 25.028 23.8043 25.1818L24.3169 25.3868L24.5732 25.4893C24.6244 25.5406 24.7269 25.5406 24.7782 25.5406C25.0858 25.5918 25.3933 25.4893 25.5983 25.2843C25.6496 25.233 25.7009 25.1818 25.7009 25.0793L25.8546 24.823L26.1622 24.3104C26.5723 23.5928 26.9823 22.8751 27.3411 22.1575C27.4949 21.9012 27.6487 21.5937 27.8025 21.3374C27.905 21.1836 28.0075 21.0298 28.1613 20.876L28.3151 20.6197C28.3663 20.5172 28.4176 20.466 28.4176 20.4147C28.5201 20.1584 28.4688 19.7996 28.2638 19.5433C28.2125 19.492 28.1613 19.3895 28.1613 19.3383C28.5714 19.5946 28.7764 20.2609 28.4688 20.7223C28.1613 21.2348 27.8537 21.7987 27.6487 22.3113C27.9563 21.7474 28.3151 21.3374 28.5714 20.7735C28.7251 20.5685 28.8277 20.466 28.8277 20.466ZM10.477 6.83112C10.682 6.7286 10.8871 6.62608 11.0921 6.52356L11.2459 6.4723V6.31853C11.2459 6.21601 11.2459 6.11349 11.2459 5.95972C11.3484 5.49839 11.5022 4.47321 11.6559 3.44803C11.6559 3.19174 11.7585 2.88419 11.9122 2.67915C12.066 2.47412 12.2711 2.32034 12.5273 2.21782C12.7324 2.1153 12.9887 2.1153 13.1425 2.1153C13.2962 2.1153 13.45 2.1153 13.5525 2.06405C13.3987 2.06405 13.1937 2.06405 13.0399 2.06405C12.8349 2.06405 12.6299 2.1153 12.4761 2.16656C12.1173 2.32034 11.8097 2.62789 11.7072 3.03796C11.6559 3.243 11.6559 3.39678 11.6047 3.55055L11.5534 4.06314L11.3997 5.08832C11.3484 5.39587 11.3484 5.65216 11.2971 5.90846L11.2459 6.31853C11.2459 6.36979 11.2459 6.42105 11.2459 6.42105L11.1434 6.4723C10.8871 6.57482 10.682 6.67734 10.477 6.83112ZM7.6065 6.62608C7.96531 6.77986 8.32412 6.93363 8.63168 7.08741L9.14426 7.29245L9.40056 7.39496L9.19552 7.24119C9.04175 7.18993 8.83671 7.08741 8.68293 7.03615C8.32412 6.88238 7.96531 6.7286 7.6065 6.62608ZM6.53006 6.21601C6.7351 6.31853 6.88888 6.42105 7.14517 6.42105C6.94013 6.31853 6.7351 6.26727 6.53006 6.21601ZM4.22342 17.7492C4.53097 17.493 4.83852 17.3904 5.09482 17.0829C4.78726 17.2367 4.47971 17.493 4.22342 17.7492ZM3.71083 22.9264C3.65957 22.7726 3.55705 22.6188 3.45453 22.4651C3.50579 22.5676 3.50579 22.7214 3.65957 22.8751C3.65957 22.9264 3.71083 22.9264 3.71083 22.9264ZM8.01657 25.1305C7.96531 25.1305 7.91405 25.1305 7.86279 25.1818C7.81153 25.233 7.70902 25.2843 7.70902 25.2843C7.70902 25.3356 7.81153 25.2843 7.91405 25.233C7.96531 25.1818 8.01657 25.1305 8.01657 25.1305ZM8.99049 24.7204H8.93923C8.93923 24.7204 8.88797 24.7204 8.83671 24.7717C8.78545 24.823 8.83671 24.823 8.88797 24.7717C8.93923 24.7717 8.93923 24.7204 8.99049 24.7204ZM10.7845 25.233C10.5283 25.1305 10.4257 25.028 10.3232 24.9767C10.2207 24.9255 10.0669 24.823 10.0669 24.8742C10.0669 24.8742 10.0669 24.9255 10.1182 24.9255C10.2207 25.028 10.272 25.028 10.3745 25.0793C10.477 25.1305 10.5795 25.1305 10.7845 25.233ZM11.7072 28.2573C11.7072 28.2573 11.7072 28.1548 11.7072 28.1035C11.7072 28.0523 11.6559 27.8985 11.6559 27.9498C11.6559 27.9498 11.6559 28.0523 11.6559 28.1548C11.7072 28.1548 11.7072 28.3086 11.7072 28.2573ZM14.5264 29.7438C14.5264 29.7438 14.5264 29.6926 14.4239 29.7438C14.3727 29.7438 14.3727 29.7438 14.3727 29.7951C14.3727 29.7951 14.4239 29.8463 14.4239 29.7951C14.4752 29.7438 14.4752 29.7438 14.5264 29.7438ZM15.6541 29.7438C15.6541 29.7438 15.6029 29.7438 15.5516 29.6926C15.5004 29.6926 15.4491 29.6926 15.4491 29.6926C15.5004 29.6926 15.5004 29.6926 15.5516 29.7438C15.6029 29.7438 15.6541 29.7438 15.6541 29.7438ZM19.1397 29.3337C18.9347 29.5388 18.7809 29.6926 18.5759 29.7951C18.8322 29.6926 18.9347 29.6413 18.986 29.5388C19.0885 29.4875 19.0885 29.4363 19.1397 29.3337ZM19.8574 26.2582V26.3095V26.3607C19.8574 26.412 19.8574 26.3607 19.8574 26.2582ZM19.9599 25.4893C19.9086 25.4893 19.9086 25.5406 19.8574 25.5918C19.8574 25.6944 19.8574 25.7969 19.8574 25.7969C19.9086 25.8481 19.9086 25.6944 19.9086 25.6431C19.9599 25.5918 19.9599 25.5918 19.9599 25.4893ZM25.7521 25.4893C25.6496 25.5406 25.5983 25.5918 25.4958 25.6431C25.5983 25.6431 25.7521 25.5406 25.7521 25.4893ZM26.8286 23.9003L26.726 24.0541C26.7773 24.0028 26.8286 23.9516 26.8286 23.9003Z" fill="#EBBC5D"/>
<path d="M6.27369 6.06205C5.96614 6.01079 5.60732 6.11331 5.35103 6.26708C5.19725 6.3696 5.09474 6.47212 4.99222 6.57464C4.94096 6.67715 4.8897 6.72841 4.83844 6.77967L4.73592 6.98471C4.47963 7.44604 4.22334 7.90737 3.96704 8.36869C4.27459 7.95862 4.53089 7.49729 4.78718 7.03597C4.8897 6.88219 4.94096 6.77967 5.04348 6.62589C5.14599 6.52338 5.24851 6.42086 5.35103 6.31834C5.65858 6.16457 5.96614 6.06205 6.27369 6.06205Z" fill="#EBBC5D"/>
<path d="M2.53176 12.9822C2.07044 12.5721 2.07044 11.8033 2.32673 11.2394C2.12169 11.4957 2.01918 11.8545 2.07044 12.2133C2.12169 12.5209 2.27547 12.8797 2.53176 13.0847C2.63428 13.1872 2.7368 13.1872 2.7368 13.1872C2.7368 13.1872 2.63428 13.0847 2.53176 12.9822Z" fill="#EBBC5D"/>
<path d="M24.1631 6.16467C23.7017 6.31844 23.2404 6.47222 22.8816 6.72851C23.2917 6.57474 23.753 6.42096 24.1631 6.16467Z" fill="#EBBC5D"/>
<path d="M16.3717 2.11533C16.5768 2.11533 16.8843 2.16659 16.8843 2.06407C16.9356 2.01281 16.6793 2.01281 16.423 2.01281C16.2179 2.01281 15.8079 1.96156 15.8591 2.06407C15.8591 2.16659 16.1667 2.11533 16.3717 2.11533Z" fill="#EBBC5D"/>
<path d="M11.4509 26.9247C11.3996 26.7196 11.3996 26.6171 11.3484 26.6171C11.2971 26.6171 11.2971 26.7709 11.2971 26.9759C11.3484 27.1297 11.3484 27.2835 11.3996 27.2835C11.4509 27.3347 11.4509 27.1297 11.4509 26.9247Z" fill="#EBBC5D"/>
<path d="M3.65964 9.03546C3.76215 8.88168 3.76215 8.77916 3.76215 8.7279C3.76215 8.67664 3.71089 8.7279 3.65964 8.83042C3.55712 8.9842 3.50586 9.13797 3.50586 9.24049C3.55712 9.24049 3.60838 9.13797 3.65964 9.03546Z" fill="#EBBC5D"/>
<path d="M3.09586 9.90646C2.94209 10.1115 2.83957 10.2653 2.68579 10.6241C2.89083 10.3165 3.0446 10.214 3.09586 9.90646Z" fill="#EBBC5D"/>
</svg>
