<svg width="30" height="31" viewBox="0 0 30 31" fill="none" xmlns="http://www.w3.org/2000/svg">
<path d="M8.55248 24.3948C8.55248 24.6238 8.47256 24.8435 8.3303 25.0055C8.18804 25.1674 7.99509 25.2584 7.7939 25.2584C7.59271 25.2584 7.39976 25.1674 7.25749 25.0055C7.11523 24.8435 7.03531 24.6238 7.03531 24.3948V9.20681L5.29663 11.188C5.2261 11.2683 5.14236 11.332 5.05021 11.3755C4.95806 11.4189 4.85929 11.4413 4.75955 11.4413C4.6598 11.4413 4.56103 11.4189 4.46888 11.3755C4.37673 11.332 4.293 11.2683 4.22247 11.188C4.15194 11.1077 4.09599 11.0124 4.05782 10.9075C4.01965 10.8025 4 10.6901 4 10.5765C4 10.463 4.01965 10.3505 4.05782 10.2456C4.09599 10.1407 4.15194 10.0454 4.22247 9.96509L7.25682 6.51225L7.26744 6.50016C7.41043 6.3433 7.60174 6.25652 7.80031 6.25845C7.99887 6.26039 8.18885 6.35089 8.32946 6.51053L11.3638 9.96509C11.4343 10.0453 11.4903 10.1405 11.5285 10.2453C11.5667 10.3501 11.5864 10.4625 11.5865 10.5759C11.5866 10.6894 11.567 10.8018 11.5289 10.9067C11.4908 11.0115 11.435 11.1068 11.3646 11.1871C11.2941 11.2674 11.2105 11.3312 11.1184 11.3747C11.0264 11.4182 10.9277 11.4406 10.828 11.4407C10.7284 11.4407 10.6296 11.4185 10.5375 11.3751C10.4454 11.3318 10.3617 11.2682 10.2912 11.188L8.55248 9.20681V24.3948ZM13.8626 8.84926C13.8626 8.62021 13.9425 8.40054 14.0848 8.23858C14.227 8.07661 14.42 7.98562 14.6212 7.98562H25.2414C25.4426 7.98562 25.6356 8.07661 25.7778 8.23858C25.9201 8.40054 26 8.62021 26 8.84926C26 9.07832 25.9201 9.29799 25.7778 9.45995C25.6356 9.62191 25.4426 9.7129 25.2414 9.7129H14.6212C14.42 9.7129 14.227 9.62191 14.0848 9.45995C13.9425 9.29799 13.8626 9.07832 13.8626 8.84926ZM14.6212 13.1675C14.42 13.1675 14.227 13.2585 14.0848 13.4204C13.9425 13.5824 13.8626 13.8021 13.8626 14.0311C13.8626 14.2602 13.9425 14.4798 14.0848 14.6418C14.227 14.8038 14.42 14.8947 14.6212 14.8947H22.2071C22.4083 14.8947 22.6012 14.8038 22.7435 14.6418C22.8857 14.4798 22.9657 14.2602 22.9657 14.0311C22.9657 13.8021 22.8857 13.5824 22.7435 13.4204C22.6012 13.2585 22.4083 13.1675 22.2071 13.1675H14.6212ZM14.6212 18.3493C14.42 18.3493 14.227 18.4403 14.0848 18.6023C13.9425 18.7642 13.8626 18.9839 13.8626 19.2129C13.8626 19.442 13.9425 19.6617 14.0848 19.8236C14.227 19.9856 14.42 20.0766 14.6212 20.0766H19.1727C19.3739 20.0766 19.5669 19.9856 19.7091 19.8236C19.8514 19.6617 19.9313 19.442 19.9313 19.2129C19.9313 18.9839 19.8514 18.7642 19.7091 18.6023C19.5669 18.4403 19.3739 18.3493 19.1727 18.3493H14.6212ZM14.6212 23.5311C14.42 23.5311 14.227 23.6221 14.0848 23.7841C13.9425 23.9461 13.8626 24.1657 13.8626 24.3948C13.8626 24.6238 13.9425 24.8435 14.0848 25.0055C14.227 25.1674 14.42 25.2584 14.6212 25.2584H16.1384C16.3396 25.2584 16.5325 25.1674 16.6748 25.0055C16.817 24.8435 16.8969 24.6238 16.8969 24.3948C16.8969 24.1657 16.817 23.9461 16.6748 23.7841C16.5325 23.6221 16.3396 23.5311 16.1384 23.5311H14.6212Z" fill="#626576"/>
</svg>
