<svg width="30" height="31" viewBox="0 0 30 31" fill="none" xmlns="http://www.w3.org/2000/svg">
<path d="M6 18.0085H10.9736C12.0198 18.0085 12.543 18.0085 12.6836 18.3235C12.822 18.6385 12.4665 19.0165 11.7543 19.7725L7.66162 24.1194C6.94949 24.8754 6.59287 25.2534 6.73237 25.5684C6.87187 25.8834 7.39612 25.8834 8.44236 25.8834H12.75M6 12.3835L7.18462 9.74258M12.75 12.3835L11.5653 9.74258M21.1874 24.7584V6.75854M21.1874 24.7584C20.3999 24.7584 18.9284 22.5152 18.3749 21.9459M21.1874 24.7584C21.9749 24.7584 23.4475 22.5152 23.9999 21.9459M7.18462 9.74258L8.36924 7.10166C8.80798 6.12292 9.02623 5.63354 9.37498 5.63354C9.72373 5.63354 9.94198 6.12292 10.3807 7.10166L11.5653 9.74258M7.18462 9.74258H11.5653" stroke="#626576" stroke-width="1.5" stroke-linecap="round" stroke-linejoin="round"/>
</svg>
