<svg width="12" height="11" viewBox="0 0 12 11" fill="none" xmlns="http://www.w3.org/2000/svg">
<path d="M5.55496 0.869051C5.74075 0.506256 6.25925 0.506255 6.44504 0.86905L7.73571 3.3894C7.80987 3.53423 7.94987 3.63391 8.11099 3.65661L10.9669 4.05897C11.3826 4.11754 11.5454 4.63129 11.2394 4.91861L9.19749 6.83562C9.07429 6.95128 9.01785 7.12136 9.04746 7.28773L9.53243 10.0133C9.60468 10.4194 9.18196 10.7333 8.8141 10.5469L6.22607 9.23499C6.08396 9.16296 5.91604 9.16296 5.77393 9.23499L3.1859 10.5469C2.81804 10.7333 2.39532 10.4194 2.46757 10.0133L2.95254 7.28773C2.98215 7.12136 2.92571 6.95128 2.80251 6.83562L0.760609 4.91861C0.454574 4.63129 0.617417 4.11754 1.03308 4.05897L3.88901 3.65661C4.05013 3.63391 4.19013 3.53423 4.26429 3.3894L5.55496 0.869051Z" fill="#EBBC5D"/>
</svg>
