<svg width="70" height="3" viewBox="0 0 70 3" fill="none" xmlns="http://www.w3.org/2000/svg">
<path d="M69.8441 1.32437C69.3587 0.802396 68.6999 0.556761 67.9717 0.40324C66.5848 0.126901 65.1632 0.0347878 63.7415 0.00408346C61.1757 -0.0266209 58.6099 0.126901 56.0093 0.0961964C51.6752 0.0654921 47.3756 0.280422 43.0414 0.249718C39.7821 0.219014 36.4881 0.40324 33.2288 0.433944C31.3565 0.464648 29.4841 0.556761 27.6117 0.495353C25.4273 0.433944 23.2429 0.556761 21.0931 0.61817C18.2499 0.679578 15.4066 0.740987 12.5287 0.802396C11.2805 0.8331 10.0322 0.894509 8.784 0.894509C7.53575 0.894509 6.25283 0.925213 4.96991 0.863804C3.51362 0.8331 2.05733 0.986622 0.635719 0.802396C0.358331 0.740987 0.0809427 0.8331 0.0115956 1.07873C-0.0577515 1.26296 0.184963 1.38578 0.393004 1.44719C0.913107 1.60071 1.43321 1.78493 1.91864 1.99986C2.16135 2.09198 2.40407 2.15339 2.71613 2.21479C4.13775 2.39902 5.55936 2.42972 6.9463 2.42972C8.95737 2.42972 10.9684 2.36832 12.9795 2.30691C13.8463 2.2762 14.7132 2.42972 15.58 2.36832C15.8574 2.33761 16.1348 2.33761 16.4122 2.33761C17.5911 2.33761 18.7353 2.42972 19.9142 2.36832C21.9599 2.30691 24.0403 2.46043 26.0861 2.36832C26.1554 2.36832 26.2248 2.36832 26.2941 2.36832C27.7851 2.55254 29.2761 2.42972 30.767 2.39902C32.8821 2.33761 35.0319 2.30691 37.1469 2.21479C37.6324 2.18409 38.0831 2.36832 38.5339 2.2762C39.6088 2.09198 40.7183 2.18409 41.8279 2.12268C44.151 1.99986 46.5088 2.12268 48.8319 2.06127C49.248 2.06127 49.6641 1.99986 50.0802 2.06127C50.6696 2.12268 51.2244 2.09198 51.8138 2.03057C52.0566 1.99986 52.2646 1.99986 52.5073 2.03057C53.5128 2.03057 54.5184 2.09198 55.4892 2.06127C56.6681 2.03057 57.8124 2.12268 58.9913 2.09198C59.8928 2.06127 60.7943 2.12268 61.7305 2.15339C62.84 2.18409 63.9496 2.12268 65.0938 2.09198C66.1687 2.06127 67.2436 2.03057 68.4571 2.03057C68.8039 2.12268 69.22 1.90775 69.7054 1.87705C70.0521 1.78493 70.0868 1.60071 69.8441 1.32437Z" fill="#EBBC5D"/>
</svg>
