<svg width="172" height="6" viewBox="0 0 172 6" fill="none" xmlns="http://www.w3.org/2000/svg">
<path d="M171.077 3.22497C169.891 1.94997 168.282 1.34996 166.503 0.974965C163.115 0.299965 159.643 0.0749647 156.17 -3.52785e-05C149.903 -0.0750353 143.635 0.299965 137.283 0.224965C126.696 0.149965 116.194 0.674965 105.607 0.599965C97.6456 0.524965 89.5995 0.974965 81.6382 1.04996C77.0646 1.12496 72.4911 1.34996 67.9175 1.19996C62.5817 1.04996 57.2459 1.34996 51.9948 1.49996C45.0498 1.64996 38.1047 1.79996 31.075 1.94996C28.026 2.02496 24.9769 2.17496 21.9279 2.17496C18.8789 2.17496 15.7451 2.24996 12.6114 2.09996C9.05421 2.02496 5.497 2.39996 2.02449 1.94996C1.34693 1.79996 0.669367 2.02496 0.499976 2.62496C0.330585 3.07496 0.923453 3.37496 1.43163 3.52496C2.70206 3.89996 3.97249 4.34996 5.15822 4.87496C5.75109 5.09996 6.34396 5.24996 7.10622 5.39996C10.5787 5.84996 14.0512 5.92496 17.4391 5.92496C22.3514 5.92496 27.2637 5.77496 32.1761 5.62496C34.2934 5.54996 36.4108 5.92496 38.5282 5.77496C39.2058 5.69996 39.8833 5.69996 40.5609 5.69996C43.4405 5.69996 46.2355 5.92496 49.1151 5.77496C54.1122 5.62496 59.1939 5.99996 64.1909 5.77496C64.3603 5.77496 64.5297 5.77496 64.6991 5.77496C68.341 6.22496 71.9829 5.92496 75.6248 5.84997C80.7912 5.69997 86.0423 5.62496 91.2087 5.39996C92.3945 5.32496 93.4955 5.77496 94.5966 5.54996C97.2221 5.09997 99.9324 5.32497 102.643 5.17496C108.317 4.87496 114.077 5.17496 119.751 5.02496C120.767 5.02496 121.784 4.87496 122.8 5.02496C124.24 5.17496 125.595 5.09996 127.035 4.94996C127.628 4.87496 128.136 4.87496 128.729 4.94996C131.185 4.94996 133.641 5.09996 136.013 5.02496C138.892 4.94996 141.687 5.17496 144.567 5.09997C146.769 5.02496 148.971 5.17496 151.258 5.24996C153.968 5.32497 156.678 5.17496 159.473 5.09997C162.099 5.02496 164.724 4.94996 167.689 4.94996C168.536 5.17496 169.552 4.64996 170.738 4.57496C171.585 4.34996 171.669 3.89997 171.077 3.22497Z" fill="black"/>
</svg>
