<svg width="30" height="30" viewBox="0 0 30 30" fill="none" xmlns="http://www.w3.org/2000/svg">
<rect x="14.375" y="20.6152" width="1.25" height="3.75" rx="0.625" fill="#EBBC5D"/>
<mask id="path-2-inside-1_2192_4021" fill="white">
<path d="M24.257 10.6204L17.1741 5.11133C16.5526 4.62777 15.7875 4.36523 15 4.36523C14.2125 4.36523 13.4474 4.62777 12.8259 5.11133L5.74164 10.6204C5.3159 10.9515 4.97145 11.3755 4.7346 11.86C4.49774 12.3445 4.37475 12.8768 4.375 13.4161V22.9786C4.375 23.6831 4.65485 24.3587 5.153 24.8569C5.65114 25.355 6.32677 25.6348 7.03125 25.6348H22.9688C23.6732 25.6348 24.3489 25.355 24.847 24.8569C25.3451 24.3587 25.625 23.6831 25.625 22.9786V13.4161C25.625 12.3231 25.1203 11.2911 24.257 10.6204Z"/>
</mask>
<path d="M24.257 10.6204L23.6431 11.4097L23.6435 11.4101L24.257 10.6204ZM17.1741 5.11133L16.5601 5.90062L16.5602 5.90068L17.1741 5.11133ZM15 4.36523V3.36523V4.36523ZM12.8259 5.11133L13.4397 5.90073L13.4399 5.90062L12.8259 5.11133ZM5.74164 10.6204L5.12776 9.831L5.12776 9.831L5.74164 10.6204ZM4.7346 11.86L5.633 12.2992L4.7346 11.86ZM4.375 13.4161H5.375L5.375 13.4156L4.375 13.4161ZM24.871 9.83105L17.7881 4.32199L16.5602 5.90068L23.6431 11.4097L24.871 9.83105ZM17.7882 4.32205C16.991 3.70192 16.0099 3.36523 15 3.36523V5.36523C15.5651 5.36523 16.1141 5.55363 16.5601 5.90062L17.7882 4.32205ZM15 3.36523C13.9901 3.36523 13.009 3.70192 12.2118 4.32205L13.4399 5.90062C13.8859 5.55363 14.4349 5.36523 15 5.36523V3.36523ZM12.212 4.32193L5.12776 9.831L6.35552 11.4098L13.4397 5.90073L12.212 4.32193ZM5.12776 9.831C4.58173 10.2556 4.13997 10.7994 3.83619 11.4208L5.633 12.2992C5.80294 11.9515 6.05007 11.6473 6.35552 11.4098L5.12776 9.831ZM3.83619 11.4208C3.53242 12.0423 3.37467 12.7249 3.375 13.4166L5.375 13.4156C5.37482 13.0287 5.46306 12.6468 5.633 12.2992L3.83619 11.4208ZM3.375 13.4161V22.9786H5.375V13.4161H3.375ZM3.375 22.9786C3.375 23.9483 3.76021 24.8783 4.44589 25.564L5.86011 24.1497C5.5495 23.8391 5.375 23.4179 5.375 22.9786H3.375ZM4.44589 25.564C5.13157 26.2496 6.06155 26.6348 7.03125 26.6348V24.6348C6.59198 24.6348 6.17071 24.4604 5.86011 24.1497L4.44589 25.564ZM7.03125 26.6348H22.9688V24.6348H7.03125V26.6348ZM22.9688 26.6348C23.9384 26.6348 24.8684 26.2496 25.5541 25.564L24.1399 24.1497C23.8293 24.4604 23.408 24.6348 22.9688 24.6348V26.6348ZM25.5541 25.564C26.2398 24.8783 26.625 23.9483 26.625 22.9786H24.625C24.625 23.4179 24.4505 23.8391 24.1399 24.1497L25.5541 25.564ZM26.625 22.9786V13.4161H24.625V22.9786H26.625ZM26.625 13.4161C26.625 12.0145 25.9778 10.691 24.8706 9.83072L23.6435 11.4101C24.2628 11.8912 24.625 12.6316 24.625 13.4161H26.625Z" fill="white" mask="url(#path-2-inside-1_2192_4021)"/>
</svg>
