<svg width="30" height="30" viewBox="0 0 30 30" fill="none" xmlns="http://www.w3.org/2000/svg">
<path d="M24.257 7.98221L17.1741 2.47315C16.5526 1.98959 15.7875 1.72705 15 1.72705C14.2125 1.72705 13.4474 1.98959 12.8259 2.47315L5.74164 7.98221C5.3159 8.31329 4.97145 8.73729 4.7346 9.22182C4.49774 9.70635 4.37475 10.2386 4.375 10.7779V20.3404C4.375 21.0449 4.65485 21.7205 5.153 22.2187C5.65114 22.7168 6.32677 22.9967 7.03125 22.9967H22.9688C23.6732 22.9967 24.3489 22.7168 24.847 22.2187C25.3451 21.7205 25.625 21.0449 25.625 20.3404V10.7779C25.625 9.68487 25.1203 8.65292 24.257 7.98221Z" fill="#EBBC5D"/>
<rect x="14.375" y="17.9771" width="1.25" height="3.75" rx="0.625" fill="white"/>
<rect x="9.75" y="25.9971" width="10.5" height="2.27586" rx="1.13793" fill="white"/>
</svg>
