<svg width="30" height="30" viewBox="0 0 30 30" fill="none" xmlns="http://www.w3.org/2000/svg">
<path d="M5.60889 6.87451C5.60889 6.04609 6.28046 5.37451 7.10889 5.37451H8.10889C8.93731 5.37451 9.60889 6.04608 9.60889 6.87451V22.8745C9.60889 23.7029 8.93731 24.3745 8.10889 24.3745H7.10889C6.28046 24.3745 5.60889 23.7029 5.60889 22.8745V6.87451ZM17.0779 9.90374C16.8775 9.09992 17.3666 8.28583 18.1704 8.08541L19.1407 7.84349C19.9446 7.64307 20.7586 8.13223 20.9591 8.93605L24.346 22.5202C24.5464 23.324 24.0572 24.1381 23.2534 24.3385L22.2831 24.5804C21.4793 24.7809 20.6652 24.2917 20.4648 23.4879L17.0779 9.90374ZM11.6089 6.87451C11.6089 6.04609 12.2805 5.37451 13.1089 5.37451H14.1089C14.9373 5.37451 15.6089 6.04608 15.6089 6.87451V22.8745C15.6089 23.7029 14.9373 24.3745 14.1089 24.3745H13.1089C12.2805 24.3745 11.6089 23.7029 11.6089 22.8745V6.87451Z" stroke="white"/>
</svg>
