<svg width="30" height="30" viewBox="0 0 30 30" fill="none" xmlns="http://www.w3.org/2000/svg">
<path d="M5.10889 3.73682C5.10889 2.63225 6.00432 1.73682 7.10889 1.73682H8.10889C9.21346 1.73682 10.1089 2.63225 10.1089 3.73682V19.7368C10.1089 20.8414 9.21346 21.7368 8.10889 21.7368H7.10889C6.00432 21.7368 5.10889 20.8414 5.10889 19.7368V3.73682Z" fill="#EBBC5D"/>
<path d="M16.5927 6.887C16.3255 5.81524 16.9777 4.72979 18.0495 4.46257L19.0198 4.22065C20.0915 3.95343 21.177 4.60563 21.4442 5.67739L24.8311 19.2615C25.0983 20.3333 24.4461 21.4188 23.3744 21.686L22.4041 21.9279C21.3323 22.1951 20.2469 21.5429 19.9796 20.4711L16.5927 6.887Z" fill="#EBBC5D"/>
<path d="M11.1089 3.73682C11.1089 2.63225 12.0043 1.73682 13.1089 1.73682H14.1089C15.2135 1.73682 16.1089 2.63225 16.1089 3.73682V19.7368C16.1089 20.8414 15.2135 21.7368 14.1089 21.7368H13.1089C12.0043 21.7368 11.1089 20.8414 11.1089 19.7368V3.73682Z" fill="#EBBC5D"/>
<rect x="9.75" y="25.9873" width="10.5" height="2.27586" rx="1.13793" fill="white"/>
</svg>
