<svg width="30" height="30" viewBox="0 0 30 30" fill="none" xmlns="http://www.w3.org/2000/svg">
<path d="M10.7574 4.37113C11.8826 3.24591 13.4087 2.61377 15 2.61377C15 2.61377 16.5 2.61377 17.5 3.11377C18.8333 3.73505 21.4 5.80483 21 9.11377C21 12.709 21.7914 14.8534 22.5612 16.0889C22.8402 16.5367 22.4096 17.6138 21.882 17.6138H7.65139C7.15668 17.6138 6.82465 16.8048 7.10171 16.3949C7.9576 15.1289 9 12.74 9 8.61377C9 7.02247 9.63214 5.49635 10.7574 4.37113Z" fill="#EBBC5D"/>
<path d="M16.73 20.1138C16.5542 20.4168 16.3019 20.6684 15.9982 20.8433C15.6946 21.0182 15.3504 21.1102 15 21.1102C14.6496 21.1102 14.3054 21.0182 14.0018 20.8433C13.6982 20.6684 13.4458 20.4168 13.27 20.1138" stroke="#EBBC5D" stroke-linecap="round" stroke-linejoin="round"/>
<path d="M21.875 6.75095C23.6009 6.75095 25 5.38846 25 3.70775C25 2.02704 23.6009 0.664551 21.875 0.664551C20.1491 0.664551 18.75 2.02704 18.75 3.70775C18.75 5.38846 20.1491 6.75095 21.875 6.75095Z" fill="#F0F9F9" stroke="#090A0B" stroke-linecap="round" stroke-linejoin="round"/>
<rect x="9.75" y="25.1104" width="10.5" height="2.27586" rx="1.13793" fill="white"/>
</svg>
