<svg width="30" height="30" viewBox="0 0 30 30" fill="none" xmlns="http://www.w3.org/2000/svg">
<path d="M17.2764 6.44917L17.2763 6.44934L17.2888 6.45517C17.8892 6.73492 18.7965 7.35825 19.5003 8.29453C20.1971 9.22134 20.6852 10.4398 20.5036 11.9419C20.5012 11.9619 20.5 11.9819 20.5 12.002C20.5 15.6717 21.3084 17.912 22.1369 19.2415C22.1364 19.2408 22.1362 19.2404 22.1361 19.2404C22.1357 19.2406 22.1534 19.2786 22.1478 19.3757C22.1421 19.4748 22.1138 19.5949 22.0642 19.7113C22.0139 19.8291 21.9526 19.918 21.9 19.9695C21.8816 19.9875 21.8686 19.9971 21.8609 20.002H7.66036C7.65679 19.9999 7.65084 19.996 7.64242 19.9888C7.61392 19.9645 7.57621 19.9171 7.54567 19.8469C7.51549 19.7775 7.5011 19.7057 7.50114 19.6469C7.50119 19.587 7.51549 19.5638 7.51594 19.5632C8.43372 18.2056 9.5 15.7167 9.5 11.502C9.5 10.0433 10.0795 8.64432 11.1109 7.61287C12.1424 6.58142 13.5413 6.00195 15 6.00195L15.0017 6.00196L15.0117 6.00205C15.021 6.00215 15.0356 6.00236 15.055 6.0028C15.0939 6.00368 15.1519 6.00548 15.225 6.00914C15.3717 6.01648 15.5778 6.03119 15.813 6.06059C16.2943 6.12076 16.8525 6.23722 17.2764 6.44917ZM21.853 20.0062C21.853 20.0062 21.8535 20.006 21.8546 20.0056L21.853 20.0062ZM7.66437 20.0039C7.66438 20.0039 7.66391 20.0038 7.66297 20.0033L7.66437 20.0039Z" stroke="white" stroke-linecap="round" stroke-linejoin="round"/>
<path d="M16.73 23.502C16.5542 23.805 16.3019 24.0566 15.9982 24.2315C15.6946 24.4064 15.3504 24.4984 15 24.4984C14.6496 24.4984 14.3054 24.4064 14.0018 24.2315C13.6982 24.0566 13.4458 23.805 13.27 23.502" stroke="white" stroke-linecap="round" stroke-linejoin="round"/>
<path d="M21.875 9.75092C23.6009 9.75092 25 8.35161 25 6.62546C25 4.89932 23.6009 3.5 21.875 3.5C20.1491 3.5 18.75 4.89932 18.75 6.62546C18.75 8.35161 20.1491 9.75092 21.875 9.75092Z" fill="#C48F07" stroke="#090A0B" stroke-linecap="round" stroke-linejoin="round"/>
</svg>
